<?xml version="1.0" standalone="no"?>
 <!DOCTYPE svg PUBLIC "-//W3C//DTD SVG 1.1//EN" 
 "http://www.w3.org/Graphics/SVG/1.1/DTD/svg11.dtd"> 
<svg
  xmlns:svg="http://www.w3.org/2000/svg"
  xmlns="http://www.w3.org/2000/svg"
  xmlns:xlink="http://www.w3.org/1999/xlink"
  version="1.1"
  width="21.590000cm" height="27.940000cm" viewBox="0 0 85000 110000">
<title>SVG Picture created as PiHat-F_SilkS.svg date 2021/03/28 15:42:58 </title>
  <desc>Picture generated by PCBNEW </desc>
<g style="fill:#000000; fill-opacity:1;stroke:#000000; stroke-opacity:1;
stroke-linecap:round; stroke-linejoin:round;"
 transform="translate(0 0) scale(1 1)">
</g>
<g style="fill:#000000; fill-opacity:0.0; 
stroke:#000000; stroke-width:-0.000393701; stroke-opacity:1; 
stroke-linecap:round; stroke-linejoin:round;">
</g>
<g style="fill:#000000; fill-opacity:0.0; 
stroke:#000000; stroke-width:47.2441; stroke-opacity:1; 
stroke-linecap:round; stroke-linejoin:round;">
<path d="M14757 14396
L15151 14200
" />
<path d="M14757 14003
L14757 14396
" />
<path d="M15151 14200
L14757 14003
" />
<path d="M15820 18507
L15304 18507
" />
</g>
<g style="fill:#000000; fill-opacity:1.0; 
stroke:#000000; stroke-width:0; stroke-opacity:1; 
stroke-linecap:round; stroke-linejoin:round;">
<circle cx="15820.5" cy="18507.1" r="23.622" /> 
</g>
<g style="fill:#000000; fill-opacity:1.0; 
stroke:#000000; stroke-width:47.2441; stroke-opacity:1; 
stroke-linecap:round; stroke-linejoin:round;">
</g>
<g style="fill:#000000; fill-opacity:0.0; 
stroke:#000000; stroke-width:47.2441; stroke-opacity:1; 
stroke-linecap:round; stroke-linejoin:round;">
<path d="M15820 22739
L15820 18507
" />
<path d="M18379 22739
L15820 22739
" />
<path d="M18379 12660
L18379 22739
" />
<path d="M15820 12660
L18379 12660
" />
<path d="M15820 16892
L15820 12660
" />
<path d="M15304 16892
L15820 16892
" />
<path d="M15304 23251
L15304 12148
" />
<path d="M18895 23251
L15304 23251
" />
<path d="M18895 12148
L18895 23251
" />
<path d="M15304 12148
L18895 12148
" />
<path d="M20876 6276
L21400 6276
" />
<path d="M20876 6800
L20876 6276
" />
<path d="M21900 6276
L22923 6276
" />
<path d="M21900 7300
L21900 6276
" />
<path d="M20876 7300
L21900 7300
" />
<path d="M22923 6276
L22923 26323
" />
<path d="M20876 7300
L20876 26323
" />
<path d="M20876 26323
L22923 26323
" />
<path d="M7068 14392
L4718 14392
" />
<path d="M4718 14392
L4718 17392
" />
<path d="M4718 17392
L7068 17392
" />
<path d="M7068 17392
L7068 14392
" />
<path d="M7064 15695
L6769 15695
" />
<path d="M6769 15695
L6769 16088
" />
<path d="M6769 16088
L7064 16088
" />
<path d="M7064 16088
L7064 15695
" />
<path d="M7064 14396
L6769 14396
" />
<path d="M6769 14396
L6769 15104
" />
<path d="M6769 15104
L7064 15104
" />
<path d="M7064 15104
L7064 14396
" />
<path d="M7064 16679
L6769 16679
" />
<path d="M6769 16679
L6769 17388
" />
<path d="M6769 17388
L7064 17388
" />
<path d="M7064 17388
L7064 16679
" />
<path d="M6178 14396
L6178 14691
" />
<path d="M6178 14691
L5017 14691
" />
<path d="M5017 14691
L5017 15892
" />
<path d="M6178 17388
L6178 17092
" />
<path d="M6178 17092
L5017 17092
" />
<path d="M5017 17092
L5017 15892
" />
<path d="M7182 14770
L7182 14277
" />
<path d="M7182 14277
L6690 14277
" />
<path d="M8581 9545
L8581 5274
" />
<path d="M8581 5274
L16455 5274
" />
<path d="M16455 5274
L16455 9545
" />
<path d="M16455 9545
L8581 9545
" />
<path d="M9612 11769
L9939 11769
" />
<path d="M8565 11769
L9187 11769
" />
<path d="M9813 13029
L9939 13029
" />
<path d="M8565 13029
L8986 13029
" />
<path d="M8565 10777
L9939 10777
" />
<path d="M8565 14022
L9939 14022
" />
<path d="M9939 14022
L9939 10777
" />
<path d="M8565 14022
L8565 10777
" />
<path d="M15070 11578
L15070 10421
" />
<path d="M15070 10421
L12929 10421
" />
<path d="M12929 10421
L12929 11578
" />
<path d="M12929 11578
L15070 11578
" />
<path d="M15472 11000
L15070 11000
" />
<path d="M12527 11000
L12929 11000
" />
<path d="M14716 11578
L14716 10421
" />
<path d="M14669 11578
L14669 10421
" />
<path d="M14763 11578
L14763 10421
" />
<path d="M7182 6277
L6690 6277
" />
<path d="M7182 6770
L7182 6277
" />
<path d="M5017 9092
L5017 7892
" />
<path d="M6178 9092
L5017 9092
" />
<path d="M6178 9388
L6178 9092
" />
<path d="M5017 6691
L5017 7892
" />
<path d="M6178 6691
L5017 6691
" />
<path d="M6178 6396
L6178 6691
" />
<path d="M7064 9388
L7064 8679
" />
<path d="M6769 9388
L7064 9388
" />
<path d="M6769 8679
L6769 9388
" />
<path d="M7064 8679
L6769 8679
" />
<path d="M7064 7104
L7064 6396
" />
<path d="M6769 7104
L7064 7104
" />
<path d="M6769 6396
L6769 7104
" />
<path d="M7064 6396
L6769 6396
" />
<path d="M7064 8088
L7064 7695
" />
<path d="M6769 8088
L7064 8088
" />
<path d="M6769 7695
L6769 8088
" />
<path d="M7064 7695
L6769 7695
" />
<path d="M7068 9392
L7068 6392
" />
<path d="M4718 9392
L7068 9392
" />
<path d="M4718 6392
L4718 9392
" />
<path d="M7068 6392
L4718 6392
" />
<path d="M7068 18392
L4718 18392
" />
<path d="M4718 18392
L4718 21392
" />
<path d="M4718 21392
L7068 21392
" />
<path d="M7068 21392
L7068 18392
" />
<path d="M7064 19695
L6769 19695
" />
<path d="M6769 19695
L6769 20088
" />
<path d="M6769 20088
L7064 20088
" />
<path d="M7064 20088
L7064 19695
" />
<path d="M7064 18396
L6769 18396
" />
<path d="M6769 18396
L6769 19104
" />
<path d="M6769 19104
L7064 19104
" />
<path d="M7064 19104
L7064 18396
" />
<path d="M7064 20679
L6769 20679
" />
<path d="M6769 20679
L6769 21388
" />
<path d="M6769 21388
L7064 21388
" />
<path d="M7064 21388
L7064 20679
" />
<path d="M6178 18396
L6178 18691
" />
<path d="M6178 18691
L5017 18691
" />
<path d="M5017 18691
L5017 19892
" />
<path d="M6178 21388
L6178 21092
" />
<path d="M6178 21092
L5017 21092
" />
<path d="M5017 21092
L5017 19892
" />
<path d="M7182 18770
L7182 18277
" />
<path d="M7182 18277
L6690 18277
" />
<path d="M7182 10277
L6690 10277
" />
<path d="M7182 10770
L7182 10277
" />
<path d="M5017 13092
L5017 11892
" />
<path d="M6178 13092
L5017 13092
" />
<path d="M6178 13388
L6178 13092
" />
<path d="M5017 10691
L5017 11892
" />
<path d="M6178 10691
L5017 10691
" />
<path d="M6178 10396
L6178 10691
" />
<path d="M7064 13388
L7064 12679
" />
<path d="M6769 13388
L7064 13388
" />
<path d="M6769 12679
L6769 13388
" />
<path d="M7064 12679
L6769 12679
" />
<path d="M7064 11104
L7064 10396
" />
<path d="M6769 11104
L7064 11104
" />
<path d="M6769 10396
L6769 11104
" />
<path d="M7064 10396
L6769 10396
" />
<path d="M7064 12088
L7064 11695
" />
<path d="M6769 12088
L7064 12088
" />
<path d="M6769 11695
L6769 12088
" />
<path d="M7064 11695
L6769 11695
" />
<path d="M7068 13392
L7068 10392
" />
<path d="M4718 13392
L7068 13392
" />
<path d="M4718 10392
L4718 13392
" />
<path d="M7068 10392
L4718 10392
" />
<path d="M11200 14009
L11200 14312
" />
<path d="M11200 17190
L11200 16887
" />
<path d="M10660 14312
L10660 16887
" />
<path d="M11739 14312
L10660 14312
" />
<path d="M11739 16887
L11739 14312
" />
<path d="M10660 16887
L11739 16887
" />
</g>
<g style="fill:#000000; fill-opacity:0.0; 
stroke:#000000; stroke-width:59.0551; stroke-opacity:1; 
stroke-linecap:round; stroke-linejoin:round;">
<text x="17100" y="11995.3"
textLength="674.918" font-size="524.934" lengthAdjust="spacingAndGlyphs"
text-anchor="middle" opacity="0">J6</text>
<path d="M16968 11582
L16968 11864
L16950 11920
L16912 11957
L16856 11976
L16818 11976
" />
<path d="M17324 11582
L17249 11582
L17212 11601
L17193 11620
L17156 11676
L17137 11751
L17137 11901
L17156 11939
L17174 11957
L17212 11976
L17287 11976
L17324 11957
L17343 11939
L17362 11901
L17362 11807
L17343 11770
L17324 11751
L17287 11732
L17212 11732
L17174 11751
L17156 11770
L17137 11807
" />
<text x="21900" y="6079.53"
textLength="751.687" font-size="524.934" lengthAdjust="spacingAndGlyphs"
text-anchor="middle" opacity="0">J1</text>
<path d="M21768 5667
L21768 5948
L21750 6004
L21712 6042
L21656 6060
L21618 6060
" />
<path d="M22162 6060
L21937 6060
" />
<path d="M22049 6060
L22049 5667
L22012 5723
L21974 5760
L21937 5779
" />
<g transform="rotate(-90 7497.64 15892.1)">
<text x="7497.64" y="16089"
textLength="751.687" font-size="524.934" lengthAdjust="spacingAndGlyphs"
text-anchor="middle" opacity="0">J3</text>
</g>
<path d="M7282 16023
L7563 16023
L7619 16042
L7656 16079
L7675 16135
L7675 16173
" />
<path d="M7282 15873
L7282 15629
L7432 15760
L7432 15704
L7450 15667
L7469 15648
L7507 15629
L7600 15629
L7638 15648
L7656 15667
L7675 15704
L7675 15817
L7656 15854
L7638 15873
" />
<g transform="rotate(-90 17951.2 7419.69)">
<text x="17951.2" y="7616.54"
textLength="864.173" font-size="524.934" lengthAdjust="spacingAndGlyphs"
text-anchor="middle" opacity="0">U1</text>
</g>
<path d="M17735 7719
L18054 7719
L18091 7700
L18110 7682
L18129 7644
L18129 7569
L18110 7532
L18091 7513
L18054 7494
L17735 7494
" />
<path d="M18129 7100
L18129 7325
" />
<path d="M18129 7213
L17735 7213
L17791 7250
L17829 7288
L17848 7325
" />
<g transform="rotate(-90 8171.65 12400)">
<text x="8171.65" y="12596.9"
textLength="864.173" font-size="524.934" lengthAdjust="spacingAndGlyphs"
text-anchor="middle" opacity="0">Q1</text>
</g>
<path d="M8387 12437
L8368 12474
L8331 12512
L8274 12568
L8256 12606
L8256 12643
" />
<path d="M8349 12624
L8331 12662
L8293 12699
L8218 12718
L8087 12718
L8012 12699
L7974 12662
L7956 12624
L7956 12549
L7974 12512
L8012 12474
L8087 12456
L8218 12456
L8293 12474
L8331 12512
L8349 12549
L8349 12624
" />
<path d="M8349 12081
L8349 12306
" />
<path d="M8349 12193
L7956 12193
L8012 12231
L8049 12268
L8068 12306
" />
<text x="14000" y="12169.3"
textLength="845.426" font-size="524.934" lengthAdjust="spacingAndGlyphs"
text-anchor="middle" opacity="0">D1</text>
<path d="M13709 12150
L13709 11756
L13803 11756
L13859 11775
L13896 11813
L13915 11850
L13934 11925
L13934 11981
L13915 12056
L13896 12094
L13859 12131
L13803 12150
L13709 12150
" />
<path d="M14309 12150
L14084 12150
" />
<path d="M14196 12150
L14196 11756
L14159 11813
L14121 11850
L14084 11869
" />
<text x="16000" y="12023.6"
textLength="470.472" font-size="524.934" lengthAdjust="spacingAndGlyphs"
text-anchor="middle" opacity="0">K</text>
<path d="M15896 12004
L15896 11611
" />
<path d="M16121 12004
L15953 11779
" />
<path d="M16121 11611
L15896 11836
" />
<g transform="rotate(-90 7497.64 7892.13)">
<text x="7497.64" y="8088.98"
textLength="751.687" font-size="524.934" lengthAdjust="spacingAndGlyphs"
text-anchor="middle" opacity="0">J2</text>
</g>
<path d="M7282 8023
L7563 8023
L7619 8042
L7656 8079
L7675 8135
L7675 8173
" />
<path d="M7319 7854
L7300 7835
L7282 7798
L7282 7704
L7300 7667
L7319 7648
L7357 7629
L7394 7629
L7450 7648
L7675 7873
L7675 7629
" />
<g transform="rotate(-90 7497.64 19892.1)">
<text x="7497.64" y="20089"
textLength="751.687" font-size="524.934" lengthAdjust="spacingAndGlyphs"
text-anchor="middle" opacity="0">J4</text>
</g>
<path d="M7282 20023
L7563 20023
L7619 20042
L7656 20079
L7675 20135
L7675 20173
" />
<path d="M7413 19667
L7675 19667
" />
<path d="M7263 19760
L7544 19854
L7544 19610
" />
<g transform="rotate(-90 7497.64 11892.1)">
<text x="7497.64" y="12089"
textLength="751.687" font-size="524.934" lengthAdjust="spacingAndGlyphs"
text-anchor="middle" opacity="0">J5</text>
</g>
<path d="M7282 12023
L7563 12023
L7619 12042
L7656 12079
L7675 12135
L7675 12173
" />
<path d="M7282 11648
L7282 11835
L7469 11854
L7450 11835
L7432 11798
L7432 11704
L7450 11667
L7469 11648
L7507 11629
L7600 11629
L7638 11648
L7656 11667
L7675 11704
L7675 11798
L7656 11835
L7638 11854
" />
<g transform="rotate(-90 10266.9 15600)">
<text x="10266.9" y="15796.9"
textLength="845.426" font-size="524.934" lengthAdjust="spacingAndGlyphs"
text-anchor="middle" opacity="0">R4</text>
</g>
<path d="M10445 15665
L10257 15796
" />
<path d="M10445 15890
L10051 15890
L10051 15740
L10070 15703
L10088 15684
L10126 15665
L10182 15665
L10220 15684
L10238 15703
L10257 15740
L10257 15890
" />
<path d="M10182 15328
L10445 15328
" />
<path d="M10032 15421
L10313 15515
L10313 15271
" />
<g >
</g>
</g> 
</svg>
