<?xml version="1.0" standalone="no"?>
 <!DOCTYPE svg PUBLIC "-//W3C//DTD SVG 1.1//EN" 
 "http://www.w3.org/Graphics/SVG/1.1/DTD/svg11.dtd"> 
<svg
  xmlns:svg="http://www.w3.org/2000/svg"
  xmlns="http://www.w3.org/2000/svg"
  xmlns:xlink="http://www.w3.org/1999/xlink"
  version="1.1"
  width="21.590000cm" height="27.940000cm" viewBox="0 0 85000 110000">
<title>SVG Picture created as PiHat-B_Cu.svg date 2021/05/22 15:33:24 </title>
  <desc>Picture generated by PCBNEW </desc>
<g style="fill:#000000; fill-opacity:1;stroke:#000000; stroke-opacity:1;
stroke-linecap:round; stroke-linejoin:round;"
 transform="translate(0 0) scale(1 1)">
</g>
<g style="fill:#000000; fill-opacity:0.0; 
stroke:#000000; stroke-width:-0.000393701; stroke-opacity:1; 
stroke-linecap:round; stroke-linejoin:round;">
<g >
</g>
<g style="fill:#000000; fill-opacity:1.0; 
stroke:#000000; stroke-width:0; stroke-opacity:1; 
stroke-linecap:round; stroke-linejoin:round;">
<circle cx="22602.4" cy="22183.5" r="334.646" /> 
<path style="fill:#000000; fill-opacity:1.0; 
stroke:#000000; stroke-width:0; stroke-opacity:1; 
stroke-linecap:round; stroke-linejoin:round;fill-rule:evenodd;"
d="M 22937,23518.1
22267.7,23518.1
22267.7,22848.8
22937,22848.8
Z" /> 
</g>
<g >
</g>
<g style="fill:#000000; fill-opacity:1.0; 
stroke:#000000; stroke-width:0; stroke-opacity:1; 
stroke-linecap:round; stroke-linejoin:round;">
<circle cx="11185" cy="25313.4" r="314.961" /> 
<circle cx="11185" cy="21313.4" r="314.961" /> 
</g>
<g style="fill:#000000; fill-opacity:1.0; 
stroke:#000000; stroke-width:39.3701; stroke-opacity:1; 
stroke-linecap:round; stroke-linejoin:round;">
</g>
<g >
</g>
<g style="fill:#000000; fill-opacity:1.0; 
stroke:#000000; stroke-width:39.3701; stroke-opacity:1; 
stroke-linecap:round; stroke-linejoin:round;">
</g>
<g style="fill:#000000; fill-opacity:1.0; 
stroke:#000000; stroke-width:0; stroke-opacity:1; 
stroke-linecap:round; stroke-linejoin:round;">
<circle cx="11185" cy="18915.7" r="314.961" /> 
<circle cx="11185" cy="14915.7" r="314.961" /> 
</g>
<g style="fill:#000000; fill-opacity:1.0; 
stroke:#000000; stroke-width:39.3701; stroke-opacity:1; 
stroke-linecap:round; stroke-linejoin:round;">
</g>
<g >
</g>
<g style="fill:#000000; fill-opacity:1.0; 
stroke:#000000; stroke-width:39.3701; stroke-opacity:1; 
stroke-linecap:round; stroke-linejoin:round;">
</g>
<g style="fill:#000000; fill-opacity:1.0; 
stroke:#000000; stroke-width:669.291; stroke-opacity:1; 
stroke-linecap:round; stroke-linejoin:round;">
</g>
<g style="fill:#000000; fill-opacity:0.0; 
stroke:#000000; stroke-width:669.291; stroke-opacity:1; 
stroke-linecap:round; stroke-linejoin:round;">
<path d="M6519 22789
L6401 22789
" />
</g>
<g style="fill:#000000; fill-opacity:0.0; 
stroke:#000000; stroke-width:0; stroke-opacity:1; 
stroke-linecap:round; stroke-linejoin:round;">
</g>
<g style="fill:#000000; fill-opacity:1.0; 
stroke:#000000; stroke-width:0; stroke-opacity:1; 
stroke-linecap:round; stroke-linejoin:round;">
<path style="fill:#000000; fill-opacity:1.0; 
stroke:#000000; stroke-width:0; stroke-opacity:1; 
stroke-linecap:round; stroke-linejoin:round;fill-rule:evenodd;"
d="M 6765.55,21471.3
6775.11,21472.8
6784.48,21475.1
6793.57,21478.4
6802.3,21482.5
6810.59,21487.5
6818.35,21493.2
6825.5,21499.7
6831.99,21506.9
6837.74,21514.6
6842.71,21522.9
6846.84,21531.6
6850.09,21540.7
6852.44,21550.1
6853.86,21559.6
6854.33,21569.3
6854.33,22041.7
6853.86,22051.4
6852.44,22060.9
6850.09,22070.3
6846.84,22079.4
6842.71,22088.1
6837.74,22096.4
6831.99,22104.2
6825.5,22111.3
6818.35,22117.8
6810.59,22123.6
6802.3,22128.5
6793.57,22132.7
6784.48,22135.9
6775.11,22138.3
6765.55,22139.7
6755.91,22140.2
6165.35,22140.2
6155.71,22139.7
6146.15,22138.3
6136.78,22135.9
6127.69,22132.7
6118.96,22128.5
6110.67,22123.6
6102.91,22117.8
6095.76,22111.3
6089.27,22104.2
6083.52,22096.4
6078.55,22088.1
6074.42,22079.4
6071.17,22070.3
6068.82,22060.9
6067.4,22051.4
6066.93,22041.7
6066.93,21569.3
6067.4,21559.6
6068.82,21550.1
6071.17,21540.7
6074.42,21531.6
6078.55,21522.9
6083.52,21514.6
6089.27,21506.9
6095.76,21499.7
6102.91,21493.2
6110.67,21487.5
6118.96,21482.5
6127.69,21478.4
6136.78,21475.1
6146.15,21472.8
6155.71,21471.3
6165.35,21470.9
6755.91,21470.9
Z" /> 
</g>
<g >
</g>
<g style="fill:#000000; fill-opacity:1.0; 
stroke:#000000; stroke-width:0; stroke-opacity:1; 
stroke-linecap:round; stroke-linejoin:round;">
</g>
<g style="fill:#000000; fill-opacity:1.0; 
stroke:#000000; stroke-width:669.291; stroke-opacity:1; 
stroke-linecap:round; stroke-linejoin:round;">
</g>
<g style="fill:#000000; fill-opacity:0.0; 
stroke:#000000; stroke-width:669.291; stroke-opacity:1; 
stroke-linecap:round; stroke-linejoin:round;">
<path d="M21421 5712
L21421 5811
" />
<path d="M20437 5712
L20437 5811
" />
<path d="M19452 5712
L19452 5811
" />
<path d="M18468 5712
L18468 5811
" />
</g>
<g style="fill:#000000; fill-opacity:0.0; 
stroke:#000000; stroke-width:0; stroke-opacity:1; 
stroke-linecap:round; stroke-linejoin:round;">
</g>
<g style="fill:#000000; fill-opacity:1.0; 
stroke:#000000; stroke-width:0; stroke-opacity:1; 
stroke-linecap:round; stroke-linejoin:round;">
<path style="fill:#000000; fill-opacity:1.0; 
stroke:#000000; stroke-width:0; stroke-opacity:1; 
stroke-linecap:round; stroke-linejoin:round;fill-rule:evenodd;"
d="M 17730.1,5378.82
17739.7,5380.24
17749,5382.58
17758.1,5385.84
17766.9,5389.97
17775.2,5394.93
17782.9,5400.69
17790.1,5407.17
17796.6,5414.33
17802.3,5422.09
17807.3,5430.37
17811.4,5439.11
17814.7,5448.2
17817,5457.57
17818.4,5467.12
17818.9,5476.77
17818.9,6047.64
17818.4,6057.29
17817,6066.84
17814.7,6076.21
17811.4,6085.3
17807.3,6094.04
17802.3,6102.32
17796.6,6110.08
17790.1,6117.24
17782.9,6123.72
17775.2,6129.48
17766.9,6134.44
17758.1,6138.57
17749,6141.82
17739.7,6144.17
17730.1,6145.59
17720.5,6146.06
17248,6146.06
17238.4,6145.59
17228.8,6144.17
17219.5,6141.82
17210.4,6138.57
17201.6,6134.44
17193.3,6129.48
17185.6,6123.72
17178.4,6117.24
17171.9,6110.08
17166.2,6102.32
17161.2,6094.04
17157.1,6085.3
17153.8,6076.21
17151.5,6066.84
17150.1,6057.29
17149.6,6047.64
17149.6,5476.77
17150.1,5467.12
17151.5,5457.57
17153.8,5448.2
17157.1,5439.11
17161.2,5430.37
17166.2,5422.09
17171.9,5414.33
17178.4,5407.17
17185.6,5400.69
17193.3,5394.93
17201.6,5389.97
17210.4,5385.84
17219.5,5382.58
17228.8,5380.24
17238.4,5378.82
17248,5378.35
17720.5,5378.35
Z" /> 
</g>
<g >
</g>
<g style="fill:#000000; fill-opacity:1.0; 
stroke:#000000; stroke-width:0; stroke-opacity:1; 
stroke-linecap:round; stroke-linejoin:round;">
</g>
<g style="fill:#000000; fill-opacity:1.0; 
stroke:#000000; stroke-width:669.291; stroke-opacity:1; 
stroke-linecap:round; stroke-linejoin:round;">
</g>
<g style="fill:#000000; fill-opacity:0.0; 
stroke:#000000; stroke-width:669.291; stroke-opacity:1; 
stroke-linecap:round; stroke-linejoin:round;">
<path d="M7297 14226
L7198 14226
" />
<path d="M7297 13242
L7198 13242
" />
</g>
<g style="fill:#000000; fill-opacity:0.0; 
stroke:#000000; stroke-width:0; stroke-opacity:1; 
stroke-linecap:round; stroke-linejoin:round;">
</g>
<g style="fill:#000000; fill-opacity:1.0; 
stroke:#000000; stroke-width:0; stroke-opacity:1; 
stroke-linecap:round; stroke-linejoin:round;">
<path style="fill:#000000; fill-opacity:1.0; 
stroke:#000000; stroke-width:0; stroke-opacity:1; 
stroke-linecap:round; stroke-linejoin:round;fill-rule:evenodd;"
d="M 7543.11,11924.1
7552.67,11925.5
7562.04,11927.9
7571.13,11931.1
7579.86,11935.2
7588.15,11940.2
7595.9,11946
7603.06,11952.5
7609.55,11959.6
7615.3,11967.4
7620.27,11975.6
7624.4,11984.4
7627.65,11993.5
7630,12002.8
7631.42,12012.4
7631.89,12022
7631.89,12494.5
7631.42,12504.1
7630,12513.7
7627.65,12523.1
7624.4,12532.2
7620.27,12540.9
7615.3,12549.2
7609.55,12556.9
7603.06,12564.1
7595.9,12570.6
7588.15,12576.3
7579.86,12581.3
7571.13,12585.4
7562.04,12588.7
7552.67,12591
7543.11,12592.4
7533.46,12592.9
6962.6,12592.9
6952.95,12592.4
6943.4,12591
6934.03,12588.7
6924.93,12585.4
6916.2,12581.3
6907.92,12576.3
6900.16,12570.6
6893,12564.1
6886.51,12556.9
6880.76,12549.2
6875.8,12540.9
6871.67,12532.2
6868.41,12523.1
6866.06,12513.7
6864.65,12504.1
6864.17,12494.5
6864.17,12022
6864.65,12012.4
6866.06,12002.8
6868.41,11993.5
6871.67,11984.4
6875.8,11975.6
6880.76,11967.4
6886.51,11959.6
6893,11952.5
6900.16,11946
6907.92,11940.2
6916.2,11935.2
6924.93,11931.1
6934.03,11927.9
6943.4,11925.5
6952.95,11924.1
6962.6,11923.6
7533.46,11923.6
Z" /> 
</g>
<g >
</g>
<g style="fill:#000000; fill-opacity:1.0; 
stroke:#000000; stroke-width:0; stroke-opacity:1; 
stroke-linecap:round; stroke-linejoin:round;">
<circle cx="17303.1" cy="21593.7" r="334.646" /> 
</g>
<g style="fill:#000000; fill-opacity:1.0; 
stroke:#000000; stroke-width:39.3701; stroke-opacity:1; 
stroke-linecap:round; stroke-linejoin:round;">
</g>
<g style="fill:#000000; fill-opacity:1.0; 
stroke:#000000; stroke-width:0; stroke-opacity:1; 
stroke-linecap:round; stroke-linejoin:round;">
<circle cx="17303.1" cy="20593.7" r="334.646" /> 
</g>
<g style="fill:#000000; fill-opacity:1.0; 
stroke:#000000; stroke-width:39.3701; stroke-opacity:1; 
stroke-linecap:round; stroke-linejoin:round;">
</g>
<g style="fill:#000000; fill-opacity:1.0; 
stroke:#000000; stroke-width:0; stroke-opacity:1; 
stroke-linecap:round; stroke-linejoin:round;">
<circle cx="17303.1" cy="19593.7" r="334.646" /> 
</g>
<g style="fill:#000000; fill-opacity:1.0; 
stroke:#000000; stroke-width:39.3701; stroke-opacity:1; 
stroke-linecap:round; stroke-linejoin:round;">
</g>
<g style="fill:#000000; fill-opacity:1.0; 
stroke:#000000; stroke-width:0; stroke-opacity:1; 
stroke-linecap:round; stroke-linejoin:round;">
<circle cx="17303.1" cy="18593.7" r="334.646" /> 
</g>
<g style="fill:#000000; fill-opacity:1.0; 
stroke:#000000; stroke-width:39.3701; stroke-opacity:1; 
stroke-linecap:round; stroke-linejoin:round;">
</g>
<g style="fill:#000000; fill-opacity:1.0; 
stroke:#000000; stroke-width:0; stroke-opacity:1; 
stroke-linecap:round; stroke-linejoin:round;">
<circle cx="17303.1" cy="17593.7" r="334.646" /> 
</g>
<g style="fill:#000000; fill-opacity:1.0; 
stroke:#000000; stroke-width:39.3701; stroke-opacity:1; 
stroke-linecap:round; stroke-linejoin:round;">
</g>
<g style="fill:#000000; fill-opacity:1.0; 
stroke:#000000; stroke-width:0; stroke-opacity:1; 
stroke-linecap:round; stroke-linejoin:round;">
<circle cx="17303.1" cy="16593.7" r="334.646" /> 
</g>
<g style="fill:#000000; fill-opacity:1.0; 
stroke:#000000; stroke-width:39.3701; stroke-opacity:1; 
stroke-linecap:round; stroke-linejoin:round;">
</g>
<g style="fill:#000000; fill-opacity:1.0; 
stroke:#000000; stroke-width:0; stroke-opacity:1; 
stroke-linecap:round; stroke-linejoin:round;">
<circle cx="17303.1" cy="15593.7" r="334.646" /> 
</g>
<g style="fill:#000000; fill-opacity:1.0; 
stroke:#000000; stroke-width:39.3701; stroke-opacity:1; 
stroke-linecap:round; stroke-linejoin:round;">
</g>
<g style="fill:#000000; fill-opacity:1.0; 
stroke:#000000; stroke-width:0; stroke-opacity:1; 
stroke-linecap:round; stroke-linejoin:round;">
<circle cx="17303.1" cy="14593.7" r="334.646" /> 
</g>
<g style="fill:#000000; fill-opacity:1.0; 
stroke:#000000; stroke-width:39.3701; stroke-opacity:1; 
stroke-linecap:round; stroke-linejoin:round;">
</g>
<g style="fill:#000000; fill-opacity:1.0; 
stroke:#000000; stroke-width:0; stroke-opacity:1; 
stroke-linecap:round; stroke-linejoin:round;">
<circle cx="16303.1" cy="21593.7" r="334.646" /> 
</g>
<g style="fill:#000000; fill-opacity:1.0; 
stroke:#000000; stroke-width:39.3701; stroke-opacity:1; 
stroke-linecap:round; stroke-linejoin:round;">
</g>
<g style="fill:#000000; fill-opacity:1.0; 
stroke:#000000; stroke-width:0; stroke-opacity:1; 
stroke-linecap:round; stroke-linejoin:round;">
<circle cx="16303.1" cy="20593.7" r="334.646" /> 
</g>
<g style="fill:#000000; fill-opacity:1.0; 
stroke:#000000; stroke-width:39.3701; stroke-opacity:1; 
stroke-linecap:round; stroke-linejoin:round;">
</g>
<g style="fill:#000000; fill-opacity:1.0; 
stroke:#000000; stroke-width:0; stroke-opacity:1; 
stroke-linecap:round; stroke-linejoin:round;">
<circle cx="16303.1" cy="19593.7" r="334.646" /> 
</g>
<g style="fill:#000000; fill-opacity:1.0; 
stroke:#000000; stroke-width:39.3701; stroke-opacity:1; 
stroke-linecap:round; stroke-linejoin:round;">
</g>
<g style="fill:#000000; fill-opacity:1.0; 
stroke:#000000; stroke-width:0; stroke-opacity:1; 
stroke-linecap:round; stroke-linejoin:round;">
<circle cx="16303.1" cy="18593.7" r="334.646" /> 
</g>
<g style="fill:#000000; fill-opacity:1.0; 
stroke:#000000; stroke-width:39.3701; stroke-opacity:1; 
stroke-linecap:round; stroke-linejoin:round;">
</g>
<g style="fill:#000000; fill-opacity:1.0; 
stroke:#000000; stroke-width:0; stroke-opacity:1; 
stroke-linecap:round; stroke-linejoin:round;">
<circle cx="16303.1" cy="17593.7" r="334.646" /> 
</g>
<g style="fill:#000000; fill-opacity:1.0; 
stroke:#000000; stroke-width:39.3701; stroke-opacity:1; 
stroke-linecap:round; stroke-linejoin:round;">
</g>
<g style="fill:#000000; fill-opacity:1.0; 
stroke:#000000; stroke-width:0; stroke-opacity:1; 
stroke-linecap:round; stroke-linejoin:round;">
<circle cx="16303.1" cy="16593.7" r="334.646" /> 
</g>
<g style="fill:#000000; fill-opacity:1.0; 
stroke:#000000; stroke-width:39.3701; stroke-opacity:1; 
stroke-linecap:round; stroke-linejoin:round;">
</g>
<g style="fill:#000000; fill-opacity:1.0; 
stroke:#000000; stroke-width:0; stroke-opacity:1; 
stroke-linecap:round; stroke-linejoin:round;">
<circle cx="16303.1" cy="15593.7" r="334.646" /> 
</g>
<g style="fill:#000000; fill-opacity:1.0; 
stroke:#000000; stroke-width:39.3701; stroke-opacity:1; 
stroke-linecap:round; stroke-linejoin:round;">
</g>
<g style="fill:#000000; fill-opacity:1.0; 
stroke:#000000; stroke-width:0; stroke-opacity:1; 
stroke-linecap:round; stroke-linejoin:round;">
<path style="fill:#000000; fill-opacity:1.0; 
stroke:#000000; stroke-width:0; stroke-opacity:1; 
stroke-linecap:round; stroke-linejoin:round;fill-rule:evenodd;"
d="M 16549,14259.5
16558.6,14260.9
16567.9,14263.3
16577,14266.5
16585.8,14270.7
16594.1,14275.6
16601.8,14281.4
16609,14287.9
16615.5,14295
16621.2,14302.8
16626.2,14311.1
16630.3,14319.8
16633.6,14328.9
16635.9,14338.3
16637.3,14347.8
16637.8,14357.5
16637.8,14829.9
16637.3,14839.6
16635.9,14849.1
16633.6,14858.5
16630.3,14867.6
16626.2,14876.3
16621.2,14884.6
16615.5,14892.4
16609,14899.5
16601.8,14906
16594.1,14911.8
16585.8,14916.7
16577,14920.9
16567.9,14924.1
16558.6,14926.5
16549,14927.9
16539.4,14928.3
16066.9,14928.3
16057.3,14927.9
16047.7,14926.5
16038.4,14924.1
16029.3,14920.9
16020.5,14916.7
16012.2,14911.8
16004.5,14906
15997.3,14899.5
15990.8,14892.4
15985.1,14884.6
15980.1,14876.3
15976,14867.6
15972.7,14858.5
15970.4,14849.1
15969,14839.6
15968.5,14829.9
15968.5,14357.5
15969,14347.8
15970.4,14338.3
15972.7,14328.9
15976,14319.8
15980.1,14311.1
15985.1,14302.8
15990.8,14295
15997.3,14287.9
16004.5,14281.4
16012.2,14275.6
16020.5,14270.7
16029.3,14266.5
16038.4,14263.3
16047.7,14260.9
16057.3,14259.5
16066.9,14259.1
16539.4,14259.1
Z" /> 
</g>
<g >
</g>
<g style="fill:#000000; fill-opacity:1.0; 
stroke:#000000; stroke-width:0; stroke-opacity:1; 
stroke-linecap:round; stroke-linejoin:round;">
<circle cx="21043.3" cy="27222.8" r="334.646" /> 
<circle cx="20043.3" cy="27222.8" r="334.646" /> 
<circle cx="21043.3" cy="26222.8" r="334.646" /> 
<circle cx="20043.3" cy="26222.8" r="334.646" /> 
<circle cx="21043.3" cy="25222.8" r="334.646" /> 
<circle cx="20043.3" cy="25222.8" r="334.646" /> 
<circle cx="21043.3" cy="24222.8" r="334.646" /> 
<circle cx="20043.3" cy="24222.8" r="334.646" /> 
<circle cx="21043.3" cy="23222.8" r="334.646" /> 
<circle cx="20043.3" cy="23222.8" r="334.646" /> 
<circle cx="21043.3" cy="22222.8" r="334.646" /> 
<circle cx="20043.3" cy="22222.8" r="334.646" /> 
<circle cx="21043.3" cy="21222.8" r="334.646" /> 
<circle cx="20043.3" cy="21222.8" r="334.646" /> 
<circle cx="21043.3" cy="20222.8" r="334.646" /> 
<circle cx="20043.3" cy="20222.8" r="334.646" /> 
<circle cx="21043.3" cy="19222.8" r="334.646" /> 
<circle cx="20043.3" cy="19222.8" r="334.646" /> 
<circle cx="21043.3" cy="18222.8" r="334.646" /> 
<circle cx="20043.3" cy="18222.8" r="334.646" /> 
<circle cx="21043.3" cy="17222.8" r="334.646" /> 
<circle cx="20043.3" cy="17222.8" r="334.646" /> 
<circle cx="21043.3" cy="16222.8" r="334.646" /> 
<circle cx="20043.3" cy="16222.8" r="334.646" /> 
<circle cx="21043.3" cy="15222.8" r="334.646" /> 
<circle cx="20043.3" cy="15222.8" r="334.646" /> 
<circle cx="21043.3" cy="14222.8" r="334.646" /> 
<circle cx="20043.3" cy="14222.8" r="334.646" /> 
<circle cx="21043.3" cy="13222.8" r="334.646" /> 
<circle cx="20043.3" cy="13222.8" r="334.646" /> 
<circle cx="21043.3" cy="12222.8" r="334.646" /> 
<circle cx="20043.3" cy="12222.8" r="334.646" /> 
<circle cx="21043.3" cy="11222.8" r="334.646" /> 
<circle cx="20043.3" cy="11222.8" r="334.646" /> 
<circle cx="21043.3" cy="10222.8" r="334.646" /> 
<circle cx="20043.3" cy="10222.8" r="334.646" /> 
<circle cx="21043.3" cy="9222.83" r="334.646" /> 
<circle cx="20043.3" cy="9222.83" r="334.646" /> 
<circle cx="21043.3" cy="8222.83" r="334.646" /> 
<path style="fill:#000000; fill-opacity:1.0; 
stroke:#000000; stroke-width:0; stroke-opacity:1; 
stroke-linecap:round; stroke-linejoin:round;fill-rule:evenodd;"
d="M 19708.7,8557.48
19708.7,7888.19
20378,7888.19
20378,8557.48
Z" /> 
</g>
<g >
</g>
<g style="fill:#000000; fill-opacity:1.0; 
stroke:#000000; stroke-width:0; stroke-opacity:1; 
stroke-linecap:round; stroke-linejoin:round;">
</g>
<g style="fill:#000000; fill-opacity:1.0; 
stroke:#000000; stroke-width:669.291; stroke-opacity:1; 
stroke-linecap:round; stroke-linejoin:round;">
</g>
<g style="fill:#000000; fill-opacity:0.0; 
stroke:#000000; stroke-width:669.291; stroke-opacity:1; 
stroke-linecap:round; stroke-linejoin:round;">
<path d="M6618 18655
L6500 18655
" />
</g>
<g style="fill:#000000; fill-opacity:0.0; 
stroke:#000000; stroke-width:0; stroke-opacity:1; 
stroke-linecap:round; stroke-linejoin:round;">
</g>
<g style="fill:#000000; fill-opacity:1.0; 
stroke:#000000; stroke-width:0; stroke-opacity:1; 
stroke-linecap:round; stroke-linejoin:round;">
<path style="fill:#000000; fill-opacity:1.0; 
stroke:#000000; stroke-width:0; stroke-opacity:1; 
stroke-linecap:round; stroke-linejoin:round;fill-rule:evenodd;"
d="M 6863.98,17337.5
6873.53,17338.9
6882.9,17341.2
6892,17344.5
6900.73,17348.6
6909.01,17353.6
6916.77,17359.3
6923.93,17365.8
6930.41,17373
6936.17,17380.8
6941.13,17389
6945.26,17397.8
6948.52,17406.9
6950.86,17416.2
6952.28,17425.8
6952.76,17435.4
6952.76,17907.9
6952.28,17917.5
6950.86,17927.1
6948.52,17936.4
6945.26,17945.5
6941.13,17954.3
6936.17,17962.6
6930.41,17970.3
6923.93,17977.5
6916.77,17984
6909.01,17989.7
6900.73,17994.7
6892,17998.8
6882.9,18002.1
6873.53,18004.4
6863.98,18005.8
6854.33,18006.3
6263.78,18006.3
6254.13,18005.8
6244.58,18004.4
6235.21,18002.1
6226.11,17998.8
6217.38,17994.7
6209.1,17989.7
6201.34,17984
6194.18,17977.5
6187.7,17970.3
6181.94,17962.6
6176.98,17954.3
6172.85,17945.5
6169.59,17936.4
6167.25,17927.1
6165.83,17917.5
6165.35,17907.9
6165.35,17435.4
6165.83,17425.8
6167.25,17416.2
6169.59,17406.9
6172.85,17397.8
6176.98,17389
6181.94,17380.8
6187.7,17373
6194.18,17365.8
6201.34,17359.3
6209.1,17353.6
6217.38,17348.6
6226.11,17344.5
6235.21,17341.2
6244.58,17338.9
6254.13,17337.5
6263.78,17337
6854.33,17337
Z" /> 
</g>
<g >
</g>
<g style="fill:#000000; fill-opacity:1.0; 
stroke:#000000; stroke-width:0; stroke-opacity:1; 
stroke-linecap:round; stroke-linejoin:round;">
<path style="fill:#000000; fill-opacity:1.0; 
stroke:#000000; stroke-width:0; stroke-opacity:1; 
stroke-linecap:round; stroke-linejoin:round;fill-rule:evenodd;"
d="M 8711.95,5498.36
8726.51,5500.52
8740.79,5504.1
8754.65,5509.06
8767.95,5515.35
8780.58,5522.92
8792.4,5531.69
8803.31,5541.57
8813.2,5552.48
8821.96,5564.3
8829.53,5576.93
8835.83,5590.24
8840.79,5604.1
8844.36,5618.37
8846.52,5632.94
8847.24,5647.64
8847.24,5947.64
8846.52,5962.34
8844.36,5976.9
8840.79,5991.18
8835.83,6005.04
8829.53,6018.35
8821.96,6030.97
8813.2,6042.8
8803.31,6053.7
8792.4,6063.59
8780.58,6072.36
8767.95,6079.93
8754.65,6086.22
8740.79,6091.18
8726.51,6094.76
8711.95,6096.92
8697.24,6097.64
8397.24,6097.64
8382.54,6096.92
8367.98,6094.76
8353.7,6091.18
8339.84,6086.22
8326.53,6079.93
8313.91,6072.36
8302.09,6063.59
8291.18,6053.7
8281.29,6042.8
8272.52,6030.97
8264.96,6018.35
8258.66,6005.04
8253.7,5991.18
8250.13,5976.9
8247.97,5962.34
8247.24,5947.64
8247.24,5647.64
8247.97,5632.94
8250.13,5618.37
8253.7,5604.1
8258.66,5590.24
8264.96,5576.93
8272.52,5564.3
8281.29,5552.48
8291.18,5541.57
8302.09,5531.69
8313.91,5522.92
8326.53,5515.35
8339.84,5509.06
8353.7,5504.1
8367.98,5500.52
8382.54,5498.36
8397.24,5497.64
8697.24,5497.64
Z" /> 
<path style="fill:#000000; fill-opacity:1.0; 
stroke:#000000; stroke-width:0; stroke-opacity:1; 
stroke-linecap:round; stroke-linejoin:round;fill-rule:evenodd;"
d="M 8711.95,6498.36
8726.51,6500.52
8740.79,6504.1
8754.65,6509.06
8767.95,6515.35
8780.58,6522.92
8792.4,6531.69
8803.31,6541.57
8813.2,6552.48
8821.96,6564.3
8829.53,6576.93
8835.83,6590.24
8840.79,6604.1
8844.36,6618.37
8846.52,6632.94
8847.24,6647.64
8847.24,6947.64
8846.52,6962.34
8844.36,6976.9
8840.79,6991.18
8835.83,7005.04
8829.53,7018.35
8821.96,7030.97
8813.2,7042.8
8803.31,7053.7
8792.4,7063.59
8780.58,7072.36
8767.95,7079.93
8754.65,7086.22
8740.79,7091.18
8726.51,7094.76
8711.95,7096.92
8697.24,7097.64
8397.24,7097.64
8382.54,7096.92
8367.98,7094.76
8353.7,7091.18
8339.84,7086.22
8326.53,7079.93
8313.91,7072.36
8302.09,7063.59
8291.18,7053.7
8281.29,7042.8
8272.52,7030.97
8264.96,7018.35
8258.66,7005.04
8253.7,6991.18
8250.13,6976.9
8247.97,6962.34
8247.24,6947.64
8247.24,6647.64
8247.97,6632.94
8250.13,6618.37
8253.7,6604.1
8258.66,6590.24
8264.96,6576.93
8272.52,6564.3
8281.29,6552.48
8291.18,6541.57
8302.09,6531.69
8313.91,6522.92
8326.53,6515.35
8339.84,6509.06
8353.7,6504.1
8367.98,6500.52
8382.54,6498.36
8397.24,6497.64
8697.24,6497.64
Z" /> 
<path style="fill:#000000; fill-opacity:1.0; 
stroke:#000000; stroke-width:0; stroke-opacity:1; 
stroke-linecap:round; stroke-linejoin:round;fill-rule:evenodd;"
d="M 8711.95,7498.36
8726.51,7500.52
8740.79,7504.1
8754.65,7509.06
8767.95,7515.35
8780.58,7522.92
8792.4,7531.69
8803.31,7541.57
8813.2,7552.48
8821.96,7564.3
8829.53,7576.93
8835.83,7590.24
8840.79,7604.1
8844.36,7618.37
8846.52,7632.94
8847.24,7647.64
8847.24,7947.64
8846.52,7962.34
8844.36,7976.9
8840.79,7991.18
8835.83,8005.04
8829.53,8018.35
8821.96,8030.97
8813.2,8042.8
8803.31,8053.7
8792.4,8063.59
8780.58,8072.36
8767.95,8079.93
8754.65,8086.22
8740.79,8091.18
8726.51,8094.76
8711.95,8096.92
8697.24,8097.64
8397.24,8097.64
8382.54,8096.92
8367.98,8094.76
8353.7,8091.18
8339.84,8086.22
8326.53,8079.93
8313.91,8072.36
8302.09,8063.59
8291.18,8053.7
8281.29,8042.8
8272.52,8030.97
8264.96,8018.35
8258.66,8005.04
8253.7,7991.18
8250.13,7976.9
8247.97,7962.34
8247.24,7947.64
8247.24,7647.64
8247.97,7632.94
8250.13,7618.37
8253.7,7604.1
8258.66,7590.24
8264.96,7576.93
8272.52,7564.3
8281.29,7552.48
8291.18,7541.57
8302.09,7531.69
8313.91,7522.92
8326.53,7515.35
8339.84,7509.06
8353.7,7504.1
8367.98,7500.52
8382.54,7498.36
8397.24,7497.64
8697.24,7497.64
Z" /> 
<path style="fill:#000000; fill-opacity:1.0; 
stroke:#000000; stroke-width:0; stroke-opacity:1; 
stroke-linecap:round; stroke-linejoin:round;fill-rule:evenodd;"
d="M 8847.24,9097.64
8247.24,9097.64
8247.24,8497.64
8847.24,8497.64
Z" /> 
</g>
<g >
</g>
<g style="fill:#000000; fill-opacity:1.0; 
stroke:#000000; stroke-width:0; stroke-opacity:1; 
stroke-linecap:round; stroke-linejoin:round;">
<circle cx="12496.1" cy="13242.5" r="354.331" /> 
<circle cx="11496.1" cy="13242.5" r="354.331" /> 
<path style="fill:#000000; fill-opacity:1.0; 
stroke:#000000; stroke-width:0; stroke-opacity:1; 
stroke-linecap:round; stroke-linejoin:round;fill-rule:evenodd;"
d="M 10141.7,13596.9
10141.7,12888.2
10850.4,12888.2
10850.4,13596.9
Z" /> 
</g>
<g >
</g>
<g style="fill:#000000; fill-opacity:1.0; 
stroke:#000000; stroke-width:0; stroke-opacity:1; 
stroke-linecap:round; stroke-linejoin:round;">
<circle cx="11417.3" cy="10683.5" r="433.071" /> 
<path style="fill:#000000; fill-opacity:1.0; 
stroke:#000000; stroke-width:0; stroke-opacity:1; 
stroke-linecap:round; stroke-linejoin:round;fill-rule:evenodd;"
d="M 15850.4,10250.4
15850.4,11116.5
14984.3,11116.5
14984.3,10250.4
Z" /> 
</g>
<g >
</g>
<g style="fill:#000000; fill-opacity:1.0; 
stroke:#000000; stroke-width:0; stroke-opacity:1; 
stroke-linecap:round; stroke-linejoin:round;">
<path style="fill:#000000; fill-opacity:1.0; 
stroke:#000000; stroke-width:0; stroke-opacity:1; 
stroke-linecap:round; stroke-linejoin:round;fill-rule:evenodd;"
d="M 6700.2,6510.71
6709.75,6512.13
6719.12,6514.47
6728.22,6517.73
6736.95,6521.86
6745.23,6526.82
6752.99,6532.58
6760.15,6539.06
6766.64,6546.22
6772.39,6553.98
6777.35,6562.26
6781.48,6571
6784.74,6580.09
6787.09,6589.46
6788.5,6599.01
6788.98,6608.66
6788.98,7081.1
6788.5,7090.75
6787.09,7100.3
6784.74,7109.67
6781.48,7118.77
6777.35,7127.5
6772.39,7135.78
6766.64,7143.54
6760.15,7150.7
6752.99,7157.19
6745.23,7162.94
6736.95,7167.91
6728.22,7172.04
6719.12,7175.29
6709.75,7177.64
6700.2,7179.05
6690.55,7179.53
6100,7179.53
6090.35,7179.05
6080.8,7177.64
6071.43,7175.29
6062.33,7172.04
6053.6,7167.91
6045.32,7162.94
6037.56,7157.19
6030.4,7150.7
6023.92,7143.54
6018.16,7135.78
6013.2,7127.5
6009.07,7118.77
6005.81,7109.67
6003.47,7100.3
6002.05,7090.75
6001.57,7081.1
6001.57,6608.66
6002.05,6599.01
6003.47,6589.46
6005.81,6580.09
6009.07,6571
6013.2,6562.26
6018.16,6553.98
6023.92,6546.22
6030.4,6539.06
6037.56,6532.58
6045.32,6526.82
6053.6,6521.86
6062.33,6517.73
6071.43,6514.47
6080.8,6512.13
6090.35,6510.71
6100,6510.24
6690.55,6510.24
Z" /> 
</g>
<g style="fill:#000000; fill-opacity:1.0; 
stroke:#000000; stroke-width:669.291; stroke-opacity:1; 
stroke-linecap:round; stroke-linejoin:round;">
</g>
<g style="fill:#000000; fill-opacity:0.0; 
stroke:#000000; stroke-width:669.291; stroke-opacity:1; 
stroke-linecap:round; stroke-linejoin:round;">
<path d="M6454 7829
L6336 7829
" />
</g>
<g >
</g>
<g style="fill:#000000; fill-opacity:0.0; 
stroke:#000000; stroke-width:669.291; stroke-opacity:1; 
stroke-linecap:round; stroke-linejoin:round;">
<path d="M6519 27022
L6401 27022
" />
</g>
<g style="fill:#000000; fill-opacity:0.0; 
stroke:#000000; stroke-width:0; stroke-opacity:1; 
stroke-linecap:round; stroke-linejoin:round;">
</g>
<g style="fill:#000000; fill-opacity:1.0; 
stroke:#000000; stroke-width:0; stroke-opacity:1; 
stroke-linecap:round; stroke-linejoin:round;">
<path style="fill:#000000; fill-opacity:1.0; 
stroke:#000000; stroke-width:0; stroke-opacity:1; 
stroke-linecap:round; stroke-linejoin:round;fill-rule:evenodd;"
d="M 6765.55,25703.6
6775.11,25705
6784.48,25707.4
6793.57,25710.6
6802.3,25714.8
6810.59,25719.7
6818.35,25725.5
6825.5,25732
6831.99,25739.1
6837.74,25746.9
6842.71,25755.2
6846.84,25763.9
6850.09,25773
6852.44,25782.4
6853.86,25791.9
6854.33,25801.6
6854.33,26274
6853.86,26283.7
6852.44,26293.2
6850.09,26302.6
6846.84,26311.7
6842.71,26320.4
6837.74,26328.7
6831.99,26336.5
6825.5,26343.6
6818.35,26350.1
6810.59,26355.9
6802.3,26360.8
6793.57,26364.9
6784.48,26368.2
6775.11,26370.5
6765.55,26372
6755.91,26372.4
6165.35,26372.4
6155.71,26372
6146.15,26370.5
6136.78,26368.2
6127.69,26364.9
6118.96,26360.8
6110.67,26355.9
6102.91,26350.1
6095.76,26343.6
6089.27,26336.5
6083.52,26328.7
6078.55,26320.4
6074.42,26311.7
6071.17,26302.6
6068.82,26293.2
6067.4,26283.7
6066.93,26274
6066.93,25801.6
6067.4,25791.9
6068.82,25782.4
6071.17,25773
6074.42,25763.9
6078.55,25755.2
6083.52,25746.9
6089.27,25739.1
6095.76,25732
6102.91,25725.5
6110.67,25719.7
6118.96,25714.8
6127.69,25710.6
6136.78,25707.4
6146.15,25705
6155.71,25703.6
6165.35,25703.1
6755.91,25703.1
Z" /> 
</g>
<g >
</g>
<g style="fill:#000000; fill-opacity:1.0; 
stroke:#000000; stroke-width:0; stroke-opacity:1; 
stroke-linecap:round; stroke-linejoin:round;">
<circle cx="12858.3" cy="18951.2" r="314.961" /> 
</g>
<g style="fill:#000000; fill-opacity:1.0; 
stroke:#000000; stroke-width:39.3701; stroke-opacity:1; 
stroke-linecap:round; stroke-linejoin:round;">
</g>
<g style="fill:#000000; fill-opacity:1.0; 
stroke:#000000; stroke-width:0; stroke-opacity:1; 
stroke-linecap:round; stroke-linejoin:round;">
<circle cx="12858.3" cy="14951.2" r="314.961" /> 
</g>
<g >
</g>
<g style="fill:#000000; fill-opacity:1.0; 
stroke:#000000; stroke-width:0; stroke-opacity:1; 
stroke-linecap:round; stroke-linejoin:round;">
<circle cx="15023.6" cy="17474.8" r="157.48" /> 
</g>
<g style="fill:#000000; fill-opacity:1.0; 
stroke:#000000; stroke-width:39.3701; stroke-opacity:1; 
stroke-linecap:round; stroke-linejoin:round;">
</g>
<g style="fill:#000000; fill-opacity:1.0; 
stroke:#000000; stroke-width:0; stroke-opacity:1; 
stroke-linecap:round; stroke-linejoin:round;">
<circle cx="15023.6" cy="18655.9" r="157.48" /> 
</g>
<g style="fill:#000000; fill-opacity:1.0; 
stroke:#000000; stroke-width:39.3701; stroke-opacity:1; 
stroke-linecap:round; stroke-linejoin:round;">
</g>
<g >
</g>
<g style="fill:#000000; fill-opacity:1.0; 
stroke:#000000; stroke-width:39.3701; stroke-opacity:1; 
stroke-linecap:round; stroke-linejoin:round;">
</g>
<g style="fill:#000000; fill-opacity:1.0; 
stroke:#000000; stroke-width:590.551; stroke-opacity:1; 
stroke-linecap:round; stroke-linejoin:round;">
</g>
<g style="fill:#000000; fill-opacity:0.0; 
stroke:#000000; stroke-width:590.551; stroke-opacity:1; 
stroke-linecap:round; stroke-linejoin:round;">
<path d="M6362 22789
L4885 22789
" />
<path d="M4885 22789
L4885 18557
" />
<path d="M6460 27022
L4885 27022
" />
<path d="M4885 27022
L4885 22789
" />
<path d="M4984 18655
L4885 18557
" />
<path d="M6460 18655
L4984 18655
" />
<path d="M11185 27022
L11185 25348
" />
<path d="M11185 27022
L8921 27022
" />
<path d="M8921 27022
L6460 27022
" />
<path d="M6460 7829
L8429 7829
" />
<path d="M6362 7829
L6259 7829
" />
<path d="M10496 13144
L10496 11470
" />
<path d="M9600 10575
L4895 10575
" />
<path d="M10496 11470
L9600 10575
" />
<path d="M9019 26923
L8921 27022
" />
<path d="M9019 17179
L9019 26923
" />
<path d="M14039 17179
L9019 17179
" />
<path d="M16303 15604
L15023 15604
" />
<path d="M15023 16195
L14039 17179
" />
<path d="M15023 15604
L15023 16195
" />
<path d="M19846 27022
L20043 27218
" />
<path d="M11185 27022
L19846 27022
" />
</g>
<g style="fill:#000000; fill-opacity:0.0; 
stroke:#000000; stroke-width:787.402; stroke-opacity:1; 
stroke-linecap:round; stroke-linejoin:round;">
<path d="M20437 5762
L21421 5762
" />
</g>
<g style="fill:#000000; fill-opacity:0.0; 
stroke:#000000; stroke-width:590.551; stroke-opacity:1; 
stroke-linecap:round; stroke-linejoin:round;">
<path d="M6259 7829
L5868 8220
" />
</g>
<g style="fill:#000000; fill-opacity:0.0; 
stroke:#000000; stroke-width:787.402; stroke-opacity:1; 
stroke-linecap:round; stroke-linejoin:round;">
<path d="M20437 4876
L20437 5860
" />
<path d="M20141 4581
L20437 4876
" />
<path d="M5868 8220
L4885 7238
" />
<path d="M20141 4581
L5771 4581
" />
<path d="M5771 4581
L4885 5466
" />
<path d="M4885 7238
L4885 5466
" />
</g>
<g style="fill:#000000; fill-opacity:0.0; 
stroke:#000000; stroke-width:590.551; stroke-opacity:1; 
stroke-linecap:round; stroke-linejoin:round;">
<path d="M4895 9193
L5868 8220
" />
<path d="M4885 9203
L4895 9193
" />
<path d="M4885 18557
L4885 9203
" />
</g>
<g style="fill:#000000; fill-opacity:0.0; 
stroke:#000000; stroke-width:492.126; stroke-opacity:1; 
stroke-linecap:round; stroke-linejoin:round;">
<path d="M22602 22199
L22602 18065
" />
<path d="M22602 18065
L21716 17179
" />
<path d="M21125 17179
L21716 17179
" />
</g>
<g style="fill:#000000; fill-opacity:0.0; 
stroke:#000000; stroke-width:590.551; stroke-opacity:1; 
stroke-linecap:round; stroke-linejoin:round;">
<path d="M8133 17573
L6755 17573
" />
<path d="M8133 17573
L8133 21805
" />
<path d="M6657 21805
L6559 21903
" />
<path d="M8133 21805
L6657 21805
" />
<path d="M8133 21805
L8133 25840
" />
<path d="M8035 25939
L6460 25939
" />
<path d="M8133 25840
L8035 25939
" />
<path d="M7248 12258
L6165 12258
" />
<path d="M6165 17179
L6657 17671
" />
<path d="M6165 12258
L6165 17179
" />
<path d="M13645 16195
L14187 15653
" />
<path d="M8133 16195
L13645 16195
" />
<path d="M8133 17573
L8133 16195
" />
<path d="M14187 15653
L14187 11913
" />
<path d="M14187 11913
L15417 10683
" />
</g>
<g style="fill:#000000; fill-opacity:0.0; 
stroke:#000000; stroke-width:492.126; stroke-opacity:1; 
stroke-linecap:round; stroke-linejoin:round;">
<path d="M21027 8222
L21027 7917
" />
</g>
<g style="fill:#000000; fill-opacity:0.0; 
stroke:#000000; stroke-width:590.551; stroke-opacity:1; 
stroke-linecap:round; stroke-linejoin:round;">
<path d="M16893 9108
L15318 10683
" />
<path d="M17484 7337
L16893 7927
" />
<path d="M21027 8124
L21027 7533
" />
<path d="M20830 7337
L17484 7337
" />
<path d="M16893 7927
L16893 9108
" />
<path d="M21027 7533
L20830 7337
" />
<path d="M9610 8813
L8625 8813
" />
<path d="M11283 10486
L9610 8813
" />
<path d="M11283 10585
L11283 10486
" />
<path d="M12858 13537
L12562 13242
" />
<path d="M12858 14915
L12858 13537
" />
</g>
<g style="fill:#000000; fill-opacity:0.0; 
stroke:#000000; stroke-width:492.126; stroke-opacity:1; 
stroke-linecap:round; stroke-linejoin:round;">
<path d="M17095 20593
L17168 20520
" />
<path d="M18468 20624
L16303 20624
" />
<path d="M18468 20624
L18468 20427
" />
<path d="M19649 19246
L20043 19246
" />
<path d="M18468 20427
L19649 19246
" />
<path d="M16303 18557
L17385 18557
" />
<path d="M17287 18557
L17877 18557
" />
<path d="M19255 17179
L20043 17179
" />
<path d="M17877 18557
L19255 17179
" />
<path d="M17188 19640
L17287 19541
" />
<path d="M16303 19640
L17188 19640
" />
<path d="M17287 19541
L18074 19541
" />
<path d="M19354 18262
L20141 18262
" />
<path d="M18074 19541
L19354 18262
" />
<path d="M19944 22199
L17287 22199
" />
<path d="M17287 22199
L17287 21608
" />
<path d="M17681 17573
L20043 15211
" />
<path d="M17287 17573
L17681 17573
" />
<path d="M17385 16588
L19748 14226
" />
<path d="M17287 16588
L17385 16588
" />
<path d="M20043 14226
L19748 14226
" />
<path d="M17287 15604
L17297 15604
" />
<path d="M19944 13242
L20043 13242
" />
<path d="M17287 15604
L19649 13242
" />
<path d="M19649 13242
L20043 13242
" />
</g>
<g style="fill:#000000; fill-opacity:0.0; 
stroke:#000000; stroke-width:590.551; stroke-opacity:1; 
stroke-linecap:round; stroke-linejoin:round;">
<path d="M16303 11274
L16303 14522
" />
<path d="M18074 9502
L16303 11274
" />
<path d="M18074 8222
L18074 9502
" />
<path d="M20043 8222
L18074 8222
" />
<path d="M16303 14522
L17287 14522
" />
</g>
<g style="fill:#000000; fill-opacity:0.0; 
stroke:#000000; stroke-width:492.126; stroke-opacity:1; 
stroke-linecap:round; stroke-linejoin:round;">
<path d="M19944 23183
L16303 23183
" />
<path d="M16303 23183
L16303 21707
" />
<path d="M12956 18951
L12956 25939
" />
<path d="M12956 25939
L19157 25939
" />
<path d="M19452 26234
L20043 26234
" />
<path d="M19157 25939
L19452 26234
" />
<path d="M19452 5762
L19452 6648
" />
<path d="M19452 6648
L21716 6648
" />
<path d="M21716 6648
L22110 7041
" />
<path d="M22110 7041
L22110 10978
" />
<path d="M21814 11274
L21027 11274
" />
<path d="M22110 10978
L21814 11274
" />
</g>
<g style="fill:#000000; fill-opacity:0.0; 
stroke:#000000; stroke-width:590.551; stroke-opacity:1; 
stroke-linecap:round; stroke-linejoin:round;">
<path d="M11185 18951
L11185 21313
" />
</g>
<g style="fill:#000000; fill-opacity:0.0; 
stroke:#000000; stroke-width:492.126; stroke-opacity:1; 
stroke-linecap:round; stroke-linejoin:round;">
<path d="M11185 18951
L11185 18065
" />
<path d="M13940 24462
L13940 18065
" />
<path d="M14334 24856
L13940 24462
" />
<path d="M11185 18065
L13940 18065
" />
<path d="M14334 24856
L19157 24856
" />
<path d="M19551 25250
L20043 25250
" />
<path d="M19157 24856
L19551 25250
" />
<path d="M16204 16588
L15909 16588
" />
<path d="M15909 16588
L15023 17474
" />
</g>
<g style="fill:#000000; fill-opacity:1.0; 
stroke:#000000; stroke-width:0; stroke-opacity:1; 
stroke-linecap:round; stroke-linejoin:round;">
<circle cx="15023.6" cy="17474.8" r="246.063" /> 
</g>
<g style="fill:#000000; fill-opacity:1.0; 
stroke:#000000; stroke-width:492.126; stroke-opacity:1; 
stroke-linecap:round; stroke-linejoin:round;">
</g>
<g style="fill:#000000; fill-opacity:0.0; 
stroke:#000000; stroke-width:492.126; stroke-opacity:1; 
stroke-linecap:round; stroke-linejoin:round;">
<path d="M16204 17671
L16007 17671
" />
<path d="M16007 17671
L15023 18655
" />
</g>
<g style="fill:#000000; fill-opacity:1.0; 
stroke:#000000; stroke-width:0; stroke-opacity:1; 
stroke-linecap:round; stroke-linejoin:round;">
<circle cx="15023.6" cy="18655.9" r="246.063" /> 
</g>
<g style="fill:#000000; fill-opacity:1.0; 
stroke:#000000; stroke-width:787.402; stroke-opacity:1; 
stroke-linecap:round; stroke-linejoin:round;">
</g>
<g style="fill:#000000; fill-opacity:0.0; 
stroke:#000000; stroke-width:787.402; stroke-opacity:1; 
stroke-linecap:round; stroke-linejoin:round;">
<path d="M8625 6844
L15318 6844
" />
<path d="M18468 5762
L17484 5762
" />
<path d="M16401 5762
L15318 6844
" />
<path d="M17484 5762
L16401 5762
" />
<path d="M6362 6844
L8527 6844
" />
</g>
<g style="fill:#000000; fill-opacity:0.0; 
stroke:#000000; stroke-width:492.126; stroke-opacity:1; 
stroke-linecap:round; stroke-linejoin:round;">
<path d="M7838 14915
L7248 14325
" />
<path d="M11185 14915
L7838 14915
" />
</g>
<g style="fill:#000000; fill-opacity:0.0; 
stroke:#000000; stroke-width:590.551; stroke-opacity:1; 
stroke-linecap:round; stroke-linejoin:round;">
<path d="M11480 13675
L11027 14128
" />
<path d="M11480 13242
L11480 13675
" />
<path d="M11027 14128
L8625 14128
" />
<path d="M7740 13242
L7248 13242
" />
<path d="M8625 14128
L7740 13242
" />
</g>
<g style="fill:#000000; fill-opacity:0.0; 
stroke:#000000; stroke-width:492.126; stroke-opacity:1; 
stroke-linecap:round; stroke-linejoin:round;">
<path d="M21027 23183
L22602 23183
" />
</g>
<g >
</g>
</g> 
</svg>
