<?xml version="1.0" standalone="no"?>
 <!DOCTYPE svg PUBLIC "-//W3C//DTD SVG 1.1//EN" 
 "http://www.w3.org/Graphics/SVG/1.1/DTD/svg11.dtd"> 
<svg
  xmlns:svg="http://www.w3.org/2000/svg"
  xmlns="http://www.w3.org/2000/svg"
  xmlns:xlink="http://www.w3.org/1999/xlink"
  version="1.1"
  width="21.590000cm" height="27.940000cm" viewBox="0 0 85000 110000">
<title>SVG Picture created as PiHat-F_SilkS.svg date 2021/05/22 15:33:24 </title>
  <desc>Picture generated by PCBNEW </desc>
<g style="fill:#000000; fill-opacity:1;stroke:#000000; stroke-opacity:1;
stroke-linecap:round; stroke-linejoin:round;"
 transform="translate(0 0) scale(1 1)">
</g>
<g style="fill:#000000; fill-opacity:0.0; 
stroke:#000000; stroke-width:-0.000393701; stroke-opacity:1; 
stroke-linecap:round; stroke-linejoin:round;">
</g>
<g style="fill:#000000; fill-opacity:0.0; 
stroke:#000000; stroke-width:59.0551; stroke-opacity:1; 
stroke-linecap:round; stroke-linejoin:round;">
<text x="13350.4" y="28104.7"
textLength="2268.47" font-size="524.934" lengthAdjust="spacingAndGlyphs"
text-anchor="middle" opacity="0">Rev 2.1</text>
<path d="M12534 28085
L12403 27898
" />
<path d="M12309 28085
L12309 27692
L12459 27692
L12497 27711
L12516 27729
L12534 27767
L12534 27823
L12516 27861
L12497 27879
L12459 27898
L12309 27898
" />
<path d="M12853 28067
L12816 28085
L12741 28085
L12703 28067
L12684 28029
L12684 27879
L12703 27842
L12741 27823
L12816 27823
L12853 27842
L12872 27879
L12872 27917
L12684 27954
" />
<path d="M13003 27823
L13097 28085
L13191 27823
" />
<path d="M13622 27729
L13640 27711
L13678 27692
L13772 27692
L13809 27711
L13828 27729
L13847 27767
L13847 27804
L13828 27861
L13603 28085
L13847 28085
" />
<path d="M14015 28048
L14034 28067
L14015 28085
L13997 28067
L14015 28048
L14015 28085
" />
<path d="M14409 28085
L14184 28085
" />
<path d="M14297 28085
L14297 27692
L14259 27748
L14222 27786
L14184 27804
" />
</g>
<g style="fill:#000000; fill-opacity:0.0; 
stroke:#000000; stroke-width:47.2441; stroke-opacity:1; 
stroke-linecap:round; stroke-linejoin:round;">
<path d="M22078 23707
L22078 23183
" />
<path d="M22602 23707
L22078 23707
" />
<path d="M22078 22683
L22078 21659
" />
<path d="M23102 22683
L22078 22683
" />
<path d="M23102 23707
L23102 22683
" />
<path d="M22078 21659
L23125 21659
" />
<path d="M23102 23707
L23125 23707
" />
<path d="M23125 23707
L23125 21659
" />
<path d="M11724 22025
L10645 22025
" />
<path d="M10645 22025
L10645 24600
" />
<path d="M10645 24600
L11724 24600
" />
<path d="M11724 24600
L11724 22025
" />
<path d="M11185 21722
L11185 22025
" />
<path d="M11185 24903
L11185 24600
" />
<path d="M11724 15628
L10645 15628
" />
<path d="M10645 15628
L10645 18203
" />
<path d="M10645 18203
L11724 18203
" />
<path d="M11724 18203
L11724 15628
" />
<path d="M11185 15325
L11185 15628
" />
<path d="M11185 18506
L11185 18203
" />
<path d="M7429 20797
L5078 20797
" />
<path d="M5078 20797
L5078 23797
" />
<path d="M5078 23797
L7429 23797
" />
<path d="M7429 23797
L7429 20797
" />
<path d="M7425 22100
L7129 22100
" />
<path d="M7129 22100
L7129 22494
" />
<path d="M7129 22494
L7425 22494
" />
<path d="M7425 22494
L7425 22100
" />
<path d="M7425 20801
L7129 20801
" />
<path d="M7129 20801
L7129 21510
" />
<path d="M7129 21510
L7425 21510
" />
<path d="M7425 21510
L7425 20801
" />
<path d="M7425 23085
L7129 23085
" />
<path d="M7129 23085
L7129 23793
" />
<path d="M7129 23793
L7425 23793
" />
<path d="M7425 23793
L7425 23085
" />
<path d="M6539 20801
L6539 21096
" />
<path d="M6539 21096
L5377 21096
" />
<path d="M5377 21096
L5377 22297
" />
<path d="M6539 23793
L6539 23498
" />
<path d="M6539 23498
L5377 23498
" />
<path d="M5377 23498
L5377 22297
" />
<path d="M7543 21175
L7543 20683
" />
<path d="M7543 20683
L7051 20683
" />
<path d="M16476 4793
L16476 7144
" />
<path d="M16476 7144
L22429 7144
" />
<path d="M22429 7144
L22429 4793
" />
<path d="M22429 4793
L16476 4793
" />
<path d="M17779 4797
L17779 5092
" />
<path d="M17779 5092
L21125 5092
" />
<path d="M21125 5092
L21125 4797
" />
<path d="M21125 4797
L17779 4797
" />
<path d="M16480 4797
L16480 5092
" />
<path d="M16480 5092
L17188 5092
" />
<path d="M17188 5092
L17188 4797
" />
<path d="M17188 4797
L16480 4797
" />
<path d="M21716 4797
L21716 5092
" />
<path d="M21716 5092
L22425 5092
" />
<path d="M22425 5092
L22425 4797
" />
<path d="M22425 4797
L21716 4797
" />
<path d="M16480 5683
L16775 5683
" />
<path d="M16775 5683
L16775 6844
" />
<path d="M16775 6844
L19452 6844
" />
<path d="M22425 5683
L22129 5683
" />
<path d="M22129 5683
L22129 6844
" />
<path d="M22129 6844
L19452 6844
" />
<path d="M16854 4679
L16362 4679
" />
<path d="M16362 4679
L16362 5171
" />
<path d="M8216 11250
L5866 11250
" />
<path d="M5866 11250
L5866 15234
" />
<path d="M5866 15234
L8216 15234
" />
<path d="M8216 15234
L8216 11250
" />
<path d="M8212 12553
L7917 12553
" />
<path d="M7917 12553
L7917 13931
" />
<path d="M7917 13931
L8212 13931
" />
<path d="M8212 13931
L8212 12553
" />
<path d="M8212 11254
L7917 11254
" />
<path d="M7917 11254
L7917 11962
" />
<path d="M7917 11962
L8212 11962
" />
<path d="M8212 11962
L8212 11254
" />
<path d="M8212 14522
L7917 14522
" />
<path d="M7917 14522
L7917 15230
" />
<path d="M7917 15230
L8212 15230
" />
<path d="M8212 15230
L8212 14522
" />
<path d="M7326 11254
L7326 11549
" />
<path d="M7326 11549
L6165 11549
" />
<path d="M6165 11549
L6165 13242
" />
<path d="M7326 15230
L7326 14935
" />
<path d="M7326 14935
L6165 14935
" />
<path d="M6165 14935
L6165 13242
" />
<path d="M8330 11628
L8330 11136
" />
<path d="M8330 11136
L7838 11136
" />
<path d="M15007 12542
L18598 12542
" />
<path d="M18598 12542
L18598 23644
" />
<path d="M18598 23644
L15007 23644
" />
<path d="M15007 23644
L15007 12542
" />
<path d="M15007 17286
L15523 17286
" />
<path d="M15523 17286
L15523 13054
" />
<path d="M15523 13054
L18082 13054
" />
<path d="M18082 13054
L18082 23133
" />
<path d="M18082 23133
L15523 23133
" />
<path d="M15523 23133
L15523 18900
" />
</g>
<g style="fill:#000000; fill-opacity:1.0; 
stroke:#000000; stroke-width:0; stroke-opacity:1; 
stroke-linecap:round; stroke-linejoin:round;">
<circle cx="15523.6" cy="18900.8" r="23.622" /> 
</g>
<g style="fill:#000000; fill-opacity:1.0; 
stroke:#000000; stroke-width:47.2441; stroke-opacity:1; 
stroke-linecap:round; stroke-linejoin:round;">
</g>
<g style="fill:#000000; fill-opacity:0.0; 
stroke:#000000; stroke-width:47.2441; stroke-opacity:1; 
stroke-linecap:round; stroke-linejoin:round;">
<path d="M15523 18900
L15007 18900
" />
<path d="M14854 14593
L14460 14396
" />
<path d="M14460 14396
L14460 14790
" />
<path d="M14460 14790
L14854 14593
" />
<path d="M19519 27746
L21566 27746
" />
<path d="M19519 8722
L19519 27746
" />
<path d="M21566 7699
L21566 27746
" />
<path d="M19519 8722
L20543 8722
" />
<path d="M20543 8722
L20543 7699
" />
<path d="M20543 7699
L21566 7699
" />
<path d="M19519 8222
L19519 7699
" />
<path d="M19519 7699
L20043 7699
" />
<path d="M7641 16549
L7149 16549
" />
<path d="M7641 17041
L7641 16549
" />
<path d="M5476 19364
L5476 18163
" />
<path d="M6637 19364
L5476 19364
" />
<path d="M6637 19659
L6637 19364
" />
<path d="M5476 16962
L5476 18163
" />
<path d="M6637 16962
L5476 16962
" />
<path d="M6637 16667
L6637 16962
" />
<path d="M7523 19659
L7523 18951
" />
<path d="M7228 19659
L7523 19659
" />
<path d="M7228 18951
L7228 19659
" />
<path d="M7523 18951
L7228 18951
" />
<path d="M7523 17376
L7523 16667
" />
<path d="M7228 17376
L7523 17376
" />
<path d="M7228 16667
L7228 17376
" />
<path d="M7523 16667
L7228 16667
" />
<path d="M7523 18360
L7523 17966
" />
<path d="M7228 18360
L7523 18360
" />
<path d="M7228 17966
L7228 18360
" />
<path d="M7523 17966
L7228 17966
" />
<path d="M7527 19663
L7527 16663
" />
<path d="M5177 19663
L7527 19663
" />
<path d="M5177 16663
L5177 19663
" />
<path d="M7527 16663
L5177 16663
" />
<path d="M15732 9482
L7858 9482
" />
<path d="M15732 5211
L15732 9482
" />
<path d="M7858 5211
L15732 5211
" />
<path d="M7858 9482
L7858 5211
" />
<path d="M9874 12407
L13118 12407
" />
<path d="M9874 13781
L13118 13781
" />
<path d="M9874 12407
L9874 13781
" />
<path d="M13118 12407
L13118 13781
" />
<path d="M10866 12407
L10866 12829
" />
<path d="M10866 13655
L10866 13781
" />
<path d="M12126 12407
L12126 13029
" />
<path d="M12126 13455
L12126 13781
" />
<path d="M14181 11262
L14181 10104
" />
<path d="M14086 11262
L14086 10104
" />
<path d="M14133 11262
L14133 10104
" />
<path d="M11944 10683
L12346 10683
" />
<path d="M14889 10683
L14488 10683
" />
<path d="M12346 11262
L14488 11262
" />
<path d="M12346 10104
L12346 11262
" />
<path d="M14488 10104
L12346 10104
" />
<path d="M14488 11262
L14488 10104
" />
<path d="M7363 5837
L5013 5837
" />
<path d="M5013 5837
L5013 8837
" />
<path d="M5013 8837
L7363 8837
" />
<path d="M7363 8837
L7363 5837
" />
<path d="M7359 7140
L7064 7140
" />
<path d="M7064 7140
L7064 7533
" />
<path d="M7064 7533
L7359 7533
" />
<path d="M7359 7533
L7359 7140
" />
<path d="M7359 5840
L7064 5840
" />
<path d="M7064 5840
L7064 6549
" />
<path d="M7064 6549
L7359 6549
" />
<path d="M7359 6549
L7359 5840
" />
<path d="M7359 8124
L7064 8124
" />
<path d="M7064 8124
L7064 8833
" />
<path d="M7064 8833
L7359 8833
" />
<path d="M7359 8833
L7359 8124
" />
<path d="M6474 5840
L6474 6136
" />
<path d="M6474 6136
L5312 6136
" />
<path d="M5312 6136
L5312 7337
" />
<path d="M6474 8833
L6474 8537
" />
<path d="M6474 8537
L5312 8537
" />
<path d="M5312 8537
L5312 7337
" />
<path d="M7477 6214
L7477 5722
" />
<path d="M7477 5722
L6985 5722
" />
<path d="M7543 24915
L7051 24915
" />
<path d="M7543 25407
L7543 24915
" />
<path d="M5377 27730
L5377 26529
" />
<path d="M6539 27730
L5377 27730
" />
<path d="M6539 28025
L6539 27730
" />
<path d="M5377 25329
L5377 26529
" />
<path d="M6539 25329
L5377 25329
" />
<path d="M6539 25033
L6539 25329
" />
<path d="M7425 28025
L7425 27317
" />
<path d="M7129 28025
L7425 28025
" />
<path d="M7129 27317
L7129 28025
" />
<path d="M7425 27317
L7129 27317
" />
<path d="M7425 25742
L7425 25033
" />
<path d="M7129 25742
L7425 25742
" />
<path d="M7129 25033
L7129 25742
" />
<path d="M7425 25033
L7129 25033
" />
<path d="M7425 26726
L7425 26333
" />
<path d="M7129 26726
L7425 26726
" />
<path d="M7129 26333
L7129 26726
" />
<path d="M7425 26333
L7129 26333
" />
<path d="M7429 28029
L7429 25029
" />
<path d="M5078 28029
L7429 28029
" />
<path d="M5078 25029
L5078 28029
" />
<path d="M7429 25029
L5078 25029
" />
<path d="M12318 18238
L13397 18238
" />
<path d="M13397 18238
L13397 15663
" />
<path d="M13397 15663
L12318 15663
" />
<path d="M12318 15663
L12318 18238
" />
<path d="M12858 18541
L12858 18238
" />
<path d="M12858 15360
L12858 15663
" />
</g>
<g style="fill:#000000; fill-opacity:0.0; 
stroke:#000000; stroke-width:59.0551; stroke-opacity:1; 
stroke-linecap:round; stroke-linejoin:round;">
<g transform="rotate(-90 22208.7 24266.1)">
<text x="22208.7" y="24463"
textLength="751.687" font-size="524.934" lengthAdjust="spacingAndGlyphs"
text-anchor="middle" opacity="0">J9</text>
</g>
<path d="M21993 24397
L22274 24397
L22330 24416
L22368 24453
L22386 24509
L22386 24547
" />
<path d="M22386 24191
L22386 24116
L22368 24078
L22349 24059
L22293 24022
L22218 24003
L22068 24003
L22030 24022
L22011 24041
L21993 24078
L21993 24153
L22011 24191
L22030 24209
L22068 24228
L22161 24228
L22199 24209
L22218 24191
L22236 24153
L22236 24078
L22218 24041
L22199 24022
L22161 24003
" />
<g transform="rotate(-90 22897.6 24856.7)">
<text x="22897.6" y="25053.5"
textLength="2045.28" font-size="524.934" lengthAdjust="spacingAndGlyphs"
text-anchor="middle" opacity="0">Buzzer</text>
</g>
<path d="M22869 25615
L22888 25559
L22907 25540
L22944 25522
L23000 25522
L23038 25540
L23056 25559
L23075 25597
L23075 25747
L22682 25747
L22682 25615
L22700 25578
L22719 25559
L22757 25540
L22794 25540
L22832 25559
L22850 25578
L22869 25615
L22869 25747
" />
<path d="M22813 25184
L23075 25184
" />
<path d="M22813 25353
L23019 25353
L23056 25334
L23075 25297
L23075 25241
L23056 25203
L23038 25184
" />
<path d="M22813 25034
L22813 24828
L23075 25034
L23075 24828
" />
<path d="M22813 24716
L22813 24509
L23075 24716
L23075 24509
" />
<path d="M23056 24209
L23075 24247
L23075 24322
L23056 24359
L23019 24378
L22869 24378
L22832 24359
L22813 24322
L22813 24247
L22832 24209
L22869 24191
L22907 24191
L22944 24378
" />
<path d="M23075 24022
L22813 24022
" />
<path d="M22888 24022
L22850 24003
L22832 23984
L22813 23947
L22813 23909
" />
<g transform="rotate(-90 12110.2 23439.4)">
<text x="12110.2" y="23636.2"
textLength="845.426" font-size="524.934" lengthAdjust="spacingAndGlyphs"
text-anchor="middle" opacity="0">R2</text>
</g>
<path d="M12288 23504
L12100 23636
" />
<path d="M12288 23729
L11894 23729
L11894 23579
L11913 23542
L11932 23523
L11969 23504
L12025 23504
L12063 23523
L12082 23542
L12100 23579
L12100 23729
" />
<path d="M11932 23355
L11913 23336
L11894 23298
L11894 23205
L11913 23167
L11932 23148
L11969 23130
L12007 23130
L12063 23148
L12288 23373
L12288 23130
" />
<g transform="rotate(-90 11185 23281.9)">
<text x="11185" y="23478.7"
textLength="1220.38" font-size="524.934" lengthAdjust="spacingAndGlyphs"
text-anchor="middle" opacity="0">3K3</text>
</g>
<path d="M10969 23797
L10969 23553
L11119 23684
L11119 23628
L11138 23591
L11156 23572
L11194 23553
L11288 23553
L11325 23572
L11344 23591
L11363 23628
L11363 23741
L11344 23778
L11325 23797
" />
<path d="M11363 23385
L10969 23385
" />
<path d="M11363 23160
L11138 23328
" />
<path d="M10969 23160
L11194 23385
" />
<path d="M10969 23028
L10969 22785
L11119 22916
L11119 22860
L11138 22822
L11156 22803
L11194 22785
L11288 22785
L11325 22803
L11344 22822
L11363 22860
L11363 22972
L11344 23010
L11325 23028
" />
<g transform="rotate(-90 10299.2 16982.7)">
<text x="10299.2" y="17179.5"
textLength="845.426" font-size="524.934" lengthAdjust="spacingAndGlyphs"
text-anchor="middle" opacity="0">R1</text>
</g>
<path d="M10477 17048
L10289 17179
" />
<path d="M10477 17273
L10083 17273
L10083 17123
L10102 17085
L10121 17067
L10158 17048
L10214 17048
L10252 17067
L10271 17085
L10289 17123
L10289 17273
" />
<path d="M10477 16673
L10477 16898
" />
<path d="M10477 16785
L10083 16785
L10139 16823
L10177 16860
L10196 16898
" />
<g transform="rotate(-90 11185 16982.7)">
<text x="11185" y="17179.5"
textLength="1220.38" font-size="524.934" lengthAdjust="spacingAndGlyphs"
text-anchor="middle" opacity="0">2K2</text>
</g>
<path d="M11006 17479
L10988 17460
L10969 17423
L10969 17329
L10988 17292
L11006 17273
L11044 17254
L11081 17254
L11138 17273
L11363 17498
L11363 17254
" />
<path d="M11363 17085
L10969 17085
" />
<path d="M11363 16860
L11138 17029
" />
<path d="M10969 16860
L11194 17085
" />
<path d="M11006 16710
L10988 16692
L10969 16654
L10969 16560
L10988 16523
L11006 16504
L11044 16485
L11081 16485
L11138 16504
L11363 16729
L11363 16485
" />
<g transform="rotate(-90 7858.27 22297.6)">
<text x="7858.27" y="22494.5"
textLength="751.687" font-size="524.934" lengthAdjust="spacingAndGlyphs"
text-anchor="middle" opacity="0">J8</text>
</g>
<path d="M7642 22428
L7923 22428
L7980 22447
L8017 22485
L8036 22541
L8036 22578
" />
<path d="M7811 22185
L7792 22222
L7773 22241
L7736 22260
L7717 22260
L7680 22241
L7661 22222
L7642 22185
L7642 22110
L7661 22072
L7680 22053
L7717 22035
L7736 22035
L7773 22053
L7792 22072
L7811 22110
L7811 22185
L7830 22222
L7848 22241
L7886 22260
L7961 22260
L7998 22241
L8017 22222
L8036 22185
L8036 22110
L8017 22072
L7998 22053
L7961 22035
L7886 22035
L7848 22053
L7830 22072
L7811 22110
" />
<g transform="rotate(-90 4649.61 22297.6)">
<text x="4649.61" y="22494.5"
textLength="3113.89" font-size="524.934" lengthAdjust="spacingAndGlyphs"
text-anchor="middle" opacity="0">Pro Power</text>
</g>
<path d="M4827 23722
L4434 23722
L4434 23572
L4452 23534
L4471 23516
L4508 23497
L4565 23497
L4602 23516
L4621 23534
L4640 23572
L4640 23722
" />
<path d="M4827 23328
L4565 23328
" />
<path d="M4640 23328
L4602 23310
L4583 23291
L4565 23253
L4565 23216
" />
<path d="M4827 23028
L4808 23066
L4790 23085
L4752 23103
L4640 23103
L4602 23085
L4583 23066
L4565 23028
L4565 22972
L4583 22935
L4602 22916
L4640 22897
L4752 22897
L4790 22916
L4808 22935
L4827 22972
L4827 23028
" />
<path d="M4827 22428
L4434 22428
L4434 22278
L4452 22241
L4471 22222
L4508 22203
L4565 22203
L4602 22222
L4621 22241
L4640 22278
L4640 22428
" />
<path d="M4827 21978
L4808 22016
L4790 22035
L4752 22053
L4640 22053
L4602 22035
L4583 22016
L4565 21978
L4565 21922
L4583 21885
L4602 21866
L4640 21847
L4752 21847
L4790 21866
L4808 21885
L4827 21922
L4827 21978
" />
<path d="M4565 21716
L4827 21641
L4640 21566
L4827 21491
L4565 21416
" />
<path d="M4808 21116
L4827 21154
L4827 21229
L4808 21266
L4771 21285
L4621 21285
L4583 21266
L4565 21229
L4565 21154
L4583 21116
L4621 21097
L4658 21097
L4696 21285
" />
<path d="M4827 20929
L4565 20929
" />
<path d="M4640 20929
L4602 20910
L4583 20891
L4565 20854
L4565 20816
" />
<text x="17779.5" y="7829.13"
textLength="751.687" font-size="524.934" lengthAdjust="spacingAndGlyphs"
text-anchor="middle" opacity="0">J7</text>
<path d="M17648 7416
L17648 7697
L17629 7754
L17592 7791
L17535 7810
L17498 7810
" />
<path d="M17798 7416
L18060 7416
L17892 7810
" />
<text x="19452.8" y="4581.1"
textLength="2476.47" font-size="524.934" lengthAdjust="spacingAndGlyphs"
text-anchor="middle" opacity="0">UVPanel</text>
<path d="M18346 4168
L18346 4487
L18365 4524
L18384 4543
L18421 4562
L18496 4562
L18534 4543
L18552 4524
L18571 4487
L18571 4168
" />
<path d="M18702 4168
L18834 4562
L18965 4168
" />
<path d="M19096 4562
L19096 4168
L19246 4168
L19284 4187
L19302 4206
L19321 4243
L19321 4299
L19302 4337
L19284 4356
L19246 4374
L19096 4374
" />
<path d="M19658 4562
L19658 4356
L19640 4318
L19602 4299
L19527 4299
L19490 4318
" />
<path d="M19658 4543
L19621 4562
L19527 4562
L19490 4543
L19471 4506
L19471 4468
L19490 4431
L19527 4412
L19621 4412
L19658 4393
" />
<path d="M19846 4299
L19846 4562
" />
<path d="M19846 4337
L19865 4318
L19902 4299
L19958 4299
L19996 4318
L20015 4356
L20015 4562
" />
<path d="M20352 4543
L20315 4562
L20240 4562
L20202 4543
L20183 4506
L20183 4356
L20202 4318
L20240 4299
L20315 4299
L20352 4318
L20371 4356
L20371 4393
L20183 4431
" />
<path d="M20596 4562
L20558 4543
L20540 4506
L20540 4168
" />
<g transform="rotate(-90 8645.67 13242.5)">
<text x="8645.67" y="13439.4"
textLength="751.687" font-size="524.934" lengthAdjust="spacingAndGlyphs"
text-anchor="middle" opacity="0">J5</text>
</g>
<path d="M8430 13373
L8711 13373
L8767 13392
L8805 13429
L8823 13486
L8823 13523
" />
<path d="M8430 12998
L8430 13186
L8617 13205
L8598 13186
L8580 13148
L8580 13055
L8598 13017
L8617 12998
L8655 12980
L8748 12980
L8786 12998
L8805 13017
L8823 13055
L8823 13148
L8805 13186
L8786 13205
" />
<g transform="rotate(-90 5437.01 13242.5)">
<text x="5437.01" y="13439.4"
textLength="1276.62" font-size="524.934" lengthAdjust="spacingAndGlyphs"
text-anchor="middle" opacity="0">CNC</text>
</g>
<path d="M5577 13523
L5596 13542
L5615 13598
L5615 13636
L5596 13692
L5558 13729
L5521 13748
L5446 13767
L5390 13767
L5315 13748
L5277 13729
L5240 13692
L5221 13636
L5221 13598
L5240 13542
L5258 13523
" />
<path d="M5615 13355
L5221 13355
L5615 13130
L5221 13130
" />
<path d="M5577 12717
L5596 12736
L5615 12792
L5615 12830
L5596 12886
L5558 12923
L5521 12942
L5446 12961
L5390 12961
L5315 12942
L5277 12923
L5240 12886
L5221 12830
L5221 12792
L5240 12736
L5258 12717
" />
<text x="16803.1" y="12389"
textLength="751.687" font-size="524.934" lengthAdjust="spacingAndGlyphs"
text-anchor="middle" opacity="0">J6</text>
<path d="M16671 11976
L16671 12257
L16653 12313
L16615 12351
L16559 12370
L16521 12370
" />
<path d="M17028 11976
L16953 11976
L16915 11995
L16896 12014
L16859 12070
L16840 12145
L16840 12295
L16859 12332
L16878 12351
L16915 12370
L16990 12370
L17028 12351
L17046 12332
L17065 12295
L17065 12201
L17046 12164
L17028 12145
L16990 12126
L16915 12126
L16878 12145
L16859 12164
L16840 12201
" />
<text x="22208.7" y="19640.2"
textLength="751.687" font-size="524.934" lengthAdjust="spacingAndGlyphs"
text-anchor="middle" opacity="0">J1</text>
<path d="M22077 19227
L22077 19508
L22058 19565
L22021 19602
L21964 19621
L21927 19621
" />
<path d="M22471 19621
L22246 19621
" />
<path d="M22358 19621
L22358 19227
L22321 19283
L22283 19321
L22246 19340
" />
<g transform="rotate(-90 7956.69 18163.8)">
<text x="7956.69" y="18360.6"
textLength="751.687" font-size="524.934" lengthAdjust="spacingAndGlyphs"
text-anchor="middle" opacity="0">J3</text>
</g>
<path d="M7741 18295
L8022 18295
L8078 18313
L8116 18351
L8134 18407
L8134 18444
" />
<path d="M7741 18145
L7741 17901
L7891 18032
L7891 17976
L7909 17938
L7928 17920
L7966 17901
L8059 17901
L8097 17920
L8116 17938
L8134 17976
L8134 18088
L8116 18126
L8097 18145
" />
<g transform="rotate(-90 4748.03 18163.8)">
<text x="4748.03" y="18360.6"
textLength="3488.85" font-size="524.934" lengthAdjust="spacingAndGlyphs"
text-anchor="middle" opacity="0">HDMI board</text>
</g>
<path d="M4926 19776
L4532 19776
" />
<path d="M4719 19776
L4719 19551
" />
<path d="M4926 19551
L4532 19551
" />
<path d="M4926 19363
L4532 19363
L4532 19269
L4551 19213
L4588 19176
L4626 19157
L4701 19138
L4757 19138
L4832 19157
L4869 19176
L4907 19213
L4926 19269
L4926 19363
" />
<path d="M4926 18969
L4532 18969
L4813 18838
L4532 18707
L4926 18707
" />
<path d="M4926 18519
L4532 18519
" />
<path d="M4926 18032
L4532 18032
" />
<path d="M4682 18032
L4663 17995
L4663 17920
L4682 17882
L4701 17863
L4738 17845
L4851 17845
L4888 17863
L4907 17882
L4926 17920
L4926 17995
L4907 18032
" />
<path d="M4926 17620
L4907 17657
L4888 17676
L4851 17695
L4738 17695
L4701 17676
L4682 17657
L4663 17620
L4663 17563
L4682 17526
L4701 17507
L4738 17488
L4851 17488
L4888 17507
L4907 17526
L4926 17563
L4926 17620
" />
<path d="M4926 17151
L4719 17151
L4682 17170
L4663 17207
L4663 17282
L4682 17320
" />
<path d="M4907 17151
L4926 17188
L4926 17282
L4907 17320
L4869 17338
L4832 17338
L4794 17320
L4776 17282
L4776 17188
L4757 17151
" />
<path d="M4926 16963
L4663 16963
" />
<path d="M4738 16963
L4701 16945
L4682 16926
L4663 16888
L4663 16851
" />
<path d="M4926 16551
L4532 16551
" />
<path d="M4907 16551
L4926 16588
L4926 16663
L4907 16701
L4888 16720
L4851 16738
L4738 16738
L4701 16720
L4682 16701
L4663 16663
L4663 16588
L4682 16551
" />
<g transform="rotate(-90 16204.7 7435.43)">
<text x="16204.7" y="7632.28"
textLength="864.173" font-size="524.934" lengthAdjust="spacingAndGlyphs"
text-anchor="middle" opacity="0">U1</text>
</g>
<path d="M15989 7735
L16307 7735
L16345 7716
L16364 7697
L16382 7660
L16382 7585
L16364 7547
L16345 7529
L16307 7510
L15989 7510
" />
<path d="M16382 7116
L16382 7341
" />
<path d="M16382 7229
L15989 7229
L16045 7266
L16082 7304
L16101 7341
" />
<g transform="rotate(-90 11578.7 7337.01)">
<text x="11578.7" y="7533.86"
textLength="3807.56" font-size="524.934" lengthAdjust="spacingAndGlyphs"
text-anchor="middle" opacity="0">AMZ_3A_MOD</text>
</g>
<path d="M11644 9127
L11644 8939
" />
<path d="M11756 9164
L11363 9033
L11756 8902
" />
<path d="M11756 8771
L11363 8771
L11644 8639
L11363 8508
L11756 8508
" />
<path d="M11363 8358
L11363 8096
L11756 8358
L11756 8096
" />
<path d="M11794 8040
L11794 7740
" />
<path d="M11363 7683
L11363 7440
L11513 7571
L11513 7515
L11531 7477
L11550 7458
L11588 7440
L11681 7440
L11719 7458
L11738 7477
L11756 7515
L11756 7627
L11738 7665
L11719 7683
" />
<path d="M11644 7290
L11644 7102
" />
<path d="M11756 7327
L11363 7196
L11756 7065
" />
<path d="M11794 7027
L11794 6727
" />
<path d="M11756 6633
L11363 6633
L11644 6502
L11363 6371
L11756 6371
" />
<path d="M11363 6109
L11363 6034
L11381 5996
L11419 5959
L11494 5940
L11625 5940
L11700 5959
L11738 5996
L11756 6034
L11756 6109
L11738 6146
L11700 6184
L11625 6202
L11494 6202
L11419 6184
L11381 6146
L11363 6109
" />
<path d="M11756 5771
L11363 5771
L11363 5677
L11381 5621
L11419 5584
L11456 5565
L11531 5546
L11588 5546
L11663 5565
L11700 5584
L11738 5621
L11756 5677
L11756 5771
" />
<text x="11496.1" y="12211"
textLength="864.173" font-size="524.934" lengthAdjust="spacingAndGlyphs"
text-anchor="middle" opacity="0">Q1</text>
<path d="M11458 12229
L11421 12211
L11383 12173
L11327 12117
L11289 12098
L11252 12098
" />
<path d="M11271 12192
L11233 12173
L11196 12136
L11177 12061
L11177 11929
L11196 11854
L11233 11817
L11271 11798
L11346 11798
L11383 11817
L11421 11854
L11439 11929
L11439 12061
L11421 12136
L11383 12173
L11346 12192
L11271 12192
" />
<path d="M11814 12192
L11589 12192
" />
<path d="M11702 12192
L11702 11798
L11664 11854
L11627 11892
L11589 11911
" />
<text x="11496.1" y="14423.6"
textLength="1989.03" font-size="524.934" lengthAdjust="spacingAndGlyphs"
text-anchor="middle" opacity="0">BD139</text>
<path d="M10764 14198
L10821 14217
L10839 14236
L10858 14273
L10858 14329
L10839 14367
L10821 14386
L10783 14404
L10633 14404
L10633 14011
L10764 14011
L10802 14029
L10821 14048
L10839 14086
L10839 14123
L10821 14161
L10802 14179
L10764 14198
L10633 14198
" />
<path d="M11027 14404
L11027 14011
L11121 14011
L11177 14029
L11214 14067
L11233 14104
L11252 14179
L11252 14236
L11233 14311
L11214 14348
L11177 14386
L11121 14404
L11027 14404
" />
<path d="M11627 14404
L11402 14404
" />
<path d="M11514 14404
L11514 14011
L11477 14067
L11439 14104
L11402 14123
" />
<path d="M11758 14011
L12002 14011
L11871 14161
L11927 14161
L11964 14179
L11983 14198
L12002 14236
L12002 14329
L11983 14367
L11964 14386
L11927 14404
L11814 14404
L11777 14386
L11758 14367
" />
<path d="M12189 14404
L12264 14404
L12302 14386
L12320 14367
L12358 14311
L12377 14236
L12377 14086
L12358 14048
L12339 14029
L12302 14011
L12227 14011
L12189 14029
L12170 14048
L12152 14086
L12152 14179
L12170 14217
L12189 14236
L12227 14254
L12302 14254
L12339 14236
L12358 14217
L12377 14179
" />
<text x="13417.3" y="11852.8"
textLength="845.426" font-size="524.934" lengthAdjust="spacingAndGlyphs"
text-anchor="middle" opacity="0">D1</text>
<path d="M13126 11834
L13126 11440
L13220 11440
L13276 11459
L13314 11496
L13332 11534
L13351 11609
L13351 11665
L13332 11740
L13314 11777
L13276 11815
L13220 11834
L13126 11834
" />
<path d="M13726 11834
L13501 11834
" />
<path d="M13614 11834
L13614 11440
L13576 11496
L13539 11534
L13501 11552
" />
<text x="13350.4" y="10880.3"
textLength="2363.99" font-size="524.934" lengthAdjust="spacingAndGlyphs"
text-anchor="middle" opacity="0">1N4001</text>
<path d="M12506 10861
L12281 10861
" />
<path d="M12394 10861
L12394 10467
L12356 10524
L12319 10561
L12281 10580
" />
<path d="M12675 10861
L12675 10467
L12900 10861
L12900 10467
" />
<path d="M13256 10599
L13256 10861
" />
<path d="M13162 10449
L13069 10730
L13312 10730
" />
<path d="M13537 10467
L13575 10467
L13612 10486
L13631 10505
L13650 10542
L13669 10617
L13669 10711
L13650 10786
L13631 10824
L13612 10842
L13575 10861
L13537 10861
L13500 10842
L13481 10824
L13462 10786
L13444 10711
L13444 10617
L13462 10542
L13481 10505
L13500 10486
L13537 10467
" />
<path d="M13912 10467
L13950 10467
L13987 10486
L14006 10505
L14025 10542
L14044 10617
L14044 10711
L14025 10786
L14006 10824
L13987 10842
L13950 10861
L13912 10861
L13875 10842
L13856 10824
L13837 10786
L13819 10711
L13819 10617
L13837 10542
L13856 10505
L13875 10486
L13912 10467
" />
<path d="M14419 10861
L14194 10861
" />
<path d="M14306 10861
L14306 10467
L14269 10524
L14231 10561
L14194 10580
" />
<text x="15417.3" y="11707.1"
textLength="470.472" font-size="524.934" lengthAdjust="spacingAndGlyphs"
text-anchor="middle" opacity="0">K</text>
<path d="M15314 11688
L15314 11294
" />
<path d="M15539 11688
L15370 11463
" />
<path d="M15539 11294
L15314 11519
" />
<g transform="rotate(-90 7792.91 7337.01)">
<text x="7792.91" y="7533.86"
textLength="751.687" font-size="524.934" lengthAdjust="spacingAndGlyphs"
text-anchor="middle" opacity="0">J2</text>
</g>
<path d="M7577 7468
L7858 7468
L7914 7486
L7952 7524
L7971 7580
L7971 7618
" />
<path d="M7614 7299
L7596 7280
L7577 7243
L7577 7149
L7596 7112
L7614 7093
L7652 7074
L7689 7074
L7746 7093
L7971 7318
L7971 7074
" />
<g transform="rotate(-90 4584.25 7337.01)">
<text x="4584.25" y="7533.86"
textLength="1820.3" font-size="524.934" lengthAdjust="spacingAndGlyphs"
text-anchor="middle" opacity="0">Power</text>
</g>
<path d="M4762 8115
L4368 8115
L4368 7965
L4387 7927
L4406 7908
L4443 7890
L4499 7890
L4537 7908
L4556 7927
L4574 7965
L4574 8115
" />
<path d="M4762 7665
L4743 7702
L4724 7721
L4687 7740
L4574 7740
L4537 7721
L4518 7702
L4499 7665
L4499 7608
L4518 7571
L4537 7552
L4574 7533
L4687 7533
L4724 7552
L4743 7571
L4762 7608
L4762 7665
" />
<path d="M4499 7402
L4762 7327
L4574 7252
L4762 7177
L4499 7102
" />
<path d="M4743 6802
L4762 6840
L4762 6915
L4743 6952
L4706 6971
L4556 6971
L4518 6952
L4499 6915
L4499 6840
L4518 6802
L4556 6783
L4593 6783
L4631 6971
" />
<path d="M4762 6615
L4499 6615
" />
<path d="M4574 6615
L4537 6596
L4518 6577
L4499 6540
L4499 6502
" />
<g transform="rotate(-90 7858.27 26529.9)">
<text x="7858.27" y="26726.8"
textLength="751.687" font-size="524.934" lengthAdjust="spacingAndGlyphs"
text-anchor="middle" opacity="0">J4</text>
</g>
<path d="M7642 26661
L7923 26661
L7980 26679
L8017 26717
L8036 26773
L8036 26811
" />
<path d="M7773 26304
L8036 26304
" />
<path d="M7623 26398
L7905 26492
L7905 26248
" />
<g transform="rotate(-90 4649.61 26529.9)">
<text x="4649.61" y="26726.8"
textLength="1126.64" font-size="524.934" lengthAdjust="spacingAndGlyphs"
text-anchor="middle" opacity="0">Fan</text>
</g>
<path d="M4621 26829
L4621 26961
" />
<path d="M4827 26961
L4434 26961
L4434 26773
" />
<path d="M4827 26454
L4621 26454
L4583 26473
L4565 26511
L4565 26586
L4583 26623
" />
<path d="M4808 26454
L4827 26492
L4827 26586
L4808 26623
L4771 26642
L4733 26642
L4696 26623
L4677 26586
L4677 26492
L4658 26454
" />
<path d="M4565 26267
L4827 26267
" />
<path d="M4602 26267
L4583 26248
L4565 26211
L4565 26154
L4583 26117
L4621 26098
L4827 26098
" />
<g transform="rotate(-90 13744.1 17081.1)">
<text x="13744.1" y="17278"
textLength="845.426" font-size="524.934" lengthAdjust="spacingAndGlyphs"
text-anchor="middle" opacity="0">R3</text>
</g>
<path d="M13922 17146
L13734 17277
" />
<path d="M13922 17371
L13528 17371
L13528 17221
L13547 17184
L13565 17165
L13603 17146
L13659 17146
L13697 17165
L13715 17184
L13734 17221
L13734 17371
" />
<path d="M13528 17015
L13528 16771
L13678 16902
L13678 16846
L13697 16809
L13715 16790
L13753 16771
L13847 16771
L13884 16790
L13903 16809
L13922 16846
L13922 16959
L13903 16996
L13884 17015
" />
<g transform="rotate(-90 12858.3 16982.7)">
<text x="12858.3" y="17179.5"
textLength="770.435" font-size="524.934" lengthAdjust="spacingAndGlyphs"
text-anchor="middle" opacity="0">1k</text>
</g>
<path d="M13036 17029
L13036 17254
" />
<path d="M13036 17142
L12642 17142
L12698 17179
L12736 17217
L12755 17254
" />
<path d="M13036 16860
L12642 16860
" />
<path d="M12886 16823
L13036 16710
" />
<path d="M12773 16710
L12923 16860
" />
<g >
</g>
</g> 
</svg>
