M48
; DRILL file {KiCad (5.1.8-0-10_14)} date Sunday, July 25, 2021 at 01:55:16 PM
; FORMAT={-:-/ absolute / metric / decimal}
; #@! TF.CreationDate,2021-07-25T13:55:16-04:00
; #@! TF.GenerationSoftware,Kicad,Pcbnew,(5.1.8-0-10_14)
FMAT,2
METRIC
T1C0.400
T2C0.762
T3C0.800
T4C0.950
T5C1.000
T6C1.100
%
G90
G05
T1
X22.25Y27.75
X22.25Y24.75
T2
X38.70Y57.41
X38.70Y54.87
X38.70Y52.33
X38.70Y49.79
T3
X27.75Y34.16
X27.75Y24.00
X32.00Y18.00
X32.00Y7.84
X32.00Y34.25
X32.00Y24.09
T4
X42.00Y41.00
X42.00Y38.50
X42.00Y36.00
X16.00Y57.50
X13.50Y57.50
X11.00Y57.50
X8.50Y57.50
X6.00Y57.50
T5
X44.00Y16.75
X44.00Y14.25
X33.75Y38.50
X31.21Y38.50
X28.67Y38.50
X3.00Y15.79
X3.00Y13.25
X9.50Y51.25
X9.50Y48.71
X9.50Y46.17
X9.50Y43.63
X9.50Y41.09
X9.50Y38.55
X9.50Y36.01
X9.50Y33.47
X9.50Y30.93
X9.50Y28.39
X9.50Y25.85
X9.50Y23.31
X9.50Y20.77
X9.50Y18.23
X9.50Y15.69
X9.50Y13.15
X9.50Y10.61
X9.50Y8.07
X9.50Y5.53
X9.50Y2.99
X6.96Y51.25
X6.96Y48.71
X6.96Y46.17
X6.96Y43.63
X6.96Y41.09
X6.96Y38.55
X6.96Y36.01
X6.96Y33.47
X6.96Y30.93
X6.96Y28.39
X6.96Y25.85
X6.96Y23.31
X6.96Y20.77
X6.96Y18.23
X6.96Y15.69
X6.96Y13.15
X6.96Y10.61
X6.96Y8.07
X6.96Y5.53
X6.96Y2.99
X19.00Y35.07
X19.00Y32.53
X19.00Y29.99
X19.00Y27.45
X19.00Y24.91
X19.00Y22.37
X19.00Y19.83
X19.00Y17.29
X16.46Y35.07
X16.46Y32.53
X16.46Y29.99
X16.46Y27.45
X16.46Y24.91
X16.46Y22.37
X16.46Y19.83
X16.46Y17.29
X43.75Y27.25
X43.75Y24.75
X44.00Y6.00
X44.00Y3.50
X44.17Y54.75
X44.17Y52.25
T6
X31.41Y45.00
X21.25Y45.00
T0
M30
