M48
; DRILL file {KiCad (5.1.8-0-10_14)} date Sunday, July 25, 2021 at 01:55:16 PM
; FORMAT={-:-/ absolute / metric / decimal}
; #@! TF.CreationDate,2021-07-25T13:55:16-04:00
; #@! TF.GenerationSoftware,Kicad,Pcbnew,(5.1.8-0-10_14)
FMAT,2
METRIC
T1C0.400
T2C0.762
T3C0.800
T4C0.950
T5C1.000
T6C1.100
%
G90
G05
T1
X28.00Y27.75
X28.00Y24.75
T2
X11.55Y57.41
X11.55Y54.87
X11.55Y52.33
X11.55Y49.79
T3
X22.50Y34.16
X22.50Y24.00
X18.25Y18.00
X18.25Y7.84
X18.25Y34.25
X18.25Y24.09
T4
X8.25Y41.00
X8.25Y38.50
X8.25Y36.00
X34.25Y57.50
X36.75Y57.50
X39.25Y57.50
X41.75Y57.50
X44.25Y57.50
T5
X6.25Y16.75
X6.25Y14.25
X16.50Y38.50
X19.04Y38.50
X21.58Y38.50
X47.25Y15.79
X47.25Y13.25
X40.75Y51.25
X40.75Y48.71
X40.75Y46.17
X40.75Y43.63
X40.75Y41.09
X40.75Y38.55
X40.75Y36.01
X40.75Y33.47
X40.75Y30.93
X40.75Y28.39
X40.75Y25.85
X40.75Y23.31
X40.75Y20.77
X40.75Y18.23
X40.75Y15.69
X40.75Y13.15
X40.75Y10.61
X40.75Y8.07
X40.75Y5.53
X40.75Y2.99
X43.29Y51.25
X43.29Y48.71
X43.29Y46.17
X43.29Y43.63
X43.29Y41.09
X43.29Y38.55
X43.29Y36.01
X43.29Y33.47
X43.29Y30.93
X43.29Y28.39
X43.29Y25.85
X43.29Y23.31
X43.29Y20.77
X43.29Y18.23
X43.29Y15.69
X43.29Y13.15
X43.29Y10.61
X43.29Y8.07
X43.29Y5.53
X43.29Y2.99
X31.25Y35.07
X31.25Y32.53
X31.25Y29.99
X31.25Y27.45
X31.25Y24.91
X31.25Y22.37
X31.25Y19.83
X31.25Y17.29
X33.79Y35.07
X33.79Y32.53
X33.79Y29.99
X33.79Y27.45
X33.79Y24.91
X33.79Y22.37
X33.79Y19.83
X33.79Y17.29
X6.50Y27.25
X6.50Y24.75
X6.25Y6.00
X6.25Y3.50
X6.08Y54.75
X6.08Y52.25
T6
X18.84Y45.00
X29.00Y45.00
T0
M30
