M48
; DRILL file {KiCad (5.1.8-0-10_14)} date Sunday, July 25, 2021 at 01:55:16 PM
; FORMAT={-:-/ absolute / metric / decimal}
; #@! TF.CreationDate,2021-07-25T13:55:16-04:00
; #@! TF.GenerationSoftware,Kicad,Pcbnew,(5.1.8-0-10_14)
FMAT,2
METRIC
T1C0.400
T2C0.762
T3C0.800
T4C0.950
T5C1.000
T6C1.100
%
G90
G05
T1
X46.01Y33.25
X43.01Y33.25
T2
X75.66Y16.80
X73.13Y16.80
X70.59Y16.80
X68.05Y16.80
T3
X52.41Y27.75
X42.26Y27.75
X36.26Y23.50
X26.10Y23.50
X52.51Y23.50
X42.34Y23.50
T4
X59.26Y13.50
X56.76Y13.50
X54.26Y13.50
X75.75Y39.50
X75.75Y42.00
X75.75Y44.50
X75.75Y47.00
X75.75Y49.50
T5
X35.01Y11.50
X32.51Y11.50
X56.76Y21.75
X56.76Y24.29
X56.76Y26.83
X34.05Y52.50
X31.51Y52.50
X69.50Y46.00
X66.97Y46.00
X64.43Y46.00
X61.89Y46.00
X59.35Y46.00
X56.80Y46.00
X54.27Y46.00
X51.73Y46.00
X49.19Y46.00
X46.65Y46.00
X44.11Y46.00
X41.56Y46.00
X39.03Y46.00
X36.48Y46.00
X33.95Y46.00
X31.41Y46.00
X28.87Y46.00
X26.33Y46.00
X23.79Y46.00
X21.25Y46.00
X69.50Y48.54
X66.97Y48.54
X64.43Y48.54
X61.89Y48.54
X59.35Y48.54
X56.80Y48.54
X54.27Y48.54
X51.73Y48.54
X49.19Y48.54
X46.65Y48.54
X44.11Y48.54
X41.56Y48.54
X39.03Y48.54
X36.48Y48.54
X33.95Y48.54
X31.41Y48.54
X28.87Y48.54
X26.33Y48.54
X23.79Y48.54
X21.25Y48.54
X53.33Y36.50
X50.79Y36.50
X48.25Y36.50
X45.70Y36.50
X43.17Y36.50
X40.63Y36.50
X38.09Y36.50
X35.55Y36.50
X53.33Y39.04
X50.79Y39.04
X48.25Y39.04
X45.70Y39.04
X43.17Y39.04
X40.63Y39.04
X38.09Y39.04
X35.55Y39.04
X45.51Y11.75
X43.01Y11.75
X24.26Y11.50
X21.76Y11.50
X73.00Y11.33
X70.50Y11.33
T6
X63.26Y24.09
X63.26Y34.25
T0
M30
