M48
; DRILL file {KiCad (5.1.8-0-10_14)} date Sunday, July 25, 2021 at 01:55:16 PM
; FORMAT={-:-/ absolute / metric / decimal}
; #@! TF.CreationDate,2021-07-25T13:55:16-04:00
; #@! TF.GenerationSoftware,Kicad,Pcbnew,(5.1.8-0-10_14)
FMAT,2
METRIC
T1C0.400
T2C0.762
T3C0.800
T4C0.950
T5C1.000
T6C1.100
%
G90
G05
T1
X27.75Y21.50
X24.75Y21.50
T2
X57.41Y37.95
X54.87Y37.95
X52.33Y37.95
X49.79Y37.95
T3
X34.16Y27.00
X24.00Y27.00
X18.00Y31.25
X7.84Y31.25
X34.25Y31.25
X24.09Y31.25
T4
X41.00Y41.25
X38.50Y41.25
X36.00Y41.25
X57.50Y15.25
X57.50Y12.75
X57.50Y10.25
X57.50Y7.75
X57.50Y5.25
T5
X16.75Y43.25
X14.25Y43.25
X38.50Y33.00
X38.50Y30.46
X38.50Y27.92
X15.79Y2.25
X13.25Y2.25
X51.25Y8.75
X48.71Y8.75
X46.17Y8.75
X43.63Y8.75
X41.09Y8.75
X38.55Y8.75
X36.01Y8.75
X33.47Y8.75
X30.93Y8.75
X28.39Y8.75
X25.85Y8.75
X23.31Y8.75
X20.77Y8.75
X18.23Y8.75
X15.69Y8.75
X13.15Y8.75
X10.61Y8.75
X8.07Y8.75
X5.53Y8.75
X2.99Y8.75
X51.25Y6.21
X48.71Y6.21
X46.17Y6.21
X43.63Y6.21
X41.09Y6.21
X38.55Y6.21
X36.01Y6.21
X33.47Y6.21
X30.93Y6.21
X28.39Y6.21
X25.85Y6.21
X23.31Y6.21
X20.77Y6.21
X18.23Y6.21
X15.69Y6.21
X13.15Y6.21
X10.61Y6.21
X8.07Y6.21
X5.53Y6.21
X2.99Y6.21
X35.07Y18.25
X32.53Y18.25
X29.99Y18.25
X27.45Y18.25
X24.91Y18.25
X22.37Y18.25
X19.83Y18.25
X17.29Y18.25
X35.07Y15.71
X32.53Y15.71
X29.99Y15.71
X27.45Y15.71
X24.91Y15.71
X22.37Y15.71
X19.83Y15.71
X17.29Y15.71
X27.25Y43.00
X24.75Y43.00
X6.00Y43.25
X3.50Y43.25
X54.75Y43.42
X52.25Y43.42
T6
X45.00Y30.66
X45.00Y20.50
T0
M30
