%TF.GenerationSoftware,KiCad,Pcbnew,(5.1.8-0-10_14)*%
%TF.CreationDate,2021-07-25T13:55:07-04:00*%
%TF.ProjectId,Test,54657374-2e6b-4696-9361-645f70636258,rev?*%
%TF.SameCoordinates,PX9b0780PY44cb540*%
%TF.FileFunction,Copper,L2,Bot*%
%TF.FilePolarity,Positive*%
%FSLAX46Y46*%
G04 Gerber Fmt 4.6, Leading zero omitted, Abs format (unit mm)*
G04 Created by KiCad (PCBNEW (5.1.8-0-10_14)) date 2021-07-25 13:55:07*
%MOMM*%
%LPD*%
G01*
G04 APERTURE LIST*
%TA.AperFunction,ComponentPad*%
%ADD10O,1.700000X1.700000*%
%TD*%
%TA.AperFunction,ComponentPad*%
%ADD11R,1.700000X1.700000*%
%TD*%
%TA.AperFunction,ComponentPad*%
%ADD12O,1.600000X1.600000*%
%TD*%
%TA.AperFunction,ComponentPad*%
%ADD13C,1.600000*%
%TD*%
%TA.AperFunction,ComponentPad*%
%ADD14O,2.000000X1.700000*%
%TD*%
%TA.AperFunction,ComponentPad*%
%ADD15O,1.700000X1.950000*%
%TD*%
%TA.AperFunction,ComponentPad*%
%ADD16O,1.950000X1.700000*%
%TD*%
%TA.AperFunction,ComponentPad*%
%ADD17C,1.700000*%
%TD*%
%TA.AperFunction,ComponentPad*%
%ADD18R,1.524000X1.524000*%
%TD*%
%TA.AperFunction,ComponentPad*%
%ADD19O,1.800000X1.800000*%
%TD*%
%TA.AperFunction,ComponentPad*%
%ADD20R,1.800000X1.800000*%
%TD*%
%TA.AperFunction,ComponentPad*%
%ADD21O,2.200000X2.200000*%
%TD*%
%TA.AperFunction,ComponentPad*%
%ADD22R,2.200000X2.200000*%
%TD*%
%TA.AperFunction,ViaPad*%
%ADD23C,0.800000*%
%TD*%
%TA.AperFunction,Conductor*%
%ADD24C,1.500000*%
%TD*%
%TA.AperFunction,Conductor*%
%ADD25C,2.000000*%
%TD*%
%TA.AperFunction,Conductor*%
%ADD26C,1.250000*%
%TD*%
G04 APERTURE END LIST*
D10*
%TO.P,J9,2*%
%TO.N,GND*%
X15790000Y2250000D03*
D11*
%TO.P,J9,1*%
%TO.N,Buzzer*%
X13250000Y2250000D03*
%TD*%
D12*
%TO.P,R2,2*%
%TO.N,GND*%
X7840000Y31250000D03*
D13*
%TO.P,R2,1*%
%TO.N,ZProbe3V3*%
X18000000Y31250000D03*
%TD*%
D12*
%TO.P,R1,2*%
%TO.N,ZProbe3V3*%
X24090000Y31250000D03*
D13*
%TO.P,R1,1*%
%TO.N,ZProbeIn*%
X34250000Y31250000D03*
%TD*%
D14*
%TO.P,J8,2*%
%TO.N,GND*%
X14250000Y43250000D03*
%TO.P,J8,1*%
%TO.N,+5V*%
%TA.AperFunction,ComponentPad*%
G36*
G01*
X17600000Y44000000D02*
X17600000Y42500000D01*
G75*
G02*
X17350000Y42250000I-250000J0D01*
G01*
X16150000Y42250000D01*
G75*
G02*
X15900000Y42500000I0J250000D01*
G01*
X15900000Y44000000D01*
G75*
G02*
X16150000Y44250000I250000J0D01*
G01*
X17350000Y44250000D01*
G75*
G02*
X17600000Y44000000I0J-250000D01*
G01*
G37*
%TD.AperFunction*%
%TD*%
D15*
%TO.P,J7,5*%
%TO.N,GND*%
X57500000Y5250000D03*
%TO.P,J7,4*%
X57500000Y7750000D03*
%TO.P,J7,3*%
%TO.N,UVControl*%
X57500000Y10250000D03*
%TO.P,J7,2*%
%TO.N,+24V*%
X57500000Y12750000D03*
%TO.P,J7,1*%
%TA.AperFunction,ComponentPad*%
G36*
G01*
X56775000Y16100000D02*
X58225000Y16100000D01*
G75*
G02*
X58475000Y15850000I0J-250000D01*
G01*
X58475000Y14650000D01*
G75*
G02*
X58225000Y14400000I-250000J0D01*
G01*
X56775000Y14400000D01*
G75*
G02*
X56525000Y14650000I0J250000D01*
G01*
X56525000Y15850000D01*
G75*
G02*
X56775000Y16100000I250000J0D01*
G01*
G37*
%TD.AperFunction*%
%TD*%
D16*
%TO.P,J5,3*%
%TO.N,ZProbeIn*%
X36000000Y41250000D03*
%TO.P,J5,2*%
%TO.N,LaserGnd*%
X38500000Y41250000D03*
%TO.P,J5,1*%
%TO.N,+5V*%
%TA.AperFunction,ComponentPad*%
G36*
G01*
X41850000Y41975000D02*
X41850000Y40525000D01*
G75*
G02*
X41600000Y40275000I-250000J0D01*
G01*
X40400000Y40275000D01*
G75*
G02*
X40150000Y40525000I0J250000D01*
G01*
X40150000Y41975000D01*
G75*
G02*
X40400000Y42225000I250000J0D01*
G01*
X41600000Y42225000D01*
G75*
G02*
X41850000Y41975000I0J-250000D01*
G01*
G37*
%TD.AperFunction*%
%TD*%
D17*
%TO.P,J6,16*%
%TO.N,T_IRQ*%
X17288000Y15710000D03*
%TO.P,J6,14*%
%TO.N,SLCK*%
X19828000Y15710000D03*
%TO.P,J6,12*%
%TO.N,MISO*%
X22368000Y15710000D03*
%TO.P,J6,10*%
%TO.N,MOSI*%
X24908000Y15710000D03*
%TO.P,J6,8*%
%TO.N,RESET*%
X27448000Y15710000D03*
%TO.P,J6,6*%
%TO.N,DC*%
X29988000Y15710000D03*
%TO.P,J6,4*%
%TO.N,CS*%
X32528000Y15710000D03*
%TO.P,J6,2*%
%TO.N,+3V3*%
X35068000Y15710000D03*
%TO.P,J6,15*%
%TO.N,T_CS*%
X17288000Y18250000D03*
%TO.P,J6,13*%
%TO.N,SLCK*%
X19828000Y18250000D03*
%TO.P,J6,11*%
%TO.N,MISO*%
X22368000Y18250000D03*
%TO.P,J6,9*%
%TO.N,MOSI*%
X24908000Y18250000D03*
%TO.P,J6,7*%
%TO.N,SDA*%
X27448000Y18250000D03*
%TO.P,J6,5*%
%TO.N,SCL*%
X29988000Y18250000D03*
%TO.P,J6,3*%
%TO.N,GND*%
X32528000Y18250000D03*
%TO.P,J6,1*%
%TO.N,+3V3*%
%TA.AperFunction,ComponentPad*%
G36*
G01*
X34468000Y19100000D02*
X35668000Y19100000D01*
G75*
G02*
X35918000Y18850000I0J-250000D01*
G01*
X35918000Y17650000D01*
G75*
G02*
X35668000Y17400000I-250000J0D01*
G01*
X34468000Y17400000D01*
G75*
G02*
X34218000Y17650000I0J250000D01*
G01*
X34218000Y18850000D01*
G75*
G02*
X34468000Y19100000I250000J0D01*
G01*
G37*
%TD.AperFunction*%
%TD*%
D10*
%TO.P,J1,40*%
%TO.N,Net-(J1-Pad40)*%
X2990000Y6210000D03*
%TO.P,J1,39*%
%TO.N,GND*%
X2990000Y8750000D03*
%TO.P,J1,38*%
%TO.N,Net-(J1-Pad38)*%
X5530000Y6210000D03*
%TO.P,J1,37*%
%TO.N,LaserControl*%
X5530000Y8750000D03*
%TO.P,J1,36*%
%TO.N,Net-(J1-Pad36)*%
X8070000Y6210000D03*
%TO.P,J1,35*%
%TO.N,ZProbe3V3*%
X8070000Y8750000D03*
%TO.P,J1,34*%
%TO.N,Net-(J1-Pad34)*%
X10610000Y6210000D03*
%TO.P,J1,33*%
%TO.N,Net-(J1-Pad33)*%
X10610000Y8750000D03*
%TO.P,J1,32*%
%TO.N,Buzzer*%
X13150000Y6210000D03*
%TO.P,J1,31*%
%TO.N,T_CS*%
X13150000Y8750000D03*
%TO.P,J1,30*%
%TO.N,Net-(J1-Pad30)*%
X15690000Y6210000D03*
%TO.P,J1,29*%
%TO.N,T_IRQ*%
X15690000Y8750000D03*
%TO.P,J1,28*%
%TO.N,Net-(J1-Pad28)*%
X18230000Y6210000D03*
%TO.P,J1,27*%
%TO.N,Net-(J1-Pad27)*%
X18230000Y8750000D03*
%TO.P,J1,26*%
%TO.N,Net-(J1-Pad26)*%
X20770000Y6210000D03*
%TO.P,J1,25*%
%TO.N,Net-(J1-Pad25)*%
X20770000Y8750000D03*
%TO.P,J1,24*%
%TO.N,Net-(J1-Pad24)*%
X23310000Y6210000D03*
%TO.P,J1,23*%
%TO.N,SLCK*%
X23310000Y8750000D03*
%TO.P,J1,22*%
%TO.N,Net-(J1-Pad22)*%
X25850000Y6210000D03*
%TO.P,J1,21*%
%TO.N,MISO*%
X25850000Y8750000D03*
%TO.P,J1,20*%
%TO.N,GND*%
X28390000Y6210000D03*
%TO.P,J1,19*%
%TO.N,MOSI*%
X28390000Y8750000D03*
%TO.P,J1,18*%
%TO.N,Net-(J1-Pad18)*%
X30930000Y6210000D03*
%TO.P,J1,17*%
%TO.N,Net-(J1-Pad17)*%
X30930000Y8750000D03*
%TO.P,J1,16*%
%TO.N,Net-(J1-Pad16)*%
X33470000Y6210000D03*
%TO.P,J1,15*%
%TO.N,RESET*%
X33470000Y8750000D03*
%TO.P,J1,14*%
%TO.N,Net-(J1-Pad14)*%
X36010000Y6210000D03*
%TO.P,J1,13*%
%TO.N,DC*%
X36010000Y8750000D03*
%TO.P,J1,12*%
%TO.N,Net-(J1-Pad12)*%
X38550000Y6210000D03*
%TO.P,J1,11*%
%TO.N,CS*%
X38550000Y8750000D03*
%TO.P,J1,10*%
%TO.N,Net-(J1-Pad10)*%
X41090000Y6210000D03*
%TO.P,J1,9*%
%TO.N,Net-(J1-Pad9)*%
X41090000Y8750000D03*
%TO.P,J1,8*%
%TO.N,UVControl*%
X43630000Y6210000D03*
%TO.P,J1,7*%
%TO.N,Net-(J1-Pad7)*%
X43630000Y8750000D03*
%TO.P,J1,6*%
%TO.N,Net-(J1-Pad6)*%
X46170000Y6210000D03*
%TO.P,J1,5*%
%TO.N,SCL*%
X46170000Y8750000D03*
%TO.P,J1,4*%
%TO.N,Net-(J1-Pad4)*%
X48710000Y6210000D03*
%TO.P,J1,3*%
%TO.N,SDA*%
X48710000Y8750000D03*
%TO.P,J1,2*%
%TO.N,+5V*%
X51250000Y6210000D03*
D11*
%TO.P,J1,1*%
%TO.N,+3V3*%
X51250000Y8750000D03*
%TD*%
D14*
%TO.P,J3,2*%
%TO.N,GND*%
X24750000Y43000000D03*
%TO.P,J3,1*%
%TO.N,+5V*%
%TA.AperFunction,ComponentPad*%
G36*
G01*
X28100000Y43750000D02*
X28100000Y42250000D01*
G75*
G02*
X27850000Y42000000I-250000J0D01*
G01*
X26650000Y42000000D01*
G75*
G02*
X26400000Y42250000I0J250000D01*
G01*
X26400000Y43750000D01*
G75*
G02*
X26650000Y44000000I250000J0D01*
G01*
X27850000Y44000000D01*
G75*
G02*
X28100000Y43750000I0J-250000D01*
G01*
G37*
%TD.AperFunction*%
%TD*%
%TO.P,U1,4*%
%TO.N,Net-(U1-Pad4)*%
%TA.AperFunction,ComponentPad*%
G36*
G01*
X56648000Y37569000D02*
X56648000Y38331000D01*
G75*
G02*
X57029000Y38712000I381000J0D01*
G01*
X57791000Y38712000D01*
G75*
G02*
X58172000Y38331000I0J-381000D01*
G01*
X58172000Y37569000D01*
G75*
G02*
X57791000Y37188000I-381000J0D01*
G01*
X57029000Y37188000D01*
G75*
G02*
X56648000Y37569000I0J381000D01*
G01*
G37*
%TD.AperFunction*%
%TO.P,U1,3*%
%TO.N,+24V*%
%TA.AperFunction,ComponentPad*%
G36*
G01*
X54108000Y37569000D02*
X54108000Y38331000D01*
G75*
G02*
X54489000Y38712000I381000J0D01*
G01*
X55251000Y38712000D01*
G75*
G02*
X55632000Y38331000I0J-381000D01*
G01*
X55632000Y37569000D01*
G75*
G02*
X55251000Y37188000I-381000J0D01*
G01*
X54489000Y37188000D01*
G75*
G02*
X54108000Y37569000I0J381000D01*
G01*
G37*
%TD.AperFunction*%
%TO.P,U1,2*%
%TO.N,GND*%
%TA.AperFunction,ComponentPad*%
G36*
G01*
X51568000Y37569000D02*
X51568000Y38331000D01*
G75*
G02*
X51949000Y38712000I381000J0D01*
G01*
X52711000Y38712000D01*
G75*
G02*
X53092000Y38331000I0J-381000D01*
G01*
X53092000Y37569000D01*
G75*
G02*
X52711000Y37188000I-381000J0D01*
G01*
X51949000Y37188000D01*
G75*
G02*
X51568000Y37569000I0J381000D01*
G01*
G37*
%TD.AperFunction*%
D18*
%TO.P,U1,1*%
%TO.N,Net-(D1-Pad2)*%
X49790000Y37950000D03*
%TD*%
D19*
%TO.P,Q1,3*%
%TO.N,Net-(Q1-Pad3)*%
X38500000Y27920000D03*
%TO.P,Q1,2*%
%TO.N,LaserGnd*%
X38500000Y30460000D03*
D20*
%TO.P,Q1,1*%
%TO.N,GND*%
X38500000Y33000000D03*
%TD*%
D21*
%TO.P,D1,2*%
%TO.N,Net-(D1-Pad2)*%
X45000000Y30660000D03*
D22*
%TO.P,D1,1*%
%TO.N,+5V*%
X45000000Y20500000D03*
%TD*%
%TO.P,J2,1*%
%TO.N,+24V*%
%TA.AperFunction,ComponentPad*%
G36*
G01*
X55600000Y44166000D02*
X55600000Y42666000D01*
G75*
G02*
X55350000Y42416000I-250000J0D01*
G01*
X54150000Y42416000D01*
G75*
G02*
X53900000Y42666000I0J250000D01*
G01*
X53900000Y44166000D01*
G75*
G02*
X54150000Y44416000I250000J0D01*
G01*
X55350000Y44416000D01*
G75*
G02*
X55600000Y44166000I0J-250000D01*
G01*
G37*
%TD.AperFunction*%
D14*
%TO.P,J2,2*%
%TO.N,GND*%
X52250000Y43416000D03*
%TD*%
%TO.P,J4,2*%
%TO.N,GND*%
X3500000Y43250000D03*
%TO.P,J4,1*%
%TO.N,+5V*%
%TA.AperFunction,ComponentPad*%
G36*
G01*
X6850000Y44000000D02*
X6850000Y42500000D01*
G75*
G02*
X6600000Y42250000I-250000J0D01*
G01*
X5400000Y42250000D01*
G75*
G02*
X5150000Y42500000I0J250000D01*
G01*
X5150000Y44000000D01*
G75*
G02*
X5400000Y44250000I250000J0D01*
G01*
X6600000Y44250000D01*
G75*
G02*
X6850000Y44000000I0J-250000D01*
G01*
G37*
%TD.AperFunction*%
%TD*%
D13*
%TO.P,R3,1*%
%TO.N,LaserControl*%
X24000000Y27000000D03*
D12*
%TO.P,R3,2*%
%TO.N,Net-(Q1-Pad3)*%
X34160000Y27000000D03*
%TD*%
D23*
%TO.N,SCL*%
X27750000Y21500000D03*
%TO.N,SDA*%
X24750000Y21500000D03*
%TD*%
D24*
%TO.N,GND*%
X14250000Y43500000D02*
X14250000Y47250000D01*
X14250000Y47250000D02*
X25000000Y47250000D01*
X3500000Y43250000D02*
X3500000Y47250000D01*
X3500000Y47250000D02*
X14250000Y47250000D01*
X24750000Y47000000D02*
X25000000Y47250000D01*
X24750000Y43250000D02*
X24750000Y47000000D01*
X3500000Y31250000D02*
X7750000Y31250000D01*
X3500000Y31250000D02*
X3500000Y37000000D01*
X3500000Y37000000D02*
X3500000Y43250000D01*
X52250000Y43250000D02*
X52250000Y38250000D01*
X52250000Y43500000D02*
X52250000Y43760000D01*
X38750000Y33000000D02*
X43000000Y33000000D01*
X45274000Y35274000D02*
X45274000Y47226000D01*
X43000000Y33000000D02*
X45274000Y35274000D01*
X3750000Y36750000D02*
X3500000Y37000000D01*
X28500000Y36750000D02*
X3750000Y36750000D01*
X28500000Y24000000D02*
X28500000Y36750000D01*
X32500000Y18250000D02*
X32500000Y21500000D01*
X31000000Y21500000D02*
X28500000Y24000000D01*
X32500000Y21500000D02*
X31000000Y21500000D01*
X3500000Y9250000D02*
X3000000Y8750000D01*
X3500000Y31250000D02*
X3500000Y9250000D01*
D25*
X57500000Y7750000D02*
X57500000Y5250000D01*
D24*
X52250000Y43760000D02*
X51255000Y44755000D01*
D25*
X59750000Y7750000D02*
X57250000Y7750000D01*
X60500000Y8500000D02*
X59750000Y7750000D01*
X51255000Y44755000D02*
X53750000Y47250000D01*
X60500000Y8500000D02*
X60500000Y45000000D01*
X60500000Y45000000D02*
X58250000Y47250000D01*
X53750000Y47250000D02*
X58250000Y47250000D01*
D24*
X48784000Y47226000D02*
X51255000Y44755000D01*
X48760000Y47250000D02*
X48784000Y47226000D01*
X25000000Y47250000D02*
X48760000Y47250000D01*
D26*
X15750000Y2250000D02*
X26250000Y2250000D01*
X26250000Y2250000D02*
X28500000Y4500000D01*
X28500000Y6000000D02*
X28500000Y4500000D01*
D24*
%TO.N,+5V*%
X27500000Y39000000D02*
X27500000Y42500000D01*
X27500000Y39000000D02*
X16750000Y39000000D01*
X16750000Y42750000D02*
X16500000Y43000000D01*
X16750000Y39000000D02*
X16750000Y42750000D01*
X16750000Y39000000D02*
X6500000Y39000000D01*
X6250000Y39250000D02*
X6250000Y43250000D01*
X6500000Y39000000D02*
X6250000Y39250000D01*
X41000000Y41250000D02*
X41000000Y44000000D01*
X28500000Y44000000D02*
X27250000Y42750000D01*
X41000000Y44000000D02*
X28500000Y44000000D01*
X31000000Y25000000D02*
X32375000Y23625000D01*
X31000000Y39000000D02*
X31000000Y25000000D01*
X27500000Y39000000D02*
X31000000Y39000000D01*
X32375000Y23625000D02*
X41875000Y23625000D01*
X41875000Y23625000D02*
X45000000Y20500000D01*
D26*
X51250000Y6250000D02*
X52025002Y6250000D01*
D24*
X49000000Y16750000D02*
X45000000Y20750000D01*
X53500000Y15250000D02*
X52000000Y16750000D01*
X51500000Y6250000D02*
X53000000Y6250000D01*
X53500000Y6750000D02*
X53500000Y15250000D01*
X52000000Y16750000D02*
X49000000Y16750000D01*
X53000000Y6250000D02*
X53500000Y6750000D01*
%TO.N,Net-(D1-Pad2)*%
X49750000Y35250000D02*
X49750000Y37750000D01*
X45500000Y31000000D02*
X49750000Y35250000D01*
X45250000Y31000000D02*
X45500000Y31000000D01*
%TO.N,Net-(Q1-Pad3)*%
X37750000Y27000000D02*
X38500000Y27750000D01*
X34250000Y27000000D02*
X37750000Y27000000D01*
D26*
%TO.N,SLCK*%
X19828000Y16238000D02*
X20014081Y16051919D01*
X19750000Y12750000D02*
X19750000Y18250000D01*
X19750000Y12750000D02*
X20250000Y12750000D01*
X23250000Y9750000D02*
X23250000Y8750000D01*
X20250000Y12750000D02*
X23250000Y9750000D01*
%TO.N,MOSI*%
X25000000Y18250000D02*
X25000000Y15500000D01*
X25000000Y15750000D02*
X25000000Y14250000D01*
X28500000Y10750000D02*
X28500000Y8750000D01*
X25000000Y14250000D02*
X28500000Y10750000D01*
%TO.N,MISO*%
X22250000Y16000000D02*
X22500000Y15750000D01*
X22250000Y18250000D02*
X22250000Y16000000D01*
X22500000Y15750000D02*
X22500000Y13750000D01*
X25750000Y10500000D02*
X25750000Y8500000D01*
X22500000Y13750000D02*
X25750000Y10500000D01*
%TO.N,T_IRQ*%
X15750000Y9000000D02*
X15750000Y15750000D01*
X15750000Y15750000D02*
X17250000Y15750000D01*
%TO.N,RESET*%
X27500000Y14750000D02*
X33500000Y8750000D01*
X27500000Y15750000D02*
X27500000Y14750000D01*
%TO.N,DC*%
X30000000Y15500000D02*
X36000000Y9500000D01*
X30000000Y15750000D02*
X30000000Y15500000D01*
X36000000Y8750000D02*
X36000000Y9500000D01*
%TO.N,CS*%
X32500000Y15750000D02*
X32500000Y15724998D01*
X38500000Y9000000D02*
X38500000Y8750000D01*
X32500000Y15750000D02*
X38500000Y9750000D01*
X38500000Y9750000D02*
X38500000Y8750000D01*
D24*
%TO.N,+3V3*%
X43500000Y18250000D02*
X35250000Y18250000D01*
X48000000Y13750000D02*
X43500000Y18250000D01*
X51250000Y13750000D02*
X48000000Y13750000D01*
X51250000Y8750000D02*
X51250000Y13750000D01*
X35250000Y18250000D02*
X35250000Y15750000D01*
D26*
%TO.N,T_CS*%
X13250000Y9000000D02*
X13250000Y18250000D01*
X13250000Y18250000D02*
X17000000Y18250000D01*
%TO.N,LaserControl*%
X24000000Y26750000D02*
X6250000Y26750000D01*
X6250000Y26750000D02*
X6250000Y11000000D01*
X5500000Y10250000D02*
X5500000Y8750000D01*
X6250000Y11000000D02*
X5500000Y10250000D01*
%TO.N,UVControl*%
X57500000Y10250000D02*
X55250000Y10250000D01*
X55250000Y10250000D02*
X55250000Y4500000D01*
X55250000Y4500000D02*
X54250000Y3500000D01*
X54250000Y3500000D02*
X44250000Y3500000D01*
X43500000Y4250000D02*
X43500000Y6250000D01*
X44250000Y3500000D02*
X43500000Y4250000D01*
D24*
%TO.N,ZProbe3V3*%
X24000000Y31250000D02*
X18000000Y31250000D01*
D26*
X24000000Y31250000D02*
X26250000Y31250000D01*
X10000000Y24250000D02*
X26250000Y24250000D01*
X9000000Y23250000D02*
X10000000Y24250000D01*
X26250000Y31250000D02*
X26250000Y24250000D01*
X9000000Y23250000D02*
X9000000Y11000000D01*
X8000000Y10000000D02*
X8000000Y8750000D01*
X9000000Y11000000D02*
X8000000Y10000000D01*
%TO.N,SCL*%
X30000000Y18500000D02*
X30000000Y19250000D01*
X30000000Y19250000D02*
X27750000Y21500000D01*
X27750000Y21500000D02*
X27750000Y21500000D01*
%TO.N,SDA*%
X27250000Y18500000D02*
X27250000Y19000000D01*
X27250000Y19000000D02*
X24750000Y21500000D01*
X24750000Y21500000D02*
X24750000Y21500000D01*
D25*
%TO.N,+24V*%
X54750000Y37750000D02*
X54750000Y20750000D01*
X57500000Y12750000D02*
X57500000Y15250000D01*
X57500000Y18000000D02*
X54750000Y20750000D01*
X57500000Y15250000D02*
X57500000Y18000000D01*
X54750000Y43500000D02*
X54750000Y38000000D01*
D26*
%TO.N,ZProbeIn*%
X34250000Y39750000D02*
X35750000Y41250000D01*
X34250000Y31250000D02*
X34250000Y39750000D01*
D24*
%TO.N,LaserGnd*%
X37399998Y30500000D02*
X36250000Y31649998D01*
X38500000Y30500000D02*
X37399998Y30500000D01*
X36250000Y31649998D02*
X36250000Y37750000D01*
X38500000Y40000000D02*
X38500000Y41250000D01*
X36250000Y37750000D02*
X38500000Y40000000D01*
D26*
%TO.N,Buzzer*%
X13250000Y6250000D02*
X13250000Y2250000D01*
%TD*%
M02*
