M48
; DRILL file {KiCad (5.1.8-0-10_14)} date Tuesday, October 12, 2021 at 05:48:46 PM
; FORMAT={-:-/ absolute / metric / decimal}
; #@! TF.CreationDate,2021-10-12T17:48:46-04:00
; #@! TF.GenerationSoftware,Kicad,Pcbnew,(5.1.8-0-10_14)
FMAT,2
METRIC
T1C0.762
T2C0.800
T3C0.950
T4C1.000
T5C1.100
%
G90
G05
T1
X12.75Y30.31
X12.75Y27.77
X12.75Y25.23
X12.75Y22.69
T2
X43.2Y13.16
X43.2Y3.0
T3
X35.45Y30.4
X37.95Y30.4
X40.45Y30.4
X42.95Y30.4
X45.45Y30.4
T4
X6.1Y6.8
X6.1Y4.3
X16.0Y4.2
X18.5Y4.2
X12.6Y15.74
X12.6Y13.2
X41.5Y21.8
X41.5Y19.3
X33.7Y13.2
X36.24Y13.2
X38.78Y13.2
X5.9Y27.7
X5.9Y25.2
T5
X16.0Y20.26
X16.0Y10.1
T0
M30
