M48
; DRILL file {KiCad (5.1.8-0-10_14)} date Sunday, January 02, 2022 at 08:41:30 PM
; FORMAT={-:-/ absolute / metric / decimal}
; #@! TF.CreationDate,2022-01-02T20:41:30-05:00
; #@! TF.GenerationSoftware,Kicad,Pcbnew,(5.1.8-0-10_14)
FMAT,2
METRIC
T1C0.762
T2C0.800
T3C0.950
T4C1.000
T5C1.100
T6C1.200
T7C3.250
%
G90
G05
T1
X12.75Y30.31
X12.75Y27.77
X12.75Y25.23
X12.75Y22.69
T2
X34.8Y12.56
X34.8Y2.4
T3
X35.45Y30.4
X37.95Y30.4
X40.45Y30.4
X42.95Y30.4
X45.45Y30.4
T4
X16.0Y4.2
X18.5Y4.2
X38.75Y4.9
X38.75Y2.36
X41.5Y21.8
X41.5Y19.3
X5.9Y27.7
X5.9Y25.2
X6.1Y6.8
X6.1Y4.3
T5
X16.0Y20.26
X16.0Y10.1
T6
X30.55Y17.68
X30.55Y15.14
X30.55Y12.6
T7
X25.04Y12.036
T0
M30
