%TF.GenerationSoftware,KiCad,Pcbnew,(5.1.8-0-10_14)*%
%TF.CreationDate,2022-01-02T20:41:24-05:00*%
%TF.ProjectId,Exposure-control,4578706f-7375-4726-952d-636f6e74726f,rev?*%
%TF.SameCoordinates,PX97fa40PY44b2ea0*%
%TF.FileFunction,Legend,Top*%
%TF.FilePolarity,Positive*%
%FSLAX46Y46*%
G04 Gerber Fmt 4.6, Leading zero omitted, Abs format (unit mm)*
G04 Created by KiCad (PCBNEW (5.1.8-0-10_14)) date 2022-01-02 20:41:24*
%MOMM*%
%LPD*%
G01*
G04 APERTURE LIST*
%ADD10C,0.150000*%
%ADD11C,0.120000*%
G04 APERTURE END LIST*
D10*
X43159523Y5745239D02*
X43302380Y5697620D01*
X43540476Y5697620D01*
X43635714Y5745239D01*
X43683333Y5792858D01*
X43730952Y5888096D01*
X43730952Y5983334D01*
X43683333Y6078572D01*
X43635714Y6126191D01*
X43540476Y6173810D01*
X43350000Y6221429D01*
X43254761Y6269048D01*
X43207142Y6316667D01*
X43159523Y6411905D01*
X43159523Y6507143D01*
X43207142Y6602381D01*
X43254761Y6650000D01*
X43350000Y6697620D01*
X43588095Y6697620D01*
X43730952Y6650000D01*
X44588095Y5697620D02*
X44588095Y6221429D01*
X44540476Y6316667D01*
X44445238Y6364286D01*
X44254761Y6364286D01*
X44159523Y6316667D01*
X44588095Y5745239D02*
X44492857Y5697620D01*
X44254761Y5697620D01*
X44159523Y5745239D01*
X44111904Y5840477D01*
X44111904Y5935715D01*
X44159523Y6030953D01*
X44254761Y6078572D01*
X44492857Y6078572D01*
X44588095Y6126191D01*
X44921428Y6364286D02*
X45302380Y6364286D01*
X45064285Y5697620D02*
X45064285Y6554762D01*
X45111904Y6650000D01*
X45207142Y6697620D01*
X45302380Y6697620D01*
X46016666Y5745239D02*
X45921428Y5697620D01*
X45730952Y5697620D01*
X45635714Y5745239D01*
X45588095Y5840477D01*
X45588095Y6221429D01*
X45635714Y6316667D01*
X45730952Y6364286D01*
X45921428Y6364286D01*
X46016666Y6316667D01*
X46064285Y6221429D01*
X46064285Y6126191D01*
X45588095Y6030953D01*
X47826190Y5792858D02*
X47778571Y5745239D01*
X47635714Y5697620D01*
X47540476Y5697620D01*
X47397619Y5745239D01*
X47302380Y5840477D01*
X47254761Y5935715D01*
X47207142Y6126191D01*
X47207142Y6269048D01*
X47254761Y6459524D01*
X47302380Y6554762D01*
X47397619Y6650000D01*
X47540476Y6697620D01*
X47635714Y6697620D01*
X47778571Y6650000D01*
X47826190Y6602381D01*
X48111904Y6364286D02*
X48492857Y6364286D01*
X48254761Y6697620D02*
X48254761Y5840477D01*
X48302380Y5745239D01*
X48397619Y5697620D01*
X48492857Y5697620D01*
X48826190Y5697620D02*
X48826190Y6364286D01*
X48826190Y6173810D02*
X48873809Y6269048D01*
X48921428Y6316667D01*
X49016666Y6364286D01*
X49111904Y6364286D01*
X49588095Y5697620D02*
X49492857Y5745239D01*
X49445238Y5840477D01*
X49445238Y6697620D01*
X43397619Y1597620D02*
X43397619Y788096D01*
X43445238Y692858D01*
X43492857Y645239D01*
X43588095Y597620D01*
X43778571Y597620D01*
X43873809Y645239D01*
X43921428Y692858D01*
X43969047Y788096D01*
X43969047Y1597620D01*
X44302380Y1597620D02*
X44635714Y597620D01*
X44969047Y1597620D01*
X46635714Y692858D02*
X46588095Y645239D01*
X46445238Y597620D01*
X46349999Y597620D01*
X46207142Y645239D01*
X46111904Y740477D01*
X46064285Y835715D01*
X46016666Y1026191D01*
X46016666Y1169048D01*
X46064285Y1359524D01*
X46111904Y1454762D01*
X46207142Y1550000D01*
X46349999Y1597620D01*
X46445238Y1597620D01*
X46588095Y1550000D01*
X46635714Y1502381D01*
X46921428Y1264286D02*
X47302380Y1264286D01*
X47064285Y1597620D02*
X47064285Y740477D01*
X47111904Y645239D01*
X47207142Y597620D01*
X47302380Y597620D01*
X47635714Y597620D02*
X47635714Y1264286D01*
X47635714Y1073810D02*
X47683333Y1169048D01*
X47730952Y1216667D01*
X47826190Y1264286D01*
X47921428Y1264286D01*
X48397619Y597620D02*
X48302380Y645239D01*
X48254761Y740477D01*
X48254761Y1597620D01*
X26028571Y1347620D02*
X25695238Y1823810D01*
X25457142Y1347620D02*
X25457142Y2347620D01*
X25838095Y2347620D01*
X25933333Y2300000D01*
X25980952Y2252381D01*
X26028571Y2157143D01*
X26028571Y2014286D01*
X25980952Y1919048D01*
X25933333Y1871429D01*
X25838095Y1823810D01*
X25457142Y1823810D01*
X26838095Y1395239D02*
X26742857Y1347620D01*
X26552380Y1347620D01*
X26457142Y1395239D01*
X26409523Y1490477D01*
X26409523Y1871429D01*
X26457142Y1966667D01*
X26552380Y2014286D01*
X26742857Y2014286D01*
X26838095Y1966667D01*
X26885714Y1871429D01*
X26885714Y1776191D01*
X26409523Y1680953D01*
X27219047Y2014286D02*
X27457142Y1347620D01*
X27695238Y2014286D01*
X29361904Y1347620D02*
X28790476Y1347620D01*
X29076190Y1347620D02*
X29076190Y2347620D01*
X28980952Y2204762D01*
X28885714Y2109524D01*
X28790476Y2061905D01*
X29790476Y1442858D02*
X29838095Y1395239D01*
X29790476Y1347620D01*
X29742857Y1395239D01*
X29790476Y1442858D01*
X29790476Y1347620D01*
X30742857Y2347620D02*
X30266666Y2347620D01*
X30219047Y1871429D01*
X30266666Y1919048D01*
X30361904Y1966667D01*
X30600000Y1966667D01*
X30695238Y1919048D01*
X30742857Y1871429D01*
X30790476Y1776191D01*
X30790476Y1538096D01*
X30742857Y1442858D01*
X30695238Y1395239D01*
X30600000Y1347620D01*
X30361904Y1347620D01*
X30266666Y1395239D01*
X30219047Y1442858D01*
D11*
%TO.C,Q1*%
X27382000Y16991000D02*
X29400000Y16991000D01*
X27382000Y13290000D02*
X29400000Y13290000D01*
X30142000Y18783000D02*
X30142000Y20390000D01*
X30142000Y16243000D02*
X30142000Y16578000D01*
X30142000Y13703000D02*
X30142000Y14038000D01*
X30142000Y9890000D02*
X30142000Y11497000D01*
X27382000Y20390000D02*
X32323000Y20390000D01*
X27382000Y9890000D02*
X32323000Y9890000D01*
X32323000Y9890000D02*
X32323000Y20390000D01*
X27382000Y9890000D02*
X27382000Y20390000D01*
%TO.C,J1*%
X37480000Y6170000D02*
X38750000Y6170000D01*
X37480000Y4900000D02*
X37480000Y6170000D01*
X39792929Y1980000D02*
X40190000Y1980000D01*
X39792929Y2740000D02*
X40190000Y2740000D01*
X48850000Y1980000D02*
X42850000Y1980000D01*
X48850000Y2740000D02*
X48850000Y1980000D01*
X42850000Y2740000D02*
X48850000Y2740000D01*
X40190000Y3630000D02*
X42850000Y3630000D01*
X39860000Y4520000D02*
X40190000Y4520000D01*
X39860000Y5280000D02*
X40190000Y5280000D01*
X42850000Y4620000D02*
X48850000Y4620000D01*
X42850000Y4740000D02*
X48850000Y4740000D01*
X42850000Y4860000D02*
X48850000Y4860000D01*
X42850000Y4980000D02*
X48850000Y4980000D01*
X42850000Y5100000D02*
X48850000Y5100000D01*
X42850000Y5220000D02*
X48850000Y5220000D01*
X48850000Y4520000D02*
X42850000Y4520000D01*
X48850000Y5280000D02*
X48850000Y4520000D01*
X42850000Y5280000D02*
X48850000Y5280000D01*
X42850000Y6230000D02*
X40190000Y6230000D01*
X42850000Y1030000D02*
X42850000Y6230000D01*
X40190000Y1030000D02*
X42850000Y1030000D01*
X40190000Y6230000D02*
X40190000Y1030000D01*
%TO.C,J5*%
X44250000Y24650000D02*
X43000000Y24650000D01*
X44250000Y23400000D02*
X44250000Y24650000D01*
X38750000Y17500000D02*
X38750000Y20550000D01*
X41700000Y17500000D02*
X38750000Y17500000D01*
X41700000Y16750000D02*
X41700000Y17500000D01*
X38750000Y23600000D02*
X38750000Y20550000D01*
X41700000Y23600000D02*
X38750000Y23600000D01*
X41700000Y24350000D02*
X41700000Y23600000D01*
X43950000Y16750000D02*
X43950000Y18550000D01*
X43200000Y16750000D02*
X43950000Y16750000D01*
X43200000Y18550000D02*
X43200000Y16750000D01*
X43950000Y18550000D02*
X43200000Y18550000D01*
X43950000Y22550000D02*
X43950000Y24350000D01*
X43200000Y22550000D02*
X43950000Y22550000D01*
X43200000Y24350000D02*
X43200000Y22550000D01*
X43950000Y24350000D02*
X43200000Y24350000D01*
X43950000Y20050000D02*
X43950000Y21050000D01*
X43200000Y20050000D02*
X43950000Y20050000D01*
X43200000Y21050000D02*
X43200000Y20050000D01*
X43950000Y21050000D02*
X43200000Y21050000D01*
X43960000Y16740000D02*
X43960000Y24360000D01*
X37990000Y16740000D02*
X43960000Y16740000D01*
X37990000Y24360000D02*
X37990000Y16740000D01*
X43960000Y24360000D02*
X37990000Y24360000D01*
%TO.C,J4*%
X21350000Y1450000D02*
X21350000Y2700000D01*
X20100000Y1450000D02*
X21350000Y1450000D01*
X14200000Y6950000D02*
X17250000Y6950000D01*
X14200000Y4000000D02*
X14200000Y6950000D01*
X13450000Y4000000D02*
X14200000Y4000000D01*
X20300000Y6950000D02*
X17250000Y6950000D01*
X20300000Y4000000D02*
X20300000Y6950000D01*
X21050000Y4000000D02*
X20300000Y4000000D01*
X13450000Y1750000D02*
X15250000Y1750000D01*
X13450000Y2500000D02*
X13450000Y1750000D01*
X15250000Y2500000D02*
X13450000Y2500000D01*
X15250000Y1750000D02*
X15250000Y2500000D01*
X19250000Y1750000D02*
X21050000Y1750000D01*
X19250000Y2500000D02*
X19250000Y1750000D01*
X21050000Y2500000D02*
X19250000Y2500000D01*
X21050000Y1750000D02*
X21050000Y2500000D01*
X16750000Y1750000D02*
X17750000Y1750000D01*
X16750000Y2500000D02*
X16750000Y1750000D01*
X17750000Y2500000D02*
X16750000Y2500000D01*
X17750000Y1750000D02*
X17750000Y2500000D01*
X13440000Y1740000D02*
X21060000Y1740000D01*
X13440000Y7710000D02*
X13440000Y1740000D01*
X21060000Y7710000D02*
X13440000Y7710000D01*
X21060000Y1740000D02*
X21060000Y7710000D01*
%TO.C,J3*%
X3350000Y1450000D02*
X4600000Y1450000D01*
X3350000Y2700000D02*
X3350000Y1450000D01*
X8850000Y8600000D02*
X8850000Y5550000D01*
X5900000Y8600000D02*
X8850000Y8600000D01*
X5900000Y9350000D02*
X5900000Y8600000D01*
X8850000Y2500000D02*
X8850000Y5550000D01*
X5900000Y2500000D02*
X8850000Y2500000D01*
X5900000Y1750000D02*
X5900000Y2500000D01*
X3650000Y9350000D02*
X3650000Y7550000D01*
X4400000Y9350000D02*
X3650000Y9350000D01*
X4400000Y7550000D02*
X4400000Y9350000D01*
X3650000Y7550000D02*
X4400000Y7550000D01*
X3650000Y3550000D02*
X3650000Y1750000D01*
X4400000Y3550000D02*
X3650000Y3550000D01*
X4400000Y1750000D02*
X4400000Y3550000D01*
X3650000Y1750000D02*
X4400000Y1750000D01*
X3650000Y6050000D02*
X3650000Y5050000D01*
X4400000Y6050000D02*
X3650000Y6050000D01*
X4400000Y5050000D02*
X4400000Y6050000D01*
X3650000Y5050000D02*
X4400000Y5050000D01*
X3640000Y9360000D02*
X3640000Y1740000D01*
X9610000Y9360000D02*
X3640000Y9360000D01*
X9610000Y1740000D02*
X9610000Y9360000D01*
X3640000Y1740000D02*
X9610000Y1740000D01*
%TO.C,J2*%
X3440000Y22640000D02*
X9410000Y22640000D01*
X9410000Y22640000D02*
X9410000Y30260000D01*
X9410000Y30260000D02*
X3440000Y30260000D01*
X3440000Y30260000D02*
X3440000Y22640000D01*
X3450000Y25950000D02*
X4200000Y25950000D01*
X4200000Y25950000D02*
X4200000Y26950000D01*
X4200000Y26950000D02*
X3450000Y26950000D01*
X3450000Y26950000D02*
X3450000Y25950000D01*
X3450000Y22650000D02*
X4200000Y22650000D01*
X4200000Y22650000D02*
X4200000Y24450000D01*
X4200000Y24450000D02*
X3450000Y24450000D01*
X3450000Y24450000D02*
X3450000Y22650000D01*
X3450000Y28450000D02*
X4200000Y28450000D01*
X4200000Y28450000D02*
X4200000Y30250000D01*
X4200000Y30250000D02*
X3450000Y30250000D01*
X3450000Y30250000D02*
X3450000Y28450000D01*
X5700000Y22650000D02*
X5700000Y23400000D01*
X5700000Y23400000D02*
X8650000Y23400000D01*
X8650000Y23400000D02*
X8650000Y26450000D01*
X5700000Y30250000D02*
X5700000Y29500000D01*
X5700000Y29500000D02*
X8650000Y29500000D01*
X8650000Y29500000D02*
X8650000Y26450000D01*
X3150000Y23600000D02*
X3150000Y22350000D01*
X3150000Y22350000D02*
X4400000Y22350000D01*
%TO.C,J7*%
X32890000Y32860000D02*
X32890000Y26890000D01*
X32890000Y26890000D02*
X48010000Y26890000D01*
X48010000Y26890000D02*
X48010000Y32860000D01*
X48010000Y32860000D02*
X32890000Y32860000D01*
X36200000Y32850000D02*
X36200000Y32100000D01*
X36200000Y32100000D02*
X44700000Y32100000D01*
X44700000Y32100000D02*
X44700000Y32850000D01*
X44700000Y32850000D02*
X36200000Y32850000D01*
X32900000Y32850000D02*
X32900000Y32100000D01*
X32900000Y32100000D02*
X34700000Y32100000D01*
X34700000Y32100000D02*
X34700000Y32850000D01*
X34700000Y32850000D02*
X32900000Y32850000D01*
X46200000Y32850000D02*
X46200000Y32100000D01*
X46200000Y32100000D02*
X48000000Y32100000D01*
X48000000Y32100000D02*
X48000000Y32850000D01*
X48000000Y32850000D02*
X46200000Y32850000D01*
X32900000Y30600000D02*
X33650000Y30600000D01*
X33650000Y30600000D02*
X33650000Y27650000D01*
X33650000Y27650000D02*
X40450000Y27650000D01*
X48000000Y30600000D02*
X47250000Y30600000D01*
X47250000Y30600000D02*
X47250000Y27650000D01*
X47250000Y27650000D02*
X40450000Y27650000D01*
X33850000Y33150000D02*
X32600000Y33150000D01*
X32600000Y33150000D02*
X32600000Y31900000D01*
%TO.C,U1*%
X31000000Y20950000D02*
X11000000Y20950000D01*
X31000000Y31800000D02*
X31000000Y20950000D01*
X11000000Y31800000D02*
X31000000Y31800000D01*
X11000000Y20950000D02*
X11000000Y31800000D01*
%TO.C,D1*%
X14530000Y13240000D02*
X17470000Y13240000D01*
X14530000Y13480000D02*
X17470000Y13480000D01*
X14530000Y13360000D02*
X17470000Y13360000D01*
X16000000Y18920000D02*
X16000000Y17900000D01*
X16000000Y11440000D02*
X16000000Y12460000D01*
X14530000Y17900000D02*
X14530000Y12460000D01*
X17470000Y17900000D02*
X14530000Y17900000D01*
X17470000Y12460000D02*
X17470000Y17900000D01*
X14530000Y12460000D02*
X17470000Y12460000D01*
%TO.C,R3*%
X33430000Y4210000D02*
X36170000Y4210000D01*
X36170000Y4210000D02*
X36170000Y10750000D01*
X36170000Y10750000D02*
X33430000Y10750000D01*
X33430000Y10750000D02*
X33430000Y4210000D01*
X34800000Y3440000D02*
X34800000Y4210000D01*
X34800000Y11520000D02*
X34800000Y10750000D01*
%TO.C,Q1*%
D10*
X28997619Y15304762D02*
X28950000Y15209524D01*
X28854761Y15114286D01*
X28711904Y14971429D01*
X28664285Y14876191D01*
X28664285Y14780953D01*
X28902380Y14828572D02*
X28854761Y14733334D01*
X28759523Y14638096D01*
X28569047Y14590477D01*
X28235714Y14590477D01*
X28045238Y14638096D01*
X27950000Y14733334D01*
X27902380Y14828572D01*
X27902380Y15019048D01*
X27950000Y15114286D01*
X28045238Y15209524D01*
X28235714Y15257143D01*
X28569047Y15257143D01*
X28759523Y15209524D01*
X28854761Y15114286D01*
X28902380Y15019048D01*
X28902380Y14828572D01*
X28902380Y16209524D02*
X28902380Y15638096D01*
X28902380Y15923810D02*
X27902380Y15923810D01*
X28045238Y15828572D01*
X28140476Y15733334D01*
X28188095Y15638096D01*
X33904880Y12259048D02*
X32904880Y12259048D01*
X33904880Y13306667D02*
X33428690Y12973334D01*
X33904880Y12735239D02*
X32904880Y12735239D01*
X32904880Y13116191D01*
X32952500Y13211429D01*
X33000119Y13259048D01*
X33095357Y13306667D01*
X33238214Y13306667D01*
X33333452Y13259048D01*
X33381071Y13211429D01*
X33428690Y13116191D01*
X33428690Y12735239D01*
X33381071Y14068572D02*
X33381071Y13735239D01*
X33904880Y13735239D02*
X32904880Y13735239D01*
X32904880Y14211429D01*
X32904880Y14497143D02*
X32904880Y15163810D01*
X33904880Y14497143D01*
X33904880Y15163810D01*
X33238214Y15973334D02*
X33904880Y15973334D01*
X32857261Y15735239D02*
X33571547Y15497143D01*
X33571547Y16116191D01*
X33238214Y16925715D02*
X33904880Y16925715D01*
X32857261Y16687620D02*
X33571547Y16449524D01*
X33571547Y17068572D01*
X33904880Y17449524D02*
X32904880Y17449524D01*
X33904880Y18020953D01*
X32904880Y18020953D01*
%TO.C,J1*%
X41166666Y4147620D02*
X41166666Y3433334D01*
X41119047Y3290477D01*
X41023809Y3195239D01*
X40880952Y3147620D01*
X40785714Y3147620D01*
X42166666Y3147620D02*
X41595238Y3147620D01*
X41880952Y3147620D02*
X41880952Y4147620D01*
X41785714Y4004762D01*
X41690476Y3909524D01*
X41595238Y3861905D01*
%TO.C,J5*%
X38952380Y20166667D02*
X39666666Y20166667D01*
X39809523Y20119048D01*
X39904761Y20023810D01*
X39952380Y19880953D01*
X39952380Y19785715D01*
X38952380Y21119048D02*
X38952380Y20642858D01*
X39428571Y20595239D01*
X39380952Y20642858D01*
X39333333Y20738096D01*
X39333333Y20976191D01*
X39380952Y21071429D01*
X39428571Y21119048D01*
X39523809Y21166667D01*
X39761904Y21166667D01*
X39857142Y21119048D01*
X39904761Y21071429D01*
X39952380Y20976191D01*
X39952380Y20738096D01*
X39904761Y20642858D01*
X39857142Y20595239D01*
X45904761Y17457143D02*
X45952380Y17600000D01*
X45952380Y17838096D01*
X45904761Y17933334D01*
X45857142Y17980953D01*
X45761904Y18028572D01*
X45666666Y18028572D01*
X45571428Y17980953D01*
X45523809Y17933334D01*
X45476190Y17838096D01*
X45428571Y17647620D01*
X45380952Y17552381D01*
X45333333Y17504762D01*
X45238095Y17457143D01*
X45142857Y17457143D01*
X45047619Y17504762D01*
X45000000Y17552381D01*
X44952380Y17647620D01*
X44952380Y17885715D01*
X45000000Y18028572D01*
X45952380Y18885715D02*
X45428571Y18885715D01*
X45333333Y18838096D01*
X45285714Y18742858D01*
X45285714Y18552381D01*
X45333333Y18457143D01*
X45904761Y18885715D02*
X45952380Y18790477D01*
X45952380Y18552381D01*
X45904761Y18457143D01*
X45809523Y18409524D01*
X45714285Y18409524D01*
X45619047Y18457143D01*
X45571428Y18552381D01*
X45571428Y18790477D01*
X45523809Y18885715D01*
X45285714Y19219048D02*
X45285714Y19600000D01*
X45952380Y19361905D02*
X45095238Y19361905D01*
X45000000Y19409524D01*
X44952380Y19504762D01*
X44952380Y19600000D01*
X45904761Y20314286D02*
X45952380Y20219048D01*
X45952380Y20028572D01*
X45904761Y19933334D01*
X45809523Y19885715D01*
X45428571Y19885715D01*
X45333333Y19933334D01*
X45285714Y20028572D01*
X45285714Y20219048D01*
X45333333Y20314286D01*
X45428571Y20361905D01*
X45523809Y20361905D01*
X45619047Y19885715D01*
X45952380Y20933334D02*
X45904761Y20838096D01*
X45809523Y20790477D01*
X44952380Y20790477D01*
X45952380Y21314286D02*
X45285714Y21314286D01*
X44952380Y21314286D02*
X45000000Y21266667D01*
X45047619Y21314286D01*
X45000000Y21361905D01*
X44952380Y21314286D01*
X45047619Y21314286D01*
X45285714Y22219048D02*
X46095238Y22219048D01*
X46190476Y22171429D01*
X46238095Y22123810D01*
X46285714Y22028572D01*
X46285714Y21885715D01*
X46238095Y21790477D01*
X45904761Y22219048D02*
X45952380Y22123810D01*
X45952380Y21933334D01*
X45904761Y21838096D01*
X45857142Y21790477D01*
X45761904Y21742858D01*
X45476190Y21742858D01*
X45380952Y21790477D01*
X45333333Y21838096D01*
X45285714Y21933334D01*
X45285714Y22123810D01*
X45333333Y22219048D01*
X45952380Y22695239D02*
X44952380Y22695239D01*
X45952380Y23123810D02*
X45428571Y23123810D01*
X45333333Y23076191D01*
X45285714Y22980953D01*
X45285714Y22838096D01*
X45333333Y22742858D01*
X45380952Y22695239D01*
X45285714Y23457143D02*
X45285714Y23838096D01*
X44952380Y23600000D02*
X45809523Y23600000D01*
X45904761Y23647620D01*
X45952380Y23742858D01*
X45952380Y23838096D01*
%TO.C,J4*%
X17166666Y6847620D02*
X17166666Y6133334D01*
X17119047Y5990477D01*
X17023809Y5895239D01*
X16880952Y5847620D01*
X16785714Y5847620D01*
X18071428Y6514286D02*
X18071428Y5847620D01*
X17833333Y6895239D02*
X17595238Y6180953D01*
X18214285Y6180953D01*
X22328571Y3738096D02*
X22328571Y3404762D01*
X22852380Y3404762D02*
X21852380Y3404762D01*
X21852380Y3880953D01*
X22852380Y4690477D02*
X22328571Y4690477D01*
X22233333Y4642858D01*
X22185714Y4547620D01*
X22185714Y4357143D01*
X22233333Y4261905D01*
X22804761Y4690477D02*
X22852380Y4595239D01*
X22852380Y4357143D01*
X22804761Y4261905D01*
X22709523Y4214286D01*
X22614285Y4214286D01*
X22519047Y4261905D01*
X22471428Y4357143D01*
X22471428Y4595239D01*
X22423809Y4690477D01*
X22185714Y5166667D02*
X22852380Y5166667D01*
X22280952Y5166667D02*
X22233333Y5214286D01*
X22185714Y5309524D01*
X22185714Y5452381D01*
X22233333Y5547620D01*
X22328571Y5595239D01*
X22852380Y5595239D01*
%TO.C,J3*%
X7652380Y5066667D02*
X8366666Y5066667D01*
X8509523Y5019048D01*
X8604761Y4923810D01*
X8652380Y4780953D01*
X8652380Y4685715D01*
X7652380Y5447620D02*
X7652380Y6066667D01*
X8033333Y5733334D01*
X8033333Y5876191D01*
X8080952Y5971429D01*
X8128571Y6019048D01*
X8223809Y6066667D01*
X8461904Y6066667D01*
X8557142Y6019048D01*
X8604761Y5971429D01*
X8652380Y5876191D01*
X8652380Y5590477D01*
X8604761Y5495239D01*
X8557142Y5447620D01*
X2752380Y4004762D02*
X1752380Y4004762D01*
X2228571Y4004762D02*
X2228571Y4576191D01*
X2752380Y4576191D02*
X1752380Y4576191D01*
X2752380Y5052381D02*
X1752380Y5052381D01*
X1752380Y5290477D01*
X1800000Y5433334D01*
X1895238Y5528572D01*
X1990476Y5576191D01*
X2180952Y5623810D01*
X2323809Y5623810D01*
X2514285Y5576191D01*
X2609523Y5528572D01*
X2704761Y5433334D01*
X2752380Y5290477D01*
X2752380Y5052381D01*
X2752380Y6052381D02*
X1752380Y6052381D01*
X2466666Y6385715D01*
X1752380Y6719048D01*
X2752380Y6719048D01*
X2752380Y7195239D02*
X1752380Y7195239D01*
%TO.C,J2*%
X7752380Y25866667D02*
X8466666Y25866667D01*
X8609523Y25819048D01*
X8704761Y25723810D01*
X8752380Y25580953D01*
X8752380Y25485715D01*
X7847619Y26295239D02*
X7800000Y26342858D01*
X7752380Y26438096D01*
X7752380Y26676191D01*
X7800000Y26771429D01*
X7847619Y26819048D01*
X7942857Y26866667D01*
X8038095Y26866667D01*
X8180952Y26819048D01*
X8752380Y26247620D01*
X8752380Y26866667D01*
X2852380Y24823810D02*
X1852380Y24823810D01*
X1852380Y25204762D01*
X1900000Y25300000D01*
X1947619Y25347620D01*
X2042857Y25395239D01*
X2185714Y25395239D01*
X2280952Y25347620D01*
X2328571Y25300000D01*
X2376190Y25204762D01*
X2376190Y24823810D01*
X2852380Y25966667D02*
X2804761Y25871429D01*
X2757142Y25823810D01*
X2661904Y25776191D01*
X2376190Y25776191D01*
X2280952Y25823810D01*
X2233333Y25871429D01*
X2185714Y25966667D01*
X2185714Y26109524D01*
X2233333Y26204762D01*
X2280952Y26252381D01*
X2376190Y26300000D01*
X2661904Y26300000D01*
X2757142Y26252381D01*
X2804761Y26204762D01*
X2852380Y26109524D01*
X2852380Y25966667D01*
X2185714Y26633334D02*
X2852380Y26823810D01*
X2376190Y27014286D01*
X2852380Y27204762D01*
X2185714Y27395239D01*
X2804761Y28157143D02*
X2852380Y28061905D01*
X2852380Y27871429D01*
X2804761Y27776191D01*
X2709523Y27728572D01*
X2328571Y27728572D01*
X2233333Y27776191D01*
X2185714Y27871429D01*
X2185714Y28061905D01*
X2233333Y28157143D01*
X2328571Y28204762D01*
X2423809Y28204762D01*
X2519047Y27728572D01*
X2852380Y28633334D02*
X2185714Y28633334D01*
X2376190Y28633334D02*
X2280952Y28680953D01*
X2233333Y28728572D01*
X2185714Y28823810D01*
X2185714Y28919048D01*
%TO.C,J7*%
X39916666Y28947620D02*
X39916666Y28233334D01*
X39869047Y28090477D01*
X39773809Y27995239D01*
X39630952Y27947620D01*
X39535714Y27947620D01*
X40297619Y28947620D02*
X40964285Y28947620D01*
X40535714Y27947620D01*
X37640476Y34447620D02*
X37640476Y33638096D01*
X37688095Y33542858D01*
X37735714Y33495239D01*
X37830952Y33447620D01*
X38021428Y33447620D01*
X38116666Y33495239D01*
X38164285Y33542858D01*
X38211904Y33638096D01*
X38211904Y34447620D01*
X38545238Y34447620D02*
X38878571Y33447620D01*
X39211904Y34447620D01*
X39545238Y33447620D02*
X39545238Y34447620D01*
X39926190Y34447620D01*
X40021428Y34400000D01*
X40069047Y34352381D01*
X40116666Y34257143D01*
X40116666Y34114286D01*
X40069047Y34019048D01*
X40021428Y33971429D01*
X39926190Y33923810D01*
X39545238Y33923810D01*
X40973809Y33447620D02*
X40973809Y33971429D01*
X40926190Y34066667D01*
X40830952Y34114286D01*
X40640476Y34114286D01*
X40545238Y34066667D01*
X40973809Y33495239D02*
X40878571Y33447620D01*
X40640476Y33447620D01*
X40545238Y33495239D01*
X40497619Y33590477D01*
X40497619Y33685715D01*
X40545238Y33780953D01*
X40640476Y33828572D01*
X40878571Y33828572D01*
X40973809Y33876191D01*
X41450000Y34114286D02*
X41450000Y33447620D01*
X41450000Y34019048D02*
X41497619Y34066667D01*
X41592857Y34114286D01*
X41735714Y34114286D01*
X41830952Y34066667D01*
X41878571Y33971429D01*
X41878571Y33447620D01*
X42735714Y33495239D02*
X42640476Y33447620D01*
X42450000Y33447620D01*
X42354761Y33495239D01*
X42307142Y33590477D01*
X42307142Y33971429D01*
X42354761Y34066667D01*
X42450000Y34114286D01*
X42640476Y34114286D01*
X42735714Y34066667D01*
X42783333Y33971429D01*
X42783333Y33876191D01*
X42307142Y33780953D01*
X43354761Y33447620D02*
X43259523Y33495239D01*
X43211904Y33590477D01*
X43211904Y34447620D01*
%TO.C,U1*%
X22402380Y25888096D02*
X23211904Y25888096D01*
X23307142Y25935715D01*
X23354761Y25983334D01*
X23402380Y26078572D01*
X23402380Y26269048D01*
X23354761Y26364286D01*
X23307142Y26411905D01*
X23211904Y26459524D01*
X22402380Y26459524D01*
X23402380Y27459524D02*
X23402380Y26888096D01*
X23402380Y27173810D02*
X22402380Y27173810D01*
X22545238Y27078572D01*
X22640476Y26983334D01*
X22688095Y26888096D01*
X20616666Y21852381D02*
X20616666Y22328572D01*
X20902380Y21757143D02*
X19902380Y22090477D01*
X20902380Y22423810D01*
X20902380Y22757143D02*
X19902380Y22757143D01*
X20616666Y23090477D01*
X19902380Y23423810D01*
X20902380Y23423810D01*
X19902380Y23804762D02*
X19902380Y24471429D01*
X20902380Y23804762D01*
X20902380Y24471429D01*
X20997619Y24614286D02*
X20997619Y25376191D01*
X19902380Y25519048D02*
X19902380Y26138096D01*
X20283333Y25804762D01*
X20283333Y25947620D01*
X20330952Y26042858D01*
X20378571Y26090477D01*
X20473809Y26138096D01*
X20711904Y26138096D01*
X20807142Y26090477D01*
X20854761Y26042858D01*
X20902380Y25947620D01*
X20902380Y25661905D01*
X20854761Y25566667D01*
X20807142Y25519048D01*
X20616666Y26519048D02*
X20616666Y26995239D01*
X20902380Y26423810D02*
X19902380Y26757143D01*
X20902380Y27090477D01*
X20997619Y27185715D02*
X20997619Y27947620D01*
X20902380Y28185715D02*
X19902380Y28185715D01*
X20616666Y28519048D01*
X19902380Y28852381D01*
X20902380Y28852381D01*
X19902380Y29519048D02*
X19902380Y29709524D01*
X19950000Y29804762D01*
X20045238Y29900000D01*
X20235714Y29947620D01*
X20569047Y29947620D01*
X20759523Y29900000D01*
X20854761Y29804762D01*
X20902380Y29709524D01*
X20902380Y29519048D01*
X20854761Y29423810D01*
X20759523Y29328572D01*
X20569047Y29280953D01*
X20235714Y29280953D01*
X20045238Y29328572D01*
X19950000Y29423810D01*
X19902380Y29519048D01*
X20902380Y30376191D02*
X19902380Y30376191D01*
X19902380Y30614286D01*
X19950000Y30757143D01*
X20045238Y30852381D01*
X20140476Y30900000D01*
X20330952Y30947620D01*
X20473809Y30947620D01*
X20664285Y30900000D01*
X20759523Y30852381D01*
X20854761Y30757143D01*
X20902380Y30614286D01*
X20902380Y30376191D01*
X14369047Y30371429D02*
X14702380Y30371429D01*
X14845238Y29847620D02*
X14369047Y29847620D01*
X14369047Y30847620D01*
X14845238Y30847620D01*
X15273809Y30514286D02*
X15273809Y29847620D01*
X15273809Y30419048D02*
X15321428Y30466667D01*
X15416666Y30514286D01*
X15559523Y30514286D01*
X15654761Y30466667D01*
X15702380Y30371429D01*
X15702380Y29847620D01*
X16178571Y29847620D02*
X16178571Y30847620D01*
X16178571Y30466667D02*
X16273809Y30514286D01*
X16464285Y30514286D01*
X16559523Y30466667D01*
X16607142Y30419048D01*
X16654761Y30323810D01*
X16654761Y30038096D01*
X16607142Y29942858D01*
X16559523Y29895239D01*
X16464285Y29847620D01*
X16273809Y29847620D01*
X16178571Y29895239D01*
X17226190Y29847620D02*
X17130952Y29895239D01*
X17083333Y29990477D01*
X17083333Y30847620D01*
X14276190Y28197620D02*
X14609523Y27197620D01*
X14942857Y28197620D01*
X15276190Y27197620D02*
X15276190Y27864286D01*
X15276190Y28197620D02*
X15228571Y28150000D01*
X15276190Y28102381D01*
X15323809Y28150000D01*
X15276190Y28197620D01*
X15276190Y28102381D01*
X15752380Y27864286D02*
X15752380Y27197620D01*
X15752380Y27769048D02*
X15800000Y27816667D01*
X15895238Y27864286D01*
X16038095Y27864286D01*
X16133333Y27816667D01*
X16180952Y27721429D01*
X16180952Y27197620D01*
X14807142Y25750000D02*
X14711904Y25797620D01*
X14569047Y25797620D01*
X14426190Y25750000D01*
X14330952Y25654762D01*
X14283333Y25559524D01*
X14235714Y25369048D01*
X14235714Y25226191D01*
X14283333Y25035715D01*
X14330952Y24940477D01*
X14426190Y24845239D01*
X14569047Y24797620D01*
X14664285Y24797620D01*
X14807142Y24845239D01*
X14854761Y24892858D01*
X14854761Y25226191D01*
X14664285Y25226191D01*
X15283333Y25464286D02*
X15283333Y24797620D01*
X15283333Y25369048D02*
X15330952Y25416667D01*
X15426190Y25464286D01*
X15569047Y25464286D01*
X15664285Y25416667D01*
X15711904Y25321429D01*
X15711904Y24797620D01*
X16616666Y24797620D02*
X16616666Y25797620D01*
X16616666Y24845239D02*
X16521428Y24797620D01*
X16330952Y24797620D01*
X16235714Y24845239D01*
X16188095Y24892858D01*
X16140476Y24988096D01*
X16140476Y25273810D01*
X16188095Y25369048D01*
X16235714Y25416667D01*
X16330952Y25464286D01*
X16521428Y25464286D01*
X16616666Y25416667D01*
X14226190Y23247620D02*
X14559523Y22247620D01*
X14892857Y23247620D01*
X15369047Y22247620D02*
X15273809Y22295239D01*
X15226190Y22342858D01*
X15178571Y22438096D01*
X15178571Y22723810D01*
X15226190Y22819048D01*
X15273809Y22866667D01*
X15369047Y22914286D01*
X15511904Y22914286D01*
X15607142Y22866667D01*
X15654761Y22819048D01*
X15702380Y22723810D01*
X15702380Y22438096D01*
X15654761Y22342858D01*
X15607142Y22295239D01*
X15511904Y22247620D01*
X15369047Y22247620D01*
X16559523Y22914286D02*
X16559523Y22247620D01*
X16130952Y22914286D02*
X16130952Y22390477D01*
X16178571Y22295239D01*
X16273809Y22247620D01*
X16416666Y22247620D01*
X16511904Y22295239D01*
X16559523Y22342858D01*
X16892857Y22914286D02*
X17273809Y22914286D01*
X17035714Y23247620D02*
X17035714Y22390477D01*
X17083333Y22295239D01*
X17178571Y22247620D01*
X17273809Y22247620D01*
%TO.C,D1*%
X13982380Y14441905D02*
X12982380Y14441905D01*
X12982380Y14680000D01*
X13030000Y14822858D01*
X13125238Y14918096D01*
X13220476Y14965715D01*
X13410952Y15013334D01*
X13553809Y15013334D01*
X13744285Y14965715D01*
X13839523Y14918096D01*
X13934761Y14822858D01*
X13982380Y14680000D01*
X13982380Y14441905D01*
X13982380Y15965715D02*
X13982380Y15394286D01*
X13982380Y15680000D02*
X12982380Y15680000D01*
X13125238Y15584762D01*
X13220476Y15489524D01*
X13268095Y15394286D01*
X16452380Y13207143D02*
X16452380Y12635715D01*
X16452380Y12921429D02*
X15452380Y12921429D01*
X15595238Y12826191D01*
X15690476Y12730953D01*
X15738095Y12635715D01*
X16452380Y13635715D02*
X15452380Y13635715D01*
X16452380Y14207143D01*
X15452380Y14207143D01*
X15785714Y15111905D02*
X16452380Y15111905D01*
X15404761Y14873810D02*
X16119047Y14635715D01*
X16119047Y15254762D01*
X15452380Y15826191D02*
X15452380Y15921429D01*
X15500000Y16016667D01*
X15547619Y16064286D01*
X15642857Y16111905D01*
X15833333Y16159524D01*
X16071428Y16159524D01*
X16261904Y16111905D01*
X16357142Y16064286D01*
X16404761Y16016667D01*
X16452380Y15921429D01*
X16452380Y15826191D01*
X16404761Y15730953D01*
X16357142Y15683334D01*
X16261904Y15635715D01*
X16071428Y15588096D01*
X15833333Y15588096D01*
X15642857Y15635715D01*
X15547619Y15683334D01*
X15500000Y15730953D01*
X15452380Y15826191D01*
X15452380Y16778572D02*
X15452380Y16873810D01*
X15500000Y16969048D01*
X15547619Y17016667D01*
X15642857Y17064286D01*
X15833333Y17111905D01*
X16071428Y17111905D01*
X16261904Y17064286D01*
X16357142Y17016667D01*
X16404761Y16969048D01*
X16452380Y16873810D01*
X16452380Y16778572D01*
X16404761Y16683334D01*
X16357142Y16635715D01*
X16261904Y16588096D01*
X16071428Y16540477D01*
X15833333Y16540477D01*
X15642857Y16588096D01*
X15547619Y16635715D01*
X15500000Y16683334D01*
X15452380Y16778572D01*
X16452380Y18064286D02*
X16452380Y17492858D01*
X16452380Y17778572D02*
X15452380Y17778572D01*
X15595238Y17683334D01*
X15690476Y17588096D01*
X15738095Y17492858D01*
X14352380Y9838096D02*
X13352380Y9838096D01*
X14352380Y10409524D02*
X13780952Y9980953D01*
X13352380Y10409524D02*
X13923809Y9838096D01*
%TO.C,R3*%
X37502380Y6983334D02*
X37026190Y6650000D01*
X37502380Y6411905D02*
X36502380Y6411905D01*
X36502380Y6792858D01*
X36550000Y6888096D01*
X36597619Y6935715D01*
X36692857Y6983334D01*
X36835714Y6983334D01*
X36930952Y6935715D01*
X36978571Y6888096D01*
X37026190Y6792858D01*
X37026190Y6411905D01*
X36502380Y7316667D02*
X36502380Y7935715D01*
X36883333Y7602381D01*
X36883333Y7745239D01*
X36930952Y7840477D01*
X36978571Y7888096D01*
X37073809Y7935715D01*
X37311904Y7935715D01*
X37407142Y7888096D01*
X37454761Y7840477D01*
X37502380Y7745239D01*
X37502380Y7459524D01*
X37454761Y7364286D01*
X37407142Y7316667D01*
X35252380Y7280953D02*
X35252380Y6709524D01*
X35252380Y6995239D02*
X34252380Y6995239D01*
X34395238Y6900000D01*
X34490476Y6804762D01*
X34538095Y6709524D01*
X35252380Y7709524D02*
X34252380Y7709524D01*
X34871428Y7804762D02*
X35252380Y8090477D01*
X34585714Y8090477D02*
X34966666Y7709524D01*
%TD*%
M02*
