%TF.GenerationSoftware,KiCad,Pcbnew,(5.1.8-0-10_14)*%
%TF.CreationDate,2022-01-02T20:41:24-05:00*%
%TF.ProjectId,Exposure-control,4578706f-7375-4726-952d-636f6e74726f,rev?*%
%TF.SameCoordinates,PX97fa40PY44b2ea0*%
%TF.FileFunction,Copper,L1,Top*%
%TF.FilePolarity,Positive*%
%FSLAX46Y46*%
G04 Gerber Fmt 4.6, Leading zero omitted, Abs format (unit mm)*
G04 Created by KiCad (PCBNEW (5.1.8-0-10_14)) date 2022-01-02 20:41:24*
%MOMM*%
%LPD*%
G01*
G04 APERTURE LIST*
%TA.AperFunction,ComponentPad*%
%ADD10O,2.000000X1.905000*%
%TD*%
%TA.AperFunction,ComponentPad*%
%ADD11R,2.000000X1.905000*%
%TD*%
%TA.AperFunction,ComponentPad*%
%ADD12O,1.700000X1.700000*%
%TD*%
%TA.AperFunction,ComponentPad*%
%ADD13R,1.700000X1.700000*%
%TD*%
%TA.AperFunction,ComponentPad*%
%ADD14O,2.000000X1.700000*%
%TD*%
%TA.AperFunction,ComponentPad*%
%ADD15O,1.700000X2.000000*%
%TD*%
%TA.AperFunction,ComponentPad*%
%ADD16O,1.700000X1.950000*%
%TD*%
%TA.AperFunction,ComponentPad*%
%ADD17R,1.524000X1.524000*%
%TD*%
%TA.AperFunction,ComponentPad*%
%ADD18O,2.200000X2.200000*%
%TD*%
%TA.AperFunction,ComponentPad*%
%ADD19R,2.200000X2.200000*%
%TD*%
%TA.AperFunction,ComponentPad*%
%ADD20C,1.600000*%
%TD*%
%TA.AperFunction,ComponentPad*%
%ADD21O,1.600000X1.600000*%
%TD*%
%TA.AperFunction,ViaPad*%
%ADD22C,3.500000*%
%TD*%
G04 APERTURE END LIST*
D10*
%TO.P,Q1,3*%
%TO.N,GND*%
X30550000Y17680000D03*
%TO.P,Q1,2*%
%TO.N,SafelightGnd*%
X30550000Y15140000D03*
D11*
%TO.P,Q1,1*%
%TO.N,Net-(Q1-Pad1)*%
X30550000Y12600000D03*
%TD*%
D12*
%TO.P,J1,2*%
%TO.N,UVControl*%
X38750000Y2360000D03*
D13*
%TO.P,J1,1*%
%TO.N,SafelightControl*%
X38750000Y4900000D03*
%TD*%
D14*
%TO.P,J5,2*%
%TO.N,SafelightGnd*%
X41500000Y19300000D03*
%TO.P,J5,1*%
%TO.N,+24V*%
%TA.AperFunction,ComponentPad*%
G36*
G01*
X40750000Y22650000D02*
X42250000Y22650000D01*
G75*
G02*
X42500000Y22400000I0J-250000D01*
G01*
X42500000Y21200000D01*
G75*
G02*
X42250000Y20950000I-250000J0D01*
G01*
X40750000Y20950000D01*
G75*
G02*
X40500000Y21200000I0J250000D01*
G01*
X40500000Y22400000D01*
G75*
G02*
X40750000Y22650000I250000J0D01*
G01*
G37*
%TD.AperFunction*%
%TD*%
D15*
%TO.P,J4,2*%
%TO.N,+5V*%
X16000000Y4200000D03*
%TO.P,J4,1*%
%TO.N,GND*%
%TA.AperFunction,ComponentPad*%
G36*
G01*
X19350000Y4950000D02*
X19350000Y3450000D01*
G75*
G02*
X19100000Y3200000I-250000J0D01*
G01*
X17900000Y3200000D01*
G75*
G02*
X17650000Y3450000I0J250000D01*
G01*
X17650000Y4950000D01*
G75*
G02*
X17900000Y5200000I250000J0D01*
G01*
X19100000Y5200000D01*
G75*
G02*
X19350000Y4950000I0J-250000D01*
G01*
G37*
%TD.AperFunction*%
%TD*%
D14*
%TO.P,J3,2*%
%TO.N,+5V*%
X6100000Y6800000D03*
%TO.P,J3,1*%
%TO.N,GND*%
%TA.AperFunction,ComponentPad*%
G36*
G01*
X6850000Y3450000D02*
X5350000Y3450000D01*
G75*
G02*
X5100000Y3700000I0J250000D01*
G01*
X5100000Y4900000D01*
G75*
G02*
X5350000Y5150000I250000J0D01*
G01*
X6850000Y5150000D01*
G75*
G02*
X7100000Y4900000I0J-250000D01*
G01*
X7100000Y3700000D01*
G75*
G02*
X6850000Y3450000I-250000J0D01*
G01*
G37*
%TD.AperFunction*%
%TD*%
%TO.P,J2,1*%
%TO.N,GND*%
%TA.AperFunction,ComponentPad*%
G36*
G01*
X6650000Y24350000D02*
X5150000Y24350000D01*
G75*
G02*
X4900000Y24600000I0J250000D01*
G01*
X4900000Y25800000D01*
G75*
G02*
X5150000Y26050000I250000J0D01*
G01*
X6650000Y26050000D01*
G75*
G02*
X6900000Y25800000I0J-250000D01*
G01*
X6900000Y24600000D01*
G75*
G02*
X6650000Y24350000I-250000J0D01*
G01*
G37*
%TD.AperFunction*%
%TO.P,J2,2*%
%TO.N,+24V*%
X5900000Y27700000D03*
%TD*%
D16*
%TO.P,J7,5*%
%TO.N,GND*%
X45450000Y30400000D03*
%TO.P,J7,4*%
X42950000Y30400000D03*
%TO.P,J7,3*%
%TO.N,UVControl*%
X40450000Y30400000D03*
%TO.P,J7,2*%
%TO.N,+24V*%
X37950000Y30400000D03*
%TO.P,J7,1*%
%TA.AperFunction,ComponentPad*%
G36*
G01*
X34600000Y29675000D02*
X34600000Y31125000D01*
G75*
G02*
X34850000Y31375000I250000J0D01*
G01*
X36050000Y31375000D01*
G75*
G02*
X36300000Y31125000I0J-250000D01*
G01*
X36300000Y29675000D01*
G75*
G02*
X36050000Y29425000I-250000J0D01*
G01*
X34850000Y29425000D01*
G75*
G02*
X34600000Y29675000I0J250000D01*
G01*
G37*
%TD.AperFunction*%
%TD*%
%TO.P,U1,4*%
%TO.N,Net-(U1-Pad4)*%
%TA.AperFunction,ComponentPad*%
G36*
G01*
X13131000Y29548000D02*
X12369000Y29548000D01*
G75*
G02*
X11988000Y29929000I0J381000D01*
G01*
X11988000Y30691000D01*
G75*
G02*
X12369000Y31072000I381000J0D01*
G01*
X13131000Y31072000D01*
G75*
G02*
X13512000Y30691000I0J-381000D01*
G01*
X13512000Y29929000D01*
G75*
G02*
X13131000Y29548000I-381000J0D01*
G01*
G37*
%TD.AperFunction*%
%TO.P,U1,3*%
%TO.N,+24V*%
%TA.AperFunction,ComponentPad*%
G36*
G01*
X13131000Y27008000D02*
X12369000Y27008000D01*
G75*
G02*
X11988000Y27389000I0J381000D01*
G01*
X11988000Y28151000D01*
G75*
G02*
X12369000Y28532000I381000J0D01*
G01*
X13131000Y28532000D01*
G75*
G02*
X13512000Y28151000I0J-381000D01*
G01*
X13512000Y27389000D01*
G75*
G02*
X13131000Y27008000I-381000J0D01*
G01*
G37*
%TD.AperFunction*%
%TO.P,U1,2*%
%TO.N,GND*%
%TA.AperFunction,ComponentPad*%
G36*
G01*
X13131000Y24468000D02*
X12369000Y24468000D01*
G75*
G02*
X11988000Y24849000I0J381000D01*
G01*
X11988000Y25611000D01*
G75*
G02*
X12369000Y25992000I381000J0D01*
G01*
X13131000Y25992000D01*
G75*
G02*
X13512000Y25611000I0J-381000D01*
G01*
X13512000Y24849000D01*
G75*
G02*
X13131000Y24468000I-381000J0D01*
G01*
G37*
%TD.AperFunction*%
D17*
%TO.P,U1,1*%
%TO.N,Net-(D1-Pad2)*%
X12750000Y22690000D03*
%TD*%
D18*
%TO.P,D1,2*%
%TO.N,Net-(D1-Pad2)*%
X16000000Y20260000D03*
D19*
%TO.P,D1,1*%
%TO.N,+5V*%
X16000000Y10100000D03*
%TD*%
D20*
%TO.P,R3,1*%
%TO.N,SafelightControl*%
X34800000Y2400000D03*
D21*
%TO.P,R3,2*%
%TO.N,Net-(Q1-Pad1)*%
X34800000Y12560000D03*
%TD*%
D22*
%TO.N,*%
X25040000Y12036000D03*
%TD*%
M02*
