%TF.GenerationSoftware,KiCad,Pcbnew,(5.1.8-0-10_14)*%
%TF.CreationDate,2021-05-22T16:20:34-04:00*%
%TF.ProjectId,PiHat,50694861-742e-46b6-9963-61645f706362,rev?*%
%TF.SameCoordinates,Original*%
%TF.FileFunction,Copper,L2,Bot*%
%TF.FilePolarity,Positive*%
%FSLAX46Y46*%
G04 Gerber Fmt 4.6, Leading zero omitted, Abs format (unit mm)*
G04 Created by KiCad (PCBNEW (5.1.8-0-10_14)) date 2021-05-22 16:20:34*
%MOMM*%
%LPD*%
G01*
G04 APERTURE LIST*
%TA.AperFunction,ComponentPad*%
%ADD10O,1.700000X1.700000*%
%TD*%
%TA.AperFunction,ComponentPad*%
%ADD11R,1.700000X1.700000*%
%TD*%
%TA.AperFunction,ComponentPad*%
%ADD12O,1.600000X1.600000*%
%TD*%
%TA.AperFunction,ComponentPad*%
%ADD13C,1.600000*%
%TD*%
%TA.AperFunction,ComponentPad*%
%ADD14O,2.000000X1.700000*%
%TD*%
%TA.AperFunction,ComponentPad*%
%ADD15O,1.700000X1.950000*%
%TD*%
%TA.AperFunction,ComponentPad*%
%ADD16O,1.950000X1.700000*%
%TD*%
%TA.AperFunction,ComponentPad*%
%ADD17C,1.700000*%
%TD*%
%TA.AperFunction,ComponentPad*%
%ADD18R,1.524000X1.524000*%
%TD*%
%TA.AperFunction,ComponentPad*%
%ADD19O,1.800000X1.800000*%
%TD*%
%TA.AperFunction,ComponentPad*%
%ADD20R,1.800000X1.800000*%
%TD*%
%TA.AperFunction,ComponentPad*%
%ADD21O,2.200000X2.200000*%
%TD*%
%TA.AperFunction,ComponentPad*%
%ADD22R,2.200000X2.200000*%
%TD*%
%TA.AperFunction,ViaPad*%
%ADD23C,0.800000*%
%TD*%
%TA.AperFunction,Conductor*%
%ADD24C,1.500000*%
%TD*%
%TA.AperFunction,Conductor*%
%ADD25C,2.000000*%
%TD*%
%TA.AperFunction,Conductor*%
%ADD26C,1.250000*%
%TD*%
G04 APERTURE END LIST*
D10*
%TO.P,J9,2*%
%TO.N,GND*%
X57410000Y-56346000D03*
D11*
%TO.P,J9,1*%
%TO.N,Buzzer*%
X57410000Y-58886000D03*
%TD*%
D12*
%TO.P,R2,2*%
%TO.N,GND*%
X28410000Y-64296000D03*
D13*
%TO.P,R2,1*%
%TO.N,ZProbe3V3*%
X28410000Y-54136000D03*
%TD*%
D12*
%TO.P,R1,2*%
%TO.N,ZProbe3V3*%
X28410000Y-48046000D03*
D13*
%TO.P,R1,1*%
%TO.N,ZProbeIn*%
X28410000Y-37886000D03*
%TD*%
D14*
%TO.P,J8,2*%
%TO.N,GND*%
X16410000Y-57886000D03*
%TO.P,J8,1*%
%TO.N,+5V*%
%TA.AperFunction,ComponentPad*%
G36*
G01*
X15660000Y-54536000D02*
X17160000Y-54536000D01*
G75*
G02*
X17410000Y-54786000I0J-250000D01*
G01*
X17410000Y-55986000D01*
G75*
G02*
X17160000Y-56236000I-250000J0D01*
G01*
X15660000Y-56236000D01*
G75*
G02*
X15410000Y-55986000I0J250000D01*
G01*
X15410000Y-54786000D01*
G75*
G02*
X15660000Y-54536000I250000J0D01*
G01*
G37*
%TD.AperFunction*%
%TD*%
D15*
%TO.P,J7,5*%
%TO.N,GND*%
X54410000Y-14636000D03*
%TO.P,J7,4*%
X51910000Y-14636000D03*
%TO.P,J7,3*%
%TO.N,UVControl*%
X49410000Y-14636000D03*
%TO.P,J7,2*%
%TO.N,+24V*%
X46910000Y-14636000D03*
%TO.P,J7,1*%
%TA.AperFunction,ComponentPad*%
G36*
G01*
X43560000Y-15361000D02*
X43560000Y-13911000D01*
G75*
G02*
X43810000Y-13661000I250000J0D01*
G01*
X45010000Y-13661000D01*
G75*
G02*
X45260000Y-13911000I0J-250000D01*
G01*
X45260000Y-15361000D01*
G75*
G02*
X45010000Y-15611000I-250000J0D01*
G01*
X43810000Y-15611000D01*
G75*
G02*
X43560000Y-15361000I0J250000D01*
G01*
G37*
%TD.AperFunction*%
%TD*%
D16*
%TO.P,J5,3*%
%TO.N,ZProbeIn*%
X18410000Y-36136000D03*
%TO.P,J5,2*%
%TO.N,LaserGnd*%
X18410000Y-33636000D03*
%TO.P,J5,1*%
%TO.N,+5V*%
%TA.AperFunction,ComponentPad*%
G36*
G01*
X17685000Y-30286000D02*
X19135000Y-30286000D01*
G75*
G02*
X19385000Y-30536000I0J-250000D01*
G01*
X19385000Y-31736000D01*
G75*
G02*
X19135000Y-31986000I-250000J0D01*
G01*
X17685000Y-31986000D01*
G75*
G02*
X17435000Y-31736000I0J250000D01*
G01*
X17435000Y-30536000D01*
G75*
G02*
X17685000Y-30286000I250000J0D01*
G01*
G37*
%TD.AperFunction*%
%TD*%
D17*
%TO.P,J6,16*%
%TO.N,T_IRQ*%
X43950000Y-54848000D03*
%TO.P,J6,14*%
%TO.N,SLCK*%
X43950000Y-52308000D03*
%TO.P,J6,12*%
%TO.N,MISO*%
X43950000Y-49768000D03*
%TO.P,J6,10*%
%TO.N,MOSI*%
X43950000Y-47228000D03*
%TO.P,J6,8*%
%TO.N,RESET*%
X43950000Y-44688000D03*
%TO.P,J6,6*%
%TO.N,DC*%
X43950000Y-42148000D03*
%TO.P,J6,4*%
%TO.N,CS*%
X43950000Y-39608000D03*
%TO.P,J6,2*%
%TO.N,+3V3*%
X43950000Y-37068000D03*
%TO.P,J6,15*%
%TO.N,T_CS*%
X41410000Y-54848000D03*
%TO.P,J6,13*%
%TO.N,SLCK*%
X41410000Y-52308000D03*
%TO.P,J6,11*%
%TO.N,MISO*%
X41410000Y-49768000D03*
%TO.P,J6,9*%
%TO.N,MOSI*%
X41410000Y-47228000D03*
%TO.P,J6,7*%
%TO.N,SDA*%
X41410000Y-44688000D03*
%TO.P,J6,5*%
%TO.N,SCL*%
X41410000Y-42148000D03*
%TO.P,J6,3*%
%TO.N,GND*%
X41410000Y-39608000D03*
%TO.P,J6,1*%
%TO.N,+3V3*%
%TA.AperFunction,ComponentPad*%
G36*
G01*
X40560000Y-37668000D02*
X40560000Y-36468000D01*
G75*
G02*
X40810000Y-36218000I250000J0D01*
G01*
X42010000Y-36218000D01*
G75*
G02*
X42260000Y-36468000I0J-250000D01*
G01*
X42260000Y-37668000D01*
G75*
G02*
X42010000Y-37918000I-250000J0D01*
G01*
X40810000Y-37918000D01*
G75*
G02*
X40560000Y-37668000I0J250000D01*
G01*
G37*
%TD.AperFunction*%
%TD*%
D10*
%TO.P,J1,40*%
%TO.N,Net-(J1-Pad40)*%
X53450000Y-69146000D03*
%TO.P,J1,39*%
%TO.N,GND*%
X50910000Y-69146000D03*
%TO.P,J1,38*%
%TO.N,Net-(J1-Pad38)*%
X53450000Y-66606000D03*
%TO.P,J1,37*%
%TO.N,LaserControl*%
X50910000Y-66606000D03*
%TO.P,J1,36*%
%TO.N,Net-(J1-Pad36)*%
X53450000Y-64066000D03*
%TO.P,J1,35*%
%TO.N,ZProbe3V3*%
X50910000Y-64066000D03*
%TO.P,J1,34*%
%TO.N,Net-(J1-Pad34)*%
X53450000Y-61526000D03*
%TO.P,J1,33*%
%TO.N,Net-(J1-Pad33)*%
X50910000Y-61526000D03*
%TO.P,J1,32*%
%TO.N,Buzzer*%
X53450000Y-58986000D03*
%TO.P,J1,31*%
%TO.N,T_CS*%
X50910000Y-58986000D03*
%TO.P,J1,30*%
%TO.N,Net-(J1-Pad30)*%
X53450000Y-56446000D03*
%TO.P,J1,29*%
%TO.N,T_IRQ*%
X50910000Y-56446000D03*
%TO.P,J1,28*%
%TO.N,Net-(J1-Pad28)*%
X53450000Y-53906000D03*
%TO.P,J1,27*%
%TO.N,Net-(J1-Pad27)*%
X50910000Y-53906000D03*
%TO.P,J1,26*%
%TO.N,Net-(J1-Pad26)*%
X53450000Y-51366000D03*
%TO.P,J1,25*%
%TO.N,Net-(J1-Pad25)*%
X50910000Y-51366000D03*
%TO.P,J1,24*%
%TO.N,Net-(J1-Pad24)*%
X53450000Y-48826000D03*
%TO.P,J1,23*%
%TO.N,SLCK*%
X50910000Y-48826000D03*
%TO.P,J1,22*%
%TO.N,Net-(J1-Pad22)*%
X53450000Y-46286000D03*
%TO.P,J1,21*%
%TO.N,MISO*%
X50910000Y-46286000D03*
%TO.P,J1,20*%
%TO.N,GND*%
X53450000Y-43746000D03*
%TO.P,J1,19*%
%TO.N,MOSI*%
X50910000Y-43746000D03*
%TO.P,J1,18*%
%TO.N,Net-(J1-Pad18)*%
X53450000Y-41206000D03*
%TO.P,J1,17*%
%TO.N,Net-(J1-Pad17)*%
X50910000Y-41206000D03*
%TO.P,J1,16*%
%TO.N,Net-(J1-Pad16)*%
X53450000Y-38666000D03*
%TO.P,J1,15*%
%TO.N,RESET*%
X50910000Y-38666000D03*
%TO.P,J1,14*%
%TO.N,Net-(J1-Pad14)*%
X53450000Y-36126000D03*
%TO.P,J1,13*%
%TO.N,DC*%
X50910000Y-36126000D03*
%TO.P,J1,12*%
%TO.N,Net-(J1-Pad12)*%
X53450000Y-33586000D03*
%TO.P,J1,11*%
%TO.N,CS*%
X50910000Y-33586000D03*
%TO.P,J1,10*%
%TO.N,Net-(J1-Pad10)*%
X53450000Y-31046000D03*
%TO.P,J1,9*%
%TO.N,Net-(J1-Pad9)*%
X50910000Y-31046000D03*
%TO.P,J1,8*%
%TO.N,UVControl*%
X53450000Y-28506000D03*
%TO.P,J1,7*%
%TO.N,Net-(J1-Pad7)*%
X50910000Y-28506000D03*
%TO.P,J1,6*%
%TO.N,Net-(J1-Pad6)*%
X53450000Y-25966000D03*
%TO.P,J1,5*%
%TO.N,SCL*%
X50910000Y-25966000D03*
%TO.P,J1,4*%
%TO.N,Net-(J1-Pad4)*%
X53450000Y-23426000D03*
%TO.P,J1,3*%
%TO.N,SDA*%
X50910000Y-23426000D03*
%TO.P,J1,2*%
%TO.N,+5V*%
X53450000Y-20886000D03*
D11*
%TO.P,J1,1*%
%TO.N,+3V3*%
X50910000Y-20886000D03*
%TD*%
D14*
%TO.P,J3,2*%
%TO.N,GND*%
X16660000Y-47386000D03*
%TO.P,J3,1*%
%TO.N,+5V*%
%TA.AperFunction,ComponentPad*%
G36*
G01*
X15910000Y-44036000D02*
X17410000Y-44036000D01*
G75*
G02*
X17660000Y-44286000I0J-250000D01*
G01*
X17660000Y-45486000D01*
G75*
G02*
X17410000Y-45736000I-250000J0D01*
G01*
X15910000Y-45736000D01*
G75*
G02*
X15660000Y-45486000I0J250000D01*
G01*
X15660000Y-44286000D01*
G75*
G02*
X15910000Y-44036000I250000J0D01*
G01*
G37*
%TD.AperFunction*%
%TD*%
%TO.P,U1,4*%
%TO.N,Net-(U1-Pad4)*%
%TA.AperFunction,ComponentPad*%
G36*
G01*
X22091000Y-15488000D02*
X21329000Y-15488000D01*
G75*
G02*
X20948000Y-15107000I0J381000D01*
G01*
X20948000Y-14345000D01*
G75*
G02*
X21329000Y-13964000I381000J0D01*
G01*
X22091000Y-13964000D01*
G75*
G02*
X22472000Y-14345000I0J-381000D01*
G01*
X22472000Y-15107000D01*
G75*
G02*
X22091000Y-15488000I-381000J0D01*
G01*
G37*
%TD.AperFunction*%
%TO.P,U1,3*%
%TO.N,+24V*%
%TA.AperFunction,ComponentPad*%
G36*
G01*
X22091000Y-18028000D02*
X21329000Y-18028000D01*
G75*
G02*
X20948000Y-17647000I0J381000D01*
G01*
X20948000Y-16885000D01*
G75*
G02*
X21329000Y-16504000I381000J0D01*
G01*
X22091000Y-16504000D01*
G75*
G02*
X22472000Y-16885000I0J-381000D01*
G01*
X22472000Y-17647000D01*
G75*
G02*
X22091000Y-18028000I-381000J0D01*
G01*
G37*
%TD.AperFunction*%
%TO.P,U1,2*%
%TO.N,GND*%
%TA.AperFunction,ComponentPad*%
G36*
G01*
X22091000Y-20568000D02*
X21329000Y-20568000D01*
G75*
G02*
X20948000Y-20187000I0J381000D01*
G01*
X20948000Y-19425000D01*
G75*
G02*
X21329000Y-19044000I381000J0D01*
G01*
X22091000Y-19044000D01*
G75*
G02*
X22472000Y-19425000I0J-381000D01*
G01*
X22472000Y-20187000D01*
G75*
G02*
X22091000Y-20568000I-381000J0D01*
G01*
G37*
%TD.AperFunction*%
D18*
%TO.P,U1,1*%
%TO.N,Net-(D1-Pad2)*%
X21710000Y-22346000D03*
%TD*%
D19*
%TO.P,Q1,3*%
%TO.N,Net-(Q1-Pad3)*%
X31740000Y-33636000D03*
%TO.P,Q1,2*%
%TO.N,LaserGnd*%
X29200000Y-33636000D03*
D20*
%TO.P,Q1,1*%
%TO.N,GND*%
X26660000Y-33636000D03*
%TD*%
D21*
%TO.P,D1,2*%
%TO.N,Net-(D1-Pad2)*%
X29000000Y-27136000D03*
D22*
%TO.P,D1,1*%
%TO.N,+5V*%
X39160000Y-27136000D03*
%TD*%
%TO.P,J2,1*%
%TO.N,+24V*%
%TA.AperFunction,ComponentPad*%
G36*
G01*
X15494000Y-16536000D02*
X16994000Y-16536000D01*
G75*
G02*
X17244000Y-16786000I0J-250000D01*
G01*
X17244000Y-17986000D01*
G75*
G02*
X16994000Y-18236000I-250000J0D01*
G01*
X15494000Y-18236000D01*
G75*
G02*
X15244000Y-17986000I0J250000D01*
G01*
X15244000Y-16786000D01*
G75*
G02*
X15494000Y-16536000I250000J0D01*
G01*
G37*
%TD.AperFunction*%
D14*
%TO.P,J2,2*%
%TO.N,GND*%
X16244000Y-19886000D03*
%TD*%
%TO.P,J4,2*%
%TO.N,GND*%
X16410000Y-68636000D03*
%TO.P,J4,1*%
%TO.N,+5V*%
%TA.AperFunction,ComponentPad*%
G36*
G01*
X15660000Y-65286000D02*
X17160000Y-65286000D01*
G75*
G02*
X17410000Y-65536000I0J-250000D01*
G01*
X17410000Y-66736000D01*
G75*
G02*
X17160000Y-66986000I-250000J0D01*
G01*
X15660000Y-66986000D01*
G75*
G02*
X15410000Y-66736000I0J250000D01*
G01*
X15410000Y-65536000D01*
G75*
G02*
X15660000Y-65286000I250000J0D01*
G01*
G37*
%TD.AperFunction*%
%TD*%
D13*
%TO.P,R3,1*%
%TO.N,LaserControl*%
X32660000Y-48136000D03*
D12*
%TO.P,R3,2*%
%TO.N,Net-(Q1-Pad3)*%
X32660000Y-37976000D03*
%TD*%
D23*
%TO.N,SCL*%
X38160000Y-44386000D03*
%TO.N,SDA*%
X38160000Y-47386000D03*
%TD*%
D24*
%TO.N,GND*%
X16160000Y-57886000D02*
X12410000Y-57886000D01*
X12410000Y-57886000D02*
X12410000Y-47136000D01*
X16410000Y-68636000D02*
X12410000Y-68636000D01*
X12410000Y-68636000D02*
X12410000Y-57886000D01*
X12660000Y-47386000D02*
X12410000Y-47136000D01*
X16410000Y-47386000D02*
X12660000Y-47386000D01*
X28410000Y-68636000D02*
X28410000Y-64386000D01*
X28410000Y-68636000D02*
X22660000Y-68636000D01*
X22660000Y-68636000D02*
X16410000Y-68636000D01*
X16410000Y-19886000D02*
X21410000Y-19886000D01*
X16160000Y-19886000D02*
X15900000Y-19886000D01*
X26660000Y-33386000D02*
X26660000Y-29136000D01*
X24386000Y-26862000D02*
X12434000Y-26862000D01*
X26660000Y-29136000D02*
X24386000Y-26862000D01*
X22910000Y-68386000D02*
X22660000Y-68636000D01*
X22910000Y-43636000D02*
X22910000Y-68386000D01*
X35660000Y-43636000D02*
X22910000Y-43636000D01*
X41410000Y-39636000D02*
X38160000Y-39636000D01*
X38160000Y-41136000D02*
X35660000Y-43636000D01*
X38160000Y-39636000D02*
X38160000Y-41136000D01*
X50410000Y-68636000D02*
X50910000Y-69136000D01*
X28410000Y-68636000D02*
X50410000Y-68636000D01*
D25*
X51910000Y-14636000D02*
X54410000Y-14636000D01*
D24*
X15900000Y-19886000D02*
X14905000Y-20881000D01*
D25*
X51910000Y-12386000D02*
X51910000Y-14886000D01*
X51160000Y-11636000D02*
X51910000Y-12386000D01*
X14905000Y-20881000D02*
X12410000Y-18386000D01*
X51160000Y-11636000D02*
X14660000Y-11636000D01*
X14660000Y-11636000D02*
X12410000Y-13886000D01*
X12410000Y-18386000D02*
X12410000Y-13886000D01*
D24*
X12434000Y-23352000D02*
X14905000Y-20881000D01*
X12410000Y-23376000D02*
X12434000Y-23352000D01*
X12410000Y-47136000D02*
X12410000Y-23376000D01*
D26*
X57410000Y-56386000D02*
X57410000Y-45886000D01*
X57410000Y-45886000D02*
X55160000Y-43636000D01*
X53660000Y-43636000D02*
X55160000Y-43636000D01*
D24*
%TO.N,+5V*%
X20660000Y-44636000D02*
X17160000Y-44636000D01*
X20660000Y-44636000D02*
X20660000Y-55386000D01*
X16910000Y-55386000D02*
X16660000Y-55636000D01*
X20660000Y-55386000D02*
X16910000Y-55386000D01*
X20660000Y-55386000D02*
X20660000Y-65636000D01*
X20410000Y-65886000D02*
X16410000Y-65886000D01*
X20660000Y-65636000D02*
X20410000Y-65886000D01*
X18410000Y-31136000D02*
X15660000Y-31136000D01*
X15660000Y-43636000D02*
X16910000Y-44886000D01*
X15660000Y-31136000D02*
X15660000Y-43636000D01*
X34660000Y-41136000D02*
X36035000Y-39761000D01*
X20660000Y-41136000D02*
X34660000Y-41136000D01*
X20660000Y-44636000D02*
X20660000Y-41136000D01*
X36035000Y-39761000D02*
X36035000Y-30261000D01*
X36035000Y-30261000D02*
X39160000Y-27136000D01*
D26*
X53410000Y-20886000D02*
X53410000Y-20110998D01*
D24*
X42910000Y-23136000D02*
X38910000Y-27136000D01*
X44410000Y-18636000D02*
X42910000Y-20136000D01*
X53410000Y-20636000D02*
X53410000Y-19136000D01*
X52910000Y-18636000D02*
X44410000Y-18636000D01*
X42910000Y-20136000D02*
X42910000Y-23136000D01*
X53410000Y-19136000D02*
X52910000Y-18636000D01*
%TO.N,Net-(D1-Pad2)*%
X24410000Y-22386000D02*
X21910000Y-22386000D01*
X28660000Y-26636000D02*
X24410000Y-22386000D01*
X28660000Y-26886000D02*
X28660000Y-26636000D01*
%TO.N,Net-(Q1-Pad3)*%
X32660000Y-34386000D02*
X31910000Y-33636000D01*
X32660000Y-37886000D02*
X32660000Y-34386000D01*
D26*
%TO.N,SLCK*%
X43422000Y-52308000D02*
X43608081Y-52121919D01*
X46910000Y-52386000D02*
X41410000Y-52386000D01*
X46910000Y-52386000D02*
X46910000Y-51886000D01*
X49910000Y-48886000D02*
X50910000Y-48886000D01*
X46910000Y-51886000D02*
X49910000Y-48886000D01*
%TO.N,MOSI*%
X41410000Y-47136000D02*
X44160000Y-47136000D01*
X43910000Y-47136000D02*
X45410000Y-47136000D01*
X48910000Y-43636000D02*
X50910000Y-43636000D01*
X45410000Y-47136000D02*
X48910000Y-43636000D01*
%TO.N,MISO*%
X43660000Y-49886000D02*
X43910000Y-49636000D01*
X41410000Y-49886000D02*
X43660000Y-49886000D01*
X43910000Y-49636000D02*
X45910000Y-49636000D01*
X49160000Y-46386000D02*
X51160000Y-46386000D01*
X45910000Y-49636000D02*
X49160000Y-46386000D01*
%TO.N,T_IRQ*%
X50660000Y-56386000D02*
X43910000Y-56386000D01*
X43910000Y-56386000D02*
X43910000Y-54886000D01*
%TO.N,RESET*%
X44910000Y-44636000D02*
X50910000Y-38636000D01*
X43910000Y-44636000D02*
X44910000Y-44636000D01*
%TO.N,DC*%
X44160000Y-42136000D02*
X50160000Y-36136000D01*
X43910000Y-42136000D02*
X44160000Y-42136000D01*
X50910000Y-36136000D02*
X50160000Y-36136000D01*
%TO.N,CS*%
X43910000Y-39636000D02*
X43935002Y-39636000D01*
X50660000Y-33636000D02*
X50910000Y-33636000D01*
X43910000Y-39636000D02*
X49910000Y-33636000D01*
X49910000Y-33636000D02*
X50910000Y-33636000D01*
D24*
%TO.N,+3V3*%
X41410000Y-28636000D02*
X41410000Y-36886000D01*
X45910000Y-24136000D02*
X41410000Y-28636000D01*
X45910000Y-20886000D02*
X45910000Y-24136000D01*
X50910000Y-20886000D02*
X45910000Y-20886000D01*
X41410000Y-36886000D02*
X43910000Y-36886000D01*
D26*
%TO.N,T_CS*%
X50660000Y-58886000D02*
X41410000Y-58886000D01*
X41410000Y-58886000D02*
X41410000Y-55136000D01*
%TO.N,LaserControl*%
X32910000Y-48136000D02*
X32910000Y-65886000D01*
X32910000Y-65886000D02*
X48660000Y-65886000D01*
X49410000Y-66636000D02*
X50910000Y-66636000D01*
X48660000Y-65886000D02*
X49410000Y-66636000D01*
%TO.N,UVControl*%
X49410000Y-14636000D02*
X49410000Y-16886000D01*
X49410000Y-16886000D02*
X55160000Y-16886000D01*
X55160000Y-16886000D02*
X56160000Y-17886000D01*
X56160000Y-17886000D02*
X56160000Y-27886000D01*
X55410000Y-28636000D02*
X53410000Y-28636000D01*
X56160000Y-27886000D02*
X55410000Y-28636000D01*
D24*
%TO.N,ZProbe3V3*%
X28410000Y-48136000D02*
X28410000Y-54136000D01*
D26*
X28410000Y-48136000D02*
X28410000Y-45886000D01*
X35410000Y-62136000D02*
X35410000Y-45886000D01*
X36410000Y-63136000D02*
X35410000Y-62136000D01*
X28410000Y-45886000D02*
X35410000Y-45886000D01*
X36410000Y-63136000D02*
X48660000Y-63136000D01*
X49660000Y-64136000D02*
X50910000Y-64136000D01*
X48660000Y-63136000D02*
X49660000Y-64136000D01*
%TO.N,SCL*%
X41160000Y-42136000D02*
X40410000Y-42136000D01*
X40410000Y-42136000D02*
X38160000Y-44386000D01*
X38160000Y-44386000D02*
X38160000Y-44386000D01*
%TO.N,SDA*%
X41160000Y-44886000D02*
X40660000Y-44886000D01*
X40660000Y-44886000D02*
X38160000Y-47386000D01*
X38160000Y-47386000D02*
X38160000Y-47386000D01*
D25*
%TO.N,+24V*%
X21910000Y-17386000D02*
X38910000Y-17386000D01*
X46910000Y-14636000D02*
X44410000Y-14636000D01*
X41660000Y-14636000D02*
X38910000Y-17386000D01*
X44410000Y-14636000D02*
X41660000Y-14636000D01*
X16160000Y-17386000D02*
X21660000Y-17386000D01*
D26*
%TO.N,ZProbeIn*%
X19910000Y-37886000D02*
X18410000Y-36386000D01*
X28410000Y-37886000D02*
X19910000Y-37886000D01*
D24*
%TO.N,LaserGnd*%
X29160000Y-34736002D02*
X28010002Y-35886000D01*
X29160000Y-33636000D02*
X29160000Y-34736002D01*
X28010002Y-35886000D02*
X21910000Y-35886000D01*
X19660000Y-33636000D02*
X18410000Y-33636000D01*
X21910000Y-35886000D02*
X19660000Y-33636000D01*
D26*
%TO.N,Buzzer*%
X53410000Y-58886000D02*
X57410000Y-58886000D01*
%TD*%
M02*
