M48
; DRILL file {KiCad (5.1.8-0-10_14)} date Thursday, May 20, 2021 at 11:30:12 AM
; FORMAT={-:-/ absolute / metric / decimal}
; #@! TF.CreationDate,2021-05-20T11:30:12-04:00
; #@! TF.GenerationSoftware,Kicad,Pcbnew,(5.1.8-0-10_14)
FMAT,2
METRIC
T1C0.400
T2C0.762
T3C0.800
T4C0.950
T5C1.000
T6C1.100
%
G90
G05
T1
X28.0Y27.75
X28.0Y24.75
T2
X11.55Y57.41
X11.55Y54.87
X11.55Y52.33
X11.55Y49.79
T3
X18.25Y18.0
X18.25Y7.84
X22.5Y34.16
X22.5Y24.0
X18.25Y34.25
X18.25Y24.09
T4
X34.25Y57.5
X36.75Y57.5
X39.25Y57.5
X41.75Y57.5
X44.25Y57.5
X8.25Y41.0
X8.25Y38.5
X8.25Y36.0
T5
X6.5Y27.25
X6.5Y24.75
X6.25Y16.75
X6.25Y14.25
X6.25Y6.0
X6.25Y3.5
X6.084Y54.75
X6.084Y52.25
X31.25Y35.068
X31.25Y32.528
X31.25Y29.988
X31.25Y27.448
X31.25Y24.908
X31.25Y22.368
X31.25Y19.828
X31.25Y17.288
X33.79Y35.068
X33.79Y32.528
X33.79Y29.988
X33.79Y27.448
X33.79Y24.908
X33.79Y22.368
X33.79Y19.828
X33.79Y17.288
X40.75Y51.25
X40.75Y48.71
X40.75Y46.17
X40.75Y43.63
X40.75Y41.09
X40.75Y38.55
X40.75Y36.01
X40.75Y33.47
X40.75Y30.93
X40.75Y28.39
X40.75Y25.85
X40.75Y23.31
X40.75Y20.77
X40.75Y18.23
X40.75Y15.69
X40.75Y13.15
X40.75Y10.61
X40.75Y8.07
X40.75Y5.53
X40.75Y2.99
X43.29Y51.25
X43.29Y48.71
X43.29Y46.17
X43.29Y43.63
X43.29Y41.09
X43.29Y38.55
X43.29Y36.01
X43.29Y33.47
X43.29Y30.93
X43.29Y28.39
X43.29Y25.85
X43.29Y23.31
X43.29Y20.77
X43.29Y18.23
X43.29Y15.69
X43.29Y13.15
X43.29Y10.61
X43.29Y8.07
X43.29Y5.53
X43.29Y2.99
X16.5Y38.5
X19.04Y38.5
X21.58Y38.5
T6
X18.84Y45.0
X29.0Y45.0
T0
M30
