M48
; DRILL file {KiCad (5.1.8-0-10_14)} date Monday, March 29, 2021 at 03:35:47 PM
; FORMAT={-:-/ absolute / metric / decimal}
; #@! TF.CreationDate,2021-03-29T15:35:47-04:00
; #@! TF.GenerationSoftware,Kicad,Pcbnew,(5.1.8-0-10_14)
FMAT,2
METRIC
T1C0.762
T2C0.800
T3C1.000
T4C1.100
%
G90
G05
T1
X13.986Y55.15
X13.986Y52.61
X13.986Y50.07
X13.986Y47.53
T2
X18.888Y35.492
X18.888Y25.332
T3
X5.934Y20.76
X5.934Y18.26
X5.934Y41.08
X5.934Y38.58
X5.934Y51.24
X5.934Y48.74
X32.604Y33.968
X32.604Y31.428
X32.604Y28.888
X32.604Y26.348
X32.604Y23.808
X32.604Y21.268
X32.604Y18.728
X32.604Y16.188
X35.144Y33.968
X35.144Y31.428
X35.144Y28.888
X35.144Y26.348
X35.144Y23.808
X35.144Y21.268
X35.144Y18.728
X35.144Y16.188
X44.796Y52.764
X44.796Y50.224
X44.796Y47.684
X44.796Y45.144
X44.796Y42.604
X44.796Y40.064
X44.796Y37.524
X44.796Y34.984
X44.796Y32.444
X44.796Y29.904
X44.796Y27.364
X44.796Y24.824
X44.796Y22.284
X44.796Y19.744
X44.796Y17.204
X44.796Y14.664
X44.796Y12.124
X44.796Y9.584
X44.796Y7.044
X44.796Y4.504
X47.336Y52.764
X47.336Y50.224
X47.336Y47.684
X47.336Y45.144
X47.336Y42.604
X47.336Y40.064
X47.336Y37.524
X47.336Y34.984
X47.336Y32.444
X47.336Y29.904
X47.336Y27.364
X47.336Y24.824
X47.336Y22.284
X47.336Y19.744
X47.336Y17.204
X47.336Y14.664
X47.336Y12.124
X47.336Y9.584
X47.336Y7.044
X47.336Y4.504
X14.316Y41.08
X14.316Y38.54
X14.316Y36.0
X5.934Y30.92
X5.934Y28.42
T4
X20.92Y42.096
X31.08Y42.096
T0
M30
