%TF.GenerationSoftware,KiCad,Pcbnew,(5.1.8-0-10_14)*%
%TF.CreationDate,2021-03-28T12:16:17-04:00*%
%TF.ProjectId,PiHat,50694861-742e-46b6-9963-61645f706362,rev?*%
%TF.SameCoordinates,PX2a260a0PY7999e20*%
%TF.FileFunction,Copper,L2,Bot*%
%TF.FilePolarity,Positive*%
%FSLAX46Y46*%
G04 Gerber Fmt 4.6, Leading zero omitted, Abs format (unit mm)*
G04 Created by KiCad (PCBNEW (5.1.8-0-10_14)) date 2021-03-28 12:16:17*
%MOMM*%
%LPD*%
G01*
G04 APERTURE LIST*
%TA.AperFunction,ComponentPad*%
%ADD10C,1.700000*%
%TD*%
%TA.AperFunction,ComponentPad*%
%ADD11O,1.700000X1.700000*%
%TD*%
%TA.AperFunction,ComponentPad*%
%ADD12R,1.700000X1.700000*%
%TD*%
%TA.AperFunction,ComponentPad*%
%ADD13O,2.000000X1.700000*%
%TD*%
%TA.AperFunction,ComponentPad*%
%ADD14R,1.524000X1.524000*%
%TD*%
%TA.AperFunction,ComponentPad*%
%ADD15O,1.800000X1.800000*%
%TD*%
%TA.AperFunction,ComponentPad*%
%ADD16R,1.800000X1.800000*%
%TD*%
%TA.AperFunction,ComponentPad*%
%ADD17O,2.200000X2.200000*%
%TD*%
%TA.AperFunction,ComponentPad*%
%ADD18R,2.200000X2.200000*%
%TD*%
%TA.AperFunction,ComponentPad*%
%ADD19C,1.600000*%
%TD*%
%TA.AperFunction,ComponentPad*%
%ADD20O,1.600000X1.600000*%
%TD*%
%TA.AperFunction,Conductor*%
%ADD21C,1.500000*%
%TD*%
%TA.AperFunction,Conductor*%
%ADD22C,1.250000*%
%TD*%
G04 APERTURE END LIST*
D10*
%TO.P,J6,16*%
%TO.N,T_IRQ*%
X34544000Y18288000D03*
%TO.P,J6,14*%
%TO.N,SLCK*%
X34544000Y20828000D03*
%TO.P,J6,12*%
%TO.N,MISO*%
X34544000Y23368000D03*
%TO.P,J6,10*%
%TO.N,MOSI*%
X34544000Y25908000D03*
%TO.P,J6,8*%
%TO.N,RESET*%
X34544000Y28448000D03*
%TO.P,J6,6*%
%TO.N,DC*%
X34544000Y30988000D03*
%TO.P,J6,4*%
%TO.N,CS*%
X34544000Y33528000D03*
%TO.P,J6,2*%
%TO.N,+3V3*%
X34544000Y36068000D03*
%TO.P,J6,15*%
%TO.N,T_CS*%
X32004000Y18288000D03*
%TO.P,J6,13*%
%TO.N,SLCK*%
X32004000Y20828000D03*
%TO.P,J6,11*%
%TO.N,MISO*%
X32004000Y23368000D03*
%TO.P,J6,9*%
%TO.N,MOSI*%
X32004000Y25908000D03*
%TO.P,J6,7*%
%TO.N,Net-(J6-Pad7)*%
X32004000Y28448000D03*
%TO.P,J6,5*%
%TO.N,Net-(J6-Pad5)*%
X32004000Y30988000D03*
%TO.P,J6,3*%
%TO.N,GND*%
X32004000Y33528000D03*
%TO.P,J6,1*%
%TO.N,+3V3*%
%TA.AperFunction,ComponentPad*%
G36*
G01*
X31154000Y35468000D02*
X31154000Y36668000D01*
G75*
G02*
X31404000Y36918000I250000J0D01*
G01*
X32604000Y36918000D01*
G75*
G02*
X32854000Y36668000I0J-250000D01*
G01*
X32854000Y35468000D01*
G75*
G02*
X32604000Y35218000I-250000J0D01*
G01*
X31404000Y35218000D01*
G75*
G02*
X31154000Y35468000I0J250000D01*
G01*
G37*
%TD.AperFunction*%
%TD*%
D11*
%TO.P,J1,40*%
%TO.N,Net-(J1-Pad40)*%
X46736000Y6604000D03*
%TO.P,J1,39*%
%TO.N,GND*%
X44196000Y6604000D03*
%TO.P,J1,38*%
%TO.N,Net-(J1-Pad38)*%
X46736000Y9144000D03*
%TO.P,J1,37*%
%TO.N,LightControl*%
X44196000Y9144000D03*
%TO.P,J1,36*%
%TO.N,Net-(J1-Pad36)*%
X46736000Y11684000D03*
%TO.P,J1,35*%
%TO.N,Net-(J1-Pad35)*%
X44196000Y11684000D03*
%TO.P,J1,34*%
%TO.N,Net-(J1-Pad34)*%
X46736000Y14224000D03*
%TO.P,J1,33*%
%TO.N,Net-(J1-Pad33)*%
X44196000Y14224000D03*
%TO.P,J1,32*%
%TO.N,Net-(J1-Pad32)*%
X46736000Y16764000D03*
%TO.P,J1,31*%
%TO.N,T_CS*%
X44196000Y16764000D03*
%TO.P,J1,30*%
%TO.N,Net-(J1-Pad30)*%
X46736000Y19304000D03*
%TO.P,J1,29*%
%TO.N,T_IRQ*%
X44196000Y19304000D03*
%TO.P,J1,28*%
%TO.N,Net-(J1-Pad28)*%
X46736000Y21844000D03*
%TO.P,J1,27*%
%TO.N,Net-(J1-Pad27)*%
X44196000Y21844000D03*
%TO.P,J1,26*%
%TO.N,Net-(J1-Pad26)*%
X46736000Y24384000D03*
%TO.P,J1,25*%
%TO.N,Net-(J1-Pad25)*%
X44196000Y24384000D03*
%TO.P,J1,24*%
%TO.N,Net-(J1-Pad24)*%
X46736000Y26924000D03*
%TO.P,J1,23*%
%TO.N,SLCK*%
X44196000Y26924000D03*
%TO.P,J1,22*%
%TO.N,Net-(J1-Pad22)*%
X46736000Y29464000D03*
%TO.P,J1,21*%
%TO.N,MISO*%
X44196000Y29464000D03*
%TO.P,J1,20*%
%TO.N,Net-(J1-Pad20)*%
X46736000Y32004000D03*
%TO.P,J1,19*%
%TO.N,MOSI*%
X44196000Y32004000D03*
%TO.P,J1,18*%
%TO.N,Net-(J1-Pad18)*%
X46736000Y34544000D03*
%TO.P,J1,17*%
%TO.N,Net-(J1-Pad17)*%
X44196000Y34544000D03*
%TO.P,J1,16*%
%TO.N,Net-(J1-Pad16)*%
X46736000Y37084000D03*
%TO.P,J1,15*%
%TO.N,RESET*%
X44196000Y37084000D03*
%TO.P,J1,14*%
%TO.N,Net-(J1-Pad14)*%
X46736000Y39624000D03*
%TO.P,J1,13*%
%TO.N,DC*%
X44196000Y39624000D03*
%TO.P,J1,12*%
%TO.N,Net-(J1-Pad12)*%
X46736000Y42164000D03*
%TO.P,J1,11*%
%TO.N,CS*%
X44196000Y42164000D03*
%TO.P,J1,10*%
%TO.N,Net-(J1-Pad10)*%
X46736000Y44704000D03*
%TO.P,J1,9*%
%TO.N,Net-(J1-Pad9)*%
X44196000Y44704000D03*
%TO.P,J1,8*%
%TO.N,Net-(J1-Pad8)*%
X46736000Y47244000D03*
%TO.P,J1,7*%
%TO.N,Net-(J1-Pad7)*%
X44196000Y47244000D03*
%TO.P,J1,6*%
%TO.N,Net-(J1-Pad6)*%
X46736000Y49784000D03*
%TO.P,J1,5*%
%TO.N,Net-(J1-Pad5)*%
X44196000Y49784000D03*
%TO.P,J1,4*%
%TO.N,Net-(J1-Pad4)*%
X46736000Y52324000D03*
%TO.P,J1,3*%
%TO.N,Net-(J1-Pad3)*%
X44196000Y52324000D03*
%TO.P,J1,2*%
%TO.N,+5V*%
X46736000Y54864000D03*
D12*
%TO.P,J1,1*%
%TO.N,+3V3*%
X44196000Y54864000D03*
%TD*%
D13*
%TO.P,J3,2*%
%TO.N,GND*%
X5334000Y30520000D03*
%TO.P,J3,1*%
%TO.N,+5V*%
%TA.AperFunction,ComponentPad*%
G36*
G01*
X4584000Y33870000D02*
X6084000Y33870000D01*
G75*
G02*
X6334000Y33620000I0J-250000D01*
G01*
X6334000Y32420000D01*
G75*
G02*
X6084000Y32170000I-250000J0D01*
G01*
X4584000Y32170000D01*
G75*
G02*
X4334000Y32420000I0J250000D01*
G01*
X4334000Y33620000D01*
G75*
G02*
X4584000Y33870000I250000J0D01*
G01*
G37*
%TD.AperFunction*%
%TD*%
%TO.P,U1,4*%
%TO.N,Net-(U1-Pad4)*%
%TA.AperFunction,ComponentPad*%
G36*
G01*
X13767000Y56488000D02*
X13005000Y56488000D01*
G75*
G02*
X12624000Y56869000I0J381000D01*
G01*
X12624000Y57631000D01*
G75*
G02*
X13005000Y58012000I381000J0D01*
G01*
X13767000Y58012000D01*
G75*
G02*
X14148000Y57631000I0J-381000D01*
G01*
X14148000Y56869000D01*
G75*
G02*
X13767000Y56488000I-381000J0D01*
G01*
G37*
%TD.AperFunction*%
%TO.P,U1,3*%
%TO.N,+12V*%
%TA.AperFunction,ComponentPad*%
G36*
G01*
X13767000Y53948000D02*
X13005000Y53948000D01*
G75*
G02*
X12624000Y54329000I0J381000D01*
G01*
X12624000Y55091000D01*
G75*
G02*
X13005000Y55472000I381000J0D01*
G01*
X13767000Y55472000D01*
G75*
G02*
X14148000Y55091000I0J-381000D01*
G01*
X14148000Y54329000D01*
G75*
G02*
X13767000Y53948000I-381000J0D01*
G01*
G37*
%TD.AperFunction*%
%TO.P,U1,2*%
%TO.N,GND*%
%TA.AperFunction,ComponentPad*%
G36*
G01*
X13767000Y51408000D02*
X13005000Y51408000D01*
G75*
G02*
X12624000Y51789000I0J381000D01*
G01*
X12624000Y52551000D01*
G75*
G02*
X13005000Y52932000I381000J0D01*
G01*
X13767000Y52932000D01*
G75*
G02*
X14148000Y52551000I0J-381000D01*
G01*
X14148000Y51789000D01*
G75*
G02*
X13767000Y51408000I-381000J0D01*
G01*
G37*
%TD.AperFunction*%
D14*
%TO.P,U1,1*%
%TO.N,Net-(D1-Pad2)*%
X13386000Y49630000D03*
%TD*%
D15*
%TO.P,Q1,3*%
%TO.N,Net-(Q1-Pad3)*%
X13716000Y43180000D03*
%TO.P,Q1,2*%
%TO.N,BlackLightGnd*%
X13716000Y40640000D03*
D16*
%TO.P,Q1,1*%
%TO.N,GND*%
X13716000Y38100000D03*
%TD*%
D17*
%TO.P,D1,2*%
%TO.N,Net-(D1-Pad2)*%
X20320000Y44196000D03*
D18*
%TO.P,D1,1*%
%TO.N,+5V*%
X30480000Y44196000D03*
%TD*%
%TO.P,J2,1*%
%TO.N,+12V*%
%TA.AperFunction,ComponentPad*%
G36*
G01*
X4584000Y54190000D02*
X6084000Y54190000D01*
G75*
G02*
X6334000Y53940000I0J-250000D01*
G01*
X6334000Y52740000D01*
G75*
G02*
X6084000Y52490000I-250000J0D01*
G01*
X4584000Y52490000D01*
G75*
G02*
X4334000Y52740000I0J250000D01*
G01*
X4334000Y53940000D01*
G75*
G02*
X4584000Y54190000I250000J0D01*
G01*
G37*
%TD.AperFunction*%
D13*
%TO.P,J2,2*%
%TO.N,GND*%
X5334000Y50840000D03*
%TD*%
%TO.P,J4,2*%
%TO.N,GND*%
X5334000Y20360000D03*
%TO.P,J4,1*%
%TO.N,+5V*%
%TA.AperFunction,ComponentPad*%
G36*
G01*
X4584000Y23710000D02*
X6084000Y23710000D01*
G75*
G02*
X6334000Y23460000I0J-250000D01*
G01*
X6334000Y22260000D01*
G75*
G02*
X6084000Y22010000I-250000J0D01*
G01*
X4584000Y22010000D01*
G75*
G02*
X4334000Y22260000I0J250000D01*
G01*
X4334000Y23460000D01*
G75*
G02*
X4584000Y23710000I250000J0D01*
G01*
G37*
%TD.AperFunction*%
%TD*%
%TO.P,J5,1*%
%TO.N,+12V*%
%TA.AperFunction,ComponentPad*%
G36*
G01*
X4584000Y44030000D02*
X6084000Y44030000D01*
G75*
G02*
X6334000Y43780000I0J-250000D01*
G01*
X6334000Y42580000D01*
G75*
G02*
X6084000Y42330000I-250000J0D01*
G01*
X4584000Y42330000D01*
G75*
G02*
X4334000Y42580000I0J250000D01*
G01*
X4334000Y43780000D01*
G75*
G02*
X4584000Y44030000I250000J0D01*
G01*
G37*
%TD.AperFunction*%
%TO.P,J5,2*%
%TO.N,BlackLightGnd*%
X5334000Y40680000D03*
%TD*%
D19*
%TO.P,R4,1*%
%TO.N,LightControl*%
X18288000Y27432000D03*
D20*
%TO.P,R4,2*%
%TO.N,Net-(Q1-Pad3)*%
X18288000Y37592000D03*
%TD*%
D21*
%TO.N,+12V*%
X5588000Y43180000D02*
X9144000Y43180000D01*
X9652000Y43688000D02*
X9652000Y53340000D01*
X9144000Y43180000D02*
X9652000Y43688000D01*
X9652000Y53340000D02*
X5588000Y53340000D01*
X11176000Y54864000D02*
X9652000Y53340000D01*
X13208000Y54864000D02*
X11176000Y54864000D01*
%TO.N,GND*%
X1524000Y30480000D02*
X5334000Y30480000D01*
X2540000Y50800000D02*
X5080000Y50800000D01*
X1524000Y49784000D02*
X2540000Y50800000D01*
X13716000Y37592000D02*
X1524000Y37592000D01*
X1524000Y37592000D02*
X1524000Y49784000D01*
X1524000Y30480000D02*
X1524000Y37592000D01*
X44196000Y6604000D02*
X41656000Y4064000D01*
X41656000Y4064000D02*
X5588000Y4064000D01*
X5588000Y4064000D02*
X5588000Y15240000D01*
X5588000Y15240000D02*
X5588000Y19812000D01*
X13716000Y30988000D02*
X25400000Y30988000D01*
X13208000Y15240000D02*
X13716000Y15748000D01*
X27940000Y33528000D02*
X32004000Y33528000D01*
X25400000Y30988000D02*
X27940000Y33528000D01*
X13716000Y15748000D02*
X13716000Y30988000D01*
X5588000Y15240000D02*
X13208000Y15240000D01*
X5080000Y20320000D02*
X1524000Y20320000D01*
X1524000Y20320000D02*
X1524000Y30480000D01*
X13208000Y51816000D02*
X14224000Y51816000D01*
X16764000Y59436000D02*
X15788990Y60411010D01*
X14224000Y51816000D02*
X16764000Y54356000D01*
X16764000Y54356000D02*
X16764000Y59436000D01*
X15788990Y60411010D02*
X7071010Y60411010D01*
X1524000Y54864000D02*
X1524000Y49784000D01*
X7071010Y60411010D02*
X1524000Y54864000D01*
%TO.N,+5V*%
X10668000Y33020000D02*
X10668000Y23368000D01*
X10668000Y33020000D02*
X5080000Y33020000D01*
X6096000Y23368000D02*
X5588000Y22860000D01*
X10668000Y23368000D02*
X6096000Y23368000D01*
X12192000Y34544000D02*
X10668000Y33020000D01*
X20828000Y34544000D02*
X12192000Y34544000D01*
D22*
%TO.N,LightControl*%
X25400000Y7112000D02*
X18288000Y14224000D01*
X40640000Y7112000D02*
X25400000Y7112000D01*
X42672000Y9144000D02*
X40640000Y7112000D01*
X18288000Y14224000D02*
X18288000Y26924000D01*
X44196000Y9144000D02*
X42672000Y9144000D01*
D21*
%TO.N,+5V*%
X46736000Y54864000D02*
X46736000Y58420000D01*
X46736000Y58420000D02*
X33528000Y58420000D01*
X33528000Y47244000D02*
X30480000Y44196000D01*
X33528000Y58420000D02*
X33528000Y47244000D01*
X29972000Y44196000D02*
X29972000Y43688000D01*
X22352000Y36068000D02*
X20828000Y34544000D01*
X29972000Y43688000D02*
X22352000Y36068000D01*
X25400000Y39116000D02*
X22352000Y36068000D01*
%TO.N,Net-(D1-Pad2)*%
X14732000Y49784000D02*
X13208000Y49784000D01*
X20320000Y44196000D02*
X14732000Y49784000D01*
D22*
%TO.N,Net-(Q1-Pad3)*%
X18288000Y39116000D02*
X14224000Y43180000D01*
X18288000Y37592000D02*
X18288000Y39116000D01*
D21*
%TO.N,BlackLightGnd*%
X13716000Y40640000D02*
X5080000Y40640000D01*
D22*
%TO.N,SLCK*%
X42993919Y26924000D02*
X37084000Y21014081D01*
X44196000Y26924000D02*
X42993919Y26924000D01*
X32698081Y21014081D02*
X32512000Y20828000D01*
X37084000Y21014081D02*
X32698081Y21014081D01*
D21*
%TO.N,MOSI*%
X35560000Y25908000D02*
X32512000Y25908000D01*
D22*
X41656000Y32004000D02*
X35560000Y25908000D01*
X43688000Y32004000D02*
X41656000Y32004000D01*
%TO.N,MISO*%
X44196000Y29464000D02*
X42672000Y29464000D01*
X42672000Y29464000D02*
X36576000Y23368000D01*
X36576000Y23368000D02*
X32512000Y23368000D01*
%TO.N,T_IRQ*%
X44196000Y19304000D02*
X41656000Y19304000D01*
X40640000Y18288000D02*
X35052000Y18288000D01*
X41656000Y19304000D02*
X40640000Y18288000D01*
%TO.N,RESET*%
X43378002Y37084000D02*
X35052000Y28757998D01*
D21*
X35052000Y28757998D02*
X35052000Y28448000D01*
X44196000Y37084000D02*
X43378002Y37084000D01*
%TO.N,DC*%
X34742002Y30988000D02*
X34544000Y30988000D01*
D22*
X43378002Y39624000D02*
X34742002Y30988000D01*
D21*
X43688000Y39624000D02*
X43378002Y39624000D01*
%TO.N,CS*%
X44196000Y42164000D02*
X43180000Y42164000D01*
X34742002Y33528000D02*
X34544000Y33528000D01*
D22*
X36394001Y35179999D02*
X34742002Y33528000D01*
X36394001Y35378001D02*
X36394001Y35179999D01*
X43180000Y42164000D02*
X36394001Y35378001D01*
%TO.N,+3V3*%
X44196000Y54864000D02*
X36576000Y54864000D01*
X36576000Y38100000D02*
X34544000Y36068000D01*
X36576000Y54864000D02*
X36576000Y38100000D01*
X34544000Y36068000D02*
X32004000Y36068000D01*
%TO.N,T_CS*%
X42993919Y16764000D02*
X40961919Y14732000D01*
X44196000Y16764000D02*
X42993919Y16764000D01*
X32004000Y17085919D02*
X32004000Y18288000D01*
X34357919Y14732000D02*
X32004000Y17085919D01*
X40961919Y14732000D02*
X34357919Y14732000D01*
%TD*%
M02*
