%TF.GenerationSoftware,KiCad,Pcbnew,(5.1.8-0-10_14)*%
%TF.CreationDate,2021-05-22T16:20:34-04:00*%
%TF.ProjectId,PiHat,50694861-742e-46b6-9963-61645f706362,rev?*%
%TF.SameCoordinates,Original*%
%TF.FileFunction,Soldermask,Top*%
%TF.FilePolarity,Negative*%
%FSLAX46Y46*%
G04 Gerber Fmt 4.6, Leading zero omitted, Abs format (unit mm)*
G04 Created by KiCad (PCBNEW (5.1.8-0-10_14)) date 2021-05-22 16:20:34*
%MOMM*%
%LPD*%
G01*
G04 APERTURE LIST*
%ADD10O,1.700000X1.700000*%
%ADD11R,1.700000X1.700000*%
%ADD12O,1.600000X1.600000*%
%ADD13C,1.600000*%
%ADD14O,2.000000X1.700000*%
%ADD15O,1.700000X1.950000*%
%ADD16O,1.950000X1.700000*%
%ADD17C,1.700000*%
%ADD18R,1.524000X1.524000*%
%ADD19O,1.800000X1.800000*%
%ADD20R,1.800000X1.800000*%
%ADD21O,2.200000X2.200000*%
%ADD22R,2.200000X2.200000*%
G04 APERTURE END LIST*
D10*
%TO.C,J9*%
X57410000Y-56346000D03*
D11*
X57410000Y-58886000D03*
%TD*%
D12*
%TO.C,R2*%
X28410000Y-64296000D03*
D13*
X28410000Y-54136000D03*
%TD*%
D12*
%TO.C,R1*%
X28410000Y-48046000D03*
D13*
X28410000Y-37886000D03*
%TD*%
D14*
%TO.C,J8*%
X16410000Y-57886000D03*
G36*
G01*
X15660000Y-54536000D02*
X17160000Y-54536000D01*
G75*
G02*
X17410000Y-54786000I0J-250000D01*
G01*
X17410000Y-55986000D01*
G75*
G02*
X17160000Y-56236000I-250000J0D01*
G01*
X15660000Y-56236000D01*
G75*
G02*
X15410000Y-55986000I0J250000D01*
G01*
X15410000Y-54786000D01*
G75*
G02*
X15660000Y-54536000I250000J0D01*
G01*
G37*
%TD*%
D15*
%TO.C,J7*%
X54410000Y-14636000D03*
X51910000Y-14636000D03*
X49410000Y-14636000D03*
X46910000Y-14636000D03*
G36*
G01*
X43560000Y-15361000D02*
X43560000Y-13911000D01*
G75*
G02*
X43810000Y-13661000I250000J0D01*
G01*
X45010000Y-13661000D01*
G75*
G02*
X45260000Y-13911000I0J-250000D01*
G01*
X45260000Y-15361000D01*
G75*
G02*
X45010000Y-15611000I-250000J0D01*
G01*
X43810000Y-15611000D01*
G75*
G02*
X43560000Y-15361000I0J250000D01*
G01*
G37*
%TD*%
D16*
%TO.C,J5*%
X18410000Y-36136000D03*
X18410000Y-33636000D03*
G36*
G01*
X17685000Y-30286000D02*
X19135000Y-30286000D01*
G75*
G02*
X19385000Y-30536000I0J-250000D01*
G01*
X19385000Y-31736000D01*
G75*
G02*
X19135000Y-31986000I-250000J0D01*
G01*
X17685000Y-31986000D01*
G75*
G02*
X17435000Y-31736000I0J250000D01*
G01*
X17435000Y-30536000D01*
G75*
G02*
X17685000Y-30286000I250000J0D01*
G01*
G37*
%TD*%
D17*
%TO.C,J6*%
X43950000Y-54848000D03*
X43950000Y-52308000D03*
X43950000Y-49768000D03*
X43950000Y-47228000D03*
X43950000Y-44688000D03*
X43950000Y-42148000D03*
X43950000Y-39608000D03*
X43950000Y-37068000D03*
X41410000Y-54848000D03*
X41410000Y-52308000D03*
X41410000Y-49768000D03*
X41410000Y-47228000D03*
X41410000Y-44688000D03*
X41410000Y-42148000D03*
X41410000Y-39608000D03*
G36*
G01*
X40560000Y-37668000D02*
X40560000Y-36468000D01*
G75*
G02*
X40810000Y-36218000I250000J0D01*
G01*
X42010000Y-36218000D01*
G75*
G02*
X42260000Y-36468000I0J-250000D01*
G01*
X42260000Y-37668000D01*
G75*
G02*
X42010000Y-37918000I-250000J0D01*
G01*
X40810000Y-37918000D01*
G75*
G02*
X40560000Y-37668000I0J250000D01*
G01*
G37*
%TD*%
D10*
%TO.C,J1*%
X53450000Y-69146000D03*
X50910000Y-69146000D03*
X53450000Y-66606000D03*
X50910000Y-66606000D03*
X53450000Y-64066000D03*
X50910000Y-64066000D03*
X53450000Y-61526000D03*
X50910000Y-61526000D03*
X53450000Y-58986000D03*
X50910000Y-58986000D03*
X53450000Y-56446000D03*
X50910000Y-56446000D03*
X53450000Y-53906000D03*
X50910000Y-53906000D03*
X53450000Y-51366000D03*
X50910000Y-51366000D03*
X53450000Y-48826000D03*
X50910000Y-48826000D03*
X53450000Y-46286000D03*
X50910000Y-46286000D03*
X53450000Y-43746000D03*
X50910000Y-43746000D03*
X53450000Y-41206000D03*
X50910000Y-41206000D03*
X53450000Y-38666000D03*
X50910000Y-38666000D03*
X53450000Y-36126000D03*
X50910000Y-36126000D03*
X53450000Y-33586000D03*
X50910000Y-33586000D03*
X53450000Y-31046000D03*
X50910000Y-31046000D03*
X53450000Y-28506000D03*
X50910000Y-28506000D03*
X53450000Y-25966000D03*
X50910000Y-25966000D03*
X53450000Y-23426000D03*
X50910000Y-23426000D03*
X53450000Y-20886000D03*
D11*
X50910000Y-20886000D03*
%TD*%
D14*
%TO.C,J3*%
X16660000Y-47386000D03*
G36*
G01*
X15910000Y-44036000D02*
X17410000Y-44036000D01*
G75*
G02*
X17660000Y-44286000I0J-250000D01*
G01*
X17660000Y-45486000D01*
G75*
G02*
X17410000Y-45736000I-250000J0D01*
G01*
X15910000Y-45736000D01*
G75*
G02*
X15660000Y-45486000I0J250000D01*
G01*
X15660000Y-44286000D01*
G75*
G02*
X15910000Y-44036000I250000J0D01*
G01*
G37*
%TD*%
%TO.C,U1*%
G36*
G01*
X22091000Y-15488000D02*
X21329000Y-15488000D01*
G75*
G02*
X20948000Y-15107000I0J381000D01*
G01*
X20948000Y-14345000D01*
G75*
G02*
X21329000Y-13964000I381000J0D01*
G01*
X22091000Y-13964000D01*
G75*
G02*
X22472000Y-14345000I0J-381000D01*
G01*
X22472000Y-15107000D01*
G75*
G02*
X22091000Y-15488000I-381000J0D01*
G01*
G37*
G36*
G01*
X22091000Y-18028000D02*
X21329000Y-18028000D01*
G75*
G02*
X20948000Y-17647000I0J381000D01*
G01*
X20948000Y-16885000D01*
G75*
G02*
X21329000Y-16504000I381000J0D01*
G01*
X22091000Y-16504000D01*
G75*
G02*
X22472000Y-16885000I0J-381000D01*
G01*
X22472000Y-17647000D01*
G75*
G02*
X22091000Y-18028000I-381000J0D01*
G01*
G37*
G36*
G01*
X22091000Y-20568000D02*
X21329000Y-20568000D01*
G75*
G02*
X20948000Y-20187000I0J381000D01*
G01*
X20948000Y-19425000D01*
G75*
G02*
X21329000Y-19044000I381000J0D01*
G01*
X22091000Y-19044000D01*
G75*
G02*
X22472000Y-19425000I0J-381000D01*
G01*
X22472000Y-20187000D01*
G75*
G02*
X22091000Y-20568000I-381000J0D01*
G01*
G37*
D18*
X21710000Y-22346000D03*
%TD*%
D19*
%TO.C,Q1*%
X31740000Y-33636000D03*
X29200000Y-33636000D03*
D20*
X26660000Y-33636000D03*
%TD*%
D21*
%TO.C,D1*%
X29000000Y-27136000D03*
D22*
X39160000Y-27136000D03*
%TD*%
%TO.C,J2*%
G36*
G01*
X15494000Y-16536000D02*
X16994000Y-16536000D01*
G75*
G02*
X17244000Y-16786000I0J-250000D01*
G01*
X17244000Y-17986000D01*
G75*
G02*
X16994000Y-18236000I-250000J0D01*
G01*
X15494000Y-18236000D01*
G75*
G02*
X15244000Y-17986000I0J250000D01*
G01*
X15244000Y-16786000D01*
G75*
G02*
X15494000Y-16536000I250000J0D01*
G01*
G37*
D14*
X16244000Y-19886000D03*
%TD*%
%TO.C,J4*%
X16410000Y-68636000D03*
G36*
G01*
X15660000Y-65286000D02*
X17160000Y-65286000D01*
G75*
G02*
X17410000Y-65536000I0J-250000D01*
G01*
X17410000Y-66736000D01*
G75*
G02*
X17160000Y-66986000I-250000J0D01*
G01*
X15660000Y-66986000D01*
G75*
G02*
X15410000Y-66736000I0J250000D01*
G01*
X15410000Y-65536000D01*
G75*
G02*
X15660000Y-65286000I250000J0D01*
G01*
G37*
%TD*%
D13*
%TO.C,R3*%
X32660000Y-48136000D03*
D12*
X32660000Y-37976000D03*
%TD*%
M02*
