%TF.GenerationSoftware,KiCad,Pcbnew,(5.1.8-0-10_14)*%
%TF.CreationDate,2021-05-22T15:14:00-04:00*%
%TF.ProjectId,PiHat,50694861-742e-46b6-9963-61645f706362,rev?*%
%TF.SameCoordinates,PX9b0780PY44cb540*%
%TF.FileFunction,Legend,Top*%
%TF.FilePolarity,Positive*%
%FSLAX46Y46*%
G04 Gerber Fmt 4.6, Leading zero omitted, Abs format (unit mm)*
G04 Created by KiCad (PCBNEW (5.1.8-0-10_14)) date 2021-05-22 15:14:00*
%MOMM*%
%LPD*%
G01*
G04 APERTURE LIST*
%ADD10C,0.150000*%
%ADD11C,0.120000*%
G04 APERTURE END LIST*
D10*
X21678571Y797620D02*
X21345238Y1273810D01*
X21107142Y797620D02*
X21107142Y1797620D01*
X21488095Y1797620D01*
X21583333Y1750000D01*
X21630952Y1702381D01*
X21678571Y1607143D01*
X21678571Y1464286D01*
X21630952Y1369048D01*
X21583333Y1321429D01*
X21488095Y1273810D01*
X21107142Y1273810D01*
X22488095Y845239D02*
X22392857Y797620D01*
X22202380Y797620D01*
X22107142Y845239D01*
X22059523Y940477D01*
X22059523Y1321429D01*
X22107142Y1416667D01*
X22202380Y1464286D01*
X22392857Y1464286D01*
X22488095Y1416667D01*
X22535714Y1321429D01*
X22535714Y1226191D01*
X22059523Y1130953D01*
X22869047Y1464286D02*
X23107142Y797620D01*
X23345238Y1464286D01*
X24440476Y1702381D02*
X24488095Y1750000D01*
X24583333Y1797620D01*
X24821428Y1797620D01*
X24916666Y1750000D01*
X24964285Y1702381D01*
X25011904Y1607143D01*
X25011904Y1511905D01*
X24964285Y1369048D01*
X24392857Y797620D01*
X25011904Y797620D01*
X25440476Y892858D02*
X25488095Y845239D01*
X25440476Y797620D01*
X25392857Y845239D01*
X25440476Y892858D01*
X25440476Y797620D01*
X26440476Y797620D02*
X25869047Y797620D01*
X26154761Y797620D02*
X26154761Y1797620D01*
X26059523Y1654762D01*
X25964285Y1559524D01*
X25869047Y1511905D01*
D11*
%TO.C,J9*%
X48580000Y11920000D02*
X48580000Y17120000D01*
X48520000Y11920000D02*
X48580000Y11920000D01*
X45920000Y17120000D02*
X48580000Y17120000D01*
X48520000Y11920000D02*
X48520000Y14520000D01*
X48520000Y14520000D02*
X45920000Y14520000D01*
X45920000Y14520000D02*
X45920000Y17120000D01*
X47250000Y11920000D02*
X45920000Y11920000D01*
X45920000Y11920000D02*
X45920000Y13250000D01*
%TO.C,R2*%
X18250000Y8880000D02*
X18250000Y9650000D01*
X18250000Y16960000D02*
X18250000Y16190000D01*
X19620000Y9650000D02*
X19620000Y16190000D01*
X16880000Y9650000D02*
X19620000Y9650000D01*
X16880000Y16190000D02*
X16880000Y9650000D01*
X19620000Y16190000D02*
X16880000Y16190000D01*
%TO.C,R1*%
X18250000Y25130000D02*
X18250000Y25900000D01*
X18250000Y33210000D02*
X18250000Y32440000D01*
X19620000Y25900000D02*
X19620000Y32440000D01*
X16880000Y25900000D02*
X19620000Y25900000D01*
X16880000Y32440000D02*
X16880000Y25900000D01*
X19620000Y32440000D02*
X16880000Y32440000D01*
%TO.C,J8*%
X9000000Y19600000D02*
X7750000Y19600000D01*
X9000000Y18350000D02*
X9000000Y19600000D01*
X3500000Y12450000D02*
X3500000Y15500000D01*
X6450000Y12450000D02*
X3500000Y12450000D01*
X6450000Y11700000D02*
X6450000Y12450000D01*
X3500000Y18550000D02*
X3500000Y15500000D01*
X6450000Y18550000D02*
X3500000Y18550000D01*
X6450000Y19300000D02*
X6450000Y18550000D01*
X8700000Y11700000D02*
X8700000Y13500000D01*
X7950000Y11700000D02*
X8700000Y11700000D01*
X7950000Y13500000D02*
X7950000Y11700000D01*
X8700000Y13500000D02*
X7950000Y13500000D01*
X8700000Y17500000D02*
X8700000Y19300000D01*
X7950000Y17500000D02*
X8700000Y17500000D01*
X7950000Y19300000D02*
X7950000Y17500000D01*
X8700000Y19300000D02*
X7950000Y19300000D01*
X8700000Y15000000D02*
X8700000Y16000000D01*
X7950000Y15000000D02*
X8700000Y15000000D01*
X7950000Y16000000D02*
X7950000Y15000000D01*
X8700000Y16000000D02*
X7950000Y16000000D01*
X8710000Y11690000D02*
X8710000Y19310000D01*
X2740000Y11690000D02*
X8710000Y11690000D01*
X2740000Y19310000D02*
X2740000Y11690000D01*
X8710000Y19310000D02*
X2740000Y19310000D01*
%TO.C,J7*%
X31400000Y60250000D02*
X31400000Y59000000D01*
X32650000Y60250000D02*
X31400000Y60250000D01*
X46050000Y54750000D02*
X39250000Y54750000D01*
X46050000Y57700000D02*
X46050000Y54750000D01*
X46800000Y57700000D02*
X46050000Y57700000D01*
X32450000Y54750000D02*
X39250000Y54750000D01*
X32450000Y57700000D02*
X32450000Y54750000D01*
X31700000Y57700000D02*
X32450000Y57700000D01*
X46800000Y59950000D02*
X45000000Y59950000D01*
X46800000Y59200000D02*
X46800000Y59950000D01*
X45000000Y59200000D02*
X46800000Y59200000D01*
X45000000Y59950000D02*
X45000000Y59200000D01*
X33500000Y59950000D02*
X31700000Y59950000D01*
X33500000Y59200000D02*
X33500000Y59950000D01*
X31700000Y59200000D02*
X33500000Y59200000D01*
X31700000Y59950000D02*
X31700000Y59200000D01*
X43500000Y59950000D02*
X35000000Y59950000D01*
X43500000Y59200000D02*
X43500000Y59950000D01*
X35000000Y59200000D02*
X43500000Y59200000D01*
X35000000Y59950000D02*
X35000000Y59200000D01*
X46810000Y59960000D02*
X31690000Y59960000D01*
X46810000Y53990000D02*
X46810000Y59960000D01*
X31690000Y53990000D02*
X46810000Y53990000D01*
X31690000Y59960000D02*
X31690000Y53990000D01*
%TO.C,J5*%
X11000000Y43850000D02*
X9750000Y43850000D01*
X11000000Y42600000D02*
X11000000Y43850000D01*
X5500000Y34200000D02*
X5500000Y38500000D01*
X8450000Y34200000D02*
X5500000Y34200000D01*
X8450000Y33450000D02*
X8450000Y34200000D01*
X5500000Y42800000D02*
X5500000Y38500000D01*
X8450000Y42800000D02*
X5500000Y42800000D01*
X8450000Y43550000D02*
X8450000Y42800000D01*
X10700000Y33450000D02*
X10700000Y35250000D01*
X9950000Y33450000D02*
X10700000Y33450000D01*
X9950000Y35250000D02*
X9950000Y33450000D01*
X10700000Y35250000D02*
X9950000Y35250000D01*
X10700000Y41750000D02*
X10700000Y43550000D01*
X9950000Y41750000D02*
X10700000Y41750000D01*
X9950000Y43550000D02*
X9950000Y41750000D01*
X10700000Y43550000D02*
X9950000Y43550000D01*
X10700000Y36750000D02*
X10700000Y40250000D01*
X9950000Y36750000D02*
X10700000Y36750000D01*
X9950000Y40250000D02*
X9950000Y36750000D01*
X10700000Y40250000D02*
X9950000Y40250000D01*
X10710000Y33440000D02*
X10710000Y43560000D01*
X4740000Y33440000D02*
X10710000Y33440000D01*
X4740000Y43560000D02*
X4740000Y33440000D01*
X10710000Y43560000D02*
X4740000Y43560000D01*
%TO.C,J6*%
X26570000Y34568000D02*
X27570000Y35068000D01*
X26570000Y35568000D02*
X26570000Y34568000D01*
X27570000Y35068000D02*
X26570000Y35568000D01*
X29270000Y24128000D02*
X27960000Y24128000D01*
X29270000Y24128000D02*
X29270000Y24128000D01*
X29270000Y13378000D02*
X29270000Y24128000D01*
X35770000Y13378000D02*
X29270000Y13378000D01*
X35770000Y38978000D02*
X35770000Y13378000D01*
X29270000Y38978000D02*
X35770000Y38978000D01*
X29270000Y28228000D02*
X29270000Y38978000D01*
X27960000Y28228000D02*
X29270000Y28228000D01*
X27960000Y12078000D02*
X27960000Y40278000D01*
X37080000Y12078000D02*
X27960000Y12078000D01*
X37080000Y40278000D02*
X37080000Y12078000D01*
X27960000Y40278000D02*
X37080000Y40278000D01*
%TO.C,J1*%
X39420000Y52580000D02*
X40750000Y52580000D01*
X39420000Y51250000D02*
X39420000Y52580000D01*
X42020000Y52580000D02*
X44620000Y52580000D01*
X42020000Y49980000D02*
X42020000Y52580000D01*
X39420000Y49980000D02*
X42020000Y49980000D01*
X44620000Y52580000D02*
X44620000Y1660000D01*
X39420000Y49980000D02*
X39420000Y1660000D01*
X39420000Y1660000D02*
X44620000Y1660000D01*
%TO.C,J3*%
X8960000Y29810000D02*
X2990000Y29810000D01*
X2990000Y29810000D02*
X2990000Y22190000D01*
X2990000Y22190000D02*
X8960000Y22190000D01*
X8960000Y22190000D02*
X8960000Y29810000D01*
X8950000Y26500000D02*
X8200000Y26500000D01*
X8200000Y26500000D02*
X8200000Y25500000D01*
X8200000Y25500000D02*
X8950000Y25500000D01*
X8950000Y25500000D02*
X8950000Y26500000D01*
X8950000Y29800000D02*
X8200000Y29800000D01*
X8200000Y29800000D02*
X8200000Y28000000D01*
X8200000Y28000000D02*
X8950000Y28000000D01*
X8950000Y28000000D02*
X8950000Y29800000D01*
X8950000Y24000000D02*
X8200000Y24000000D01*
X8200000Y24000000D02*
X8200000Y22200000D01*
X8200000Y22200000D02*
X8950000Y22200000D01*
X8950000Y22200000D02*
X8950000Y24000000D01*
X6700000Y29800000D02*
X6700000Y29050000D01*
X6700000Y29050000D02*
X3750000Y29050000D01*
X3750000Y29050000D02*
X3750000Y26000000D01*
X6700000Y22200000D02*
X6700000Y22950000D01*
X6700000Y22950000D02*
X3750000Y22950000D01*
X3750000Y22950000D02*
X3750000Y26000000D01*
X9250000Y28850000D02*
X9250000Y30100000D01*
X9250000Y30100000D02*
X8000000Y30100000D01*
%TO.C,U1*%
X9800000Y48050000D02*
X9800000Y58900000D01*
X9800000Y58900000D02*
X29800000Y58900000D01*
X29800000Y58900000D02*
X29800000Y48050000D01*
X29800000Y48050000D02*
X9800000Y48050000D01*
%TO.C,Q1*%
X20641000Y37960000D02*
X20641000Y37130000D01*
X20641000Y40620000D02*
X20641000Y39040000D01*
X17440000Y37450000D02*
X17440000Y37130000D01*
X17440000Y40620000D02*
X17440000Y39550000D01*
X23160000Y40620000D02*
X23160000Y37130000D01*
X14920000Y40620000D02*
X14920000Y37130000D01*
X14920000Y37130000D02*
X23160000Y37130000D01*
X14920000Y40620000D02*
X23160000Y40620000D01*
%TO.C,D1*%
X26640000Y43530000D02*
X26640000Y46470000D01*
X26640000Y46470000D02*
X21200000Y46470000D01*
X21200000Y46470000D02*
X21200000Y43530000D01*
X21200000Y43530000D02*
X26640000Y43530000D01*
X27660000Y45000000D02*
X26640000Y45000000D01*
X20180000Y45000000D02*
X21200000Y45000000D01*
X25740000Y43530000D02*
X25740000Y46470000D01*
X25620000Y43530000D02*
X25620000Y46470000D01*
X25860000Y43530000D02*
X25860000Y46470000D01*
%TO.C,J2*%
X8834000Y57600000D02*
X7584000Y57600000D01*
X8834000Y56350000D02*
X8834000Y57600000D01*
X3334000Y50450000D02*
X3334000Y53500000D01*
X6284000Y50450000D02*
X3334000Y50450000D01*
X6284000Y49700000D02*
X6284000Y50450000D01*
X3334000Y56550000D02*
X3334000Y53500000D01*
X6284000Y56550000D02*
X3334000Y56550000D01*
X6284000Y57300000D02*
X6284000Y56550000D01*
X8534000Y49700000D02*
X8534000Y51500000D01*
X7784000Y49700000D02*
X8534000Y49700000D01*
X7784000Y51500000D02*
X7784000Y49700000D01*
X8534000Y51500000D02*
X7784000Y51500000D01*
X8534000Y55500000D02*
X8534000Y57300000D01*
X7784000Y55500000D02*
X8534000Y55500000D01*
X7784000Y57300000D02*
X7784000Y55500000D01*
X8534000Y57300000D02*
X7784000Y57300000D01*
X8534000Y53000000D02*
X8534000Y54000000D01*
X7784000Y53000000D02*
X8534000Y53000000D01*
X7784000Y54000000D02*
X7784000Y53000000D01*
X8534000Y54000000D02*
X7784000Y54000000D01*
X8544000Y49690000D02*
X8544000Y57310000D01*
X2574000Y49690000D02*
X8544000Y49690000D01*
X2574000Y57310000D02*
X2574000Y49690000D01*
X8544000Y57310000D02*
X2574000Y57310000D01*
%TO.C,J4*%
X8710000Y8560000D02*
X2740000Y8560000D01*
X2740000Y8560000D02*
X2740000Y940000D01*
X2740000Y940000D02*
X8710000Y940000D01*
X8710000Y940000D02*
X8710000Y8560000D01*
X8700000Y5250000D02*
X7950000Y5250000D01*
X7950000Y5250000D02*
X7950000Y4250000D01*
X7950000Y4250000D02*
X8700000Y4250000D01*
X8700000Y4250000D02*
X8700000Y5250000D01*
X8700000Y8550000D02*
X7950000Y8550000D01*
X7950000Y8550000D02*
X7950000Y6750000D01*
X7950000Y6750000D02*
X8700000Y6750000D01*
X8700000Y6750000D02*
X8700000Y8550000D01*
X8700000Y2750000D02*
X7950000Y2750000D01*
X7950000Y2750000D02*
X7950000Y950000D01*
X7950000Y950000D02*
X8700000Y950000D01*
X8700000Y950000D02*
X8700000Y2750000D01*
X6450000Y8550000D02*
X6450000Y7800000D01*
X6450000Y7800000D02*
X3500000Y7800000D01*
X3500000Y7800000D02*
X3500000Y4750000D01*
X6450000Y950000D02*
X6450000Y1700000D01*
X6450000Y1700000D02*
X3500000Y1700000D01*
X3500000Y1700000D02*
X3500000Y4750000D01*
X9000000Y7600000D02*
X9000000Y8850000D01*
X9000000Y8850000D02*
X7750000Y8850000D01*
%TO.C,R3*%
X22500000Y33120000D02*
X22500000Y32350000D01*
X22500000Y25040000D02*
X22500000Y25810000D01*
X21130000Y32350000D02*
X21130000Y25810000D01*
X23870000Y32350000D02*
X21130000Y32350000D01*
X23870000Y25810000D02*
X23870000Y32350000D01*
X21130000Y25810000D02*
X23870000Y25810000D01*
%TO.C,J9*%
D10*
X45702380Y10166667D02*
X46416666Y10166667D01*
X46559523Y10119048D01*
X46654761Y10023810D01*
X46702380Y9880953D01*
X46702380Y9785715D01*
X46702380Y10690477D02*
X46702380Y10880953D01*
X46654761Y10976191D01*
X46607142Y11023810D01*
X46464285Y11119048D01*
X46273809Y11166667D01*
X45892857Y11166667D01*
X45797619Y11119048D01*
X45750000Y11071429D01*
X45702380Y10976191D01*
X45702380Y10785715D01*
X45750000Y10690477D01*
X45797619Y10642858D01*
X45892857Y10595239D01*
X46130952Y10595239D01*
X46226190Y10642858D01*
X46273809Y10690477D01*
X46321428Y10785715D01*
X46321428Y10976191D01*
X46273809Y11071429D01*
X46226190Y11119048D01*
X46130952Y11166667D01*
X47928571Y7071429D02*
X47976190Y7214286D01*
X48023809Y7261905D01*
X48119047Y7309524D01*
X48261904Y7309524D01*
X48357142Y7261905D01*
X48404761Y7214286D01*
X48452380Y7119048D01*
X48452380Y6738096D01*
X47452380Y6738096D01*
X47452380Y7071429D01*
X47500000Y7166667D01*
X47547619Y7214286D01*
X47642857Y7261905D01*
X47738095Y7261905D01*
X47833333Y7214286D01*
X47880952Y7166667D01*
X47928571Y7071429D01*
X47928571Y6738096D01*
X47785714Y8166667D02*
X48452380Y8166667D01*
X47785714Y7738096D02*
X48309523Y7738096D01*
X48404761Y7785715D01*
X48452380Y7880953D01*
X48452380Y8023810D01*
X48404761Y8119048D01*
X48357142Y8166667D01*
X47785714Y8547620D02*
X47785714Y9071429D01*
X48452380Y8547620D01*
X48452380Y9071429D01*
X47785714Y9357143D02*
X47785714Y9880953D01*
X48452380Y9357143D01*
X48452380Y9880953D01*
X48404761Y10642858D02*
X48452380Y10547620D01*
X48452380Y10357143D01*
X48404761Y10261905D01*
X48309523Y10214286D01*
X47928571Y10214286D01*
X47833333Y10261905D01*
X47785714Y10357143D01*
X47785714Y10547620D01*
X47833333Y10642858D01*
X47928571Y10690477D01*
X48023809Y10690477D01*
X48119047Y10214286D01*
X48452380Y11119048D02*
X47785714Y11119048D01*
X47976190Y11119048D02*
X47880952Y11166667D01*
X47833333Y11214286D01*
X47785714Y11309524D01*
X47785714Y11404762D01*
%TO.C,R2*%
X21052380Y12433334D02*
X20576190Y12100000D01*
X21052380Y11861905D02*
X20052380Y11861905D01*
X20052380Y12242858D01*
X20100000Y12338096D01*
X20147619Y12385715D01*
X20242857Y12433334D01*
X20385714Y12433334D01*
X20480952Y12385715D01*
X20528571Y12338096D01*
X20576190Y12242858D01*
X20576190Y11861905D01*
X20147619Y12814286D02*
X20100000Y12861905D01*
X20052380Y12957143D01*
X20052380Y13195239D01*
X20100000Y13290477D01*
X20147619Y13338096D01*
X20242857Y13385715D01*
X20338095Y13385715D01*
X20480952Y13338096D01*
X21052380Y12766667D01*
X21052380Y13385715D01*
X17702380Y11690477D02*
X17702380Y12309524D01*
X18083333Y11976191D01*
X18083333Y12119048D01*
X18130952Y12214286D01*
X18178571Y12261905D01*
X18273809Y12309524D01*
X18511904Y12309524D01*
X18607142Y12261905D01*
X18654761Y12214286D01*
X18702380Y12119048D01*
X18702380Y11833334D01*
X18654761Y11738096D01*
X18607142Y11690477D01*
X18702380Y12738096D02*
X17702380Y12738096D01*
X18702380Y13309524D02*
X18130952Y12880953D01*
X17702380Y13309524D02*
X18273809Y12738096D01*
X17702380Y13642858D02*
X17702380Y14261905D01*
X18083333Y13928572D01*
X18083333Y14071429D01*
X18130952Y14166667D01*
X18178571Y14214286D01*
X18273809Y14261905D01*
X18511904Y14261905D01*
X18607142Y14214286D01*
X18654761Y14166667D01*
X18702380Y14071429D01*
X18702380Y13785715D01*
X18654761Y13690477D01*
X18607142Y13642858D01*
%TO.C,R1*%
X16452380Y28833334D02*
X15976190Y28500000D01*
X16452380Y28261905D02*
X15452380Y28261905D01*
X15452380Y28642858D01*
X15500000Y28738096D01*
X15547619Y28785715D01*
X15642857Y28833334D01*
X15785714Y28833334D01*
X15880952Y28785715D01*
X15928571Y28738096D01*
X15976190Y28642858D01*
X15976190Y28261905D01*
X16452380Y29785715D02*
X16452380Y29214286D01*
X16452380Y29500000D02*
X15452380Y29500000D01*
X15595238Y29404762D01*
X15690476Y29309524D01*
X15738095Y29214286D01*
X17797619Y27738096D02*
X17750000Y27785715D01*
X17702380Y27880953D01*
X17702380Y28119048D01*
X17750000Y28214286D01*
X17797619Y28261905D01*
X17892857Y28309524D01*
X17988095Y28309524D01*
X18130952Y28261905D01*
X18702380Y27690477D01*
X18702380Y28309524D01*
X18702380Y28738096D02*
X17702380Y28738096D01*
X18702380Y29309524D02*
X18130952Y28880953D01*
X17702380Y29309524D02*
X18273809Y28738096D01*
X17797619Y29690477D02*
X17750000Y29738096D01*
X17702380Y29833334D01*
X17702380Y30071429D01*
X17750000Y30166667D01*
X17797619Y30214286D01*
X17892857Y30261905D01*
X17988095Y30261905D01*
X18130952Y30214286D01*
X18702380Y29642858D01*
X18702380Y30261905D01*
%TO.C,J8*%
X9252380Y15166667D02*
X9966666Y15166667D01*
X10109523Y15119048D01*
X10204761Y15023810D01*
X10252380Y14880953D01*
X10252380Y14785715D01*
X9680952Y15785715D02*
X9633333Y15690477D01*
X9585714Y15642858D01*
X9490476Y15595239D01*
X9442857Y15595239D01*
X9347619Y15642858D01*
X9300000Y15690477D01*
X9252380Y15785715D01*
X9252380Y15976191D01*
X9300000Y16071429D01*
X9347619Y16119048D01*
X9442857Y16166667D01*
X9490476Y16166667D01*
X9585714Y16119048D01*
X9633333Y16071429D01*
X9680952Y15976191D01*
X9680952Y15785715D01*
X9728571Y15690477D01*
X9776190Y15642858D01*
X9871428Y15595239D01*
X10061904Y15595239D01*
X10157142Y15642858D01*
X10204761Y15690477D01*
X10252380Y15785715D01*
X10252380Y15976191D01*
X10204761Y16071429D01*
X10157142Y16119048D01*
X10061904Y16166667D01*
X9871428Y16166667D01*
X9776190Y16119048D01*
X9728571Y16071429D01*
X9680952Y15976191D01*
X2102380Y11880953D02*
X1102380Y11880953D01*
X1102380Y12261905D01*
X1150000Y12357143D01*
X1197619Y12404762D01*
X1292857Y12452381D01*
X1435714Y12452381D01*
X1530952Y12404762D01*
X1578571Y12357143D01*
X1626190Y12261905D01*
X1626190Y11880953D01*
X2102380Y12880953D02*
X1435714Y12880953D01*
X1626190Y12880953D02*
X1530952Y12928572D01*
X1483333Y12976191D01*
X1435714Y13071429D01*
X1435714Y13166667D01*
X2102380Y13642858D02*
X2054761Y13547620D01*
X2007142Y13500000D01*
X1911904Y13452381D01*
X1626190Y13452381D01*
X1530952Y13500000D01*
X1483333Y13547620D01*
X1435714Y13642858D01*
X1435714Y13785715D01*
X1483333Y13880953D01*
X1530952Y13928572D01*
X1626190Y13976191D01*
X1911904Y13976191D01*
X2007142Y13928572D01*
X2054761Y13880953D01*
X2102380Y13785715D01*
X2102380Y13642858D01*
X2102380Y15166667D02*
X1102380Y15166667D01*
X1102380Y15547620D01*
X1150000Y15642858D01*
X1197619Y15690477D01*
X1292857Y15738096D01*
X1435714Y15738096D01*
X1530952Y15690477D01*
X1578571Y15642858D01*
X1626190Y15547620D01*
X1626190Y15166667D01*
X2102380Y16309524D02*
X2054761Y16214286D01*
X2007142Y16166667D01*
X1911904Y16119048D01*
X1626190Y16119048D01*
X1530952Y16166667D01*
X1483333Y16214286D01*
X1435714Y16309524D01*
X1435714Y16452381D01*
X1483333Y16547620D01*
X1530952Y16595239D01*
X1626190Y16642858D01*
X1911904Y16642858D01*
X2007142Y16595239D01*
X2054761Y16547620D01*
X2102380Y16452381D01*
X2102380Y16309524D01*
X1435714Y16976191D02*
X2102380Y17166667D01*
X1626190Y17357143D01*
X2102380Y17547620D01*
X1435714Y17738096D01*
X2054761Y18500000D02*
X2102380Y18404762D01*
X2102380Y18214286D01*
X2054761Y18119048D01*
X1959523Y18071429D01*
X1578571Y18071429D01*
X1483333Y18119048D01*
X1435714Y18214286D01*
X1435714Y18404762D01*
X1483333Y18500000D01*
X1578571Y18547620D01*
X1673809Y18547620D01*
X1769047Y18071429D01*
X2102380Y18976191D02*
X1435714Y18976191D01*
X1626190Y18976191D02*
X1530952Y19023810D01*
X1483333Y19071429D01*
X1435714Y19166667D01*
X1435714Y19261905D01*
%TO.C,J7*%
X34666666Y53297620D02*
X34666666Y52583334D01*
X34619047Y52440477D01*
X34523809Y52345239D01*
X34380952Y52297620D01*
X34285714Y52297620D01*
X35047619Y53297620D02*
X35714285Y53297620D01*
X35285714Y52297620D01*
X36440476Y61547620D02*
X36440476Y60738096D01*
X36488095Y60642858D01*
X36535714Y60595239D01*
X36630952Y60547620D01*
X36821428Y60547620D01*
X36916666Y60595239D01*
X36964285Y60642858D01*
X37011904Y60738096D01*
X37011904Y61547620D01*
X37345238Y61547620D02*
X37678571Y60547620D01*
X38011904Y61547620D01*
X38345238Y60547620D02*
X38345238Y61547620D01*
X38726190Y61547620D01*
X38821428Y61500000D01*
X38869047Y61452381D01*
X38916666Y61357143D01*
X38916666Y61214286D01*
X38869047Y61119048D01*
X38821428Y61071429D01*
X38726190Y61023810D01*
X38345238Y61023810D01*
X39773809Y60547620D02*
X39773809Y61071429D01*
X39726190Y61166667D01*
X39630952Y61214286D01*
X39440476Y61214286D01*
X39345238Y61166667D01*
X39773809Y60595239D02*
X39678571Y60547620D01*
X39440476Y60547620D01*
X39345238Y60595239D01*
X39297619Y60690477D01*
X39297619Y60785715D01*
X39345238Y60880953D01*
X39440476Y60928572D01*
X39678571Y60928572D01*
X39773809Y60976191D01*
X40250000Y61214286D02*
X40250000Y60547620D01*
X40250000Y61119048D02*
X40297619Y61166667D01*
X40392857Y61214286D01*
X40535714Y61214286D01*
X40630952Y61166667D01*
X40678571Y61071429D01*
X40678571Y60547620D01*
X41535714Y60595239D02*
X41440476Y60547620D01*
X41250000Y60547620D01*
X41154761Y60595239D01*
X41107142Y60690477D01*
X41107142Y61071429D01*
X41154761Y61166667D01*
X41250000Y61214286D01*
X41440476Y61214286D01*
X41535714Y61166667D01*
X41583333Y61071429D01*
X41583333Y60976191D01*
X41107142Y60880953D01*
X42154761Y60547620D02*
X42059523Y60595239D01*
X42011904Y60690477D01*
X42011904Y61547620D01*
%TO.C,J5*%
X11252380Y38166667D02*
X11966666Y38166667D01*
X12109523Y38119048D01*
X12204761Y38023810D01*
X12252380Y37880953D01*
X12252380Y37785715D01*
X11252380Y39119048D02*
X11252380Y38642858D01*
X11728571Y38595239D01*
X11680952Y38642858D01*
X11633333Y38738096D01*
X11633333Y38976191D01*
X11680952Y39071429D01*
X11728571Y39119048D01*
X11823809Y39166667D01*
X12061904Y39166667D01*
X12157142Y39119048D01*
X12204761Y39071429D01*
X12252380Y38976191D01*
X12252380Y38738096D01*
X12204761Y38642858D01*
X12157142Y38595239D01*
X4007142Y37785715D02*
X4054761Y37738096D01*
X4102380Y37595239D01*
X4102380Y37500000D01*
X4054761Y37357143D01*
X3959523Y37261905D01*
X3864285Y37214286D01*
X3673809Y37166667D01*
X3530952Y37166667D01*
X3340476Y37214286D01*
X3245238Y37261905D01*
X3150000Y37357143D01*
X3102380Y37500000D01*
X3102380Y37595239D01*
X3150000Y37738096D01*
X3197619Y37785715D01*
X4102380Y38214286D02*
X3102380Y38214286D01*
X4102380Y38785715D01*
X3102380Y38785715D01*
X4007142Y39833334D02*
X4054761Y39785715D01*
X4102380Y39642858D01*
X4102380Y39547620D01*
X4054761Y39404762D01*
X3959523Y39309524D01*
X3864285Y39261905D01*
X3673809Y39214286D01*
X3530952Y39214286D01*
X3340476Y39261905D01*
X3245238Y39309524D01*
X3150000Y39404762D01*
X3102380Y39547620D01*
X3102380Y39642858D01*
X3150000Y39785715D01*
X3197619Y39833334D01*
%TO.C,J6*%
X32186666Y41715620D02*
X32186666Y41001334D01*
X32139047Y40858477D01*
X32043809Y40763239D01*
X31900952Y40715620D01*
X31805714Y40715620D01*
X33091428Y41715620D02*
X32900952Y41715620D01*
X32805714Y41668000D01*
X32758095Y41620381D01*
X32662857Y41477524D01*
X32615238Y41287048D01*
X32615238Y40906096D01*
X32662857Y40810858D01*
X32710476Y40763239D01*
X32805714Y40715620D01*
X32996190Y40715620D01*
X33091428Y40763239D01*
X33139047Y40810858D01*
X33186666Y40906096D01*
X33186666Y41144191D01*
X33139047Y41239429D01*
X33091428Y41287048D01*
X32996190Y41334667D01*
X32805714Y41334667D01*
X32710476Y41287048D01*
X32662857Y41239429D01*
X32615238Y41144191D01*
%TO.C,J1*%
X45916666Y23297620D02*
X45916666Y22583334D01*
X45869047Y22440477D01*
X45773809Y22345239D01*
X45630952Y22297620D01*
X45535714Y22297620D01*
X46916666Y22297620D02*
X46345238Y22297620D01*
X46630952Y22297620D02*
X46630952Y23297620D01*
X46535714Y23154762D01*
X46440476Y23059524D01*
X46345238Y23011905D01*
%TO.C,J3*%
X9502380Y25666667D02*
X10216666Y25666667D01*
X10359523Y25619048D01*
X10454761Y25523810D01*
X10502380Y25380953D01*
X10502380Y25285715D01*
X9502380Y26047620D02*
X9502380Y26666667D01*
X9883333Y26333334D01*
X9883333Y26476191D01*
X9930952Y26571429D01*
X9978571Y26619048D01*
X10073809Y26666667D01*
X10311904Y26666667D01*
X10407142Y26619048D01*
X10454761Y26571429D01*
X10502380Y26476191D01*
X10502380Y26190477D01*
X10454761Y26095239D01*
X10407142Y26047620D01*
X2352380Y21904762D02*
X1352380Y21904762D01*
X1828571Y21904762D02*
X1828571Y22476191D01*
X2352380Y22476191D02*
X1352380Y22476191D01*
X2352380Y22952381D02*
X1352380Y22952381D01*
X1352380Y23190477D01*
X1400000Y23333334D01*
X1495238Y23428572D01*
X1590476Y23476191D01*
X1780952Y23523810D01*
X1923809Y23523810D01*
X2114285Y23476191D01*
X2209523Y23428572D01*
X2304761Y23333334D01*
X2352380Y23190477D01*
X2352380Y22952381D01*
X2352380Y23952381D02*
X1352380Y23952381D01*
X2066666Y24285715D01*
X1352380Y24619048D01*
X2352380Y24619048D01*
X2352380Y25095239D02*
X1352380Y25095239D01*
X2352380Y26333334D02*
X1352380Y26333334D01*
X1733333Y26333334D02*
X1685714Y26428572D01*
X1685714Y26619048D01*
X1733333Y26714286D01*
X1780952Y26761905D01*
X1876190Y26809524D01*
X2161904Y26809524D01*
X2257142Y26761905D01*
X2304761Y26714286D01*
X2352380Y26619048D01*
X2352380Y26428572D01*
X2304761Y26333334D01*
X2352380Y27380953D02*
X2304761Y27285715D01*
X2257142Y27238096D01*
X2161904Y27190477D01*
X1876190Y27190477D01*
X1780952Y27238096D01*
X1733333Y27285715D01*
X1685714Y27380953D01*
X1685714Y27523810D01*
X1733333Y27619048D01*
X1780952Y27666667D01*
X1876190Y27714286D01*
X2161904Y27714286D01*
X2257142Y27666667D01*
X2304761Y27619048D01*
X2352380Y27523810D01*
X2352380Y27380953D01*
X2352380Y28571429D02*
X1828571Y28571429D01*
X1733333Y28523810D01*
X1685714Y28428572D01*
X1685714Y28238096D01*
X1733333Y28142858D01*
X2304761Y28571429D02*
X2352380Y28476191D01*
X2352380Y28238096D01*
X2304761Y28142858D01*
X2209523Y28095239D01*
X2114285Y28095239D01*
X2019047Y28142858D01*
X1971428Y28238096D01*
X1971428Y28476191D01*
X1923809Y28571429D01*
X2352380Y29047620D02*
X1685714Y29047620D01*
X1876190Y29047620D02*
X1780952Y29095239D01*
X1733333Y29142858D01*
X1685714Y29238096D01*
X1685714Y29333334D01*
X2352380Y30095239D02*
X1352380Y30095239D01*
X2304761Y30095239D02*
X2352380Y30000000D01*
X2352380Y29809524D01*
X2304761Y29714286D01*
X2257142Y29666667D01*
X2161904Y29619048D01*
X1876190Y29619048D01*
X1780952Y29666667D01*
X1733333Y29714286D01*
X1685714Y29809524D01*
X1685714Y30000000D01*
X1733333Y30095239D01*
%TO.C,U1*%
X30452380Y52488096D02*
X31261904Y52488096D01*
X31357142Y52535715D01*
X31404761Y52583334D01*
X31452380Y52678572D01*
X31452380Y52869048D01*
X31404761Y52964286D01*
X31357142Y53011905D01*
X31261904Y53059524D01*
X30452380Y53059524D01*
X31452380Y54059524D02*
X31452380Y53488096D01*
X31452380Y53773810D02*
X30452380Y53773810D01*
X30595238Y53678572D01*
X30690476Y53583334D01*
X30738095Y53488096D01*
X19416666Y48952381D02*
X19416666Y49428572D01*
X19702380Y48857143D02*
X18702380Y49190477D01*
X19702380Y49523810D01*
X19702380Y49857143D02*
X18702380Y49857143D01*
X19416666Y50190477D01*
X18702380Y50523810D01*
X19702380Y50523810D01*
X18702380Y50904762D02*
X18702380Y51571429D01*
X19702380Y50904762D01*
X19702380Y51571429D01*
X19797619Y51714286D02*
X19797619Y52476191D01*
X18702380Y52619048D02*
X18702380Y53238096D01*
X19083333Y52904762D01*
X19083333Y53047620D01*
X19130952Y53142858D01*
X19178571Y53190477D01*
X19273809Y53238096D01*
X19511904Y53238096D01*
X19607142Y53190477D01*
X19654761Y53142858D01*
X19702380Y53047620D01*
X19702380Y52761905D01*
X19654761Y52666667D01*
X19607142Y52619048D01*
X19416666Y53619048D02*
X19416666Y54095239D01*
X19702380Y53523810D02*
X18702380Y53857143D01*
X19702380Y54190477D01*
X19797619Y54285715D02*
X19797619Y55047620D01*
X19702380Y55285715D02*
X18702380Y55285715D01*
X19416666Y55619048D01*
X18702380Y55952381D01*
X19702380Y55952381D01*
X18702380Y56619048D02*
X18702380Y56809524D01*
X18750000Y56904762D01*
X18845238Y57000000D01*
X19035714Y57047620D01*
X19369047Y57047620D01*
X19559523Y57000000D01*
X19654761Y56904762D01*
X19702380Y56809524D01*
X19702380Y56619048D01*
X19654761Y56523810D01*
X19559523Y56428572D01*
X19369047Y56380953D01*
X19035714Y56380953D01*
X18845238Y56428572D01*
X18750000Y56523810D01*
X18702380Y56619048D01*
X19702380Y57476191D02*
X18702380Y57476191D01*
X18702380Y57714286D01*
X18750000Y57857143D01*
X18845238Y57952381D01*
X18940476Y58000000D01*
X19130952Y58047620D01*
X19273809Y58047620D01*
X19464285Y58000000D01*
X19559523Y57952381D01*
X19654761Y57857143D01*
X19702380Y57714286D01*
X19702380Y57476191D01*
%TO.C,Q1*%
X18944761Y41072381D02*
X18849523Y41120000D01*
X18754285Y41215239D01*
X18611428Y41358096D01*
X18516190Y41405715D01*
X18420952Y41405715D01*
X18468571Y41167620D02*
X18373333Y41215239D01*
X18278095Y41310477D01*
X18230476Y41500953D01*
X18230476Y41834286D01*
X18278095Y42024762D01*
X18373333Y42120000D01*
X18468571Y42167620D01*
X18659047Y42167620D01*
X18754285Y42120000D01*
X18849523Y42024762D01*
X18897142Y41834286D01*
X18897142Y41500953D01*
X18849523Y41310477D01*
X18754285Y41215239D01*
X18659047Y41167620D01*
X18468571Y41167620D01*
X19849523Y41167620D02*
X19278095Y41167620D01*
X19563809Y41167620D02*
X19563809Y42167620D01*
X19468571Y42024762D01*
X19373333Y41929524D01*
X19278095Y41881905D01*
X17182857Y36071429D02*
X17325714Y36023810D01*
X17373333Y35976191D01*
X17420952Y35880953D01*
X17420952Y35738096D01*
X17373333Y35642858D01*
X17325714Y35595239D01*
X17230476Y35547620D01*
X16849523Y35547620D01*
X16849523Y36547620D01*
X17182857Y36547620D01*
X17278095Y36500000D01*
X17325714Y36452381D01*
X17373333Y36357143D01*
X17373333Y36261905D01*
X17325714Y36166667D01*
X17278095Y36119048D01*
X17182857Y36071429D01*
X16849523Y36071429D01*
X17849523Y35547620D02*
X17849523Y36547620D01*
X18087619Y36547620D01*
X18230476Y36500000D01*
X18325714Y36404762D01*
X18373333Y36309524D01*
X18420952Y36119048D01*
X18420952Y35976191D01*
X18373333Y35785715D01*
X18325714Y35690477D01*
X18230476Y35595239D01*
X18087619Y35547620D01*
X17849523Y35547620D01*
X19373333Y35547620D02*
X18801904Y35547620D01*
X19087619Y35547620D02*
X19087619Y36547620D01*
X18992380Y36404762D01*
X18897142Y36309524D01*
X18801904Y36261905D01*
X19706666Y36547620D02*
X20325714Y36547620D01*
X19992380Y36166667D01*
X20135238Y36166667D01*
X20230476Y36119048D01*
X20278095Y36071429D01*
X20325714Y35976191D01*
X20325714Y35738096D01*
X20278095Y35642858D01*
X20230476Y35595239D01*
X20135238Y35547620D01*
X19849523Y35547620D01*
X19754285Y35595239D01*
X19706666Y35642858D01*
X20801904Y35547620D02*
X20992380Y35547620D01*
X21087619Y35595239D01*
X21135238Y35642858D01*
X21230476Y35785715D01*
X21278095Y35976191D01*
X21278095Y36357143D01*
X21230476Y36452381D01*
X21182857Y36500000D01*
X21087619Y36547620D01*
X20897142Y36547620D01*
X20801904Y36500000D01*
X20754285Y36452381D01*
X20706666Y36357143D01*
X20706666Y36119048D01*
X20754285Y36023810D01*
X20801904Y35976191D01*
X20897142Y35928572D01*
X21087619Y35928572D01*
X21182857Y35976191D01*
X21230476Y36023810D01*
X21278095Y36119048D01*
%TO.C,D1*%
X23181904Y42077620D02*
X23181904Y43077620D01*
X23420000Y43077620D01*
X23562857Y43030000D01*
X23658095Y42934762D01*
X23705714Y42839524D01*
X23753333Y42649048D01*
X23753333Y42506191D01*
X23705714Y42315715D01*
X23658095Y42220477D01*
X23562857Y42125239D01*
X23420000Y42077620D01*
X23181904Y42077620D01*
X24705714Y42077620D02*
X24134285Y42077620D01*
X24420000Y42077620D02*
X24420000Y43077620D01*
X24324761Y42934762D01*
X24229523Y42839524D01*
X24134285Y42791905D01*
X21607142Y44547620D02*
X21035714Y44547620D01*
X21321428Y44547620D02*
X21321428Y45547620D01*
X21226190Y45404762D01*
X21130952Y45309524D01*
X21035714Y45261905D01*
X22035714Y44547620D02*
X22035714Y45547620D01*
X22607142Y44547620D01*
X22607142Y45547620D01*
X23511904Y45214286D02*
X23511904Y44547620D01*
X23273809Y45595239D02*
X23035714Y44880953D01*
X23654761Y44880953D01*
X24226190Y45547620D02*
X24321428Y45547620D01*
X24416666Y45500000D01*
X24464285Y45452381D01*
X24511904Y45357143D01*
X24559523Y45166667D01*
X24559523Y44928572D01*
X24511904Y44738096D01*
X24464285Y44642858D01*
X24416666Y44595239D01*
X24321428Y44547620D01*
X24226190Y44547620D01*
X24130952Y44595239D01*
X24083333Y44642858D01*
X24035714Y44738096D01*
X23988095Y44928572D01*
X23988095Y45166667D01*
X24035714Y45357143D01*
X24083333Y45452381D01*
X24130952Y45500000D01*
X24226190Y45547620D01*
X25178571Y45547620D02*
X25273809Y45547620D01*
X25369047Y45500000D01*
X25416666Y45452381D01*
X25464285Y45357143D01*
X25511904Y45166667D01*
X25511904Y44928572D01*
X25464285Y44738096D01*
X25416666Y44642858D01*
X25369047Y44595239D01*
X25273809Y44547620D01*
X25178571Y44547620D01*
X25083333Y44595239D01*
X25035714Y44642858D01*
X24988095Y44738096D01*
X24940476Y44928572D01*
X24940476Y45166667D01*
X24988095Y45357143D01*
X25035714Y45452381D01*
X25083333Y45500000D01*
X25178571Y45547620D01*
X26464285Y44547620D02*
X25892857Y44547620D01*
X26178571Y44547620D02*
X26178571Y45547620D01*
X26083333Y45404762D01*
X25988095Y45309524D01*
X25892857Y45261905D01*
X28738095Y42447620D02*
X28738095Y43447620D01*
X29309523Y42447620D02*
X28880952Y43019048D01*
X29309523Y43447620D02*
X28738095Y42876191D01*
%TO.C,J2*%
X9086380Y53166667D02*
X9800666Y53166667D01*
X9943523Y53119048D01*
X10038761Y53023810D01*
X10086380Y52880953D01*
X10086380Y52785715D01*
X9181619Y53595239D02*
X9134000Y53642858D01*
X9086380Y53738096D01*
X9086380Y53976191D01*
X9134000Y54071429D01*
X9181619Y54119048D01*
X9276857Y54166667D01*
X9372095Y54166667D01*
X9514952Y54119048D01*
X10086380Y53547620D01*
X10086380Y54166667D01*
X1936380Y51523810D02*
X936380Y51523810D01*
X936380Y51904762D01*
X984000Y52000000D01*
X1031619Y52047620D01*
X1126857Y52095239D01*
X1269714Y52095239D01*
X1364952Y52047620D01*
X1412571Y52000000D01*
X1460190Y51904762D01*
X1460190Y51523810D01*
X1936380Y52666667D02*
X1888761Y52571429D01*
X1841142Y52523810D01*
X1745904Y52476191D01*
X1460190Y52476191D01*
X1364952Y52523810D01*
X1317333Y52571429D01*
X1269714Y52666667D01*
X1269714Y52809524D01*
X1317333Y52904762D01*
X1364952Y52952381D01*
X1460190Y53000000D01*
X1745904Y53000000D01*
X1841142Y52952381D01*
X1888761Y52904762D01*
X1936380Y52809524D01*
X1936380Y52666667D01*
X1269714Y53333334D02*
X1936380Y53523810D01*
X1460190Y53714286D01*
X1936380Y53904762D01*
X1269714Y54095239D01*
X1888761Y54857143D02*
X1936380Y54761905D01*
X1936380Y54571429D01*
X1888761Y54476191D01*
X1793523Y54428572D01*
X1412571Y54428572D01*
X1317333Y54476191D01*
X1269714Y54571429D01*
X1269714Y54761905D01*
X1317333Y54857143D01*
X1412571Y54904762D01*
X1507809Y54904762D01*
X1603047Y54428572D01*
X1936380Y55333334D02*
X1269714Y55333334D01*
X1460190Y55333334D02*
X1364952Y55380953D01*
X1317333Y55428572D01*
X1269714Y55523810D01*
X1269714Y55619048D01*
%TO.C,J4*%
X9252380Y4416667D02*
X9966666Y4416667D01*
X10109523Y4369048D01*
X10204761Y4273810D01*
X10252380Y4130953D01*
X10252380Y4035715D01*
X9585714Y5321429D02*
X10252380Y5321429D01*
X9204761Y5083334D02*
X9919047Y4845239D01*
X9919047Y5464286D01*
X1578571Y3988096D02*
X1578571Y3654762D01*
X2102380Y3654762D02*
X1102380Y3654762D01*
X1102380Y4130953D01*
X2102380Y4940477D02*
X1578571Y4940477D01*
X1483333Y4892858D01*
X1435714Y4797620D01*
X1435714Y4607143D01*
X1483333Y4511905D01*
X2054761Y4940477D02*
X2102380Y4845239D01*
X2102380Y4607143D01*
X2054761Y4511905D01*
X1959523Y4464286D01*
X1864285Y4464286D01*
X1769047Y4511905D01*
X1721428Y4607143D01*
X1721428Y4845239D01*
X1673809Y4940477D01*
X1435714Y5416667D02*
X2102380Y5416667D01*
X1530952Y5416667D02*
X1483333Y5464286D01*
X1435714Y5559524D01*
X1435714Y5702381D01*
X1483333Y5797620D01*
X1578571Y5845239D01*
X2102380Y5845239D01*
%TO.C,R3*%
X25202380Y28583334D02*
X24726190Y28250000D01*
X25202380Y28011905D02*
X24202380Y28011905D01*
X24202380Y28392858D01*
X24250000Y28488096D01*
X24297619Y28535715D01*
X24392857Y28583334D01*
X24535714Y28583334D01*
X24630952Y28535715D01*
X24678571Y28488096D01*
X24726190Y28392858D01*
X24726190Y28011905D01*
X24202380Y28916667D02*
X24202380Y29535715D01*
X24583333Y29202381D01*
X24583333Y29345239D01*
X24630952Y29440477D01*
X24678571Y29488096D01*
X24773809Y29535715D01*
X25011904Y29535715D01*
X25107142Y29488096D01*
X25154761Y29440477D01*
X25202380Y29345239D01*
X25202380Y29059524D01*
X25154761Y28964286D01*
X25107142Y28916667D01*
X22952380Y28880953D02*
X22952380Y28309524D01*
X22952380Y28595239D02*
X21952380Y28595239D01*
X22095238Y28500000D01*
X22190476Y28404762D01*
X22238095Y28309524D01*
X22952380Y29309524D02*
X21952380Y29309524D01*
X22571428Y29404762D02*
X22952380Y29690477D01*
X22285714Y29690477D02*
X22666666Y29309524D01*
%TD*%
M02*
