%TF.GenerationSoftware,KiCad,Pcbnew,(5.1.8-0-10_14)*%
%TF.CreationDate,2021-05-20T11:29:51-04:00*%
%TF.ProjectId,PiHat,50694861-742e-46b6-9963-61645f706362,rev?*%
%TF.SameCoordinates,PX9b0780PY44cb540*%
%TF.FileFunction,Soldermask,Top*%
%TF.FilePolarity,Negative*%
%FSLAX46Y46*%
G04 Gerber Fmt 4.6, Leading zero omitted, Abs format (unit mm)*
G04 Created by KiCad (PCBNEW (5.1.8-0-10_14)) date 2021-05-20 11:29:51*
%MOMM*%
%LPD*%
G01*
G04 APERTURE LIST*
%ADD10O,1.600000X1.600000*%
%ADD11C,1.600000*%
%ADD12O,2.000000X1.700000*%
%ADD13O,1.700000X1.950000*%
%ADD14O,1.950000X1.700000*%
%ADD15C,1.700000*%
%ADD16O,1.700000X1.700000*%
%ADD17R,1.700000X1.700000*%
%ADD18R,1.524000X1.524000*%
%ADD19O,1.800000X1.800000*%
%ADD20R,1.800000X1.800000*%
%ADD21O,2.200000X2.200000*%
%ADD22R,2.200000X2.200000*%
G04 APERTURE END LIST*
D10*
%TO.C,R2*%
X18250000Y7840000D03*
D11*
X18250000Y18000000D03*
%TD*%
D10*
%TO.C,R1*%
X18250000Y24090000D03*
D11*
X18250000Y34250000D03*
%TD*%
D12*
%TO.C,J8*%
X6250000Y14250000D03*
G36*
G01*
X5500000Y17600000D02*
X7000000Y17600000D01*
G75*
G02*
X7250000Y17350000I0J-250000D01*
G01*
X7250000Y16150000D01*
G75*
G02*
X7000000Y15900000I-250000J0D01*
G01*
X5500000Y15900000D01*
G75*
G02*
X5250000Y16150000I0J250000D01*
G01*
X5250000Y17350000D01*
G75*
G02*
X5500000Y17600000I250000J0D01*
G01*
G37*
%TD*%
D13*
%TO.C,J7*%
X44250000Y57500000D03*
X41750000Y57500000D03*
X39250000Y57500000D03*
X36750000Y57500000D03*
G36*
G01*
X33400000Y56775000D02*
X33400000Y58225000D01*
G75*
G02*
X33650000Y58475000I250000J0D01*
G01*
X34850000Y58475000D01*
G75*
G02*
X35100000Y58225000I0J-250000D01*
G01*
X35100000Y56775000D01*
G75*
G02*
X34850000Y56525000I-250000J0D01*
G01*
X33650000Y56525000D01*
G75*
G02*
X33400000Y56775000I0J250000D01*
G01*
G37*
%TD*%
D14*
%TO.C,J5*%
X8250000Y36000000D03*
X8250000Y38500000D03*
G36*
G01*
X7525000Y41850000D02*
X8975000Y41850000D01*
G75*
G02*
X9225000Y41600000I0J-250000D01*
G01*
X9225000Y40400000D01*
G75*
G02*
X8975000Y40150000I-250000J0D01*
G01*
X7525000Y40150000D01*
G75*
G02*
X7275000Y40400000I0J250000D01*
G01*
X7275000Y41600000D01*
G75*
G02*
X7525000Y41850000I250000J0D01*
G01*
G37*
%TD*%
D15*
%TO.C,J6*%
X33790000Y17288000D03*
X33790000Y19828000D03*
X33790000Y22368000D03*
X33790000Y24908000D03*
X33790000Y27448000D03*
X33790000Y29988000D03*
X33790000Y32528000D03*
X33790000Y35068000D03*
X31250000Y17288000D03*
X31250000Y19828000D03*
X31250000Y22368000D03*
X31250000Y24908000D03*
X31250000Y27448000D03*
X31250000Y29988000D03*
X31250000Y32528000D03*
G36*
G01*
X30400000Y34468000D02*
X30400000Y35668000D01*
G75*
G02*
X30650000Y35918000I250000J0D01*
G01*
X31850000Y35918000D01*
G75*
G02*
X32100000Y35668000I0J-250000D01*
G01*
X32100000Y34468000D01*
G75*
G02*
X31850000Y34218000I-250000J0D01*
G01*
X30650000Y34218000D01*
G75*
G02*
X30400000Y34468000I0J250000D01*
G01*
G37*
%TD*%
D16*
%TO.C,J1*%
X43290000Y2990000D03*
X40750000Y2990000D03*
X43290000Y5530000D03*
X40750000Y5530000D03*
X43290000Y8070000D03*
X40750000Y8070000D03*
X43290000Y10610000D03*
X40750000Y10610000D03*
X43290000Y13150000D03*
X40750000Y13150000D03*
X43290000Y15690000D03*
X40750000Y15690000D03*
X43290000Y18230000D03*
X40750000Y18230000D03*
X43290000Y20770000D03*
X40750000Y20770000D03*
X43290000Y23310000D03*
X40750000Y23310000D03*
X43290000Y25850000D03*
X40750000Y25850000D03*
X43290000Y28390000D03*
X40750000Y28390000D03*
X43290000Y30930000D03*
X40750000Y30930000D03*
X43290000Y33470000D03*
X40750000Y33470000D03*
X43290000Y36010000D03*
X40750000Y36010000D03*
X43290000Y38550000D03*
X40750000Y38550000D03*
X43290000Y41090000D03*
X40750000Y41090000D03*
X43290000Y43630000D03*
X40750000Y43630000D03*
X43290000Y46170000D03*
X40750000Y46170000D03*
X43290000Y48710000D03*
X40750000Y48710000D03*
X43290000Y51250000D03*
D17*
X40750000Y51250000D03*
%TD*%
D12*
%TO.C,J3*%
X6500000Y24750000D03*
G36*
G01*
X5750000Y28100000D02*
X7250000Y28100000D01*
G75*
G02*
X7500000Y27850000I0J-250000D01*
G01*
X7500000Y26650000D01*
G75*
G02*
X7250000Y26400000I-250000J0D01*
G01*
X5750000Y26400000D01*
G75*
G02*
X5500000Y26650000I0J250000D01*
G01*
X5500000Y27850000D01*
G75*
G02*
X5750000Y28100000I250000J0D01*
G01*
G37*
%TD*%
%TO.C,U1*%
G36*
G01*
X11931000Y56648000D02*
X11169000Y56648000D01*
G75*
G02*
X10788000Y57029000I0J381000D01*
G01*
X10788000Y57791000D01*
G75*
G02*
X11169000Y58172000I381000J0D01*
G01*
X11931000Y58172000D01*
G75*
G02*
X12312000Y57791000I0J-381000D01*
G01*
X12312000Y57029000D01*
G75*
G02*
X11931000Y56648000I-381000J0D01*
G01*
G37*
G36*
G01*
X11931000Y54108000D02*
X11169000Y54108000D01*
G75*
G02*
X10788000Y54489000I0J381000D01*
G01*
X10788000Y55251000D01*
G75*
G02*
X11169000Y55632000I381000J0D01*
G01*
X11931000Y55632000D01*
G75*
G02*
X12312000Y55251000I0J-381000D01*
G01*
X12312000Y54489000D01*
G75*
G02*
X11931000Y54108000I-381000J0D01*
G01*
G37*
G36*
G01*
X11931000Y51568000D02*
X11169000Y51568000D01*
G75*
G02*
X10788000Y51949000I0J381000D01*
G01*
X10788000Y52711000D01*
G75*
G02*
X11169000Y53092000I381000J0D01*
G01*
X11931000Y53092000D01*
G75*
G02*
X12312000Y52711000I0J-381000D01*
G01*
X12312000Y51949000D01*
G75*
G02*
X11931000Y51568000I-381000J0D01*
G01*
G37*
D18*
X11550000Y49790000D03*
%TD*%
D19*
%TO.C,Q1*%
X21580000Y38500000D03*
X19040000Y38500000D03*
D20*
X16500000Y38500000D03*
%TD*%
D21*
%TO.C,D1*%
X18840000Y45000000D03*
D22*
X29000000Y45000000D03*
%TD*%
%TO.C,J2*%
G36*
G01*
X5334000Y55600000D02*
X6834000Y55600000D01*
G75*
G02*
X7084000Y55350000I0J-250000D01*
G01*
X7084000Y54150000D01*
G75*
G02*
X6834000Y53900000I-250000J0D01*
G01*
X5334000Y53900000D01*
G75*
G02*
X5084000Y54150000I0J250000D01*
G01*
X5084000Y55350000D01*
G75*
G02*
X5334000Y55600000I250000J0D01*
G01*
G37*
D12*
X6084000Y52250000D03*
%TD*%
%TO.C,J4*%
X6250000Y3500000D03*
G36*
G01*
X5500000Y6850000D02*
X7000000Y6850000D01*
G75*
G02*
X7250000Y6600000I0J-250000D01*
G01*
X7250000Y5400000D01*
G75*
G02*
X7000000Y5150000I-250000J0D01*
G01*
X5500000Y5150000D01*
G75*
G02*
X5250000Y5400000I0J250000D01*
G01*
X5250000Y6600000D01*
G75*
G02*
X5500000Y6850000I250000J0D01*
G01*
G37*
%TD*%
D11*
%TO.C,R3*%
X22500000Y24000000D03*
D10*
X22500000Y34160000D03*
%TD*%
M02*
