%TF.GenerationSoftware,KiCad,Pcbnew,(5.1.8-0-10_14)*%
%TF.CreationDate,2021-05-22T15:14:00-04:00*%
%TF.ProjectId,PiHat,50694861-742e-46b6-9963-61645f706362,rev?*%
%TF.SameCoordinates,PX9b0780PY44cb540*%
%TF.FileFunction,Copper,L1,Top*%
%TF.FilePolarity,Positive*%
%FSLAX46Y46*%
G04 Gerber Fmt 4.6, Leading zero omitted, Abs format (unit mm)*
G04 Created by KiCad (PCBNEW (5.1.8-0-10_14)) date 2021-05-22 15:14:00*
%MOMM*%
%LPD*%
G01*
G04 APERTURE LIST*
%TA.AperFunction,ComponentPad*%
%ADD10O,1.700000X1.700000*%
%TD*%
%TA.AperFunction,ComponentPad*%
%ADD11R,1.700000X1.700000*%
%TD*%
%TA.AperFunction,ComponentPad*%
%ADD12O,1.600000X1.600000*%
%TD*%
%TA.AperFunction,ComponentPad*%
%ADD13C,1.600000*%
%TD*%
%TA.AperFunction,ComponentPad*%
%ADD14O,2.000000X1.700000*%
%TD*%
%TA.AperFunction,ComponentPad*%
%ADD15O,1.700000X1.950000*%
%TD*%
%TA.AperFunction,ComponentPad*%
%ADD16O,1.950000X1.700000*%
%TD*%
%TA.AperFunction,ComponentPad*%
%ADD17C,1.700000*%
%TD*%
%TA.AperFunction,ComponentPad*%
%ADD18R,1.524000X1.524000*%
%TD*%
%TA.AperFunction,ComponentPad*%
%ADD19O,1.800000X1.800000*%
%TD*%
%TA.AperFunction,ComponentPad*%
%ADD20R,1.800000X1.800000*%
%TD*%
%TA.AperFunction,ComponentPad*%
%ADD21O,2.200000X2.200000*%
%TD*%
%TA.AperFunction,ComponentPad*%
%ADD22R,2.200000X2.200000*%
%TD*%
%TA.AperFunction,ViaPad*%
%ADD23C,0.800000*%
%TD*%
%TA.AperFunction,Conductor*%
%ADD24C,1.250000*%
%TD*%
G04 APERTURE END LIST*
D10*
%TO.P,J9,2*%
%TO.N,GND*%
X47250000Y15790000D03*
D11*
%TO.P,J9,1*%
%TO.N,Buzzer*%
X47250000Y13250000D03*
%TD*%
D12*
%TO.P,R2,2*%
%TO.N,GND*%
X18250000Y7840000D03*
D13*
%TO.P,R2,1*%
%TO.N,ZProbe3V3*%
X18250000Y18000000D03*
%TD*%
D12*
%TO.P,R1,2*%
%TO.N,ZProbe3V3*%
X18250000Y24090000D03*
D13*
%TO.P,R1,1*%
%TO.N,ZProbeIn*%
X18250000Y34250000D03*
%TD*%
D14*
%TO.P,J8,2*%
%TO.N,GND*%
X6250000Y14250000D03*
%TO.P,J8,1*%
%TO.N,+5V*%
%TA.AperFunction,ComponentPad*%
G36*
G01*
X5500000Y17600000D02*
X7000000Y17600000D01*
G75*
G02*
X7250000Y17350000I0J-250000D01*
G01*
X7250000Y16150000D01*
G75*
G02*
X7000000Y15900000I-250000J0D01*
G01*
X5500000Y15900000D01*
G75*
G02*
X5250000Y16150000I0J250000D01*
G01*
X5250000Y17350000D01*
G75*
G02*
X5500000Y17600000I250000J0D01*
G01*
G37*
%TD.AperFunction*%
%TD*%
D15*
%TO.P,J7,5*%
%TO.N,GND*%
X44250000Y57500000D03*
%TO.P,J7,4*%
X41750000Y57500000D03*
%TO.P,J7,3*%
%TO.N,UVControl*%
X39250000Y57500000D03*
%TO.P,J7,2*%
%TO.N,+24V*%
X36750000Y57500000D03*
%TO.P,J7,1*%
%TA.AperFunction,ComponentPad*%
G36*
G01*
X33400000Y56775000D02*
X33400000Y58225000D01*
G75*
G02*
X33650000Y58475000I250000J0D01*
G01*
X34850000Y58475000D01*
G75*
G02*
X35100000Y58225000I0J-250000D01*
G01*
X35100000Y56775000D01*
G75*
G02*
X34850000Y56525000I-250000J0D01*
G01*
X33650000Y56525000D01*
G75*
G02*
X33400000Y56775000I0J250000D01*
G01*
G37*
%TD.AperFunction*%
%TD*%
D16*
%TO.P,J5,3*%
%TO.N,ZProbeIn*%
X8250000Y36000000D03*
%TO.P,J5,2*%
%TO.N,LaserGnd*%
X8250000Y38500000D03*
%TO.P,J5,1*%
%TO.N,+5V*%
%TA.AperFunction,ComponentPad*%
G36*
G01*
X7525000Y41850000D02*
X8975000Y41850000D01*
G75*
G02*
X9225000Y41600000I0J-250000D01*
G01*
X9225000Y40400000D01*
G75*
G02*
X8975000Y40150000I-250000J0D01*
G01*
X7525000Y40150000D01*
G75*
G02*
X7275000Y40400000I0J250000D01*
G01*
X7275000Y41600000D01*
G75*
G02*
X7525000Y41850000I250000J0D01*
G01*
G37*
%TD.AperFunction*%
%TD*%
D17*
%TO.P,J6,16*%
%TO.N,T_IRQ*%
X33790000Y17288000D03*
%TO.P,J6,14*%
%TO.N,SLCK*%
X33790000Y19828000D03*
%TO.P,J6,12*%
%TO.N,MISO*%
X33790000Y22368000D03*
%TO.P,J6,10*%
%TO.N,MOSI*%
X33790000Y24908000D03*
%TO.P,J6,8*%
%TO.N,RESET*%
X33790000Y27448000D03*
%TO.P,J6,6*%
%TO.N,DC*%
X33790000Y29988000D03*
%TO.P,J6,4*%
%TO.N,CS*%
X33790000Y32528000D03*
%TO.P,J6,2*%
%TO.N,+3V3*%
X33790000Y35068000D03*
%TO.P,J6,15*%
%TO.N,T_CS*%
X31250000Y17288000D03*
%TO.P,J6,13*%
%TO.N,SLCK*%
X31250000Y19828000D03*
%TO.P,J6,11*%
%TO.N,MISO*%
X31250000Y22368000D03*
%TO.P,J6,9*%
%TO.N,MOSI*%
X31250000Y24908000D03*
%TO.P,J6,7*%
%TO.N,SDA*%
X31250000Y27448000D03*
%TO.P,J6,5*%
%TO.N,SCL*%
X31250000Y29988000D03*
%TO.P,J6,3*%
%TO.N,GND*%
X31250000Y32528000D03*
%TO.P,J6,1*%
%TO.N,+3V3*%
%TA.AperFunction,ComponentPad*%
G36*
G01*
X30400000Y34468000D02*
X30400000Y35668000D01*
G75*
G02*
X30650000Y35918000I250000J0D01*
G01*
X31850000Y35918000D01*
G75*
G02*
X32100000Y35668000I0J-250000D01*
G01*
X32100000Y34468000D01*
G75*
G02*
X31850000Y34218000I-250000J0D01*
G01*
X30650000Y34218000D01*
G75*
G02*
X30400000Y34468000I0J250000D01*
G01*
G37*
%TD.AperFunction*%
%TD*%
D10*
%TO.P,J1,40*%
%TO.N,Net-(J1-Pad40)*%
X43290000Y2990000D03*
%TO.P,J1,39*%
%TO.N,GND*%
X40750000Y2990000D03*
%TO.P,J1,38*%
%TO.N,Net-(J1-Pad38)*%
X43290000Y5530000D03*
%TO.P,J1,37*%
%TO.N,LaserControl*%
X40750000Y5530000D03*
%TO.P,J1,36*%
%TO.N,Net-(J1-Pad36)*%
X43290000Y8070000D03*
%TO.P,J1,35*%
%TO.N,ZProbe3V3*%
X40750000Y8070000D03*
%TO.P,J1,34*%
%TO.N,Net-(J1-Pad34)*%
X43290000Y10610000D03*
%TO.P,J1,33*%
%TO.N,Net-(J1-Pad33)*%
X40750000Y10610000D03*
%TO.P,J1,32*%
%TO.N,Buzzer*%
X43290000Y13150000D03*
%TO.P,J1,31*%
%TO.N,T_CS*%
X40750000Y13150000D03*
%TO.P,J1,30*%
%TO.N,Net-(J1-Pad30)*%
X43290000Y15690000D03*
%TO.P,J1,29*%
%TO.N,T_IRQ*%
X40750000Y15690000D03*
%TO.P,J1,28*%
%TO.N,Net-(J1-Pad28)*%
X43290000Y18230000D03*
%TO.P,J1,27*%
%TO.N,Net-(J1-Pad27)*%
X40750000Y18230000D03*
%TO.P,J1,26*%
%TO.N,Net-(J1-Pad26)*%
X43290000Y20770000D03*
%TO.P,J1,25*%
%TO.N,Net-(J1-Pad25)*%
X40750000Y20770000D03*
%TO.P,J1,24*%
%TO.N,Net-(J1-Pad24)*%
X43290000Y23310000D03*
%TO.P,J1,23*%
%TO.N,SLCK*%
X40750000Y23310000D03*
%TO.P,J1,22*%
%TO.N,Net-(J1-Pad22)*%
X43290000Y25850000D03*
%TO.P,J1,21*%
%TO.N,MISO*%
X40750000Y25850000D03*
%TO.P,J1,20*%
%TO.N,GND*%
X43290000Y28390000D03*
%TO.P,J1,19*%
%TO.N,MOSI*%
X40750000Y28390000D03*
%TO.P,J1,18*%
%TO.N,Net-(J1-Pad18)*%
X43290000Y30930000D03*
%TO.P,J1,17*%
%TO.N,Net-(J1-Pad17)*%
X40750000Y30930000D03*
%TO.P,J1,16*%
%TO.N,Net-(J1-Pad16)*%
X43290000Y33470000D03*
%TO.P,J1,15*%
%TO.N,RESET*%
X40750000Y33470000D03*
%TO.P,J1,14*%
%TO.N,Net-(J1-Pad14)*%
X43290000Y36010000D03*
%TO.P,J1,13*%
%TO.N,DC*%
X40750000Y36010000D03*
%TO.P,J1,12*%
%TO.N,Net-(J1-Pad12)*%
X43290000Y38550000D03*
%TO.P,J1,11*%
%TO.N,CS*%
X40750000Y38550000D03*
%TO.P,J1,10*%
%TO.N,Net-(J1-Pad10)*%
X43290000Y41090000D03*
%TO.P,J1,9*%
%TO.N,Net-(J1-Pad9)*%
X40750000Y41090000D03*
%TO.P,J1,8*%
%TO.N,UVControl*%
X43290000Y43630000D03*
%TO.P,J1,7*%
%TO.N,Net-(J1-Pad7)*%
X40750000Y43630000D03*
%TO.P,J1,6*%
%TO.N,Net-(J1-Pad6)*%
X43290000Y46170000D03*
%TO.P,J1,5*%
%TO.N,SCL*%
X40750000Y46170000D03*
%TO.P,J1,4*%
%TO.N,Net-(J1-Pad4)*%
X43290000Y48710000D03*
%TO.P,J1,3*%
%TO.N,SDA*%
X40750000Y48710000D03*
%TO.P,J1,2*%
%TO.N,+5V*%
X43290000Y51250000D03*
D11*
%TO.P,J1,1*%
%TO.N,+3V3*%
X40750000Y51250000D03*
%TD*%
D14*
%TO.P,J3,2*%
%TO.N,GND*%
X6500000Y24750000D03*
%TO.P,J3,1*%
%TO.N,+5V*%
%TA.AperFunction,ComponentPad*%
G36*
G01*
X5750000Y28100000D02*
X7250000Y28100000D01*
G75*
G02*
X7500000Y27850000I0J-250000D01*
G01*
X7500000Y26650000D01*
G75*
G02*
X7250000Y26400000I-250000J0D01*
G01*
X5750000Y26400000D01*
G75*
G02*
X5500000Y26650000I0J250000D01*
G01*
X5500000Y27850000D01*
G75*
G02*
X5750000Y28100000I250000J0D01*
G01*
G37*
%TD.AperFunction*%
%TD*%
%TO.P,U1,4*%
%TO.N,Net-(U1-Pad4)*%
%TA.AperFunction,ComponentPad*%
G36*
G01*
X11931000Y56648000D02*
X11169000Y56648000D01*
G75*
G02*
X10788000Y57029000I0J381000D01*
G01*
X10788000Y57791000D01*
G75*
G02*
X11169000Y58172000I381000J0D01*
G01*
X11931000Y58172000D01*
G75*
G02*
X12312000Y57791000I0J-381000D01*
G01*
X12312000Y57029000D01*
G75*
G02*
X11931000Y56648000I-381000J0D01*
G01*
G37*
%TD.AperFunction*%
%TO.P,U1,3*%
%TO.N,+24V*%
%TA.AperFunction,ComponentPad*%
G36*
G01*
X11931000Y54108000D02*
X11169000Y54108000D01*
G75*
G02*
X10788000Y54489000I0J381000D01*
G01*
X10788000Y55251000D01*
G75*
G02*
X11169000Y55632000I381000J0D01*
G01*
X11931000Y55632000D01*
G75*
G02*
X12312000Y55251000I0J-381000D01*
G01*
X12312000Y54489000D01*
G75*
G02*
X11931000Y54108000I-381000J0D01*
G01*
G37*
%TD.AperFunction*%
%TO.P,U1,2*%
%TO.N,GND*%
%TA.AperFunction,ComponentPad*%
G36*
G01*
X11931000Y51568000D02*
X11169000Y51568000D01*
G75*
G02*
X10788000Y51949000I0J381000D01*
G01*
X10788000Y52711000D01*
G75*
G02*
X11169000Y53092000I381000J0D01*
G01*
X11931000Y53092000D01*
G75*
G02*
X12312000Y52711000I0J-381000D01*
G01*
X12312000Y51949000D01*
G75*
G02*
X11931000Y51568000I-381000J0D01*
G01*
G37*
%TD.AperFunction*%
D18*
%TO.P,U1,1*%
%TO.N,Net-(D1-Pad2)*%
X11550000Y49790000D03*
%TD*%
D19*
%TO.P,Q1,3*%
%TO.N,Net-(Q1-Pad3)*%
X21580000Y38500000D03*
%TO.P,Q1,2*%
%TO.N,LaserGnd*%
X19040000Y38500000D03*
D20*
%TO.P,Q1,1*%
%TO.N,GND*%
X16500000Y38500000D03*
%TD*%
D21*
%TO.P,D1,2*%
%TO.N,Net-(D1-Pad2)*%
X18840000Y45000000D03*
D22*
%TO.P,D1,1*%
%TO.N,+5V*%
X29000000Y45000000D03*
%TD*%
%TO.P,J2,1*%
%TO.N,+24V*%
%TA.AperFunction,ComponentPad*%
G36*
G01*
X5334000Y55600000D02*
X6834000Y55600000D01*
G75*
G02*
X7084000Y55350000I0J-250000D01*
G01*
X7084000Y54150000D01*
G75*
G02*
X6834000Y53900000I-250000J0D01*
G01*
X5334000Y53900000D01*
G75*
G02*
X5084000Y54150000I0J250000D01*
G01*
X5084000Y55350000D01*
G75*
G02*
X5334000Y55600000I250000J0D01*
G01*
G37*
%TD.AperFunction*%
D14*
%TO.P,J2,2*%
%TO.N,GND*%
X6084000Y52250000D03*
%TD*%
%TO.P,J4,2*%
%TO.N,GND*%
X6250000Y3500000D03*
%TO.P,J4,1*%
%TO.N,+5V*%
%TA.AperFunction,ComponentPad*%
G36*
G01*
X5500000Y6850000D02*
X7000000Y6850000D01*
G75*
G02*
X7250000Y6600000I0J-250000D01*
G01*
X7250000Y5400000D01*
G75*
G02*
X7000000Y5150000I-250000J0D01*
G01*
X5500000Y5150000D01*
G75*
G02*
X5250000Y5400000I0J250000D01*
G01*
X5250000Y6600000D01*
G75*
G02*
X5500000Y6850000I250000J0D01*
G01*
G37*
%TD.AperFunction*%
%TD*%
D13*
%TO.P,R3,1*%
%TO.N,LaserControl*%
X22500000Y24000000D03*
D12*
%TO.P,R3,2*%
%TO.N,Net-(Q1-Pad3)*%
X22500000Y34160000D03*
%TD*%
D23*
%TO.N,SCL*%
X28000000Y27750000D03*
%TO.N,SDA*%
X28000000Y24750000D03*
%TD*%
D24*
%TO.N,SCL*%
X28000000Y27750000D02*
X28000000Y34609008D01*
X39390992Y46000000D02*
X40500000Y46000000D01*
X28000000Y34609008D02*
X39390992Y46000000D01*
%TO.N,SDA*%
X28000000Y24750000D02*
X26000000Y24750000D01*
X26000000Y24750000D02*
X25750000Y25000000D01*
X36525002Y48750000D02*
X40750000Y48750000D01*
X25750000Y37974998D02*
X36525002Y48750000D01*
X25750000Y25000000D02*
X25750000Y37974998D01*
%TD*%
M02*
