%TF.GenerationSoftware,KiCad,Pcbnew,(5.1.8-0-10_14)*%
%TF.CreationDate,2021-03-29T15:35:27-04:00*%
%TF.ProjectId,PiHat,50694861-742e-46b6-9963-61645f706362,rev?*%
%TF.SameCoordinates,PX9b0780PY44cb540*%
%TF.FileFunction,Legend,Top*%
%TF.FilePolarity,Positive*%
%FSLAX46Y46*%
G04 Gerber Fmt 4.6, Leading zero omitted, Abs format (unit mm)*
G04 Created by KiCad (PCBNEW (5.1.8-0-10_14)) date 2021-03-29 15:35:27*
%MOMM*%
%LPD*%
G01*
G04 APERTURE LIST*
%ADD10C,0.120000*%
%ADD11C,0.150000*%
G04 APERTURE END LIST*
D10*
%TO.C,J6*%
X27924000Y33468000D02*
X28924000Y33968000D01*
X27924000Y34468000D02*
X27924000Y33468000D01*
X28924000Y33968000D02*
X27924000Y34468000D01*
X30624000Y23028000D02*
X29314000Y23028000D01*
X30624000Y23028000D02*
X30624000Y23028000D01*
X30624000Y12278000D02*
X30624000Y23028000D01*
X37124000Y12278000D02*
X30624000Y12278000D01*
X37124000Y37878000D02*
X37124000Y12278000D01*
X30624000Y37878000D02*
X37124000Y37878000D01*
X30624000Y27128000D02*
X30624000Y37878000D01*
X29314000Y27128000D02*
X30624000Y27128000D01*
X29314000Y10978000D02*
X29314000Y39178000D01*
X38434000Y10978000D02*
X29314000Y10978000D01*
X38434000Y39178000D02*
X38434000Y10978000D01*
X29314000Y39178000D02*
X38434000Y39178000D01*
%TO.C,J1*%
X43466000Y54094000D02*
X44796000Y54094000D01*
X43466000Y52764000D02*
X43466000Y54094000D01*
X46066000Y54094000D02*
X48666000Y54094000D01*
X46066000Y51494000D02*
X46066000Y54094000D01*
X43466000Y51494000D02*
X46066000Y51494000D01*
X48666000Y54094000D02*
X48666000Y3174000D01*
X43466000Y51494000D02*
X43466000Y3174000D01*
X43466000Y3174000D02*
X48666000Y3174000D01*
%TO.C,J3*%
X8394000Y33480000D02*
X2424000Y33480000D01*
X2424000Y33480000D02*
X2424000Y25860000D01*
X2424000Y25860000D02*
X8394000Y25860000D01*
X8394000Y25860000D02*
X8394000Y33480000D01*
X8384000Y30170000D02*
X7634000Y30170000D01*
X7634000Y30170000D02*
X7634000Y29170000D01*
X7634000Y29170000D02*
X8384000Y29170000D01*
X8384000Y29170000D02*
X8384000Y30170000D01*
X8384000Y33470000D02*
X7634000Y33470000D01*
X7634000Y33470000D02*
X7634000Y31670000D01*
X7634000Y31670000D02*
X8384000Y31670000D01*
X8384000Y31670000D02*
X8384000Y33470000D01*
X8384000Y27670000D02*
X7634000Y27670000D01*
X7634000Y27670000D02*
X7634000Y25870000D01*
X7634000Y25870000D02*
X8384000Y25870000D01*
X8384000Y25870000D02*
X8384000Y27670000D01*
X6134000Y33470000D02*
X6134000Y32720000D01*
X6134000Y32720000D02*
X3184000Y32720000D01*
X3184000Y32720000D02*
X3184000Y29670000D01*
X6134000Y25870000D02*
X6134000Y26620000D01*
X6134000Y26620000D02*
X3184000Y26620000D01*
X3184000Y26620000D02*
X3184000Y29670000D01*
X8684000Y32520000D02*
X8684000Y33770000D01*
X8684000Y33770000D02*
X7434000Y33770000D01*
%TO.C,U1*%
X12236000Y45790000D02*
X12236000Y56640000D01*
X12236000Y56640000D02*
X32236000Y56640000D01*
X32236000Y56640000D02*
X32236000Y45790000D01*
X32236000Y45790000D02*
X12236000Y45790000D01*
%TO.C,Q1*%
X14856000Y40141000D02*
X15686000Y40141000D01*
X12196000Y40141000D02*
X13776000Y40141000D01*
X15366000Y36940000D02*
X15686000Y36940000D01*
X12196000Y36940000D02*
X13266000Y36940000D01*
X12196000Y42660000D02*
X15686000Y42660000D01*
X12196000Y34420000D02*
X15686000Y34420000D01*
X15686000Y34420000D02*
X15686000Y42660000D01*
X12196000Y34420000D02*
X12196000Y42660000D01*
%TO.C,D1*%
X28720000Y40626000D02*
X28720000Y43566000D01*
X28720000Y43566000D02*
X23280000Y43566000D01*
X23280000Y43566000D02*
X23280000Y40626000D01*
X23280000Y40626000D02*
X28720000Y40626000D01*
X29740000Y42096000D02*
X28720000Y42096000D01*
X22260000Y42096000D02*
X23280000Y42096000D01*
X27820000Y40626000D02*
X27820000Y43566000D01*
X27700000Y40626000D02*
X27700000Y43566000D01*
X27940000Y40626000D02*
X27940000Y43566000D01*
%TO.C,J2*%
X8684000Y54090000D02*
X7434000Y54090000D01*
X8684000Y52840000D02*
X8684000Y54090000D01*
X3184000Y46940000D02*
X3184000Y49990000D01*
X6134000Y46940000D02*
X3184000Y46940000D01*
X6134000Y46190000D02*
X6134000Y46940000D01*
X3184000Y53040000D02*
X3184000Y49990000D01*
X6134000Y53040000D02*
X3184000Y53040000D01*
X6134000Y53790000D02*
X6134000Y53040000D01*
X8384000Y46190000D02*
X8384000Y47990000D01*
X7634000Y46190000D02*
X8384000Y46190000D01*
X7634000Y47990000D02*
X7634000Y46190000D01*
X8384000Y47990000D02*
X7634000Y47990000D01*
X8384000Y51990000D02*
X8384000Y53790000D01*
X7634000Y51990000D02*
X8384000Y51990000D01*
X7634000Y53790000D02*
X7634000Y51990000D01*
X8384000Y53790000D02*
X7634000Y53790000D01*
X8384000Y49490000D02*
X8384000Y50490000D01*
X7634000Y49490000D02*
X8384000Y49490000D01*
X7634000Y50490000D02*
X7634000Y49490000D01*
X8384000Y50490000D02*
X7634000Y50490000D01*
X8394000Y46180000D02*
X8394000Y53800000D01*
X2424000Y46180000D02*
X8394000Y46180000D01*
X2424000Y53800000D02*
X2424000Y46180000D01*
X8394000Y53800000D02*
X2424000Y53800000D01*
%TO.C,J4*%
X8394000Y23320000D02*
X2424000Y23320000D01*
X2424000Y23320000D02*
X2424000Y15700000D01*
X2424000Y15700000D02*
X8394000Y15700000D01*
X8394000Y15700000D02*
X8394000Y23320000D01*
X8384000Y20010000D02*
X7634000Y20010000D01*
X7634000Y20010000D02*
X7634000Y19010000D01*
X7634000Y19010000D02*
X8384000Y19010000D01*
X8384000Y19010000D02*
X8384000Y20010000D01*
X8384000Y23310000D02*
X7634000Y23310000D01*
X7634000Y23310000D02*
X7634000Y21510000D01*
X7634000Y21510000D02*
X8384000Y21510000D01*
X8384000Y21510000D02*
X8384000Y23310000D01*
X8384000Y17510000D02*
X7634000Y17510000D01*
X7634000Y17510000D02*
X7634000Y15710000D01*
X7634000Y15710000D02*
X8384000Y15710000D01*
X8384000Y15710000D02*
X8384000Y17510000D01*
X6134000Y23310000D02*
X6134000Y22560000D01*
X6134000Y22560000D02*
X3184000Y22560000D01*
X3184000Y22560000D02*
X3184000Y19510000D01*
X6134000Y15710000D02*
X6134000Y16460000D01*
X6134000Y16460000D02*
X3184000Y16460000D01*
X3184000Y16460000D02*
X3184000Y19510000D01*
X8684000Y22360000D02*
X8684000Y23610000D01*
X8684000Y23610000D02*
X7434000Y23610000D01*
%TO.C,J5*%
X8684000Y43930000D02*
X7434000Y43930000D01*
X8684000Y42680000D02*
X8684000Y43930000D01*
X3184000Y36780000D02*
X3184000Y39830000D01*
X6134000Y36780000D02*
X3184000Y36780000D01*
X6134000Y36030000D02*
X6134000Y36780000D01*
X3184000Y42880000D02*
X3184000Y39830000D01*
X6134000Y42880000D02*
X3184000Y42880000D01*
X6134000Y43630000D02*
X6134000Y42880000D01*
X8384000Y36030000D02*
X8384000Y37830000D01*
X7634000Y36030000D02*
X8384000Y36030000D01*
X7634000Y37830000D02*
X7634000Y36030000D01*
X8384000Y37830000D02*
X7634000Y37830000D01*
X8384000Y41830000D02*
X8384000Y43630000D01*
X7634000Y41830000D02*
X8384000Y41830000D01*
X7634000Y43630000D02*
X7634000Y41830000D01*
X8384000Y43630000D02*
X7634000Y43630000D01*
X8384000Y39330000D02*
X8384000Y40330000D01*
X7634000Y39330000D02*
X8384000Y39330000D01*
X7634000Y40330000D02*
X7634000Y39330000D01*
X8384000Y40330000D02*
X7634000Y40330000D01*
X8394000Y36020000D02*
X8394000Y43640000D01*
X2424000Y36020000D02*
X8394000Y36020000D01*
X2424000Y43640000D02*
X2424000Y36020000D01*
X8394000Y43640000D02*
X2424000Y43640000D01*
%TO.C,R1*%
X18888000Y34452000D02*
X18888000Y33682000D01*
X18888000Y26372000D02*
X18888000Y27142000D01*
X17518000Y33682000D02*
X17518000Y27142000D01*
X20258000Y33682000D02*
X17518000Y33682000D01*
X20258000Y27142000D02*
X20258000Y33682000D01*
X17518000Y27142000D02*
X20258000Y27142000D01*
%TO.C,J6*%
D11*
X33540666Y40615620D02*
X33540666Y39901334D01*
X33493047Y39758477D01*
X33397809Y39663239D01*
X33254952Y39615620D01*
X33159714Y39615620D01*
X34445428Y40615620D02*
X34254952Y40615620D01*
X34159714Y40568000D01*
X34112095Y40520381D01*
X34016857Y40377524D01*
X33969238Y40187048D01*
X33969238Y39806096D01*
X34016857Y39710858D01*
X34064476Y39663239D01*
X34159714Y39615620D01*
X34350190Y39615620D01*
X34445428Y39663239D01*
X34493047Y39710858D01*
X34540666Y39806096D01*
X34540666Y40044191D01*
X34493047Y40139429D01*
X34445428Y40187048D01*
X34350190Y40234667D01*
X34159714Y40234667D01*
X34064476Y40187048D01*
X34016857Y40139429D01*
X33969238Y40044191D01*
X31921619Y9635620D02*
X31921619Y10635620D01*
X32397809Y9635620D02*
X32397809Y10635620D01*
X32635904Y10635620D01*
X32778761Y10588000D01*
X32874000Y10492762D01*
X32921619Y10397524D01*
X32969238Y10207048D01*
X32969238Y10064191D01*
X32921619Y9873715D01*
X32874000Y9778477D01*
X32778761Y9683239D01*
X32635904Y9635620D01*
X32397809Y9635620D01*
X33969238Y9730858D02*
X33921619Y9683239D01*
X33778761Y9635620D01*
X33683523Y9635620D01*
X33540666Y9683239D01*
X33445428Y9778477D01*
X33397809Y9873715D01*
X33350190Y10064191D01*
X33350190Y10207048D01*
X33397809Y10397524D01*
X33445428Y10492762D01*
X33540666Y10588000D01*
X33683523Y10635620D01*
X33778761Y10635620D01*
X33921619Y10588000D01*
X33969238Y10540381D01*
X34921619Y9635620D02*
X34350190Y9635620D01*
X34635904Y9635620D02*
X34635904Y10635620D01*
X34540666Y10492762D01*
X34445428Y10397524D01*
X34350190Y10349905D01*
X35778761Y10635620D02*
X35588285Y10635620D01*
X35493047Y10588000D01*
X35445428Y10540381D01*
X35350190Y10397524D01*
X35302571Y10207048D01*
X35302571Y9826096D01*
X35350190Y9730858D01*
X35397809Y9683239D01*
X35493047Y9635620D01*
X35683523Y9635620D01*
X35778761Y9683239D01*
X35826380Y9730858D01*
X35874000Y9826096D01*
X35874000Y10064191D01*
X35826380Y10159429D01*
X35778761Y10207048D01*
X35683523Y10254667D01*
X35493047Y10254667D01*
X35397809Y10207048D01*
X35350190Y10159429D01*
X35302571Y10064191D01*
%TO.C,J1*%
X45732666Y55641620D02*
X45732666Y54927334D01*
X45685047Y54784477D01*
X45589809Y54689239D01*
X45446952Y54641620D01*
X45351714Y54641620D01*
X46732666Y54641620D02*
X46161238Y54641620D01*
X46446952Y54641620D02*
X46446952Y55641620D01*
X46351714Y55498762D01*
X46256476Y55403524D01*
X46161238Y55355905D01*
X37049714Y1003620D02*
X36716380Y1479810D01*
X36478285Y1003620D02*
X36478285Y2003620D01*
X36859238Y2003620D01*
X36954476Y1956000D01*
X37002095Y1908381D01*
X37049714Y1813143D01*
X37049714Y1670286D01*
X37002095Y1575048D01*
X36954476Y1527429D01*
X36859238Y1479810D01*
X36478285Y1479810D01*
X37906857Y1003620D02*
X37906857Y1527429D01*
X37859238Y1622667D01*
X37764000Y1670286D01*
X37573523Y1670286D01*
X37478285Y1622667D01*
X37906857Y1051239D02*
X37811619Y1003620D01*
X37573523Y1003620D01*
X37478285Y1051239D01*
X37430666Y1146477D01*
X37430666Y1241715D01*
X37478285Y1336953D01*
X37573523Y1384572D01*
X37811619Y1384572D01*
X37906857Y1432191D01*
X38335428Y1051239D02*
X38430666Y1003620D01*
X38621142Y1003620D01*
X38716380Y1051239D01*
X38764000Y1146477D01*
X38764000Y1194096D01*
X38716380Y1289334D01*
X38621142Y1336953D01*
X38478285Y1336953D01*
X38383047Y1384572D01*
X38335428Y1479810D01*
X38335428Y1527429D01*
X38383047Y1622667D01*
X38478285Y1670286D01*
X38621142Y1670286D01*
X38716380Y1622667D01*
X39192571Y1670286D02*
X39192571Y670286D01*
X39192571Y1622667D02*
X39287809Y1670286D01*
X39478285Y1670286D01*
X39573523Y1622667D01*
X39621142Y1575048D01*
X39668761Y1479810D01*
X39668761Y1194096D01*
X39621142Y1098858D01*
X39573523Y1051239D01*
X39478285Y1003620D01*
X39287809Y1003620D01*
X39192571Y1051239D01*
X40097333Y1003620D02*
X40097333Y2003620D01*
X40097333Y1622667D02*
X40192571Y1670286D01*
X40383047Y1670286D01*
X40478285Y1622667D01*
X40525904Y1575048D01*
X40573523Y1479810D01*
X40573523Y1194096D01*
X40525904Y1098858D01*
X40478285Y1051239D01*
X40383047Y1003620D01*
X40192571Y1003620D01*
X40097333Y1051239D01*
X41383047Y1051239D02*
X41287809Y1003620D01*
X41097333Y1003620D01*
X41002095Y1051239D01*
X40954476Y1146477D01*
X40954476Y1527429D01*
X41002095Y1622667D01*
X41097333Y1670286D01*
X41287809Y1670286D01*
X41383047Y1622667D01*
X41430666Y1527429D01*
X41430666Y1432191D01*
X40954476Y1336953D01*
X41859238Y1003620D02*
X41859238Y1670286D01*
X41859238Y1479810D02*
X41906857Y1575048D01*
X41954476Y1622667D01*
X42049714Y1670286D01*
X42144952Y1670286D01*
X42478285Y1003620D02*
X42478285Y1670286D01*
X42478285Y1479810D02*
X42525904Y1575048D01*
X42573523Y1622667D01*
X42668761Y1670286D01*
X42764000Y1670286D01*
X43002095Y1670286D02*
X43240190Y1003620D01*
X43478285Y1670286D02*
X43240190Y1003620D01*
X43144952Y765524D01*
X43097333Y717905D01*
X43002095Y670286D01*
X43621142Y908381D02*
X44383047Y908381D01*
X44621142Y1003620D02*
X44621142Y2003620D01*
X45002095Y2003620D01*
X45097333Y1956000D01*
X45144952Y1908381D01*
X45192571Y1813143D01*
X45192571Y1670286D01*
X45144952Y1575048D01*
X45097333Y1527429D01*
X45002095Y1479810D01*
X44621142Y1479810D01*
X45621142Y1003620D02*
X45621142Y1670286D01*
X45621142Y2003620D02*
X45573523Y1956000D01*
X45621142Y1908381D01*
X45668761Y1956000D01*
X45621142Y2003620D01*
X45621142Y1908381D01*
X45859238Y908381D02*
X46621142Y908381D01*
X46811619Y1908381D02*
X46859238Y1956000D01*
X46954476Y2003620D01*
X47192571Y2003620D01*
X47287809Y1956000D01*
X47335428Y1908381D01*
X47383047Y1813143D01*
X47383047Y1717905D01*
X47335428Y1575048D01*
X46764000Y1003620D01*
X47383047Y1003620D01*
X47573523Y908381D02*
X48335428Y908381D01*
X48478285Y2003620D02*
X49097333Y2003620D01*
X48764000Y1622667D01*
X48906857Y1622667D01*
X49002095Y1575048D01*
X49049714Y1527429D01*
X49097333Y1432191D01*
X49097333Y1194096D01*
X49049714Y1098858D01*
X49002095Y1051239D01*
X48906857Y1003620D01*
X48621142Y1003620D01*
X48525904Y1051239D01*
X48478285Y1098858D01*
%TO.C,J3*%
X8936380Y29336667D02*
X9650666Y29336667D01*
X9793523Y29289048D01*
X9888761Y29193810D01*
X9936380Y29050953D01*
X9936380Y28955715D01*
X8936380Y29717620D02*
X8936380Y30336667D01*
X9317333Y30003334D01*
X9317333Y30146191D01*
X9364952Y30241429D01*
X9412571Y30289048D01*
X9507809Y30336667D01*
X9745904Y30336667D01*
X9841142Y30289048D01*
X9888761Y30241429D01*
X9936380Y30146191D01*
X9936380Y29860477D01*
X9888761Y29765239D01*
X9841142Y29717620D01*
X1786380Y25574762D02*
X786380Y25574762D01*
X1262571Y25574762D02*
X1262571Y26146191D01*
X1786380Y26146191D02*
X786380Y26146191D01*
X1786380Y26622381D02*
X786380Y26622381D01*
X786380Y26860477D01*
X834000Y27003334D01*
X929238Y27098572D01*
X1024476Y27146191D01*
X1214952Y27193810D01*
X1357809Y27193810D01*
X1548285Y27146191D01*
X1643523Y27098572D01*
X1738761Y27003334D01*
X1786380Y26860477D01*
X1786380Y26622381D01*
X1786380Y27622381D02*
X786380Y27622381D01*
X1500666Y27955715D01*
X786380Y28289048D01*
X1786380Y28289048D01*
X1786380Y28765239D02*
X786380Y28765239D01*
X1786380Y30003334D02*
X786380Y30003334D01*
X1167333Y30003334D02*
X1119714Y30098572D01*
X1119714Y30289048D01*
X1167333Y30384286D01*
X1214952Y30431905D01*
X1310190Y30479524D01*
X1595904Y30479524D01*
X1691142Y30431905D01*
X1738761Y30384286D01*
X1786380Y30289048D01*
X1786380Y30098572D01*
X1738761Y30003334D01*
X1786380Y31050953D02*
X1738761Y30955715D01*
X1691142Y30908096D01*
X1595904Y30860477D01*
X1310190Y30860477D01*
X1214952Y30908096D01*
X1167333Y30955715D01*
X1119714Y31050953D01*
X1119714Y31193810D01*
X1167333Y31289048D01*
X1214952Y31336667D01*
X1310190Y31384286D01*
X1595904Y31384286D01*
X1691142Y31336667D01*
X1738761Y31289048D01*
X1786380Y31193810D01*
X1786380Y31050953D01*
X1786380Y32241429D02*
X1262571Y32241429D01*
X1167333Y32193810D01*
X1119714Y32098572D01*
X1119714Y31908096D01*
X1167333Y31812858D01*
X1738761Y32241429D02*
X1786380Y32146191D01*
X1786380Y31908096D01*
X1738761Y31812858D01*
X1643523Y31765239D01*
X1548285Y31765239D01*
X1453047Y31812858D01*
X1405428Y31908096D01*
X1405428Y32146191D01*
X1357809Y32241429D01*
X1786380Y32717620D02*
X1119714Y32717620D01*
X1310190Y32717620D02*
X1214952Y32765239D01*
X1167333Y32812858D01*
X1119714Y32908096D01*
X1119714Y33003334D01*
X1786380Y33765239D02*
X786380Y33765239D01*
X1738761Y33765239D02*
X1786380Y33670000D01*
X1786380Y33479524D01*
X1738761Y33384286D01*
X1691142Y33336667D01*
X1595904Y33289048D01*
X1310190Y33289048D01*
X1214952Y33336667D01*
X1167333Y33384286D01*
X1119714Y33479524D01*
X1119714Y33670000D01*
X1167333Y33765239D01*
%TO.C,U1*%
X35488380Y50428096D02*
X36297904Y50428096D01*
X36393142Y50475715D01*
X36440761Y50523334D01*
X36488380Y50618572D01*
X36488380Y50809048D01*
X36440761Y50904286D01*
X36393142Y50951905D01*
X36297904Y50999524D01*
X35488380Y50999524D01*
X36488380Y51999524D02*
X36488380Y51428096D01*
X36488380Y51713810D02*
X35488380Y51713810D01*
X35631238Y51618572D01*
X35726476Y51523334D01*
X35774095Y51428096D01*
X15605047Y55211429D02*
X15938380Y55211429D01*
X16081238Y54687620D02*
X15605047Y54687620D01*
X15605047Y55687620D01*
X16081238Y55687620D01*
X16509809Y55354286D02*
X16509809Y54687620D01*
X16509809Y55259048D02*
X16557428Y55306667D01*
X16652666Y55354286D01*
X16795523Y55354286D01*
X16890761Y55306667D01*
X16938380Y55211429D01*
X16938380Y54687620D01*
X17414571Y54687620D02*
X17414571Y55687620D01*
X17414571Y55306667D02*
X17509809Y55354286D01*
X17700285Y55354286D01*
X17795523Y55306667D01*
X17843142Y55259048D01*
X17890761Y55163810D01*
X17890761Y54878096D01*
X17843142Y54782858D01*
X17795523Y54735239D01*
X17700285Y54687620D01*
X17509809Y54687620D01*
X17414571Y54735239D01*
X18462190Y54687620D02*
X18366952Y54735239D01*
X18319333Y54830477D01*
X18319333Y55687620D01*
X15512190Y53037620D02*
X15845523Y52037620D01*
X16178857Y53037620D01*
X16512190Y52037620D02*
X16512190Y52704286D01*
X16512190Y53037620D02*
X16464571Y52990000D01*
X16512190Y52942381D01*
X16559809Y52990000D01*
X16512190Y53037620D01*
X16512190Y52942381D01*
X16988380Y52704286D02*
X16988380Y52037620D01*
X16988380Y52609048D02*
X17036000Y52656667D01*
X17131238Y52704286D01*
X17274095Y52704286D01*
X17369333Y52656667D01*
X17416952Y52561429D01*
X17416952Y52037620D01*
X16043142Y50590000D02*
X15947904Y50637620D01*
X15805047Y50637620D01*
X15662190Y50590000D01*
X15566952Y50494762D01*
X15519333Y50399524D01*
X15471714Y50209048D01*
X15471714Y50066191D01*
X15519333Y49875715D01*
X15566952Y49780477D01*
X15662190Y49685239D01*
X15805047Y49637620D01*
X15900285Y49637620D01*
X16043142Y49685239D01*
X16090761Y49732858D01*
X16090761Y50066191D01*
X15900285Y50066191D01*
X16519333Y50304286D02*
X16519333Y49637620D01*
X16519333Y50209048D02*
X16566952Y50256667D01*
X16662190Y50304286D01*
X16805047Y50304286D01*
X16900285Y50256667D01*
X16947904Y50161429D01*
X16947904Y49637620D01*
X17852666Y49637620D02*
X17852666Y50637620D01*
X17852666Y49685239D02*
X17757428Y49637620D01*
X17566952Y49637620D01*
X17471714Y49685239D01*
X17424095Y49732858D01*
X17376476Y49828096D01*
X17376476Y50113810D01*
X17424095Y50209048D01*
X17471714Y50256667D01*
X17566952Y50304286D01*
X17757428Y50304286D01*
X17852666Y50256667D01*
X15462190Y48087620D02*
X15795523Y47087620D01*
X16128857Y48087620D01*
X16605047Y47087620D02*
X16509809Y47135239D01*
X16462190Y47182858D01*
X16414571Y47278096D01*
X16414571Y47563810D01*
X16462190Y47659048D01*
X16509809Y47706667D01*
X16605047Y47754286D01*
X16747904Y47754286D01*
X16843142Y47706667D01*
X16890761Y47659048D01*
X16938380Y47563810D01*
X16938380Y47278096D01*
X16890761Y47182858D01*
X16843142Y47135239D01*
X16747904Y47087620D01*
X16605047Y47087620D01*
X17795523Y47754286D02*
X17795523Y47087620D01*
X17366952Y47754286D02*
X17366952Y47230477D01*
X17414571Y47135239D01*
X17509809Y47087620D01*
X17652666Y47087620D01*
X17747904Y47135239D01*
X17795523Y47182858D01*
X18128857Y47754286D02*
X18509809Y47754286D01*
X18271714Y48087620D02*
X18271714Y47230477D01*
X18319333Y47135239D01*
X18414571Y47087620D01*
X18509809Y47087620D01*
%TO.C,Q1*%
X11743619Y38444762D02*
X11696000Y38349524D01*
X11600761Y38254286D01*
X11457904Y38111429D01*
X11410285Y38016191D01*
X11410285Y37920953D01*
X11648380Y37968572D02*
X11600761Y37873334D01*
X11505523Y37778096D01*
X11315047Y37730477D01*
X10981714Y37730477D01*
X10791238Y37778096D01*
X10696000Y37873334D01*
X10648380Y37968572D01*
X10648380Y38159048D01*
X10696000Y38254286D01*
X10791238Y38349524D01*
X10981714Y38397143D01*
X11315047Y38397143D01*
X11505523Y38349524D01*
X11600761Y38254286D01*
X11648380Y38159048D01*
X11648380Y37968572D01*
X11648380Y39349524D02*
X11648380Y38778096D01*
X11648380Y39063810D02*
X10648380Y39063810D01*
X10791238Y38968572D01*
X10886476Y38873334D01*
X10934095Y38778096D01*
X16744571Y36682858D02*
X16792190Y36825715D01*
X16839809Y36873334D01*
X16935047Y36920953D01*
X17077904Y36920953D01*
X17173142Y36873334D01*
X17220761Y36825715D01*
X17268380Y36730477D01*
X17268380Y36349524D01*
X16268380Y36349524D01*
X16268380Y36682858D01*
X16316000Y36778096D01*
X16363619Y36825715D01*
X16458857Y36873334D01*
X16554095Y36873334D01*
X16649333Y36825715D01*
X16696952Y36778096D01*
X16744571Y36682858D01*
X16744571Y36349524D01*
X17268380Y37349524D02*
X16268380Y37349524D01*
X16268380Y37587620D01*
X16316000Y37730477D01*
X16411238Y37825715D01*
X16506476Y37873334D01*
X16696952Y37920953D01*
X16839809Y37920953D01*
X17030285Y37873334D01*
X17125523Y37825715D01*
X17220761Y37730477D01*
X17268380Y37587620D01*
X17268380Y37349524D01*
X17268380Y38873334D02*
X17268380Y38301905D01*
X17268380Y38587620D02*
X16268380Y38587620D01*
X16411238Y38492381D01*
X16506476Y38397143D01*
X16554095Y38301905D01*
X16268380Y39206667D02*
X16268380Y39825715D01*
X16649333Y39492381D01*
X16649333Y39635239D01*
X16696952Y39730477D01*
X16744571Y39778096D01*
X16839809Y39825715D01*
X17077904Y39825715D01*
X17173142Y39778096D01*
X17220761Y39730477D01*
X17268380Y39635239D01*
X17268380Y39349524D01*
X17220761Y39254286D01*
X17173142Y39206667D01*
X17268380Y40301905D02*
X17268380Y40492381D01*
X17220761Y40587620D01*
X17173142Y40635239D01*
X17030285Y40730477D01*
X16839809Y40778096D01*
X16458857Y40778096D01*
X16363619Y40730477D01*
X16316000Y40682858D01*
X16268380Y40587620D01*
X16268380Y40397143D01*
X16316000Y40301905D01*
X16363619Y40254286D01*
X16458857Y40206667D01*
X16696952Y40206667D01*
X16792190Y40254286D01*
X16839809Y40301905D01*
X16887428Y40397143D01*
X16887428Y40587620D01*
X16839809Y40682858D01*
X16792190Y40730477D01*
X16696952Y40778096D01*
%TO.C,D1*%
X25261904Y39173620D02*
X25261904Y40173620D01*
X25500000Y40173620D01*
X25642857Y40126000D01*
X25738095Y40030762D01*
X25785714Y39935524D01*
X25833333Y39745048D01*
X25833333Y39602191D01*
X25785714Y39411715D01*
X25738095Y39316477D01*
X25642857Y39221239D01*
X25500000Y39173620D01*
X25261904Y39173620D01*
X26785714Y39173620D02*
X26214285Y39173620D01*
X26500000Y39173620D02*
X26500000Y40173620D01*
X26404761Y40030762D01*
X26309523Y39935524D01*
X26214285Y39887905D01*
X23857142Y44113620D02*
X23285714Y44113620D01*
X23571428Y44113620D02*
X23571428Y45113620D01*
X23476190Y44970762D01*
X23380952Y44875524D01*
X23285714Y44827905D01*
X24285714Y44113620D02*
X24285714Y45113620D01*
X24857142Y44113620D01*
X24857142Y45113620D01*
X25761904Y44780286D02*
X25761904Y44113620D01*
X25523809Y45161239D02*
X25285714Y44446953D01*
X25904761Y44446953D01*
X26476190Y45113620D02*
X26571428Y45113620D01*
X26666666Y45066000D01*
X26714285Y45018381D01*
X26761904Y44923143D01*
X26809523Y44732667D01*
X26809523Y44494572D01*
X26761904Y44304096D01*
X26714285Y44208858D01*
X26666666Y44161239D01*
X26571428Y44113620D01*
X26476190Y44113620D01*
X26380952Y44161239D01*
X26333333Y44208858D01*
X26285714Y44304096D01*
X26238095Y44494572D01*
X26238095Y44732667D01*
X26285714Y44923143D01*
X26333333Y45018381D01*
X26380952Y45066000D01*
X26476190Y45113620D01*
X27428571Y45113620D02*
X27523809Y45113620D01*
X27619047Y45066000D01*
X27666666Y45018381D01*
X27714285Y44923143D01*
X27761904Y44732667D01*
X27761904Y44494572D01*
X27714285Y44304096D01*
X27666666Y44208858D01*
X27619047Y44161239D01*
X27523809Y44113620D01*
X27428571Y44113620D01*
X27333333Y44161239D01*
X27285714Y44208858D01*
X27238095Y44304096D01*
X27190476Y44494572D01*
X27190476Y44732667D01*
X27238095Y44923143D01*
X27285714Y45018381D01*
X27333333Y45066000D01*
X27428571Y45113620D01*
X28714285Y44113620D02*
X28142857Y44113620D01*
X28428571Y44113620D02*
X28428571Y45113620D01*
X28333333Y44970762D01*
X28238095Y44875524D01*
X28142857Y44827905D01*
%TO.C,J2*%
X8936380Y49656667D02*
X9650666Y49656667D01*
X9793523Y49609048D01*
X9888761Y49513810D01*
X9936380Y49370953D01*
X9936380Y49275715D01*
X9031619Y50085239D02*
X8984000Y50132858D01*
X8936380Y50228096D01*
X8936380Y50466191D01*
X8984000Y50561429D01*
X9031619Y50609048D01*
X9126857Y50656667D01*
X9222095Y50656667D01*
X9364952Y50609048D01*
X9936380Y50037620D01*
X9936380Y50656667D01*
X1786380Y48013810D02*
X786380Y48013810D01*
X786380Y48394762D01*
X834000Y48490000D01*
X881619Y48537620D01*
X976857Y48585239D01*
X1119714Y48585239D01*
X1214952Y48537620D01*
X1262571Y48490000D01*
X1310190Y48394762D01*
X1310190Y48013810D01*
X1786380Y49156667D02*
X1738761Y49061429D01*
X1691142Y49013810D01*
X1595904Y48966191D01*
X1310190Y48966191D01*
X1214952Y49013810D01*
X1167333Y49061429D01*
X1119714Y49156667D01*
X1119714Y49299524D01*
X1167333Y49394762D01*
X1214952Y49442381D01*
X1310190Y49490000D01*
X1595904Y49490000D01*
X1691142Y49442381D01*
X1738761Y49394762D01*
X1786380Y49299524D01*
X1786380Y49156667D01*
X1119714Y49823334D02*
X1786380Y50013810D01*
X1310190Y50204286D01*
X1786380Y50394762D01*
X1119714Y50585239D01*
X1738761Y51347143D02*
X1786380Y51251905D01*
X1786380Y51061429D01*
X1738761Y50966191D01*
X1643523Y50918572D01*
X1262571Y50918572D01*
X1167333Y50966191D01*
X1119714Y51061429D01*
X1119714Y51251905D01*
X1167333Y51347143D01*
X1262571Y51394762D01*
X1357809Y51394762D01*
X1453047Y50918572D01*
X1786380Y51823334D02*
X1119714Y51823334D01*
X1310190Y51823334D02*
X1214952Y51870953D01*
X1167333Y51918572D01*
X1119714Y52013810D01*
X1119714Y52109048D01*
%TO.C,J4*%
X8936380Y19176667D02*
X9650666Y19176667D01*
X9793523Y19129048D01*
X9888761Y19033810D01*
X9936380Y18890953D01*
X9936380Y18795715D01*
X9269714Y20081429D02*
X9936380Y20081429D01*
X8888761Y19843334D02*
X9603047Y19605239D01*
X9603047Y20224286D01*
X1262571Y18748096D02*
X1262571Y18414762D01*
X1786380Y18414762D02*
X786380Y18414762D01*
X786380Y18890953D01*
X1786380Y19700477D02*
X1262571Y19700477D01*
X1167333Y19652858D01*
X1119714Y19557620D01*
X1119714Y19367143D01*
X1167333Y19271905D01*
X1738761Y19700477D02*
X1786380Y19605239D01*
X1786380Y19367143D01*
X1738761Y19271905D01*
X1643523Y19224286D01*
X1548285Y19224286D01*
X1453047Y19271905D01*
X1405428Y19367143D01*
X1405428Y19605239D01*
X1357809Y19700477D01*
X1119714Y20176667D02*
X1786380Y20176667D01*
X1214952Y20176667D02*
X1167333Y20224286D01*
X1119714Y20319524D01*
X1119714Y20462381D01*
X1167333Y20557620D01*
X1262571Y20605239D01*
X1786380Y20605239D01*
%TO.C,J5*%
X8936380Y39496667D02*
X9650666Y39496667D01*
X9793523Y39449048D01*
X9888761Y39353810D01*
X9936380Y39210953D01*
X9936380Y39115715D01*
X8936380Y40449048D02*
X8936380Y39972858D01*
X9412571Y39925239D01*
X9364952Y39972858D01*
X9317333Y40068096D01*
X9317333Y40306191D01*
X9364952Y40401429D01*
X9412571Y40449048D01*
X9507809Y40496667D01*
X9745904Y40496667D01*
X9841142Y40449048D01*
X9888761Y40401429D01*
X9936380Y40306191D01*
X9936380Y40068096D01*
X9888761Y39972858D01*
X9841142Y39925239D01*
X1786380Y36234762D02*
X1786380Y35758572D01*
X786380Y35758572D01*
X1786380Y36568096D02*
X1119714Y36568096D01*
X786380Y36568096D02*
X834000Y36520477D01*
X881619Y36568096D01*
X834000Y36615715D01*
X786380Y36568096D01*
X881619Y36568096D01*
X1119714Y37472858D02*
X1929238Y37472858D01*
X2024476Y37425239D01*
X2072095Y37377620D01*
X2119714Y37282381D01*
X2119714Y37139524D01*
X2072095Y37044286D01*
X1738761Y37472858D02*
X1786380Y37377620D01*
X1786380Y37187143D01*
X1738761Y37091905D01*
X1691142Y37044286D01*
X1595904Y36996667D01*
X1310190Y36996667D01*
X1214952Y37044286D01*
X1167333Y37091905D01*
X1119714Y37187143D01*
X1119714Y37377620D01*
X1167333Y37472858D01*
X1786380Y37949048D02*
X786380Y37949048D01*
X1786380Y38377620D02*
X1262571Y38377620D01*
X1167333Y38330000D01*
X1119714Y38234762D01*
X1119714Y38091905D01*
X1167333Y37996667D01*
X1214952Y37949048D01*
X1119714Y38710953D02*
X1119714Y39091905D01*
X786380Y38853810D02*
X1643523Y38853810D01*
X1738761Y38901429D01*
X1786380Y38996667D01*
X1786380Y39091905D01*
X1786380Y40187143D02*
X786380Y40187143D01*
X786380Y40568096D01*
X834000Y40663334D01*
X881619Y40710953D01*
X976857Y40758572D01*
X1119714Y40758572D01*
X1214952Y40710953D01*
X1262571Y40663334D01*
X1310190Y40568096D01*
X1310190Y40187143D01*
X1786380Y41615715D02*
X1262571Y41615715D01*
X1167333Y41568096D01*
X1119714Y41472858D01*
X1119714Y41282381D01*
X1167333Y41187143D01*
X1738761Y41615715D02*
X1786380Y41520477D01*
X1786380Y41282381D01*
X1738761Y41187143D01*
X1643523Y41139524D01*
X1548285Y41139524D01*
X1453047Y41187143D01*
X1405428Y41282381D01*
X1405428Y41520477D01*
X1357809Y41615715D01*
X1119714Y42091905D02*
X1786380Y42091905D01*
X1214952Y42091905D02*
X1167333Y42139524D01*
X1119714Y42234762D01*
X1119714Y42377620D01*
X1167333Y42472858D01*
X1262571Y42520477D01*
X1786380Y42520477D01*
X1738761Y43377620D02*
X1786380Y43282381D01*
X1786380Y43091905D01*
X1738761Y42996667D01*
X1643523Y42949048D01*
X1262571Y42949048D01*
X1167333Y42996667D01*
X1119714Y43091905D01*
X1119714Y43282381D01*
X1167333Y43377620D01*
X1262571Y43425239D01*
X1357809Y43425239D01*
X1453047Y42949048D01*
X1786380Y43996667D02*
X1738761Y43901429D01*
X1643523Y43853810D01*
X786380Y43853810D01*
%TO.C,R1*%
X16970380Y30245334D02*
X16494190Y29912000D01*
X16970380Y29673905D02*
X15970380Y29673905D01*
X15970380Y30054858D01*
X16018000Y30150096D01*
X16065619Y30197715D01*
X16160857Y30245334D01*
X16303714Y30245334D01*
X16398952Y30197715D01*
X16446571Y30150096D01*
X16494190Y30054858D01*
X16494190Y29673905D01*
X16970380Y31197715D02*
X16970380Y30626286D01*
X16970380Y30912000D02*
X15970380Y30912000D01*
X16113238Y30816762D01*
X16208476Y30721524D01*
X16256095Y30626286D01*
X21710380Y30292953D02*
X21710380Y29721524D01*
X21710380Y30007239D02*
X20710380Y30007239D01*
X20853238Y29912000D01*
X20948476Y29816762D01*
X20996095Y29721524D01*
X21710380Y30721524D02*
X20710380Y30721524D01*
X21329428Y30816762D02*
X21710380Y31102477D01*
X21043714Y31102477D02*
X21424666Y30721524D01*
%TD*%
M02*
