%TF.GenerationSoftware,KiCad,Pcbnew,(5.1.8-0-10_14)*%
%TF.CreationDate,2021-03-28T12:16:17-04:00*%
%TF.ProjectId,PiHat,50694861-742e-46b6-9963-61645f706362,rev?*%
%TF.SameCoordinates,PX2a260a0PY7999e20*%
%TF.FileFunction,Legend,Top*%
%TF.FilePolarity,Positive*%
%FSLAX46Y46*%
G04 Gerber Fmt 4.6, Leading zero omitted, Abs format (unit mm)*
G04 Created by KiCad (PCBNEW (5.1.8-0-10_14)) date 2021-03-28 12:16:17*
%MOMM*%
%LPD*%
G01*
G04 APERTURE LIST*
%ADD10C,0.120000*%
%ADD11C,0.150000*%
G04 APERTURE END LIST*
D10*
%TO.C,J6*%
X28714000Y41278000D02*
X37834000Y41278000D01*
X37834000Y41278000D02*
X37834000Y13078000D01*
X37834000Y13078000D02*
X28714000Y13078000D01*
X28714000Y13078000D02*
X28714000Y41278000D01*
X28714000Y29228000D02*
X30024000Y29228000D01*
X30024000Y29228000D02*
X30024000Y39978000D01*
X30024000Y39978000D02*
X36524000Y39978000D01*
X36524000Y39978000D02*
X36524000Y14378000D01*
X36524000Y14378000D02*
X30024000Y14378000D01*
X30024000Y14378000D02*
X30024000Y25128000D01*
X30024000Y25128000D02*
X30024000Y25128000D01*
X30024000Y25128000D02*
X28714000Y25128000D01*
X28324000Y36068000D02*
X27324000Y36568000D01*
X27324000Y36568000D02*
X27324000Y35568000D01*
X27324000Y35568000D02*
X28324000Y36068000D01*
%TO.C,J1*%
X42866000Y5274000D02*
X48066000Y5274000D01*
X42866000Y53594000D02*
X42866000Y5274000D01*
X48066000Y56194000D02*
X48066000Y5274000D01*
X42866000Y53594000D02*
X45466000Y53594000D01*
X45466000Y53594000D02*
X45466000Y56194000D01*
X45466000Y56194000D02*
X48066000Y56194000D01*
X42866000Y54864000D02*
X42866000Y56194000D01*
X42866000Y56194000D02*
X44196000Y56194000D01*
%TO.C,J3*%
X8084000Y35870000D02*
X6834000Y35870000D01*
X8084000Y34620000D02*
X8084000Y35870000D01*
X2584000Y28720000D02*
X2584000Y31770000D01*
X5534000Y28720000D02*
X2584000Y28720000D01*
X5534000Y27970000D02*
X5534000Y28720000D01*
X2584000Y34820000D02*
X2584000Y31770000D01*
X5534000Y34820000D02*
X2584000Y34820000D01*
X5534000Y35570000D02*
X5534000Y34820000D01*
X7784000Y27970000D02*
X7784000Y29770000D01*
X7034000Y27970000D02*
X7784000Y27970000D01*
X7034000Y29770000D02*
X7034000Y27970000D01*
X7784000Y29770000D02*
X7034000Y29770000D01*
X7784000Y33770000D02*
X7784000Y35570000D01*
X7034000Y33770000D02*
X7784000Y33770000D01*
X7034000Y35570000D02*
X7034000Y33770000D01*
X7784000Y35570000D02*
X7034000Y35570000D01*
X7784000Y31270000D02*
X7784000Y32270000D01*
X7034000Y31270000D02*
X7784000Y31270000D01*
X7034000Y32270000D02*
X7034000Y31270000D01*
X7784000Y32270000D02*
X7034000Y32270000D01*
X7794000Y27960000D02*
X7794000Y35580000D01*
X1824000Y27960000D02*
X7794000Y27960000D01*
X1824000Y35580000D02*
X1824000Y27960000D01*
X7794000Y35580000D02*
X1824000Y35580000D01*
%TO.C,U1*%
X31636000Y47890000D02*
X11636000Y47890000D01*
X31636000Y58740000D02*
X31636000Y47890000D01*
X11636000Y58740000D02*
X31636000Y58740000D01*
X11636000Y47890000D02*
X11636000Y58740000D01*
%TO.C,Q1*%
X11596000Y36520000D02*
X11596000Y44760000D01*
X15086000Y36520000D02*
X15086000Y44760000D01*
X11596000Y36520000D02*
X15086000Y36520000D01*
X11596000Y44760000D02*
X15086000Y44760000D01*
X11596000Y39040000D02*
X12666000Y39040000D01*
X14766000Y39040000D02*
X15086000Y39040000D01*
X11596000Y42241000D02*
X13176000Y42241000D01*
X14256000Y42241000D02*
X15086000Y42241000D01*
%TO.C,D1*%
X27340000Y42726000D02*
X27340000Y45666000D01*
X27100000Y42726000D02*
X27100000Y45666000D01*
X27220000Y42726000D02*
X27220000Y45666000D01*
X21660000Y44196000D02*
X22680000Y44196000D01*
X29140000Y44196000D02*
X28120000Y44196000D01*
X22680000Y42726000D02*
X28120000Y42726000D01*
X22680000Y45666000D02*
X22680000Y42726000D01*
X28120000Y45666000D02*
X22680000Y45666000D01*
X28120000Y42726000D02*
X28120000Y45666000D01*
%TO.C,J2*%
X7794000Y55900000D02*
X1824000Y55900000D01*
X1824000Y55900000D02*
X1824000Y48280000D01*
X1824000Y48280000D02*
X7794000Y48280000D01*
X7794000Y48280000D02*
X7794000Y55900000D01*
X7784000Y52590000D02*
X7034000Y52590000D01*
X7034000Y52590000D02*
X7034000Y51590000D01*
X7034000Y51590000D02*
X7784000Y51590000D01*
X7784000Y51590000D02*
X7784000Y52590000D01*
X7784000Y55890000D02*
X7034000Y55890000D01*
X7034000Y55890000D02*
X7034000Y54090000D01*
X7034000Y54090000D02*
X7784000Y54090000D01*
X7784000Y54090000D02*
X7784000Y55890000D01*
X7784000Y50090000D02*
X7034000Y50090000D01*
X7034000Y50090000D02*
X7034000Y48290000D01*
X7034000Y48290000D02*
X7784000Y48290000D01*
X7784000Y48290000D02*
X7784000Y50090000D01*
X5534000Y55890000D02*
X5534000Y55140000D01*
X5534000Y55140000D02*
X2584000Y55140000D01*
X2584000Y55140000D02*
X2584000Y52090000D01*
X5534000Y48290000D02*
X5534000Y49040000D01*
X5534000Y49040000D02*
X2584000Y49040000D01*
X2584000Y49040000D02*
X2584000Y52090000D01*
X8084000Y54940000D02*
X8084000Y56190000D01*
X8084000Y56190000D02*
X6834000Y56190000D01*
%TO.C,J4*%
X8084000Y25710000D02*
X6834000Y25710000D01*
X8084000Y24460000D02*
X8084000Y25710000D01*
X2584000Y18560000D02*
X2584000Y21610000D01*
X5534000Y18560000D02*
X2584000Y18560000D01*
X5534000Y17810000D02*
X5534000Y18560000D01*
X2584000Y24660000D02*
X2584000Y21610000D01*
X5534000Y24660000D02*
X2584000Y24660000D01*
X5534000Y25410000D02*
X5534000Y24660000D01*
X7784000Y17810000D02*
X7784000Y19610000D01*
X7034000Y17810000D02*
X7784000Y17810000D01*
X7034000Y19610000D02*
X7034000Y17810000D01*
X7784000Y19610000D02*
X7034000Y19610000D01*
X7784000Y23610000D02*
X7784000Y25410000D01*
X7034000Y23610000D02*
X7784000Y23610000D01*
X7034000Y25410000D02*
X7034000Y23610000D01*
X7784000Y25410000D02*
X7034000Y25410000D01*
X7784000Y21110000D02*
X7784000Y22110000D01*
X7034000Y21110000D02*
X7784000Y21110000D01*
X7034000Y22110000D02*
X7034000Y21110000D01*
X7784000Y22110000D02*
X7034000Y22110000D01*
X7794000Y17800000D02*
X7794000Y25420000D01*
X1824000Y17800000D02*
X7794000Y17800000D01*
X1824000Y25420000D02*
X1824000Y17800000D01*
X7794000Y25420000D02*
X1824000Y25420000D01*
%TO.C,J5*%
X7794000Y45740000D02*
X1824000Y45740000D01*
X1824000Y45740000D02*
X1824000Y38120000D01*
X1824000Y38120000D02*
X7794000Y38120000D01*
X7794000Y38120000D02*
X7794000Y45740000D01*
X7784000Y42430000D02*
X7034000Y42430000D01*
X7034000Y42430000D02*
X7034000Y41430000D01*
X7034000Y41430000D02*
X7784000Y41430000D01*
X7784000Y41430000D02*
X7784000Y42430000D01*
X7784000Y45730000D02*
X7034000Y45730000D01*
X7034000Y45730000D02*
X7034000Y43930000D01*
X7034000Y43930000D02*
X7784000Y43930000D01*
X7784000Y43930000D02*
X7784000Y45730000D01*
X7784000Y39930000D02*
X7034000Y39930000D01*
X7034000Y39930000D02*
X7034000Y38130000D01*
X7034000Y38130000D02*
X7784000Y38130000D01*
X7784000Y38130000D02*
X7784000Y39930000D01*
X5534000Y45730000D02*
X5534000Y44980000D01*
X5534000Y44980000D02*
X2584000Y44980000D01*
X2584000Y44980000D02*
X2584000Y41930000D01*
X5534000Y38130000D02*
X5534000Y38880000D01*
X5534000Y38880000D02*
X2584000Y38880000D01*
X2584000Y38880000D02*
X2584000Y41930000D01*
X8084000Y44780000D02*
X8084000Y46030000D01*
X8084000Y46030000D02*
X6834000Y46030000D01*
%TO.C,R4*%
X16918000Y29242000D02*
X19658000Y29242000D01*
X19658000Y29242000D02*
X19658000Y35782000D01*
X19658000Y35782000D02*
X16918000Y35782000D01*
X16918000Y35782000D02*
X16918000Y29242000D01*
X18288000Y28472000D02*
X18288000Y29242000D01*
X18288000Y36552000D02*
X18288000Y35782000D01*
%TO.C,J6*%
D11*
X32940666Y42715620D02*
X32940666Y42001334D01*
X32893047Y41858477D01*
X32797809Y41763239D01*
X32654952Y41715620D01*
X32559714Y41715620D01*
X33845428Y42715620D02*
X33654952Y42715620D01*
X33559714Y42668000D01*
X33512095Y42620381D01*
X33416857Y42477524D01*
X33369238Y42287048D01*
X33369238Y41906096D01*
X33416857Y41810858D01*
X33464476Y41763239D01*
X33559714Y41715620D01*
X33750190Y41715620D01*
X33845428Y41763239D01*
X33893047Y41810858D01*
X33940666Y41906096D01*
X33940666Y42144191D01*
X33893047Y42239429D01*
X33845428Y42287048D01*
X33750190Y42334667D01*
X33559714Y42334667D01*
X33464476Y42287048D01*
X33416857Y42239429D01*
X33369238Y42144191D01*
%TO.C,J1*%
X45132666Y57741620D02*
X45132666Y57027334D01*
X45085047Y56884477D01*
X44989809Y56789239D01*
X44846952Y56741620D01*
X44751714Y56741620D01*
X46132666Y56741620D02*
X45561238Y56741620D01*
X45846952Y56741620D02*
X45846952Y57741620D01*
X45751714Y57598762D01*
X45656476Y57503524D01*
X45561238Y57455905D01*
%TO.C,J3*%
X8336380Y31436667D02*
X9050666Y31436667D01*
X9193523Y31389048D01*
X9288761Y31293810D01*
X9336380Y31150953D01*
X9336380Y31055715D01*
X8336380Y31817620D02*
X8336380Y32436667D01*
X8717333Y32103334D01*
X8717333Y32246191D01*
X8764952Y32341429D01*
X8812571Y32389048D01*
X8907809Y32436667D01*
X9145904Y32436667D01*
X9241142Y32389048D01*
X9288761Y32341429D01*
X9336380Y32246191D01*
X9336380Y31960477D01*
X9288761Y31865239D01*
X9241142Y31817620D01*
%TO.C,U1*%
X34888380Y52528096D02*
X35697904Y52528096D01*
X35793142Y52575715D01*
X35840761Y52623334D01*
X35888380Y52718572D01*
X35888380Y52909048D01*
X35840761Y53004286D01*
X35793142Y53051905D01*
X35697904Y53099524D01*
X34888380Y53099524D01*
X35888380Y54099524D02*
X35888380Y53528096D01*
X35888380Y53813810D02*
X34888380Y53813810D01*
X35031238Y53718572D01*
X35126476Y53623334D01*
X35174095Y53528096D01*
%TO.C,Q1*%
X11143619Y40544762D02*
X11096000Y40449524D01*
X11000761Y40354286D01*
X10857904Y40211429D01*
X10810285Y40116191D01*
X10810285Y40020953D01*
X11048380Y40068572D02*
X11000761Y39973334D01*
X10905523Y39878096D01*
X10715047Y39830477D01*
X10381714Y39830477D01*
X10191238Y39878096D01*
X10096000Y39973334D01*
X10048380Y40068572D01*
X10048380Y40259048D01*
X10096000Y40354286D01*
X10191238Y40449524D01*
X10381714Y40497143D01*
X10715047Y40497143D01*
X10905523Y40449524D01*
X11000761Y40354286D01*
X11048380Y40259048D01*
X11048380Y40068572D01*
X11048380Y41449524D02*
X11048380Y40878096D01*
X11048380Y41163810D02*
X10048380Y41163810D01*
X10191238Y41068572D01*
X10286476Y40973334D01*
X10334095Y40878096D01*
%TO.C,D1*%
X24661904Y41273620D02*
X24661904Y42273620D01*
X24900000Y42273620D01*
X25042857Y42226000D01*
X25138095Y42130762D01*
X25185714Y42035524D01*
X25233333Y41845048D01*
X25233333Y41702191D01*
X25185714Y41511715D01*
X25138095Y41416477D01*
X25042857Y41321239D01*
X24900000Y41273620D01*
X24661904Y41273620D01*
X26185714Y41273620D02*
X25614285Y41273620D01*
X25900000Y41273620D02*
X25900000Y42273620D01*
X25804761Y42130762D01*
X25709523Y42035524D01*
X25614285Y41987905D01*
X30218095Y41643620D02*
X30218095Y42643620D01*
X30789523Y41643620D02*
X30360952Y42215048D01*
X30789523Y42643620D02*
X30218095Y42072191D01*
%TO.C,J2*%
X8336380Y51756667D02*
X9050666Y51756667D01*
X9193523Y51709048D01*
X9288761Y51613810D01*
X9336380Y51470953D01*
X9336380Y51375715D01*
X8431619Y52185239D02*
X8384000Y52232858D01*
X8336380Y52328096D01*
X8336380Y52566191D01*
X8384000Y52661429D01*
X8431619Y52709048D01*
X8526857Y52756667D01*
X8622095Y52756667D01*
X8764952Y52709048D01*
X9336380Y52137620D01*
X9336380Y52756667D01*
%TO.C,J4*%
X8336380Y21276667D02*
X9050666Y21276667D01*
X9193523Y21229048D01*
X9288761Y21133810D01*
X9336380Y20990953D01*
X9336380Y20895715D01*
X8669714Y22181429D02*
X9336380Y22181429D01*
X8288761Y21943334D02*
X9003047Y21705239D01*
X9003047Y22324286D01*
%TO.C,J5*%
X8336380Y41596667D02*
X9050666Y41596667D01*
X9193523Y41549048D01*
X9288761Y41453810D01*
X9336380Y41310953D01*
X9336380Y41215715D01*
X8336380Y42549048D02*
X8336380Y42072858D01*
X8812571Y42025239D01*
X8764952Y42072858D01*
X8717333Y42168096D01*
X8717333Y42406191D01*
X8764952Y42501429D01*
X8812571Y42549048D01*
X8907809Y42596667D01*
X9145904Y42596667D01*
X9241142Y42549048D01*
X9288761Y42501429D01*
X9336380Y42406191D01*
X9336380Y42168096D01*
X9288761Y42072858D01*
X9241142Y42025239D01*
%TO.C,R4*%
X16370380Y32345334D02*
X15894190Y32012000D01*
X16370380Y31773905D02*
X15370380Y31773905D01*
X15370380Y32154858D01*
X15418000Y32250096D01*
X15465619Y32297715D01*
X15560857Y32345334D01*
X15703714Y32345334D01*
X15798952Y32297715D01*
X15846571Y32250096D01*
X15894190Y32154858D01*
X15894190Y31773905D01*
X15703714Y33202477D02*
X16370380Y33202477D01*
X15322761Y32964381D02*
X16037047Y32726286D01*
X16037047Y33345334D01*
%TD*%
M02*
