M48
; DRILL file {KiCad (5.1.8-0-10_14)} date Friday, December 17, 2021 at 05:13:22 PM
; FORMAT={-:-/ absolute / metric / decimal}
; #@! TF.CreationDate,2021-12-17T17:13:22-05:00
; #@! TF.GenerationSoftware,Kicad,Pcbnew,(5.1.8-0-10_14)
FMAT,2
METRIC
T1C0.762
T2C0.800
T3C0.950
T4C1.000
T5C1.100
%
G90
G05
T1
X11.55Y57.41
X11.55Y54.87
X11.55Y52.33
X11.55Y49.79
T2
X15.7Y2.3
X25.86Y2.3
X24.7Y41.28
X24.7Y38.74
X24.7Y36.2
X24.7Y33.66
X24.7Y31.12
X24.7Y28.58
X24.7Y26.04
X24.7Y23.5
X24.7Y20.96
X24.7Y18.42
X15.64Y5.9
X25.8Y5.9
T3
X4.7Y38.7
X4.7Y36.2
X4.7Y33.7
X4.7Y31.2
X4.7Y28.7
X30.1Y5.5
X32.6Y5.5
X35.1Y5.5
T4
X47.25Y15.79
X47.25Y13.25
X40.75Y51.25
X40.75Y48.71
X40.75Y46.17
X40.75Y43.63
X40.75Y41.09
X40.75Y38.55
X40.75Y36.01
X40.75Y33.47
X40.75Y30.93
X40.75Y28.39
X40.75Y25.85
X40.75Y23.31
X40.75Y20.77
X40.75Y18.23
X40.75Y15.69
X40.75Y13.15
X40.75Y10.61
X40.75Y8.07
X40.75Y5.53
X40.75Y2.99
X43.29Y51.25
X43.29Y48.71
X43.29Y46.17
X43.29Y43.63
X43.29Y41.09
X43.29Y38.55
X43.29Y36.01
X43.29Y33.47
X43.29Y30.93
X43.29Y28.39
X43.29Y25.85
X43.29Y23.31
X43.29Y20.77
X43.29Y18.23
X43.29Y15.69
X43.29Y13.15
X43.29Y10.61
X43.29Y8.07
X43.29Y5.53
X43.29Y2.99
X4.3Y13.1
X4.3Y10.6
X6.084Y54.75
X6.084Y52.25
T5
X18.44Y46.2
X28.6Y46.2
T0
M30
