%TF.GenerationSoftware,KiCad,Pcbnew,(5.1.8-0-10_14)*%
%TF.CreationDate,2022-01-03T16:00:17-05:00*%
%TF.ProjectId,PiHatPro,50694861-7450-4726-9f2e-6b696361645f,rev?*%
%TF.SameCoordinates,PX9b0780PY44cb540*%
%TF.FileFunction,Legend,Bot*%
%TF.FilePolarity,Positive*%
%FSLAX46Y46*%
G04 Gerber Fmt 4.6, Leading zero omitted, Abs format (unit mm)*
G04 Created by KiCad (PCBNEW (5.1.8-0-10_14)) date 2022-01-03 16:00:17*
%MOMM*%
%LPD*%
G01*
G04 APERTURE LIST*
%ADD10C,1.524000*%
%ADD11R,1.524000X1.524000*%
%ADD12O,1.950000X1.700000*%
%ADD13O,1.700000X1.700000*%
%ADD14R,1.700000X1.700000*%
%ADD15O,1.600000X1.600000*%
%ADD16C,1.600000*%
%ADD17O,1.700000X1.950000*%
%ADD18O,2.000000X1.700000*%
%ADD19O,2.200000X2.200000*%
%ADD20R,2.200000X2.200000*%
G04 APERTURE END LIST*
%LPC*%
D10*
%TO.C,U2*%
X24700000Y41280000D03*
X24700000Y38740000D03*
X24700000Y36200000D03*
X24700000Y33660000D03*
X24700000Y31120000D03*
X24700000Y28580000D03*
X24700000Y26040000D03*
X24700000Y23500000D03*
X24700000Y20960000D03*
D11*
X24700000Y18420000D03*
%TD*%
D12*
%TO.C,J4*%
X4700000Y38700000D03*
X4700000Y36200000D03*
X4700000Y33700000D03*
X4700000Y31200000D03*
G36*
G01*
X5425000Y27850000D02*
X3975000Y27850000D01*
G75*
G02*
X3725000Y28100000I0J250000D01*
G01*
X3725000Y29300000D01*
G75*
G02*
X3975000Y29550000I250000J0D01*
G01*
X5425000Y29550000D01*
G75*
G02*
X5675000Y29300000I0J-250000D01*
G01*
X5675000Y28100000D01*
G75*
G02*
X5425000Y27850000I-250000J0D01*
G01*
G37*
%TD*%
D13*
%TO.C,J9*%
X47250000Y15790000D03*
D14*
X47250000Y13250000D03*
%TD*%
D15*
%TO.C,R2*%
X25860000Y2300000D03*
D16*
X15700000Y2300000D03*
%TD*%
D15*
%TO.C,R1*%
X15640000Y5900000D03*
D16*
X25800000Y5900000D03*
%TD*%
D17*
%TO.C,J5*%
X30100000Y5500000D03*
X32600000Y5500000D03*
G36*
G01*
X35950000Y6225000D02*
X35950000Y4775000D01*
G75*
G02*
X35700000Y4525000I-250000J0D01*
G01*
X34500000Y4525000D01*
G75*
G02*
X34250000Y4775000I0J250000D01*
G01*
X34250000Y6225000D01*
G75*
G02*
X34500000Y6475000I250000J0D01*
G01*
X35700000Y6475000D01*
G75*
G02*
X35950000Y6225000I0J-250000D01*
G01*
G37*
%TD*%
D13*
%TO.C,J1*%
X43290000Y2990000D03*
X40750000Y2990000D03*
X43290000Y5530000D03*
X40750000Y5530000D03*
X43290000Y8070000D03*
X40750000Y8070000D03*
X43290000Y10610000D03*
X40750000Y10610000D03*
X43290000Y13150000D03*
X40750000Y13150000D03*
X43290000Y15690000D03*
X40750000Y15690000D03*
X43290000Y18230000D03*
X40750000Y18230000D03*
X43290000Y20770000D03*
X40750000Y20770000D03*
X43290000Y23310000D03*
X40750000Y23310000D03*
X43290000Y25850000D03*
X40750000Y25850000D03*
X43290000Y28390000D03*
X40750000Y28390000D03*
X43290000Y30930000D03*
X40750000Y30930000D03*
X43290000Y33470000D03*
X40750000Y33470000D03*
X43290000Y36010000D03*
X40750000Y36010000D03*
X43290000Y38550000D03*
X40750000Y38550000D03*
X43290000Y41090000D03*
X40750000Y41090000D03*
X43290000Y43630000D03*
X40750000Y43630000D03*
X43290000Y46170000D03*
X40750000Y46170000D03*
X43290000Y48710000D03*
X40750000Y48710000D03*
X43290000Y51250000D03*
D14*
X40750000Y51250000D03*
%TD*%
D18*
%TO.C,J3*%
X4300000Y13100000D03*
G36*
G01*
X5050000Y9750000D02*
X3550000Y9750000D01*
G75*
G02*
X3300000Y10000000I0J250000D01*
G01*
X3300000Y11200000D01*
G75*
G02*
X3550000Y11450000I250000J0D01*
G01*
X5050000Y11450000D01*
G75*
G02*
X5300000Y11200000I0J-250000D01*
G01*
X5300000Y10000000D01*
G75*
G02*
X5050000Y9750000I-250000J0D01*
G01*
G37*
%TD*%
%TO.C,U1*%
G36*
G01*
X11931000Y56648000D02*
X11169000Y56648000D01*
G75*
G02*
X10788000Y57029000I0J381000D01*
G01*
X10788000Y57791000D01*
G75*
G02*
X11169000Y58172000I381000J0D01*
G01*
X11931000Y58172000D01*
G75*
G02*
X12312000Y57791000I0J-381000D01*
G01*
X12312000Y57029000D01*
G75*
G02*
X11931000Y56648000I-381000J0D01*
G01*
G37*
G36*
G01*
X11931000Y54108000D02*
X11169000Y54108000D01*
G75*
G02*
X10788000Y54489000I0J381000D01*
G01*
X10788000Y55251000D01*
G75*
G02*
X11169000Y55632000I381000J0D01*
G01*
X11931000Y55632000D01*
G75*
G02*
X12312000Y55251000I0J-381000D01*
G01*
X12312000Y54489000D01*
G75*
G02*
X11931000Y54108000I-381000J0D01*
G01*
G37*
G36*
G01*
X11931000Y51568000D02*
X11169000Y51568000D01*
G75*
G02*
X10788000Y51949000I0J381000D01*
G01*
X10788000Y52711000D01*
G75*
G02*
X11169000Y53092000I381000J0D01*
G01*
X11931000Y53092000D01*
G75*
G02*
X12312000Y52711000I0J-381000D01*
G01*
X12312000Y51949000D01*
G75*
G02*
X11931000Y51568000I-381000J0D01*
G01*
G37*
D11*
X11550000Y49790000D03*
%TD*%
D19*
%TO.C,D1*%
X18440000Y46200000D03*
D20*
X28600000Y46200000D03*
%TD*%
%TO.C,J2*%
G36*
G01*
X5334000Y55600000D02*
X6834000Y55600000D01*
G75*
G02*
X7084000Y55350000I0J-250000D01*
G01*
X7084000Y54150000D01*
G75*
G02*
X6834000Y53900000I-250000J0D01*
G01*
X5334000Y53900000D01*
G75*
G02*
X5084000Y54150000I0J250000D01*
G01*
X5084000Y55350000D01*
G75*
G02*
X5334000Y55600000I250000J0D01*
G01*
G37*
D18*
X6084000Y52250000D03*
%TD*%
M02*
