%TF.GenerationSoftware,KiCad,Pcbnew,(5.1.8-0-10_14)*%
%TF.CreationDate,2022-01-02T21:55:29-05:00*%
%TF.ProjectId,PiHatPro,50694861-7450-4726-9f2e-6b696361645f,rev?*%
%TF.SameCoordinates,PX9b0780PY44cb540*%
%TF.FileFunction,Legend,Top*%
%TF.FilePolarity,Positive*%
%FSLAX46Y46*%
G04 Gerber Fmt 4.6, Leading zero omitted, Abs format (unit mm)*
G04 Created by KiCad (PCBNEW (5.1.8-0-10_14)) date 2022-01-02 21:55:29*
%MOMM*%
%LPD*%
G01*
G04 APERTURE LIST*
%ADD10C,0.150000*%
%ADD11C,0.120000*%
%ADD12C,1.524000*%
%ADD13R,1.524000X1.524000*%
%ADD14O,1.950000X1.700000*%
%ADD15O,1.700000X1.700000*%
%ADD16R,1.700000X1.700000*%
%ADD17O,1.600000X1.600000*%
%ADD18C,1.600000*%
%ADD19O,1.700000X1.950000*%
%ADD20O,2.000000X1.700000*%
%ADD21O,2.200000X2.200000*%
%ADD22R,2.200000X2.200000*%
G04 APERTURE END LIST*
D10*
X3128571Y547620D02*
X2795238Y1023810D01*
X2557142Y547620D02*
X2557142Y1547620D01*
X2938095Y1547620D01*
X3033333Y1500000D01*
X3080952Y1452381D01*
X3128571Y1357143D01*
X3128571Y1214286D01*
X3080952Y1119048D01*
X3033333Y1071429D01*
X2938095Y1023810D01*
X2557142Y1023810D01*
X3938095Y595239D02*
X3842857Y547620D01*
X3652380Y547620D01*
X3557142Y595239D01*
X3509523Y690477D01*
X3509523Y1071429D01*
X3557142Y1166667D01*
X3652380Y1214286D01*
X3842857Y1214286D01*
X3938095Y1166667D01*
X3985714Y1071429D01*
X3985714Y976191D01*
X3509523Y880953D01*
X4319047Y1214286D02*
X4557142Y547620D01*
X4795238Y1214286D01*
X5842857Y1547620D02*
X6461904Y1547620D01*
X6128571Y1166667D01*
X6271428Y1166667D01*
X6366666Y1119048D01*
X6414285Y1071429D01*
X6461904Y976191D01*
X6461904Y738096D01*
X6414285Y642858D01*
X6366666Y595239D01*
X6271428Y547620D01*
X5985714Y547620D01*
X5890476Y595239D01*
X5842857Y642858D01*
X6890476Y642858D02*
X6938095Y595239D01*
X6890476Y547620D01*
X6842857Y595239D01*
X6890476Y642858D01*
X6890476Y547620D01*
X7319047Y1452381D02*
X7366666Y1500000D01*
X7461904Y1547620D01*
X7700000Y1547620D01*
X7795238Y1500000D01*
X7842857Y1452381D01*
X7890476Y1357143D01*
X7890476Y1261905D01*
X7842857Y1119048D01*
X7271428Y547620D01*
X7890476Y547620D01*
D11*
%TO.C,U2*%
X26350000Y15650000D02*
X9250000Y15650000D01*
X9250000Y43700000D02*
X9250000Y15658000D01*
X26350000Y43700000D02*
X9250000Y43700000D01*
X26350000Y43700000D02*
X26350000Y15658000D01*
%TO.C,J4*%
X2240000Y26140000D02*
X8210000Y26140000D01*
X8210000Y26140000D02*
X8210000Y41260000D01*
X8210000Y41260000D02*
X2240000Y41260000D01*
X2240000Y41260000D02*
X2240000Y26140000D01*
X2250000Y29450000D02*
X3000000Y29450000D01*
X3000000Y29450000D02*
X3000000Y37950000D01*
X3000000Y37950000D02*
X2250000Y37950000D01*
X2250000Y37950000D02*
X2250000Y29450000D01*
X2250000Y26150000D02*
X3000000Y26150000D01*
X3000000Y26150000D02*
X3000000Y27950000D01*
X3000000Y27950000D02*
X2250000Y27950000D01*
X2250000Y27950000D02*
X2250000Y26150000D01*
X2250000Y39450000D02*
X3000000Y39450000D01*
X3000000Y39450000D02*
X3000000Y41250000D01*
X3000000Y41250000D02*
X2250000Y41250000D01*
X2250000Y41250000D02*
X2250000Y39450000D01*
X4500000Y26150000D02*
X4500000Y26900000D01*
X4500000Y26900000D02*
X7450000Y26900000D01*
X7450000Y26900000D02*
X7450000Y33700000D01*
X4500000Y41250000D02*
X4500000Y40500000D01*
X4500000Y40500000D02*
X7450000Y40500000D01*
X7450000Y40500000D02*
X7450000Y33700000D01*
X1950000Y27100000D02*
X1950000Y25850000D01*
X1950000Y25850000D02*
X3200000Y25850000D01*
%TO.C,J9*%
X45920000Y11920000D02*
X45920000Y13250000D01*
X47250000Y11920000D02*
X45920000Y11920000D01*
X45920000Y14520000D02*
X45920000Y17120000D01*
X48520000Y14520000D02*
X45920000Y14520000D01*
X48520000Y11920000D02*
X48520000Y14520000D01*
X45920000Y17120000D02*
X48580000Y17120000D01*
X48520000Y11920000D02*
X48580000Y11920000D01*
X48580000Y11920000D02*
X48580000Y17120000D01*
%TO.C,R2*%
X17510000Y3670000D02*
X17510000Y930000D01*
X17510000Y930000D02*
X24050000Y930000D01*
X24050000Y930000D02*
X24050000Y3670000D01*
X24050000Y3670000D02*
X17510000Y3670000D01*
X16740000Y2300000D02*
X17510000Y2300000D01*
X24820000Y2300000D02*
X24050000Y2300000D01*
%TO.C,R1*%
X23990000Y4530000D02*
X23990000Y7270000D01*
X23990000Y7270000D02*
X17450000Y7270000D01*
X17450000Y7270000D02*
X17450000Y4530000D01*
X17450000Y4530000D02*
X23990000Y4530000D01*
X24760000Y5900000D02*
X23990000Y5900000D01*
X16680000Y5900000D02*
X17450000Y5900000D01*
%TO.C,J5*%
X37660000Y3040000D02*
X37660000Y9010000D01*
X37660000Y9010000D02*
X27540000Y9010000D01*
X27540000Y9010000D02*
X27540000Y3040000D01*
X27540000Y3040000D02*
X37660000Y3040000D01*
X34350000Y3050000D02*
X34350000Y3800000D01*
X34350000Y3800000D02*
X30850000Y3800000D01*
X30850000Y3800000D02*
X30850000Y3050000D01*
X30850000Y3050000D02*
X34350000Y3050000D01*
X37650000Y3050000D02*
X37650000Y3800000D01*
X37650000Y3800000D02*
X35850000Y3800000D01*
X35850000Y3800000D02*
X35850000Y3050000D01*
X35850000Y3050000D02*
X37650000Y3050000D01*
X29350000Y3050000D02*
X29350000Y3800000D01*
X29350000Y3800000D02*
X27550000Y3800000D01*
X27550000Y3800000D02*
X27550000Y3050000D01*
X27550000Y3050000D02*
X29350000Y3050000D01*
X37650000Y5300000D02*
X36900000Y5300000D01*
X36900000Y5300000D02*
X36900000Y8250000D01*
X36900000Y8250000D02*
X32600000Y8250000D01*
X27550000Y5300000D02*
X28300000Y5300000D01*
X28300000Y5300000D02*
X28300000Y8250000D01*
X28300000Y8250000D02*
X32600000Y8250000D01*
X36700000Y2750000D02*
X37950000Y2750000D01*
X37950000Y2750000D02*
X37950000Y4000000D01*
%TO.C,J1*%
X39420000Y1660000D02*
X44620000Y1660000D01*
X39420000Y49980000D02*
X39420000Y1660000D01*
X44620000Y52580000D02*
X44620000Y1660000D01*
X39420000Y49980000D02*
X42020000Y49980000D01*
X42020000Y49980000D02*
X42020000Y52580000D01*
X42020000Y52580000D02*
X44620000Y52580000D01*
X39420000Y51250000D02*
X39420000Y52580000D01*
X39420000Y52580000D02*
X40750000Y52580000D01*
%TO.C,J3*%
X1550000Y7750000D02*
X2800000Y7750000D01*
X1550000Y9000000D02*
X1550000Y7750000D01*
X7050000Y14900000D02*
X7050000Y11850000D01*
X4100000Y14900000D02*
X7050000Y14900000D01*
X4100000Y15650000D02*
X4100000Y14900000D01*
X7050000Y8800000D02*
X7050000Y11850000D01*
X4100000Y8800000D02*
X7050000Y8800000D01*
X4100000Y8050000D02*
X4100000Y8800000D01*
X1850000Y15650000D02*
X1850000Y13850000D01*
X2600000Y15650000D02*
X1850000Y15650000D01*
X2600000Y13850000D02*
X2600000Y15650000D01*
X1850000Y13850000D02*
X2600000Y13850000D01*
X1850000Y9850000D02*
X1850000Y8050000D01*
X2600000Y9850000D02*
X1850000Y9850000D01*
X2600000Y8050000D02*
X2600000Y9850000D01*
X1850000Y8050000D02*
X2600000Y8050000D01*
X1850000Y12350000D02*
X1850000Y11350000D01*
X2600000Y12350000D02*
X1850000Y12350000D01*
X2600000Y11350000D02*
X2600000Y12350000D01*
X1850000Y11350000D02*
X2600000Y11350000D01*
X1840000Y15660000D02*
X1840000Y8040000D01*
X7810000Y15660000D02*
X1840000Y15660000D01*
X7810000Y8040000D02*
X7810000Y15660000D01*
X1840000Y8040000D02*
X7810000Y8040000D01*
%TO.C,U1*%
X29800000Y48050000D02*
X9800000Y48050000D01*
X29800000Y58900000D02*
X29800000Y48050000D01*
X9800000Y58900000D02*
X29800000Y58900000D01*
X9800000Y48050000D02*
X9800000Y58900000D01*
%TO.C,D1*%
X25460000Y44730000D02*
X25460000Y47670000D01*
X25220000Y44730000D02*
X25220000Y47670000D01*
X25340000Y44730000D02*
X25340000Y47670000D01*
X19780000Y46200000D02*
X20800000Y46200000D01*
X27260000Y46200000D02*
X26240000Y46200000D01*
X20800000Y44730000D02*
X26240000Y44730000D01*
X20800000Y47670000D02*
X20800000Y44730000D01*
X26240000Y47670000D02*
X20800000Y47670000D01*
X26240000Y44730000D02*
X26240000Y47670000D01*
%TO.C,J2*%
X8544000Y57310000D02*
X2574000Y57310000D01*
X2574000Y57310000D02*
X2574000Y49690000D01*
X2574000Y49690000D02*
X8544000Y49690000D01*
X8544000Y49690000D02*
X8544000Y57310000D01*
X8534000Y54000000D02*
X7784000Y54000000D01*
X7784000Y54000000D02*
X7784000Y53000000D01*
X7784000Y53000000D02*
X8534000Y53000000D01*
X8534000Y53000000D02*
X8534000Y54000000D01*
X8534000Y57300000D02*
X7784000Y57300000D01*
X7784000Y57300000D02*
X7784000Y55500000D01*
X7784000Y55500000D02*
X8534000Y55500000D01*
X8534000Y55500000D02*
X8534000Y57300000D01*
X8534000Y51500000D02*
X7784000Y51500000D01*
X7784000Y51500000D02*
X7784000Y49700000D01*
X7784000Y49700000D02*
X8534000Y49700000D01*
X8534000Y49700000D02*
X8534000Y51500000D01*
X6284000Y57300000D02*
X6284000Y56550000D01*
X6284000Y56550000D02*
X3334000Y56550000D01*
X3334000Y56550000D02*
X3334000Y53500000D01*
X6284000Y49700000D02*
X6284000Y50450000D01*
X6284000Y50450000D02*
X3334000Y50450000D01*
X3334000Y50450000D02*
X3334000Y53500000D01*
X8834000Y56350000D02*
X8834000Y57600000D01*
X8834000Y57600000D02*
X7584000Y57600000D01*
%TO.C,U2*%
D10*
X26814380Y28938096D02*
X27623904Y28938096D01*
X27719142Y28985715D01*
X27766761Y29033334D01*
X27814380Y29128572D01*
X27814380Y29319048D01*
X27766761Y29414286D01*
X27719142Y29461905D01*
X27623904Y29509524D01*
X26814380Y29509524D01*
X26909619Y29938096D02*
X26862000Y29985715D01*
X26814380Y30080953D01*
X26814380Y30319048D01*
X26862000Y30414286D01*
X26909619Y30461905D01*
X27004857Y30509524D01*
X27100095Y30509524D01*
X27242952Y30461905D01*
X27814380Y29890477D01*
X27814380Y30509524D01*
X17116666Y26630953D02*
X17116666Y27107143D01*
X17402380Y26535715D02*
X16402380Y26869048D01*
X17402380Y27202381D01*
X17402380Y27535715D02*
X16402380Y27535715D01*
X16402380Y27773810D01*
X16450000Y27916667D01*
X16545238Y28011905D01*
X16640476Y28059524D01*
X16830952Y28107143D01*
X16973809Y28107143D01*
X17164285Y28059524D01*
X17259523Y28011905D01*
X17354761Y27916667D01*
X17402380Y27773810D01*
X17402380Y27535715D01*
X17354761Y28488096D02*
X17402380Y28630953D01*
X17402380Y28869048D01*
X17354761Y28964286D01*
X17307142Y29011905D01*
X17211904Y29059524D01*
X17116666Y29059524D01*
X17021428Y29011905D01*
X16973809Y28964286D01*
X16926190Y28869048D01*
X16878571Y28678572D01*
X16830952Y28583334D01*
X16783333Y28535715D01*
X16688095Y28488096D01*
X16592857Y28488096D01*
X16497619Y28535715D01*
X16450000Y28583334D01*
X16402380Y28678572D01*
X16402380Y28916667D01*
X16450000Y29059524D01*
X17402380Y30011905D02*
X17402380Y29440477D01*
X17402380Y29726191D02*
X16402380Y29726191D01*
X16545238Y29630953D01*
X16640476Y29535715D01*
X16688095Y29440477D01*
X17402380Y30964286D02*
X17402380Y30392858D01*
X17402380Y30678572D02*
X16402380Y30678572D01*
X16545238Y30583334D01*
X16640476Y30488096D01*
X16688095Y30392858D01*
X17402380Y31916667D02*
X17402380Y31345239D01*
X17402380Y31630953D02*
X16402380Y31630953D01*
X16545238Y31535715D01*
X16640476Y31440477D01*
X16688095Y31345239D01*
X16402380Y32821429D02*
X16402380Y32345239D01*
X16878571Y32297620D01*
X16830952Y32345239D01*
X16783333Y32440477D01*
X16783333Y32678572D01*
X16830952Y32773810D01*
X16878571Y32821429D01*
X16973809Y32869048D01*
X17211904Y32869048D01*
X17307142Y32821429D01*
X17354761Y32773810D01*
X17402380Y32678572D01*
X17402380Y32440477D01*
X17354761Y32345239D01*
X17307142Y32297620D01*
%TO.C,J4*%
X4652380Y32766667D02*
X5366666Y32766667D01*
X5509523Y32719048D01*
X5604761Y32623810D01*
X5652380Y32480953D01*
X5652380Y32385715D01*
X4985714Y33671429D02*
X5652380Y33671429D01*
X4604761Y33433334D02*
X5319047Y33195239D01*
X5319047Y33814286D01*
X552380Y31647620D02*
X1266666Y31647620D01*
X1409523Y31600000D01*
X1504761Y31504762D01*
X1552380Y31361905D01*
X1552380Y31266667D01*
X1552380Y32266667D02*
X1504761Y32171429D01*
X1457142Y32123810D01*
X1361904Y32076191D01*
X1076190Y32076191D01*
X980952Y32123810D01*
X933333Y32171429D01*
X885714Y32266667D01*
X885714Y32409524D01*
X933333Y32504762D01*
X980952Y32552381D01*
X1076190Y32600000D01*
X1361904Y32600000D01*
X1457142Y32552381D01*
X1504761Y32504762D01*
X1552380Y32409524D01*
X1552380Y32266667D01*
X885714Y32933334D02*
X1552380Y33171429D01*
X885714Y33409524D02*
X1552380Y33171429D01*
X1790476Y33076191D01*
X1838095Y33028572D01*
X1885714Y32933334D01*
X1504761Y33742858D02*
X1552380Y33838096D01*
X1552380Y34028572D01*
X1504761Y34123810D01*
X1409523Y34171429D01*
X1361904Y34171429D01*
X1266666Y34123810D01*
X1219047Y34028572D01*
X1219047Y33885715D01*
X1171428Y33790477D01*
X1076190Y33742858D01*
X1028571Y33742858D01*
X933333Y33790477D01*
X885714Y33885715D01*
X885714Y34028572D01*
X933333Y34123810D01*
X885714Y34457143D02*
X885714Y34838096D01*
X552380Y34600000D02*
X1409523Y34600000D01*
X1504761Y34647620D01*
X1552380Y34742858D01*
X1552380Y34838096D01*
X1552380Y35171429D02*
X885714Y35171429D01*
X552380Y35171429D02*
X600000Y35123810D01*
X647619Y35171429D01*
X600000Y35219048D01*
X552380Y35171429D01*
X647619Y35171429D01*
X1504761Y36076191D02*
X1552380Y35980953D01*
X1552380Y35790477D01*
X1504761Y35695239D01*
X1457142Y35647620D01*
X1361904Y35600000D01*
X1076190Y35600000D01*
X980952Y35647620D01*
X933333Y35695239D01*
X885714Y35790477D01*
X885714Y35980953D01*
X933333Y36076191D01*
X1552380Y36504762D02*
X552380Y36504762D01*
X1171428Y36600000D02*
X1552380Y36885715D01*
X885714Y36885715D02*
X1266666Y36504762D01*
%TO.C,J9*%
X46752380Y14066667D02*
X47466666Y14066667D01*
X47609523Y14019048D01*
X47704761Y13923810D01*
X47752380Y13780953D01*
X47752380Y13685715D01*
X47752380Y14590477D02*
X47752380Y14780953D01*
X47704761Y14876191D01*
X47657142Y14923810D01*
X47514285Y15019048D01*
X47323809Y15066667D01*
X46942857Y15066667D01*
X46847619Y15019048D01*
X46800000Y14971429D01*
X46752380Y14876191D01*
X46752380Y14685715D01*
X46800000Y14590477D01*
X46847619Y14542858D01*
X46942857Y14495239D01*
X47180952Y14495239D01*
X47276190Y14542858D01*
X47323809Y14590477D01*
X47371428Y14685715D01*
X47371428Y14876191D01*
X47323809Y14971429D01*
X47276190Y15019048D01*
X47180952Y15066667D01*
X47928571Y7071429D02*
X47976190Y7214286D01*
X48023809Y7261905D01*
X48119047Y7309524D01*
X48261904Y7309524D01*
X48357142Y7261905D01*
X48404761Y7214286D01*
X48452380Y7119048D01*
X48452380Y6738096D01*
X47452380Y6738096D01*
X47452380Y7071429D01*
X47500000Y7166667D01*
X47547619Y7214286D01*
X47642857Y7261905D01*
X47738095Y7261905D01*
X47833333Y7214286D01*
X47880952Y7166667D01*
X47928571Y7071429D01*
X47928571Y6738096D01*
X47785714Y8166667D02*
X48452380Y8166667D01*
X47785714Y7738096D02*
X48309523Y7738096D01*
X48404761Y7785715D01*
X48452380Y7880953D01*
X48452380Y8023810D01*
X48404761Y8119048D01*
X48357142Y8166667D01*
X47785714Y8547620D02*
X47785714Y9071429D01*
X48452380Y8547620D01*
X48452380Y9071429D01*
X47785714Y9357143D02*
X47785714Y9880953D01*
X48452380Y9357143D01*
X48452380Y9880953D01*
X48404761Y10642858D02*
X48452380Y10547620D01*
X48452380Y10357143D01*
X48404761Y10261905D01*
X48309523Y10214286D01*
X47928571Y10214286D01*
X47833333Y10261905D01*
X47785714Y10357143D01*
X47785714Y10547620D01*
X47833333Y10642858D01*
X47928571Y10690477D01*
X48023809Y10690477D01*
X48119047Y10214286D01*
X48452380Y11119048D02*
X47785714Y11119048D01*
X47976190Y11119048D02*
X47880952Y11166667D01*
X47833333Y11214286D01*
X47785714Y11309524D01*
X47785714Y11404762D01*
%TO.C,R2*%
X20533333Y1747620D02*
X20200000Y2223810D01*
X19961904Y1747620D02*
X19961904Y2747620D01*
X20342857Y2747620D01*
X20438095Y2700000D01*
X20485714Y2652381D01*
X20533333Y2557143D01*
X20533333Y2414286D01*
X20485714Y2319048D01*
X20438095Y2271429D01*
X20342857Y2223810D01*
X19961904Y2223810D01*
X20914285Y2652381D02*
X20961904Y2700000D01*
X21057142Y2747620D01*
X21295238Y2747620D01*
X21390476Y2700000D01*
X21438095Y2652381D01*
X21485714Y2557143D01*
X21485714Y2461905D01*
X21438095Y2319048D01*
X20866666Y1747620D01*
X21485714Y1747620D01*
X11838095Y2652381D02*
X11885714Y2700000D01*
X11980952Y2747620D01*
X12219047Y2747620D01*
X12314285Y2700000D01*
X12361904Y2652381D01*
X12409523Y2557143D01*
X12409523Y2461905D01*
X12361904Y2319048D01*
X11790476Y1747620D01*
X12409523Y1747620D01*
X13028571Y2747620D02*
X13123809Y2747620D01*
X13219047Y2700000D01*
X13266666Y2652381D01*
X13314285Y2557143D01*
X13361904Y2366667D01*
X13361904Y2128572D01*
X13314285Y1938096D01*
X13266666Y1842858D01*
X13219047Y1795239D01*
X13123809Y1747620D01*
X13028571Y1747620D01*
X12933333Y1795239D01*
X12885714Y1842858D01*
X12838095Y1938096D01*
X12790476Y2128572D01*
X12790476Y2366667D01*
X12838095Y2557143D01*
X12885714Y2652381D01*
X12933333Y2700000D01*
X13028571Y2747620D01*
X13790476Y1747620D02*
X13790476Y2747620D01*
X14361904Y1747620D02*
X13933333Y2319048D01*
X14361904Y2747620D02*
X13790476Y2176191D01*
%TO.C,R1*%
X20233333Y5347620D02*
X19900000Y5823810D01*
X19661904Y5347620D02*
X19661904Y6347620D01*
X20042857Y6347620D01*
X20138095Y6300000D01*
X20185714Y6252381D01*
X20233333Y6157143D01*
X20233333Y6014286D01*
X20185714Y5919048D01*
X20138095Y5871429D01*
X20042857Y5823810D01*
X19661904Y5823810D01*
X21185714Y5347620D02*
X20614285Y5347620D01*
X20900000Y5347620D02*
X20900000Y6347620D01*
X20804761Y6204762D01*
X20709523Y6109524D01*
X20614285Y6061905D01*
X12259523Y5397620D02*
X11688095Y5397620D01*
X11973809Y5397620D02*
X11973809Y6397620D01*
X11878571Y6254762D01*
X11783333Y6159524D01*
X11688095Y6111905D01*
X12688095Y5397620D02*
X12688095Y6397620D01*
X13259523Y5397620D02*
X12830952Y5969048D01*
X13259523Y6397620D02*
X12688095Y5826191D01*
X13830952Y5969048D02*
X13735714Y6016667D01*
X13688095Y6064286D01*
X13640476Y6159524D01*
X13640476Y6207143D01*
X13688095Y6302381D01*
X13735714Y6350000D01*
X13830952Y6397620D01*
X14021428Y6397620D01*
X14116666Y6350000D01*
X14164285Y6302381D01*
X14211904Y6207143D01*
X14211904Y6159524D01*
X14164285Y6064286D01*
X14116666Y6016667D01*
X14021428Y5969048D01*
X13830952Y5969048D01*
X13735714Y5921429D01*
X13688095Y5873810D01*
X13640476Y5778572D01*
X13640476Y5588096D01*
X13688095Y5492858D01*
X13735714Y5445239D01*
X13830952Y5397620D01*
X14021428Y5397620D01*
X14116666Y5445239D01*
X14164285Y5492858D01*
X14211904Y5588096D01*
X14211904Y5778572D01*
X14164285Y5873810D01*
X14116666Y5921429D01*
X14021428Y5969048D01*
%TO.C,J5*%
X32366666Y6647620D02*
X32366666Y5933334D01*
X32319047Y5790477D01*
X32223809Y5695239D01*
X32080952Y5647620D01*
X31985714Y5647620D01*
X33319047Y6647620D02*
X32842857Y6647620D01*
X32795238Y6171429D01*
X32842857Y6219048D01*
X32938095Y6266667D01*
X33176190Y6266667D01*
X33271428Y6219048D01*
X33319047Y6171429D01*
X33366666Y6076191D01*
X33366666Y5838096D01*
X33319047Y5742858D01*
X33271428Y5695239D01*
X33176190Y5647620D01*
X32938095Y5647620D01*
X32842857Y5695239D01*
X32795238Y5742858D01*
X31885714Y9742858D02*
X31838095Y9695239D01*
X31695238Y9647620D01*
X31600000Y9647620D01*
X31457142Y9695239D01*
X31361904Y9790477D01*
X31314285Y9885715D01*
X31266666Y10076191D01*
X31266666Y10219048D01*
X31314285Y10409524D01*
X31361904Y10504762D01*
X31457142Y10600000D01*
X31600000Y10647620D01*
X31695238Y10647620D01*
X31838095Y10600000D01*
X31885714Y10552381D01*
X32314285Y9647620D02*
X32314285Y10647620D01*
X32885714Y9647620D01*
X32885714Y10647620D01*
X33933333Y9742858D02*
X33885714Y9695239D01*
X33742857Y9647620D01*
X33647619Y9647620D01*
X33504761Y9695239D01*
X33409523Y9790477D01*
X33361904Y9885715D01*
X33314285Y10076191D01*
X33314285Y10219048D01*
X33361904Y10409524D01*
X33409523Y10504762D01*
X33504761Y10600000D01*
X33647619Y10647620D01*
X33742857Y10647620D01*
X33885714Y10600000D01*
X33933333Y10552381D01*
%TO.C,J1*%
X45916666Y23297620D02*
X45916666Y22583334D01*
X45869047Y22440477D01*
X45773809Y22345239D01*
X45630952Y22297620D01*
X45535714Y22297620D01*
X46916666Y22297620D02*
X46345238Y22297620D01*
X46630952Y22297620D02*
X46630952Y23297620D01*
X46535714Y23154762D01*
X46440476Y23059524D01*
X46345238Y23011905D01*
%TO.C,J3*%
X4202380Y11566667D02*
X4916666Y11566667D01*
X5059523Y11519048D01*
X5154761Y11423810D01*
X5202380Y11280953D01*
X5202380Y11185715D01*
X4202380Y11947620D02*
X4202380Y12566667D01*
X4583333Y12233334D01*
X4583333Y12376191D01*
X4630952Y12471429D01*
X4678571Y12519048D01*
X4773809Y12566667D01*
X5011904Y12566667D01*
X5107142Y12519048D01*
X5154761Y12471429D01*
X5202380Y12376191D01*
X5202380Y12090477D01*
X5154761Y11995239D01*
X5107142Y11947620D01*
X8352380Y9040477D02*
X9161904Y9040477D01*
X9257142Y9088096D01*
X9304761Y9135715D01*
X9352380Y9230953D01*
X9352380Y9421429D01*
X9304761Y9516667D01*
X9257142Y9564286D01*
X9161904Y9611905D01*
X8352380Y9611905D01*
X8352380Y9945239D02*
X9352380Y10278572D01*
X8352380Y10611905D01*
X9352380Y10945239D02*
X8352380Y10945239D01*
X8352380Y11326191D01*
X8400000Y11421429D01*
X8447619Y11469048D01*
X8542857Y11516667D01*
X8685714Y11516667D01*
X8780952Y11469048D01*
X8828571Y11421429D01*
X8876190Y11326191D01*
X8876190Y10945239D01*
X9352380Y12373810D02*
X8828571Y12373810D01*
X8733333Y12326191D01*
X8685714Y12230953D01*
X8685714Y12040477D01*
X8733333Y11945239D01*
X9304761Y12373810D02*
X9352380Y12278572D01*
X9352380Y12040477D01*
X9304761Y11945239D01*
X9209523Y11897620D01*
X9114285Y11897620D01*
X9019047Y11945239D01*
X8971428Y12040477D01*
X8971428Y12278572D01*
X8923809Y12373810D01*
X8685714Y12850000D02*
X9352380Y12850000D01*
X8780952Y12850000D02*
X8733333Y12897620D01*
X8685714Y12992858D01*
X8685714Y13135715D01*
X8733333Y13230953D01*
X8828571Y13278572D01*
X9352380Y13278572D01*
X9304761Y14135715D02*
X9352380Y14040477D01*
X9352380Y13850000D01*
X9304761Y13754762D01*
X9209523Y13707143D01*
X8828571Y13707143D01*
X8733333Y13754762D01*
X8685714Y13850000D01*
X8685714Y14040477D01*
X8733333Y14135715D01*
X8828571Y14183334D01*
X8923809Y14183334D01*
X9019047Y13707143D01*
X9352380Y14754762D02*
X9304761Y14659524D01*
X9209523Y14611905D01*
X8352380Y14611905D01*
%TO.C,U1*%
X30452380Y52488096D02*
X31261904Y52488096D01*
X31357142Y52535715D01*
X31404761Y52583334D01*
X31452380Y52678572D01*
X31452380Y52869048D01*
X31404761Y52964286D01*
X31357142Y53011905D01*
X31261904Y53059524D01*
X30452380Y53059524D01*
X31452380Y54059524D02*
X31452380Y53488096D01*
X31452380Y53773810D02*
X30452380Y53773810D01*
X30595238Y53678572D01*
X30690476Y53583334D01*
X30738095Y53488096D01*
X19416666Y48952381D02*
X19416666Y49428572D01*
X19702380Y48857143D02*
X18702380Y49190477D01*
X19702380Y49523810D01*
X19702380Y49857143D02*
X18702380Y49857143D01*
X19416666Y50190477D01*
X18702380Y50523810D01*
X19702380Y50523810D01*
X18702380Y50904762D02*
X18702380Y51571429D01*
X19702380Y50904762D01*
X19702380Y51571429D01*
X19797619Y51714286D02*
X19797619Y52476191D01*
X18702380Y52619048D02*
X18702380Y53238096D01*
X19083333Y52904762D01*
X19083333Y53047620D01*
X19130952Y53142858D01*
X19178571Y53190477D01*
X19273809Y53238096D01*
X19511904Y53238096D01*
X19607142Y53190477D01*
X19654761Y53142858D01*
X19702380Y53047620D01*
X19702380Y52761905D01*
X19654761Y52666667D01*
X19607142Y52619048D01*
X19416666Y53619048D02*
X19416666Y54095239D01*
X19702380Y53523810D02*
X18702380Y53857143D01*
X19702380Y54190477D01*
X19797619Y54285715D02*
X19797619Y55047620D01*
X19702380Y55285715D02*
X18702380Y55285715D01*
X19416666Y55619048D01*
X18702380Y55952381D01*
X19702380Y55952381D01*
X18702380Y56619048D02*
X18702380Y56809524D01*
X18750000Y56904762D01*
X18845238Y57000000D01*
X19035714Y57047620D01*
X19369047Y57047620D01*
X19559523Y57000000D01*
X19654761Y56904762D01*
X19702380Y56809524D01*
X19702380Y56619048D01*
X19654761Y56523810D01*
X19559523Y56428572D01*
X19369047Y56380953D01*
X19035714Y56380953D01*
X18845238Y56428572D01*
X18750000Y56523810D01*
X18702380Y56619048D01*
X19702380Y57476191D02*
X18702380Y57476191D01*
X18702380Y57714286D01*
X18750000Y57857143D01*
X18845238Y57952381D01*
X18940476Y58000000D01*
X19130952Y58047620D01*
X19273809Y58047620D01*
X19464285Y58000000D01*
X19559523Y57952381D01*
X19654761Y57857143D01*
X19702380Y57714286D01*
X19702380Y57476191D01*
X13169047Y57471429D02*
X13502380Y57471429D01*
X13645238Y56947620D02*
X13169047Y56947620D01*
X13169047Y57947620D01*
X13645238Y57947620D01*
X14073809Y57614286D02*
X14073809Y56947620D01*
X14073809Y57519048D02*
X14121428Y57566667D01*
X14216666Y57614286D01*
X14359523Y57614286D01*
X14454761Y57566667D01*
X14502380Y57471429D01*
X14502380Y56947620D01*
X14978571Y56947620D02*
X14978571Y57947620D01*
X14978571Y57566667D02*
X15073809Y57614286D01*
X15264285Y57614286D01*
X15359523Y57566667D01*
X15407142Y57519048D01*
X15454761Y57423810D01*
X15454761Y57138096D01*
X15407142Y57042858D01*
X15359523Y56995239D01*
X15264285Y56947620D01*
X15073809Y56947620D01*
X14978571Y56995239D01*
X16026190Y56947620D02*
X15930952Y56995239D01*
X15883333Y57090477D01*
X15883333Y57947620D01*
X13076190Y55297620D02*
X13409523Y54297620D01*
X13742857Y55297620D01*
X14076190Y54297620D02*
X14076190Y54964286D01*
X14076190Y55297620D02*
X14028571Y55250000D01*
X14076190Y55202381D01*
X14123809Y55250000D01*
X14076190Y55297620D01*
X14076190Y55202381D01*
X14552380Y54964286D02*
X14552380Y54297620D01*
X14552380Y54869048D02*
X14600000Y54916667D01*
X14695238Y54964286D01*
X14838095Y54964286D01*
X14933333Y54916667D01*
X14980952Y54821429D01*
X14980952Y54297620D01*
X13607142Y52850000D02*
X13511904Y52897620D01*
X13369047Y52897620D01*
X13226190Y52850000D01*
X13130952Y52754762D01*
X13083333Y52659524D01*
X13035714Y52469048D01*
X13035714Y52326191D01*
X13083333Y52135715D01*
X13130952Y52040477D01*
X13226190Y51945239D01*
X13369047Y51897620D01*
X13464285Y51897620D01*
X13607142Y51945239D01*
X13654761Y51992858D01*
X13654761Y52326191D01*
X13464285Y52326191D01*
X14083333Y52564286D02*
X14083333Y51897620D01*
X14083333Y52469048D02*
X14130952Y52516667D01*
X14226190Y52564286D01*
X14369047Y52564286D01*
X14464285Y52516667D01*
X14511904Y52421429D01*
X14511904Y51897620D01*
X15416666Y51897620D02*
X15416666Y52897620D01*
X15416666Y51945239D02*
X15321428Y51897620D01*
X15130952Y51897620D01*
X15035714Y51945239D01*
X14988095Y51992858D01*
X14940476Y52088096D01*
X14940476Y52373810D01*
X14988095Y52469048D01*
X15035714Y52516667D01*
X15130952Y52564286D01*
X15321428Y52564286D01*
X15416666Y52516667D01*
X13026190Y50347620D02*
X13359523Y49347620D01*
X13692857Y50347620D01*
X14169047Y49347620D02*
X14073809Y49395239D01*
X14026190Y49442858D01*
X13978571Y49538096D01*
X13978571Y49823810D01*
X14026190Y49919048D01*
X14073809Y49966667D01*
X14169047Y50014286D01*
X14311904Y50014286D01*
X14407142Y49966667D01*
X14454761Y49919048D01*
X14502380Y49823810D01*
X14502380Y49538096D01*
X14454761Y49442858D01*
X14407142Y49395239D01*
X14311904Y49347620D01*
X14169047Y49347620D01*
X15359523Y50014286D02*
X15359523Y49347620D01*
X14930952Y50014286D02*
X14930952Y49490477D01*
X14978571Y49395239D01*
X15073809Y49347620D01*
X15216666Y49347620D01*
X15311904Y49395239D01*
X15359523Y49442858D01*
X15692857Y50014286D02*
X16073809Y50014286D01*
X15835714Y50347620D02*
X15835714Y49490477D01*
X15883333Y49395239D01*
X15978571Y49347620D01*
X16073809Y49347620D01*
%TO.C,D1*%
X22561904Y45647620D02*
X22561904Y46647620D01*
X22800000Y46647620D01*
X22942857Y46600000D01*
X23038095Y46504762D01*
X23085714Y46409524D01*
X23133333Y46219048D01*
X23133333Y46076191D01*
X23085714Y45885715D01*
X23038095Y45790477D01*
X22942857Y45695239D01*
X22800000Y45647620D01*
X22561904Y45647620D01*
X24085714Y45647620D02*
X23514285Y45647620D01*
X23800000Y45647620D02*
X23800000Y46647620D01*
X23704761Y46504762D01*
X23609523Y46409524D01*
X23514285Y46361905D01*
X21357142Y43447620D02*
X20785714Y43447620D01*
X21071428Y43447620D02*
X21071428Y44447620D01*
X20976190Y44304762D01*
X20880952Y44209524D01*
X20785714Y44161905D01*
X21785714Y43447620D02*
X21785714Y44447620D01*
X22357142Y43447620D01*
X22357142Y44447620D01*
X23261904Y44114286D02*
X23261904Y43447620D01*
X23023809Y44495239D02*
X22785714Y43780953D01*
X23404761Y43780953D01*
X23976190Y44447620D02*
X24071428Y44447620D01*
X24166666Y44400000D01*
X24214285Y44352381D01*
X24261904Y44257143D01*
X24309523Y44066667D01*
X24309523Y43828572D01*
X24261904Y43638096D01*
X24214285Y43542858D01*
X24166666Y43495239D01*
X24071428Y43447620D01*
X23976190Y43447620D01*
X23880952Y43495239D01*
X23833333Y43542858D01*
X23785714Y43638096D01*
X23738095Y43828572D01*
X23738095Y44066667D01*
X23785714Y44257143D01*
X23833333Y44352381D01*
X23880952Y44400000D01*
X23976190Y44447620D01*
X24928571Y44447620D02*
X25023809Y44447620D01*
X25119047Y44400000D01*
X25166666Y44352381D01*
X25214285Y44257143D01*
X25261904Y44066667D01*
X25261904Y43828572D01*
X25214285Y43638096D01*
X25166666Y43542858D01*
X25119047Y43495239D01*
X25023809Y43447620D01*
X24928571Y43447620D01*
X24833333Y43495239D01*
X24785714Y43542858D01*
X24738095Y43638096D01*
X24690476Y43828572D01*
X24690476Y44066667D01*
X24738095Y44257143D01*
X24785714Y44352381D01*
X24833333Y44400000D01*
X24928571Y44447620D01*
X26214285Y43447620D02*
X25642857Y43447620D01*
X25928571Y43447620D02*
X25928571Y44447620D01*
X25833333Y44304762D01*
X25738095Y44209524D01*
X25642857Y44161905D01*
X28338095Y43647620D02*
X28338095Y44647620D01*
X28909523Y43647620D02*
X28480952Y44219048D01*
X28909523Y44647620D02*
X28338095Y44076191D01*
%TO.C,J2*%
X5152380Y53066667D02*
X5866666Y53066667D01*
X6009523Y53019048D01*
X6104761Y52923810D01*
X6152380Y52780953D01*
X6152380Y52685715D01*
X5247619Y53495239D02*
X5200000Y53542858D01*
X5152380Y53638096D01*
X5152380Y53876191D01*
X5200000Y53971429D01*
X5247619Y54019048D01*
X5342857Y54066667D01*
X5438095Y54066667D01*
X5580952Y54019048D01*
X6152380Y53447620D01*
X6152380Y54066667D01*
X1936380Y51523810D02*
X936380Y51523810D01*
X936380Y51904762D01*
X984000Y52000000D01*
X1031619Y52047620D01*
X1126857Y52095239D01*
X1269714Y52095239D01*
X1364952Y52047620D01*
X1412571Y52000000D01*
X1460190Y51904762D01*
X1460190Y51523810D01*
X1936380Y52666667D02*
X1888761Y52571429D01*
X1841142Y52523810D01*
X1745904Y52476191D01*
X1460190Y52476191D01*
X1364952Y52523810D01*
X1317333Y52571429D01*
X1269714Y52666667D01*
X1269714Y52809524D01*
X1317333Y52904762D01*
X1364952Y52952381D01*
X1460190Y53000000D01*
X1745904Y53000000D01*
X1841142Y52952381D01*
X1888761Y52904762D01*
X1936380Y52809524D01*
X1936380Y52666667D01*
X1269714Y53333334D02*
X1936380Y53523810D01*
X1460190Y53714286D01*
X1936380Y53904762D01*
X1269714Y54095239D01*
X1888761Y54857143D02*
X1936380Y54761905D01*
X1936380Y54571429D01*
X1888761Y54476191D01*
X1793523Y54428572D01*
X1412571Y54428572D01*
X1317333Y54476191D01*
X1269714Y54571429D01*
X1269714Y54761905D01*
X1317333Y54857143D01*
X1412571Y54904762D01*
X1507809Y54904762D01*
X1603047Y54428572D01*
X1936380Y55333334D02*
X1269714Y55333334D01*
X1460190Y55333334D02*
X1364952Y55380953D01*
X1317333Y55428572D01*
X1269714Y55523810D01*
X1269714Y55619048D01*
%TD*%
%LPC*%
D12*
%TO.C,U2*%
X24700000Y41280000D03*
X24700000Y38740000D03*
X24700000Y36200000D03*
X24700000Y33660000D03*
X24700000Y31120000D03*
X24700000Y28580000D03*
X24700000Y26040000D03*
X24700000Y23500000D03*
X24700000Y20960000D03*
D13*
X24700000Y18420000D03*
%TD*%
D14*
%TO.C,J4*%
X4700000Y38700000D03*
X4700000Y36200000D03*
X4700000Y33700000D03*
X4700000Y31200000D03*
G36*
G01*
X5425000Y27850000D02*
X3975000Y27850000D01*
G75*
G02*
X3725000Y28100000I0J250000D01*
G01*
X3725000Y29300000D01*
G75*
G02*
X3975000Y29550000I250000J0D01*
G01*
X5425000Y29550000D01*
G75*
G02*
X5675000Y29300000I0J-250000D01*
G01*
X5675000Y28100000D01*
G75*
G02*
X5425000Y27850000I-250000J0D01*
G01*
G37*
%TD*%
D15*
%TO.C,J9*%
X47250000Y15790000D03*
D16*
X47250000Y13250000D03*
%TD*%
D17*
%TO.C,R2*%
X25860000Y2300000D03*
D18*
X15700000Y2300000D03*
%TD*%
D17*
%TO.C,R1*%
X15640000Y5900000D03*
D18*
X25800000Y5900000D03*
%TD*%
D19*
%TO.C,J5*%
X30100000Y5500000D03*
X32600000Y5500000D03*
G36*
G01*
X35950000Y6225000D02*
X35950000Y4775000D01*
G75*
G02*
X35700000Y4525000I-250000J0D01*
G01*
X34500000Y4525000D01*
G75*
G02*
X34250000Y4775000I0J250000D01*
G01*
X34250000Y6225000D01*
G75*
G02*
X34500000Y6475000I250000J0D01*
G01*
X35700000Y6475000D01*
G75*
G02*
X35950000Y6225000I0J-250000D01*
G01*
G37*
%TD*%
D15*
%TO.C,J1*%
X43290000Y2990000D03*
X40750000Y2990000D03*
X43290000Y5530000D03*
X40750000Y5530000D03*
X43290000Y8070000D03*
X40750000Y8070000D03*
X43290000Y10610000D03*
X40750000Y10610000D03*
X43290000Y13150000D03*
X40750000Y13150000D03*
X43290000Y15690000D03*
X40750000Y15690000D03*
X43290000Y18230000D03*
X40750000Y18230000D03*
X43290000Y20770000D03*
X40750000Y20770000D03*
X43290000Y23310000D03*
X40750000Y23310000D03*
X43290000Y25850000D03*
X40750000Y25850000D03*
X43290000Y28390000D03*
X40750000Y28390000D03*
X43290000Y30930000D03*
X40750000Y30930000D03*
X43290000Y33470000D03*
X40750000Y33470000D03*
X43290000Y36010000D03*
X40750000Y36010000D03*
X43290000Y38550000D03*
X40750000Y38550000D03*
X43290000Y41090000D03*
X40750000Y41090000D03*
X43290000Y43630000D03*
X40750000Y43630000D03*
X43290000Y46170000D03*
X40750000Y46170000D03*
X43290000Y48710000D03*
X40750000Y48710000D03*
X43290000Y51250000D03*
D16*
X40750000Y51250000D03*
%TD*%
D20*
%TO.C,J3*%
X4300000Y13100000D03*
G36*
G01*
X5050000Y9750000D02*
X3550000Y9750000D01*
G75*
G02*
X3300000Y10000000I0J250000D01*
G01*
X3300000Y11200000D01*
G75*
G02*
X3550000Y11450000I250000J0D01*
G01*
X5050000Y11450000D01*
G75*
G02*
X5300000Y11200000I0J-250000D01*
G01*
X5300000Y10000000D01*
G75*
G02*
X5050000Y9750000I-250000J0D01*
G01*
G37*
%TD*%
%TO.C,U1*%
G36*
G01*
X11931000Y56648000D02*
X11169000Y56648000D01*
G75*
G02*
X10788000Y57029000I0J381000D01*
G01*
X10788000Y57791000D01*
G75*
G02*
X11169000Y58172000I381000J0D01*
G01*
X11931000Y58172000D01*
G75*
G02*
X12312000Y57791000I0J-381000D01*
G01*
X12312000Y57029000D01*
G75*
G02*
X11931000Y56648000I-381000J0D01*
G01*
G37*
G36*
G01*
X11931000Y54108000D02*
X11169000Y54108000D01*
G75*
G02*
X10788000Y54489000I0J381000D01*
G01*
X10788000Y55251000D01*
G75*
G02*
X11169000Y55632000I381000J0D01*
G01*
X11931000Y55632000D01*
G75*
G02*
X12312000Y55251000I0J-381000D01*
G01*
X12312000Y54489000D01*
G75*
G02*
X11931000Y54108000I-381000J0D01*
G01*
G37*
G36*
G01*
X11931000Y51568000D02*
X11169000Y51568000D01*
G75*
G02*
X10788000Y51949000I0J381000D01*
G01*
X10788000Y52711000D01*
G75*
G02*
X11169000Y53092000I381000J0D01*
G01*
X11931000Y53092000D01*
G75*
G02*
X12312000Y52711000I0J-381000D01*
G01*
X12312000Y51949000D01*
G75*
G02*
X11931000Y51568000I-381000J0D01*
G01*
G37*
D13*
X11550000Y49790000D03*
%TD*%
D21*
%TO.C,D1*%
X18440000Y46200000D03*
D22*
X28600000Y46200000D03*
%TD*%
%TO.C,J2*%
G36*
G01*
X5334000Y55600000D02*
X6834000Y55600000D01*
G75*
G02*
X7084000Y55350000I0J-250000D01*
G01*
X7084000Y54150000D01*
G75*
G02*
X6834000Y53900000I-250000J0D01*
G01*
X5334000Y53900000D01*
G75*
G02*
X5084000Y54150000I0J250000D01*
G01*
X5084000Y55350000D01*
G75*
G02*
X5334000Y55600000I250000J0D01*
G01*
G37*
D20*
X6084000Y52250000D03*
%TD*%
M02*
