%TF.GenerationSoftware,KiCad,Pcbnew,(5.1.8-0-10_14)*%
%TF.CreationDate,2022-01-02T21:41:26-05:00*%
%TF.ProjectId,PiHatPro,50694861-7450-4726-9f2e-6b696361645f,rev?*%
%TF.SameCoordinates,PX9b0780PY44cb540*%
%TF.FileFunction,Copper,L4,Bot*%
%TF.FilePolarity,Positive*%
%FSLAX46Y46*%
G04 Gerber Fmt 4.6, Leading zero omitted, Abs format (unit mm)*
G04 Created by KiCad (PCBNEW (5.1.8-0-10_14)) date 2022-01-02 21:41:26*
%MOMM*%
%LPD*%
G01*
G04 APERTURE LIST*
%TA.AperFunction,ComponentPad*%
%ADD10C,1.524000*%
%TD*%
%TA.AperFunction,ComponentPad*%
%ADD11R,1.524000X1.524000*%
%TD*%
%TA.AperFunction,ComponentPad*%
%ADD12O,1.950000X1.700000*%
%TD*%
%TA.AperFunction,ComponentPad*%
%ADD13O,1.700000X1.700000*%
%TD*%
%TA.AperFunction,ComponentPad*%
%ADD14R,1.700000X1.700000*%
%TD*%
%TA.AperFunction,ComponentPad*%
%ADD15O,1.600000X1.600000*%
%TD*%
%TA.AperFunction,ComponentPad*%
%ADD16C,1.600000*%
%TD*%
%TA.AperFunction,ComponentPad*%
%ADD17O,1.700000X1.950000*%
%TD*%
%TA.AperFunction,ComponentPad*%
%ADD18O,2.000000X1.700000*%
%TD*%
%TA.AperFunction,ComponentPad*%
%ADD19O,2.200000X2.200000*%
%TD*%
%TA.AperFunction,ComponentPad*%
%ADD20R,2.200000X2.200000*%
%TD*%
%TA.AperFunction,Conductor*%
%ADD21C,1.500000*%
%TD*%
%TA.AperFunction,Conductor*%
%ADD22C,1.250000*%
%TD*%
G04 APERTURE END LIST*
D10*
%TO.P,U2,10*%
%TO.N,Net-(U2-Pad10)*%
X24700000Y41280000D03*
%TO.P,U2,9*%
%TO.N,JOYSTICK_SW*%
X24700000Y38740000D03*
%TO.P,U2,8*%
%TO.N,JOYSTICK_Y*%
X24700000Y36200000D03*
%TO.P,U2,7*%
%TO.N,JOYSTICK_X*%
X24700000Y33660000D03*
%TO.P,U2,6*%
%TO.N,Net-(U2-Pad6)*%
X24700000Y31120000D03*
%TO.P,U2,5*%
%TO.N,GND*%
X24700000Y28580000D03*
%TO.P,U2,4*%
%TO.N,SDA*%
X24700000Y26040000D03*
%TO.P,U2,3*%
%TO.N,SCL*%
X24700000Y23500000D03*
%TO.P,U2,2*%
%TO.N,GND*%
X24700000Y20960000D03*
D11*
%TO.P,U2,1*%
%TO.N,+3V3*%
X24700000Y18420000D03*
%TD*%
D12*
%TO.P,J4,5*%
%TO.N,JOYSTICK_SW*%
X4700000Y38700000D03*
%TO.P,J4,4*%
%TO.N,JOYSTICK_Y*%
X4700000Y36200000D03*
%TO.P,J4,3*%
%TO.N,JOYSTICK_X*%
X4700000Y33700000D03*
%TO.P,J4,2*%
%TO.N,GND*%
X4700000Y31200000D03*
%TO.P,J4,1*%
%TO.N,+5V*%
%TA.AperFunction,ComponentPad*%
G36*
G01*
X5425000Y27850000D02*
X3975000Y27850000D01*
G75*
G02*
X3725000Y28100000I0J250000D01*
G01*
X3725000Y29300000D01*
G75*
G02*
X3975000Y29550000I250000J0D01*
G01*
X5425000Y29550000D01*
G75*
G02*
X5675000Y29300000I0J-250000D01*
G01*
X5675000Y28100000D01*
G75*
G02*
X5425000Y27850000I-250000J0D01*
G01*
G37*
%TD.AperFunction*%
%TD*%
D13*
%TO.P,J9,2*%
%TO.N,GND*%
X47250000Y15790000D03*
D14*
%TO.P,J9,1*%
%TO.N,Buzzer*%
X47250000Y13250000D03*
%TD*%
D15*
%TO.P,R2,2*%
%TO.N,GND*%
X25860000Y2300000D03*
D16*
%TO.P,R2,1*%
%TO.N,ZProbe3V3*%
X15700000Y2300000D03*
%TD*%
D15*
%TO.P,R1,2*%
%TO.N,ZProbe3V3*%
X15640000Y5900000D03*
D16*
%TO.P,R1,1*%
%TO.N,ZProbeIn*%
X25800000Y5900000D03*
%TD*%
D17*
%TO.P,J5,3*%
%TO.N,ZProbeIn*%
X30100000Y5500000D03*
%TO.P,J5,2*%
%TO.N,GND*%
X32600000Y5500000D03*
%TO.P,J5,1*%
%TO.N,LaserControl*%
%TA.AperFunction,ComponentPad*%
G36*
G01*
X35950000Y6225000D02*
X35950000Y4775000D01*
G75*
G02*
X35700000Y4525000I-250000J0D01*
G01*
X34500000Y4525000D01*
G75*
G02*
X34250000Y4775000I0J250000D01*
G01*
X34250000Y6225000D01*
G75*
G02*
X34500000Y6475000I250000J0D01*
G01*
X35700000Y6475000D01*
G75*
G02*
X35950000Y6225000I0J-250000D01*
G01*
G37*
%TD.AperFunction*%
%TD*%
D13*
%TO.P,J1,40*%
%TO.N,Net-(J1-Pad40)*%
X43290000Y2990000D03*
%TO.P,J1,39*%
%TO.N,GND*%
X40750000Y2990000D03*
%TO.P,J1,38*%
%TO.N,Net-(J1-Pad38)*%
X43290000Y5530000D03*
%TO.P,J1,37*%
%TO.N,LaserControl*%
X40750000Y5530000D03*
%TO.P,J1,36*%
%TO.N,Net-(J1-Pad36)*%
X43290000Y8070000D03*
%TO.P,J1,35*%
%TO.N,ZProbe3V3*%
X40750000Y8070000D03*
%TO.P,J1,34*%
%TO.N,GND*%
X43290000Y10610000D03*
%TO.P,J1,33*%
%TO.N,UVSafe*%
X40750000Y10610000D03*
%TO.P,J1,32*%
%TO.N,Buzzer*%
X43290000Y13150000D03*
%TO.P,J1,31*%
%TO.N,UVExpose*%
X40750000Y13150000D03*
%TO.P,J1,30*%
%TO.N,GND*%
X43290000Y15690000D03*
%TO.P,J1,29*%
%TO.N,Net-(J1-Pad29)*%
X40750000Y15690000D03*
%TO.P,J1,28*%
%TO.N,Net-(J1-Pad28)*%
X43290000Y18230000D03*
%TO.P,J1,27*%
%TO.N,Net-(J1-Pad27)*%
X40750000Y18230000D03*
%TO.P,J1,26*%
%TO.N,Net-(J1-Pad26)*%
X43290000Y20770000D03*
%TO.P,J1,25*%
%TO.N,GND*%
X40750000Y20770000D03*
%TO.P,J1,24*%
%TO.N,Net-(J1-Pad24)*%
X43290000Y23310000D03*
%TO.P,J1,23*%
%TO.N,Net-(J1-Pad23)*%
X40750000Y23310000D03*
%TO.P,J1,22*%
%TO.N,Net-(J1-Pad22)*%
X43290000Y25850000D03*
%TO.P,J1,21*%
%TO.N,Net-(J1-Pad21)*%
X40750000Y25850000D03*
%TO.P,J1,20*%
%TO.N,GND*%
X43290000Y28390000D03*
%TO.P,J1,19*%
%TO.N,Net-(J1-Pad19)*%
X40750000Y28390000D03*
%TO.P,J1,18*%
%TO.N,Net-(J1-Pad18)*%
X43290000Y30930000D03*
%TO.P,J1,17*%
%TO.N,+3V3*%
X40750000Y30930000D03*
%TO.P,J1,16*%
%TO.N,Net-(J1-Pad16)*%
X43290000Y33470000D03*
%TO.P,J1,15*%
%TO.N,Net-(J1-Pad15)*%
X40750000Y33470000D03*
%TO.P,J1,14*%
%TO.N,GND*%
X43290000Y36010000D03*
%TO.P,J1,13*%
%TO.N,Net-(J1-Pad13)*%
X40750000Y36010000D03*
%TO.P,J1,12*%
%TO.N,Net-(J1-Pad12)*%
X43290000Y38550000D03*
%TO.P,J1,11*%
%TO.N,Net-(J1-Pad11)*%
X40750000Y38550000D03*
%TO.P,J1,10*%
%TO.N,Net-(J1-Pad10)*%
X43290000Y41090000D03*
%TO.P,J1,9*%
%TO.N,GND*%
X40750000Y41090000D03*
%TO.P,J1,8*%
%TO.N,Net-(J1-Pad8)*%
X43290000Y43630000D03*
%TO.P,J1,7*%
%TO.N,Net-(J1-Pad7)*%
X40750000Y43630000D03*
%TO.P,J1,6*%
%TO.N,GND*%
X43290000Y46170000D03*
%TO.P,J1,5*%
%TO.N,SCL*%
X40750000Y46170000D03*
%TO.P,J1,4*%
%TO.N,+5V*%
X43290000Y48710000D03*
%TO.P,J1,3*%
%TO.N,SDA*%
X40750000Y48710000D03*
%TO.P,J1,2*%
%TO.N,+5V*%
X43290000Y51250000D03*
D14*
%TO.P,J1,1*%
%TO.N,+3V3*%
X40750000Y51250000D03*
%TD*%
D18*
%TO.P,J3,2*%
%TO.N,UVExpose*%
X4300000Y13100000D03*
%TO.P,J3,1*%
%TO.N,UVSafe*%
%TA.AperFunction,ComponentPad*%
G36*
G01*
X5050000Y9750000D02*
X3550000Y9750000D01*
G75*
G02*
X3300000Y10000000I0J250000D01*
G01*
X3300000Y11200000D01*
G75*
G02*
X3550000Y11450000I250000J0D01*
G01*
X5050000Y11450000D01*
G75*
G02*
X5300000Y11200000I0J-250000D01*
G01*
X5300000Y10000000D01*
G75*
G02*
X5050000Y9750000I-250000J0D01*
G01*
G37*
%TD.AperFunction*%
%TD*%
%TO.P,U1,4*%
%TO.N,Net-(U1-Pad4)*%
%TA.AperFunction,ComponentPad*%
G36*
G01*
X11931000Y56648000D02*
X11169000Y56648000D01*
G75*
G02*
X10788000Y57029000I0J381000D01*
G01*
X10788000Y57791000D01*
G75*
G02*
X11169000Y58172000I381000J0D01*
G01*
X11931000Y58172000D01*
G75*
G02*
X12312000Y57791000I0J-381000D01*
G01*
X12312000Y57029000D01*
G75*
G02*
X11931000Y56648000I-381000J0D01*
G01*
G37*
%TD.AperFunction*%
%TO.P,U1,3*%
%TO.N,+24V*%
%TA.AperFunction,ComponentPad*%
G36*
G01*
X11931000Y54108000D02*
X11169000Y54108000D01*
G75*
G02*
X10788000Y54489000I0J381000D01*
G01*
X10788000Y55251000D01*
G75*
G02*
X11169000Y55632000I381000J0D01*
G01*
X11931000Y55632000D01*
G75*
G02*
X12312000Y55251000I0J-381000D01*
G01*
X12312000Y54489000D01*
G75*
G02*
X11931000Y54108000I-381000J0D01*
G01*
G37*
%TD.AperFunction*%
%TO.P,U1,2*%
%TO.N,GND*%
%TA.AperFunction,ComponentPad*%
G36*
G01*
X11931000Y51568000D02*
X11169000Y51568000D01*
G75*
G02*
X10788000Y51949000I0J381000D01*
G01*
X10788000Y52711000D01*
G75*
G02*
X11169000Y53092000I381000J0D01*
G01*
X11931000Y53092000D01*
G75*
G02*
X12312000Y52711000I0J-381000D01*
G01*
X12312000Y51949000D01*
G75*
G02*
X11931000Y51568000I-381000J0D01*
G01*
G37*
%TD.AperFunction*%
D11*
%TO.P,U1,1*%
%TO.N,Net-(D1-Pad2)*%
X11550000Y49790000D03*
%TD*%
D19*
%TO.P,D1,2*%
%TO.N,Net-(D1-Pad2)*%
X18440000Y46200000D03*
D20*
%TO.P,D1,1*%
%TO.N,+5V*%
X28600000Y46200000D03*
%TD*%
%TO.P,J2,1*%
%TO.N,+24V*%
%TA.AperFunction,ComponentPad*%
G36*
G01*
X5334000Y55600000D02*
X6834000Y55600000D01*
G75*
G02*
X7084000Y55350000I0J-250000D01*
G01*
X7084000Y54150000D01*
G75*
G02*
X6834000Y53900000I-250000J0D01*
G01*
X5334000Y53900000D01*
G75*
G02*
X5084000Y54150000I0J250000D01*
G01*
X5084000Y55350000D01*
G75*
G02*
X5334000Y55600000I250000J0D01*
G01*
G37*
%TD.AperFunction*%
D18*
%TO.P,J2,2*%
%TO.N,GND*%
X6084000Y52250000D03*
%TD*%
D21*
%TO.N,GND*%
X6000000Y52250000D02*
X5740000Y52250000D01*
D22*
X47250000Y15750000D02*
X47250000Y26250000D01*
X47250000Y26250000D02*
X45000000Y28500000D01*
X43500000Y28500000D02*
X45000000Y28500000D01*
D21*
X6000000Y52250000D02*
X11500000Y52250000D01*
X32600000Y3000000D02*
X32600000Y5600000D01*
X40700000Y3000000D02*
X32600000Y3000000D01*
X11750000Y52500000D02*
X31750000Y52500000D01*
X31750000Y52500000D02*
X36750000Y57500000D01*
X43400000Y46100000D02*
X44400000Y46100000D01*
X36750000Y57500000D02*
X43100000Y57500000D01*
X43100000Y57500000D02*
X46100000Y54500000D01*
X46100000Y47800000D02*
X44400000Y46100000D01*
X46100000Y54500000D02*
X46100000Y47800000D01*
X26800000Y3000000D02*
X26000000Y2200000D01*
X32600000Y3000000D02*
X26800000Y3000000D01*
X22350000Y20950000D02*
X24550000Y20950000D01*
X22200000Y15800000D02*
X21550000Y16450000D01*
X21550000Y16450000D02*
X21550000Y20150000D01*
X21550000Y20150000D02*
X22350000Y20950000D01*
X40700000Y20650000D02*
X34850000Y20650000D01*
X30000000Y15800000D02*
X22200000Y15800000D01*
X34850000Y20650000D02*
X30000000Y15800000D01*
X21550000Y20150000D02*
X21550000Y26100000D01*
X24050000Y28600000D02*
X24850000Y28600000D01*
X21550000Y26100000D02*
X24050000Y28600000D01*
X21550000Y26100000D02*
X19350000Y26100000D01*
X14300000Y31150000D02*
X4800000Y31150000D01*
X19350000Y26100000D02*
X14300000Y31150000D01*
%TO.N,+5V*%
X38000000Y53900000D02*
X42600000Y53900000D01*
X43300000Y53200000D02*
X43300000Y51100000D01*
X42600000Y53900000D02*
X43300000Y53200000D01*
X43300000Y51200000D02*
X43300000Y48700000D01*
X30300000Y46200000D02*
X38000000Y53900000D01*
X4500000Y28600000D02*
X2900000Y28600000D01*
X2900000Y28600000D02*
X1800000Y29700000D01*
X1800000Y29700000D02*
X1800000Y40600000D01*
X1800000Y40600000D02*
X3400000Y42200000D01*
X3400000Y42200000D02*
X6300000Y42200000D01*
X5100000Y42200000D02*
X6300000Y42200000D01*
X24100000Y46200000D02*
X28400000Y46200000D01*
X20100000Y42200000D02*
X24100000Y46200000D01*
X6300000Y42200000D02*
X20100000Y42200000D01*
X28900000Y46200000D02*
X28800000Y46100000D01*
X30300000Y46200000D02*
X28900000Y46200000D01*
%TO.N,Net-(D1-Pad2)*%
X15000000Y49800000D02*
X11700000Y49800000D01*
X18500000Y46300000D02*
X15000000Y49800000D01*
D22*
%TO.N,+3V3*%
X24800000Y18400000D02*
X26200000Y18400000D01*
X38850000Y31050000D02*
X40650000Y31050000D01*
X26200000Y18400000D02*
X38850000Y31050000D01*
%TO.N,LaserControl*%
X40500000Y5500000D02*
X40600000Y5400000D01*
X35100000Y5500000D02*
X40500000Y5500000D01*
%TO.N,ZProbe3V3*%
X40700000Y8000000D02*
X17000000Y8000000D01*
X15800000Y6800000D02*
X15800000Y6000000D01*
X17000000Y8000000D02*
X15800000Y6800000D01*
X15600000Y5900000D02*
X15800000Y6100000D01*
X15600000Y2200000D02*
X15600000Y5900000D01*
%TO.N,SCL*%
X24600000Y23600000D02*
X26300000Y23600000D01*
X40600000Y46150000D02*
X38800000Y46150000D01*
X38800000Y46150000D02*
X29750000Y37100000D01*
X29750000Y27050000D02*
X26300000Y23600000D01*
X29750000Y37100000D02*
X29750000Y27050000D01*
%TO.N,SDA*%
X24600000Y26100000D02*
X25000000Y26100000D01*
X25000000Y26100000D02*
X27100000Y28200000D01*
X27100000Y28200000D02*
X27100000Y38400000D01*
X37300000Y48600000D02*
X40800000Y48600000D01*
X27100000Y38400000D02*
X37300000Y48600000D01*
D21*
%TO.N,+24V*%
X6250000Y54750000D02*
X11500000Y54750000D01*
D22*
%TO.N,ZProbeIn*%
X29800000Y5700000D02*
X29900000Y5600000D01*
X26100000Y5600000D02*
X25800000Y5900000D01*
X29900000Y5600000D02*
X26100000Y5600000D01*
%TO.N,Buzzer*%
X43250000Y13250000D02*
X47250000Y13250000D01*
%TO.N,JOYSTICK_SW*%
X24700000Y38700000D02*
X24800000Y38800000D01*
X4800000Y38700000D02*
X24700000Y38700000D01*
%TO.N,JOYSTICK_Y*%
X24700000Y36100000D02*
X6200000Y36100000D01*
X6200000Y36100000D02*
X4700000Y36100000D01*
%TO.N,JOYSTICK_X*%
X4800000Y33700000D02*
X24600000Y33700000D01*
%TO.N,Net-(J1-Pad11)*%
X40500000Y38500000D02*
X40750000Y38500000D01*
%TO.N,UVSafe*%
X40800000Y10600000D02*
X4100000Y10600000D01*
%TO.N,UVExpose*%
X40500000Y13300000D02*
X40600000Y13200000D01*
X4300000Y13300000D02*
X40500000Y13300000D01*
%TD*%
M02*
