%TF.GenerationSoftware,KiCad,Pcbnew,(5.1.8-0-10_14)*%
%TF.CreationDate,2021-02-27T17:15:19-05:00*%
%TF.ProjectId,PiHat,50694861-742e-46b6-9963-61645f706362,rev?*%
%TF.SameCoordinates,PX2a260a0PY7999e20*%
%TF.FileFunction,Copper,L2,Bot*%
%TF.FilePolarity,Positive*%
%FSLAX46Y46*%
G04 Gerber Fmt 4.6, Leading zero omitted, Abs format (unit mm)*
G04 Created by KiCad (PCBNEW (5.1.8-0-10_14)) date 2021-02-27 17:15:19*
%MOMM*%
%LPD*%
G01*
G04 APERTURE LIST*
%TA.AperFunction,ComponentPad*%
%ADD10C,1.600000*%
%TD*%
%TA.AperFunction,ComponentPad*%
%ADD11O,2.200000X2.200000*%
%TD*%
%TA.AperFunction,ComponentPad*%
%ADD12R,2.200000X2.200000*%
%TD*%
%TA.AperFunction,ComponentPad*%
%ADD13O,2.000000X1.700000*%
%TD*%
%TA.AperFunction,ComponentPad*%
%ADD14O,1.600000X1.600000*%
%TD*%
%TA.AperFunction,ComponentPad*%
%ADD15R,1.600000X1.600000*%
%TD*%
%TA.AperFunction,ComponentPad*%
%ADD16O,1.905000X2.000000*%
%TD*%
%TA.AperFunction,ComponentPad*%
%ADD17R,1.905000X2.000000*%
%TD*%
%TA.AperFunction,ComponentPad*%
%ADD18R,2.000000X1.905000*%
%TD*%
%TA.AperFunction,ComponentPad*%
%ADD19O,2.000000X1.905000*%
%TD*%
%TA.AperFunction,Conductor*%
%ADD20C,1.250000*%
%TD*%
G04 APERTURE END LIST*
D10*
%TO.P,C1,1*%
%TO.N,+12V*%
X10414000Y55880000D03*
%TO.P,C1,2*%
%TO.N,GND*%
X15414000Y55880000D03*
%TD*%
%TO.P,C2,2*%
%TO.N,GND*%
X10494000Y48260000D03*
%TO.P,C2,1*%
%TO.N,Net-(C2-Pad1)*%
X15494000Y48260000D03*
%TD*%
D11*
%TO.P,D1,2*%
%TO.N,Net-(C2-Pad1)*%
X29464000Y43180000D03*
D12*
%TO.P,D1,1*%
%TO.N,+5V*%
X39624000Y43180000D03*
%TD*%
%TO.P,D2,1*%
%TO.N,BlackLightPower*%
X14224000Y43180000D03*
D11*
%TO.P,D2,2*%
%TO.N,GND*%
X14224000Y33020000D03*
%TD*%
%TO.P,J2,1*%
%TO.N,+12V*%
%TA.AperFunction,ComponentPad*%
G36*
G01*
X4584000Y54190000D02*
X6084000Y54190000D01*
G75*
G02*
X6334000Y53940000I0J-250000D01*
G01*
X6334000Y52740000D01*
G75*
G02*
X6084000Y52490000I-250000J0D01*
G01*
X4584000Y52490000D01*
G75*
G02*
X4334000Y52740000I0J250000D01*
G01*
X4334000Y53940000D01*
G75*
G02*
X4584000Y54190000I250000J0D01*
G01*
G37*
%TD.AperFunction*%
D13*
%TO.P,J2,2*%
%TO.N,GND*%
X5334000Y50840000D03*
%TD*%
%TO.P,J3,2*%
%TO.N,GND*%
X5334000Y30520000D03*
%TO.P,J3,1*%
%TO.N,+5V*%
%TA.AperFunction,ComponentPad*%
G36*
G01*
X4584000Y33870000D02*
X6084000Y33870000D01*
G75*
G02*
X6334000Y33620000I0J-250000D01*
G01*
X6334000Y32420000D01*
G75*
G02*
X6084000Y32170000I-250000J0D01*
G01*
X4584000Y32170000D01*
G75*
G02*
X4334000Y32420000I0J250000D01*
G01*
X4334000Y33620000D01*
G75*
G02*
X4584000Y33870000I250000J0D01*
G01*
G37*
%TD.AperFunction*%
%TD*%
%TO.P,J4,2*%
%TO.N,GND*%
X5334000Y20360000D03*
%TO.P,J4,1*%
%TO.N,FanPower*%
%TA.AperFunction,ComponentPad*%
G36*
G01*
X4584000Y23710000D02*
X6084000Y23710000D01*
G75*
G02*
X6334000Y23460000I0J-250000D01*
G01*
X6334000Y22260000D01*
G75*
G02*
X6084000Y22010000I-250000J0D01*
G01*
X4584000Y22010000D01*
G75*
G02*
X4334000Y22260000I0J250000D01*
G01*
X4334000Y23460000D01*
G75*
G02*
X4584000Y23710000I250000J0D01*
G01*
G37*
%TD.AperFunction*%
%TD*%
%TO.P,J5,1*%
%TO.N,BlackLightPower*%
%TA.AperFunction,ComponentPad*%
G36*
G01*
X4584000Y44030000D02*
X6084000Y44030000D01*
G75*
G02*
X6334000Y43780000I0J-250000D01*
G01*
X6334000Y42580000D01*
G75*
G02*
X6084000Y42330000I-250000J0D01*
G01*
X4584000Y42330000D01*
G75*
G02*
X4334000Y42580000I0J250000D01*
G01*
X4334000Y43780000D01*
G75*
G02*
X4584000Y44030000I250000J0D01*
G01*
G37*
%TD.AperFunction*%
%TO.P,J5,2*%
%TO.N,GND*%
X5334000Y40680000D03*
%TD*%
%TO.P,J6,1*%
%TO.N,Buzzer*%
%TA.AperFunction,ComponentPad*%
G36*
G01*
X4584000Y13550000D02*
X6084000Y13550000D01*
G75*
G02*
X6334000Y13300000I0J-250000D01*
G01*
X6334000Y12100000D01*
G75*
G02*
X6084000Y11850000I-250000J0D01*
G01*
X4584000Y11850000D01*
G75*
G02*
X4334000Y12100000I0J250000D01*
G01*
X4334000Y13300000D01*
G75*
G02*
X4584000Y13550000I250000J0D01*
G01*
G37*
%TD.AperFunction*%
%TO.P,J6,2*%
%TO.N,GND*%
X5334000Y10200000D03*
%TD*%
D14*
%TO.P,R1,2*%
%TO.N,Net-(R1-Pad2)*%
X12954000Y13970000D03*
D10*
%TO.P,R1,1*%
%TO.N,FanControl*%
X23114000Y13970000D03*
%TD*%
%TO.P,R2,1*%
%TO.N,LightControl*%
X40894000Y20320000D03*
D14*
%TO.P,R2,2*%
%TO.N,Net-(R2-Pad2)*%
X30734000Y20320000D03*
%TD*%
%TO.P,R3,2*%
%TO.N,+12V*%
X29464000Y34290000D03*
D10*
%TO.P,R3,1*%
%TO.N,Net-(R3-Pad1)*%
X39624000Y34290000D03*
%TD*%
%TO.P,R4,1*%
%TO.N,Net-(R3-Pad1)*%
X39624000Y38100000D03*
D14*
%TO.P,R4,2*%
%TO.N,Net-(Q1-Pad1)*%
X29464000Y38100000D03*
%TD*%
%TO.P,U2,4*%
%TO.N,+5V*%
X10414000Y25400000D03*
%TO.P,U2,2*%
%TO.N,GND*%
X12954000Y17780000D03*
%TO.P,U2,3*%
%TO.N,FanPower*%
X12954000Y25400000D03*
D15*
%TO.P,U2,1*%
%TO.N,Net-(R1-Pad2)*%
X10414000Y17780000D03*
%TD*%
%TO.P,U3,1*%
%TO.N,Net-(R2-Pad2)*%
X39624000Y25400000D03*
D14*
%TO.P,U3,3*%
%TO.N,GND*%
X32004000Y27940000D03*
%TO.P,U3,2*%
X39624000Y27940000D03*
%TO.P,U3,4*%
%TO.N,Net-(R3-Pad1)*%
X32004000Y25400000D03*
%TD*%
D16*
%TO.P,Q1,3*%
%TO.N,+12V*%
X19304000Y43180000D03*
%TO.P,Q1,2*%
%TO.N,BlackLightPower*%
X21844000Y43180000D03*
D17*
%TO.P,Q1,1*%
%TO.N,Net-(Q1-Pad1)*%
X24384000Y43180000D03*
%TD*%
D18*
%TO.P,U1,1*%
%TO.N,+12V*%
X20574000Y54610000D03*
D19*
%TO.P,U1,2*%
%TO.N,GND*%
X20574000Y52070000D03*
%TO.P,U1,3*%
%TO.N,Net-(C2-Pad1)*%
X20574000Y49530000D03*
%TD*%
D20*
%TO.N,+12V*%
X25944000Y34290000D02*
X19304000Y40930000D01*
X19304000Y40930000D02*
X19304000Y43180000D01*
X29464000Y34290000D02*
X25944000Y34290000D01*
%TO.N,GND*%
X7874000Y50800000D02*
X10414000Y48260000D01*
X5334000Y50800000D02*
X7874000Y50800000D01*
X5334000Y50800000D02*
X5334000Y49530000D01*
X5334000Y49530000D02*
X1524000Y45720000D01*
X1524000Y45720000D02*
X1524000Y41910000D01*
X2794000Y40640000D02*
X5334000Y40640000D01*
X1524000Y41910000D02*
X2794000Y40640000D01*
X1524000Y30480000D02*
X5334000Y30480000D01*
X12954000Y18911370D02*
X12954000Y17780000D01*
X11545370Y20320000D02*
X12954000Y18911370D01*
X1524000Y20320000D02*
X11545370Y20320000D01*
X1524000Y30480000D02*
X1524000Y20320000D01*
X14224000Y33020000D02*
X10414000Y36830000D01*
X10414000Y36830000D02*
X1524000Y36830000D01*
X1524000Y36830000D02*
X1524000Y30480000D01*
X1524000Y41910000D02*
X1524000Y36830000D01*
X16764000Y57150000D02*
X21561502Y57150000D01*
X15494000Y55880000D02*
X16764000Y57150000D01*
X32004000Y27940000D02*
X39624000Y27940000D01*
X14224000Y58420000D02*
X15494000Y57150000D01*
X9144000Y58420000D02*
X14224000Y58420000D01*
X5334000Y50800000D02*
X2794000Y50800000D01*
X4064000Y57150000D02*
X7874000Y57150000D01*
X15494000Y57150000D02*
X16764000Y57150000D01*
X2794000Y55880000D02*
X4064000Y57150000D01*
X7874000Y57150000D02*
X9144000Y58420000D01*
X2794000Y50800000D02*
X2794000Y55880000D01*
X20574000Y52070000D02*
X24384000Y52070000D01*
X24384000Y52070000D02*
X24384000Y57150000D01*
X24384000Y57150000D02*
X21561502Y57150000D01*
X5334000Y10160000D02*
X9144000Y6350000D01*
X1524000Y10160000D02*
X5334000Y10160000D01*
X9144000Y6350000D02*
X44704000Y6350000D01*
X1524000Y20320000D02*
X1524000Y10160000D01*
X40894000Y27940000D02*
X39624000Y27940000D01*
X44704000Y24130000D02*
X40894000Y27940000D01*
%TO.N,Net-(C2-Pad1)*%
X23114000Y49530000D02*
X20574000Y49530000D01*
X29464000Y43180000D02*
X23114000Y49530000D01*
X16764000Y49530000D02*
X15494000Y48260000D01*
X20574000Y49530000D02*
X16764000Y49530000D01*
%TO.N,+5V*%
X39624000Y43180000D02*
X38354000Y43180000D01*
X38354000Y43180000D02*
X34544000Y39370000D01*
X26798003Y29145001D02*
X14159001Y29145001D01*
X14159001Y29145001D02*
X10414000Y25400000D01*
X34544000Y36890998D02*
X26798003Y29145001D01*
X34544000Y39370000D02*
X34544000Y36890998D01*
X10414000Y25400000D02*
X10414000Y30480000D01*
X7874000Y33020000D02*
X5334000Y33020000D01*
X10414000Y30480000D02*
X7874000Y33020000D01*
%TO.N,BlackLightPower*%
X14224000Y43180000D02*
X5334000Y43180000D01*
X21844000Y43180000D02*
X21844000Y44450000D01*
X21844000Y44450000D02*
X19304000Y46990000D01*
X19304000Y46990000D02*
X18034000Y46990000D01*
X18034000Y46990000D02*
X14224000Y43180000D01*
%TO.N,FanControl*%
X44704000Y16510000D02*
X43434000Y16510000D01*
X40894000Y13970000D02*
X23114000Y13970000D01*
X43434000Y16510000D02*
X40894000Y13970000D01*
%TO.N,Buzzer*%
X5334000Y12700000D02*
X7874000Y12700000D01*
X7874000Y12700000D02*
X10414000Y10160000D01*
X40894000Y10160000D02*
X44704000Y13970000D01*
X10414000Y10160000D02*
X40894000Y10160000D01*
%TO.N,FanPower*%
X12954000Y25400000D02*
X12954000Y22860000D01*
X12954000Y22860000D02*
X5334000Y22860000D01*
%TO.N,Net-(Q1-Pad1)*%
X29464000Y38100000D02*
X24384000Y43180000D01*
%TO.N,Net-(R1-Pad2)*%
X12954000Y13970000D02*
X11684000Y13970000D01*
X10414000Y15240000D02*
X10414000Y17780000D01*
X11684000Y13970000D02*
X10414000Y15240000D01*
%TO.N,Net-(R2-Pad2)*%
X35814000Y25400000D02*
X30734000Y20320000D01*
X39624000Y25400000D02*
X35814000Y25400000D01*
%TO.N,Net-(R3-Pad1)*%
X39624000Y34290000D02*
X39624000Y38100000D01*
X30734000Y30480000D02*
X35814000Y30480000D01*
X29464000Y25400000D02*
X29464000Y29210000D01*
X35814000Y30480000D02*
X39624000Y34290000D01*
X29464000Y29210000D02*
X30734000Y30480000D01*
X32004000Y25400000D02*
X29464000Y25400000D01*
%TD*%
M02*
