%TF.GenerationSoftware,KiCad,Pcbnew,(5.1.8-0-10_14)*%
%TF.CreationDate,2021-03-30T15:30:47-04:00*%
%TF.ProjectId,TFT,5446542e-6b69-4636-9164-5f7063625858,rev?*%
%TF.SameCoordinates,PX989680PY32730a0*%
%TF.FileFunction,Copper,L1,Top*%
%TF.FilePolarity,Positive*%
%FSLAX46Y46*%
G04 Gerber Fmt 4.6, Leading zero omitted, Abs format (unit mm)*
G04 Created by KiCad (PCBNEW (5.1.8-0-10_14)) date 2021-03-30 15:30:47*
%MOMM*%
%LPD*%
G01*
G04 APERTURE LIST*
%TA.AperFunction,ComponentPad*%
%ADD10C,1.700000*%
%TD*%
%TA.AperFunction,ComponentPad*%
%ADD11O,1.700000X1.700000*%
%TD*%
%TA.AperFunction,ComponentPad*%
%ADD12R,1.700000X1.700000*%
%TD*%
%TA.AperFunction,Conductor*%
%ADD13C,1.250000*%
%TD*%
G04 APERTURE END LIST*
D10*
%TO.P,J2,16*%
%TO.N,T_CS*%
X16760000Y29480000D03*
%TO.P,J2,14*%
%TO.N,SLCK*%
X16760000Y26940000D03*
%TO.P,J2,12*%
%TO.N,MISO*%
X16760000Y24400000D03*
%TO.P,J2,10*%
%TO.N,MOSI*%
X16760000Y21860000D03*
%TO.P,J2,8*%
%TO.N,DC*%
X16760000Y19320000D03*
%TO.P,J2,6*%
%TO.N,RESET*%
X16760000Y16780000D03*
%TO.P,J2,4*%
%TO.N,CS*%
X16760000Y14240000D03*
%TO.P,J2,2*%
%TO.N,VCC*%
X16760000Y11700000D03*
%TO.P,J2,15*%
%TO.N,T_IRQ*%
X19300000Y29480000D03*
%TO.P,J2,13*%
%TO.N,SLCK*%
X19300000Y26940000D03*
%TO.P,J2,11*%
%TO.N,MISO*%
X19300000Y24400000D03*
%TO.P,J2,9*%
%TO.N,MOSI*%
X19300000Y21860000D03*
%TO.P,J2,7*%
%TO.N,Net-(J2-Pad7)*%
X19300000Y19320000D03*
%TO.P,J2,5*%
%TO.N,Net-(J2-Pad5)*%
X19300000Y16780000D03*
%TO.P,J2,3*%
%TO.N,GND*%
X19300000Y14240000D03*
%TO.P,J2,1*%
%TO.N,VCC*%
%TA.AperFunction,ComponentPad*%
G36*
G01*
X20150000Y12300000D02*
X20150000Y11100000D01*
G75*
G02*
X19900000Y10850000I-250000J0D01*
G01*
X18700000Y10850000D01*
G75*
G02*
X18450000Y11100000I0J250000D01*
G01*
X18450000Y12300000D01*
G75*
G02*
X18700000Y12550000I250000J0D01*
G01*
X19900000Y12550000D01*
G75*
G02*
X20150000Y12300000I0J-250000D01*
G01*
G37*
%TD.AperFunction*%
%TD*%
D11*
%TO.P,J1,14*%
%TO.N,VCC*%
X5700000Y4580000D03*
%TO.P,J1,13*%
%TO.N,GND*%
X5700000Y7120000D03*
%TO.P,J1,12*%
%TO.N,CS*%
X5700000Y9660000D03*
%TO.P,J1,11*%
%TO.N,RESET*%
X5700000Y12200000D03*
%TO.P,J1,10*%
%TO.N,DC*%
X5700000Y14740000D03*
%TO.P,J1,9*%
%TO.N,MOSI*%
X5700000Y17280000D03*
%TO.P,J1,8*%
%TO.N,SLCK*%
X5700000Y19820000D03*
%TO.P,J1,7*%
%TO.N,VCC*%
X5700000Y22360000D03*
%TO.P,J1,6*%
%TO.N,MISO*%
X5700000Y24900000D03*
%TO.P,J1,5*%
%TO.N,SLCK*%
X5700000Y27440000D03*
%TO.P,J1,4*%
%TO.N,T_CS*%
X5700000Y29980000D03*
%TO.P,J1,3*%
%TO.N,MOSI*%
X5700000Y32520000D03*
%TO.P,J1,2*%
%TO.N,MISO*%
X5700000Y35060000D03*
D12*
%TO.P,J1,1*%
%TO.N,T_IRQ*%
X5700000Y37600000D03*
%TD*%
D13*
%TO.N,VCC*%
X5700000Y4580000D02*
X7180000Y4580000D01*
X7180000Y4580000D02*
X8200000Y5600000D01*
X8200000Y19860000D02*
X5700000Y22360000D01*
X8200000Y5600000D02*
X8200000Y19860000D01*
%TD*%
M02*
