M48
; DRILL file {KiCad (5.1.8-0-10_14)} date Tuesday, March 30, 2021 at 03:30:53 PM
; FORMAT={-:-/ absolute / metric / decimal}
; #@! TF.CreationDate,2021-03-30T15:30:53-04:00
; #@! TF.GenerationSoftware,Kicad,Pcbnew,(5.1.8-0-10_14)
FMAT,2
METRIC
T1C1.000
%
G90
G05
T1
X16.76Y29.48
X16.76Y26.94
X16.76Y24.4
X16.76Y21.86
X16.76Y19.32
X16.76Y16.78
X16.76Y14.24
X16.76Y11.7
X19.3Y29.48
X19.3Y26.94
X19.3Y24.4
X19.3Y21.86
X19.3Y19.32
X19.3Y16.78
X19.3Y14.24
X19.3Y11.7
X5.7Y37.6
X5.7Y35.06
X5.7Y32.52
X5.7Y29.98
X5.7Y27.44
X5.7Y24.9
X5.7Y22.36
X5.7Y19.82
X5.7Y17.28
X5.7Y14.74
X5.7Y12.2
X5.7Y9.66
X5.7Y7.12
X5.7Y4.58
T0
M30
